<?xml version="1.0" standalone="no"?>
<!DOCTYPE svg PUBLIC "-//W3C//DTD SVG 1.1//EN" "http://www.w3.org/Graphics/SVG/1.1/DTD/svg11.dtd" >
<svg xmlns="http://www.w3.org/2000/svg" xmlns:xlink="http://www.w3.org/1999/xlink" version="1.1">
<metadata>
Created by FontForge 20190801 at Tue Apr 17 03:24:24 2018
 By Jimmy Wärting
Copyright \(c\) 2018 by Colophon Foundry. All rights reserved.
</metadata>
<defs>
<font id="MabryPro-Regular" horiz-adv-x="0" >
  <font-face 
    font-family="Mabry Pro"
    font-weight="400"
    font-stretch="normal"
    units-per-em="1000"
    panose-1="2 13 5 3 4 0 2 4 3 3"
    ascent="792"
    descent="-208"
    x-height="474"
    cap-height="700"
    bbox="-801 -258 1727 1056"
    underline-thickness="62"
    underline-position="-160"
    unicode-range="U+000D-1F610"
  />
<missing-glyph horiz-adv-x="590" 
d="M45 0v700h500v-700h-500zM295 416l135 219h-270zM110 585v-470l144 235zM480 115v470l-145 -235zM160 65h270l-135 219z" />
    <glyph glyph-name="f_f" unicode="ff" horiz-adv-x="630" 
d="M117 0v401h-106v73h106v72c0 99 62 164 166 164c55 0 102 -21 123 -54c23 35 63 54 115 54c104 0 157 -57 157 -140c0 -9 0 -16 -1 -22h-81c1 5 1 11 1 18c0 45 -29 71 -76 71c-50 0 -75 -31 -75 -93v-70h134v-73h-134v-401h-86v401h-156v-401h-87zM204 474h156v84
c0 53 -29 79 -76 79c-51 0 -80 -34 -80 -94v-69z" />
    <glyph glyph-name="f_f_i" unicode="ffi" horiz-adv-x="751" 
d="M117 0v401h-106v73h106v72c0 99 62 164 166 164c53 0 100 -18 123 -54c23 33 63 54 115 54c104 0 157 -57 157 -140c0 -9 0 -16 -1 -22h-81l1 18c0 45 -29 71 -76 71c-50 0 -75 -31 -75 -93v-70h243v-474h-87v401h-156v-401h-86v401h-156v-401h-87zM204 474h156v84
c0 53 -29 79 -76 79c-51 0 -80 -34 -80 -94v-69z" />
    <glyph glyph-name="f_f_l" unicode="ffl" horiz-adv-x="756" 
d="M117 0v401h-106v73h106v72c0 99 62 164 166 164c53 0 98 -18 122 -54c23 35 66 54 119 54c108 0 165 -62 165 -157v-553h-87v550c0 55 -26 87 -78 87c-51 0 -78 -32 -78 -87v-76h102v-73h-102v-401h-86v401h-156v-401h-87zM204 474h156v84c0 53 -29 79 -76 79
c-51 0 -80 -34 -80 -94v-69z" />
    <glyph glyph-name="fi" unicode="fi" horiz-adv-x="507" 
d="M446 474v-474h-87v401h-156v-401h-86v401h-106v73h106v72c0 99 58 164 161 164c104 0 157 -57 157 -140c0 -9 0 -16 -1 -22h-81l1 18c0 45 -29 71 -76 71c-50 0 -75 -31 -75 -93v-70h243z" />
    <glyph glyph-name="fl" unicode="fl" horiz-adv-x="513" 
d="M117 0v401h-106v73h106v79c0 95 57 157 165 157c107 0 164 -62 164 -157v-553h-86v550c0 55 -27 87 -78 87c-52 0 -78 -32 -78 -87v-76h101v-73h-101v-401h-87z" />
    <glyph glyph-name=".notdef" horiz-adv-x="590" 
d="M45 0v700h500v-700h-500zM295 416l135 219h-270zM110 585v-470l144 235zM480 115v470l-145 -235zM160 65h270l-135 219z" />
    <glyph glyph-name="CR" unicode="&#xd;" horiz-adv-x="245" 
 />
    <glyph glyph-name="space" unicode=" " horiz-adv-x="245" 
 />
    <glyph glyph-name="A" unicode="A" horiz-adv-x="739" 
d="M13 0l293 700h128l293 -700h-102l-72 178h-366l-73 -178h-101zM220 262h299l-149 365z" />
    <glyph glyph-name="Aacute" unicode="&#xc1;" horiz-adv-x="739" 
d="M13 0l293 700h128l293 -700h-102l-72 178h-366l-73 -178h-101zM220 262h299l-149 365zM329 781l87 133h117v-14l-121 -119h-83z" />
    <glyph glyph-name="Abreve" unicode="&#x102;" horiz-adv-x="739" 
d="M13 0l293 700h128l293 -700h-102l-72 178h-366l-73 -178h-101zM220 262h299l-149 365zM492 889c0 -71 -53 -109 -122 -109s-122 38 -122 109c0 6 0 11 1 14h68l-1 -11c0 -29 21 -50 54 -50s54 21 54 50l-1 11h68c1 -3 1 -8 1 -14z" />
    <glyph glyph-name="Acircumflex" unicode="&#xc2;" horiz-adv-x="739" 
d="M13 0l293 700h128l293 -700h-102l-72 178h-366l-73 -178h-101zM220 262h299l-149 365zM218 781v14l121 106h62l121 -106v-14h-95l-57 69l-57 -69h-95z" />
    <glyph glyph-name="Adieresis" unicode="&#xc4;" horiz-adv-x="739" 
d="M13 0l293 700h128l293 -700h-102l-72 178h-366l-73 -178h-101zM220 262h299l-149 365zM238 793v99h97v-99h-97zM405 793v99h97v-99h-97z" />
    <glyph glyph-name="Agrave" unicode="&#xc0;" horiz-adv-x="739" 
d="M13 0l293 700h128l293 -700h-102l-72 178h-366l-73 -178h-101zM220 262h299l-149 365zM329 781l-121 119v14h117l87 -133h-83z" />
    <glyph glyph-name="Amacron" unicode="&#x100;" horiz-adv-x="739" 
d="M13 0l293 700h128l293 -700h-102l-72 178h-366l-73 -178h-101zM220 262h299l-149 365zM243 876h254v-69h-254v69z" />
    <glyph glyph-name="Aogonek" unicode="&#x104;" horiz-adv-x="739" 
d="M13 0l293 700h128l293 -700h-102l-72 178h-366l-73 -178h-101zM220 262h299l-149 365zM688 -188c-53 0 -88 36 -88 83c0 39 21 77 68 105h59c-40 -25 -61 -50 -61 -79c0 -23 17 -38 41 -38c11 0 23 4 34 11l27 -61c-28 -15 -48 -21 -80 -21z" />
    <glyph glyph-name="Aring" unicode="&#xc5;" horiz-adv-x="739" 
d="M13 0l293 700h128l293 -700h-102l-72 178h-366l-73 -178h-101zM220 262h299l-149 365zM282 853c0 49 39 89 88 89s89 -40 89 -89s-40 -88 -89 -88s-88 39 -88 88zM409 853c0 21 -18 39 -39 39s-39 -18 -39 -39s18 -39 39 -39s39 18 39 39z" />
    <glyph glyph-name="Aringacute" unicode="&#x1fa;" horiz-adv-x="739" 
d="M13 0l293 700h128l293 -700h-102l-72 178h-366l-73 -178h-101zM220 262h299l-149 365zM282 853c0 49 39 89 88 89s89 -40 89 -89s-40 -88 -89 -88s-88 39 -88 88zM409 853c0 21 -18 39 -39 39s-39 -18 -39 -39s18 -39 39 -39s39 18 39 39zM328 923l87 133h117v-14
l-121 -119h-83z" />
    <glyph glyph-name="Atilde" unicode="&#xc3;" horiz-adv-x="739" 
d="M13 0l293 700h128l293 -700h-102l-72 178h-366l-73 -178h-101zM220 262h299l-149 365zM355 815c-16 15 -26 21 -43 21c-19 0 -34 -13 -34 -34c0 -5 1 -11 3 -16l-63 8c-1 4 -2 9 -2 16c0 52 40 89 92 89c37 0 54 -11 77 -31c16 -15 26 -21 43 -21c19 0 34 13 34 34
c0 6 -1 11 -3 16l64 -8c1 -4 2 -9 2 -16c0 -52 -41 -89 -93 -89c-37 0 -54 11 -77 31z" />
    <glyph glyph-name="AE" unicode="&#xc6;" horiz-adv-x="947" 
d="M524 87h369v-87h-461v178h-225l-92 -178h-102l363 700h507v-87h-359v-207h329v-87h-329v-232zM432 262v352l-182 -352h182z" />
    <glyph glyph-name="AEacute" unicode="&#x1fc;" horiz-adv-x="947" 
d="M524 87h369v-87h-461v178h-225l-92 -178h-102l363 700h507v-87h-359v-207h329v-87h-329v-232zM432 262v352l-182 -352h182zM585 781l87 133h117v-14l-121 -119h-83z" />
    <glyph glyph-name="B" unicode="B" horiz-adv-x="688" 
d="M76 0v700h317c133 0 222 -80 222 -182c0 -69 -41 -128 -105 -157c81 -27 130 -84 130 -172c0 -108 -98 -189 -226 -189h-338zM168 401h229c79 0 127 40 127 108c0 65 -56 104 -127 104h-229v-212zM168 87h243c77 0 133 45 133 114c0 68 -54 118 -133 118h-243v-232z" />
    <glyph glyph-name="C" unicode="C" horiz-adv-x="777" 
d="M141 350c0 -174 106 -276 254 -276c77 0 137 20 180 61s72 96 87 163l81 -33c-36 -159 -159 -275 -348 -275c-210 -2 -353 156 -350 360c-3 201 153 364 350 360c85 0 154 -22 205 -66c52 -44 87 -100 105 -167l-84 -38c-24 112 -103 187 -226 187
c-143 0 -254 -108 -254 -276z" />
    <glyph glyph-name="Cacute" unicode="&#x106;" horiz-adv-x="777" 
d="M141 350c0 -174 106 -276 254 -276c77 0 137 20 180 61s72 96 87 163l81 -33c-36 -159 -159 -275 -348 -275c-210 -2 -353 156 -350 360c-3 201 153 364 350 360c85 0 154 -22 205 -66c52 -44 87 -100 105 -167l-84 -38c-24 112 -103 187 -226 187
c-143 0 -254 -108 -254 -276zM349 781l87 133h117v-14l-121 -119h-83z" />
    <glyph glyph-name="Ccaron" unicode="&#x10c;" horiz-adv-x="777" 
d="M141 350c0 -174 106 -276 254 -276c77 0 137 20 180 61s72 96 87 163l81 -33c-36 -159 -159 -275 -348 -275c-210 -2 -353 156 -350 360c-3 201 153 364 350 360c85 0 154 -22 205 -66c52 -44 87 -100 105 -167l-84 -38c-24 112 -103 187 -226 187
c-143 0 -254 -108 -254 -276zM359 781l-121 106v14h95l57 -69l57 69h95v-14l-121 -106h-62z" />
    <glyph glyph-name="Ccedilla" unicode="&#xc7;" horiz-adv-x="777" 
d="M141 350c0 -174 106 -276 254 -276c77 0 137 20 180 61s72 96 87 163l81 -33c-36 -159 -159 -275 -348 -275c-210 -2 -353 156 -350 360c-3 201 153 364 350 360c85 0 154 -22 205 -66c52 -44 87 -100 105 -167l-84 -38c-24 112 -103 187 -226 187
c-143 0 -254 -108 -254 -276zM364 -53c12 13 33 23 50 23c45 0 77 -29 77 -77c0 -51 -35 -81 -84 -81c-45 0 -81 23 -89 67l47 12c3 -20 19 -34 40 -34c25 0 40 15 40 36s-15 37 -40 37c-16 0 -31 -9 -38 -21l-47 9c7 24 14 57 21 98h51c-10 -31 -19 -54 -28 -69z" />
    <glyph glyph-name="Ccircumflex" unicode="&#x108;" horiz-adv-x="777" 
d="M141 350c0 -174 106 -276 254 -276c77 0 137 20 180 61s72 96 87 163l81 -33c-36 -159 -159 -275 -348 -275c-210 -2 -353 156 -350 360c-3 201 153 364 350 360c85 0 154 -22 205 -66c52 -44 87 -100 105 -167l-84 -38c-24 112 -103 187 -226 187
c-143 0 -254 -108 -254 -276zM238 781v14l121 106h62l121 -106v-14h-95l-57 69l-57 -69h-95z" />
    <glyph glyph-name="Cdotaccent" unicode="&#x10a;" horiz-adv-x="777" 
d="M141 350c0 -174 106 -276 254 -276c77 0 137 20 180 61s72 96 87 163l81 -33c-36 -159 -159 -275 -348 -275c-210 -2 -353 156 -350 360c-3 201 153 364 350 360c85 0 154 -22 205 -66c52 -44 87 -100 105 -167l-84 -38c-24 112 -103 187 -226 187
c-143 0 -254 -108 -254 -276zM342 893h96v-100h-96v100z" />
    <glyph glyph-name="D" unicode="D" horiz-adv-x="726" 
d="M76 0v700h260c222 0 346 -146 346 -353c0 -200 -127 -347 -346 -347h-260zM168 616v-532h168c163 0 254 111 254 263c0 164 -91 269 -254 269h-168z" />
    <glyph glyph-name="Eth" unicode="&#xd0;" horiz-adv-x="726" 
d="M76 0v700h260c222 0 346 -146 346 -353c0 -200 -127 -347 -346 -347h-260zM168 616v-532h168c163 0 254 111 254 263c0 164 -91 269 -254 269h-168zM-5 387h376v-75h-376v75z" />
    <glyph glyph-name="Dcaron" unicode="&#x10e;" horiz-adv-x="726" 
d="M76 0v700h260c222 0 346 -146 346 -353c0 -200 -127 -347 -346 -347h-260zM168 616v-532h168c163 0 254 111 254 263c0 164 -91 269 -254 269h-168zM256 781l-121 106v14h95l57 -69l57 69h95v-14l-121 -106h-62z" />
    <glyph glyph-name="Dcroat" unicode="&#x110;" horiz-adv-x="726" 
d="M76 0v700h260c222 0 346 -146 346 -353c0 -200 -127 -347 -346 -347h-260zM168 616v-532h168c163 0 254 111 254 263c0 164 -91 269 -254 269h-168zM-5 387h376v-75h-376v75z" />
    <glyph glyph-name="E" unicode="E" horiz-adv-x="633" 
d="M76 700h493v-87h-401v-207h371v-87h-371v-232h411v-87h-503v700z" />
    <glyph glyph-name="Eacute" unicode="&#xc9;" horiz-adv-x="633" 
d="M76 700h493v-87h-401v-207h371v-87h-371v-232h411v-87h-503v700zM281 781l87 133h117v-14l-121 -119h-83z" />
    <glyph glyph-name="Ebreve" unicode="&#x114;" horiz-adv-x="633" 
d="M76 700h493v-87h-401v-207h371v-87h-371v-232h411v-87h-503v700zM444 889c0 -71 -53 -109 -122 -109s-122 38 -122 109c0 6 0 11 1 14h68l-1 -11c0 -29 21 -50 54 -50s54 21 54 50l-1 11h68c1 -3 1 -8 1 -14z" />
    <glyph glyph-name="Ecaron" unicode="&#x11a;" horiz-adv-x="633" 
d="M76 700h493v-87h-401v-207h371v-87h-371v-232h411v-87h-503v700zM291 781l-121 106v14h95l57 -69l57 69h95v-14l-121 -106h-62z" />
    <glyph glyph-name="Ecircumflex" unicode="&#xca;" horiz-adv-x="633" 
d="M76 700h493v-87h-401v-207h371v-87h-371v-232h411v-87h-503v700zM170 781v14l121 106h62l121 -106v-14h-95l-57 69l-57 -69h-95z" />
    <glyph glyph-name="Edieresis" unicode="&#xcb;" horiz-adv-x="633" 
d="M76 700h493v-87h-401v-207h371v-87h-371v-232h411v-87h-503v700zM189 793v99h97v-99h-97zM356 793v99h97v-99h-97z" />
    <glyph glyph-name="Edotaccent" unicode="&#x116;" horiz-adv-x="633" 
d="M76 700h493v-87h-401v-207h371v-87h-371v-232h411v-87h-503v700zM274 893h96v-100h-96v100z" />
    <glyph glyph-name="Egrave" unicode="&#xc8;" horiz-adv-x="633" 
d="M76 700h493v-87h-401v-207h371v-87h-371v-232h411v-87h-503v700zM281 781l-121 119v14h117l87 -133h-83z" />
    <glyph glyph-name="Emacron" unicode="&#x112;" horiz-adv-x="633" 
d="M76 700h493v-87h-401v-207h371v-87h-371v-232h411v-87h-503v700zM195 876h254v-69h-254v69z" />
    <glyph glyph-name="Eogonek" unicode="&#x118;" horiz-adv-x="633" 
d="M76 700h493v-87h-401v-207h371v-87h-371v-232h411v-87h-503v700zM540 -188c-53 0 -88 36 -88 83c0 39 21 77 68 105h59c-40 -25 -61 -50 -61 -79c0 -23 17 -38 41 -38c11 0 23 4 34 11l27 -61c-28 -15 -48 -21 -80 -21z" />
    <glyph glyph-name="F" unicode="F" horiz-adv-x="616" 
d="M76 700h489v-87h-397v-228h367v-87h-367v-298h-92v700z" />
    <glyph glyph-name="G" unicode="G" horiz-adv-x="788" 
d="M388 -10c-195 -3 -346 153 -343 360c-3 201 153 364 348 360c181 0 296 -93 332 -241l-90 -30c-30 123 -110 184 -241 184c-139 0 -253 -110 -253 -273c0 -161 103 -273 258 -273c133 0 208 111 220 199h-317v86h429v-362h-79v157c-55 -109 -137 -167 -264 -167z" />
    <glyph glyph-name="Gbreve" unicode="&#x11e;" horiz-adv-x="788" 
d="M388 -10c-195 -3 -346 153 -343 360c-3 201 153 364 348 360c181 0 296 -93 332 -241l-90 -30c-30 123 -110 184 -241 184c-139 0 -253 -110 -253 -273c0 -161 103 -273 258 -273c133 0 208 111 220 199h-317v86h429v-362h-79v157c-55 -109 -137 -167 -264 -167zM514 889
c0 -71 -53 -109 -122 -109s-122 38 -122 109c0 6 0 11 1 14h68l-1 -11c0 -29 21 -50 54 -50s54 21 54 50l-1 11h68c1 -3 1 -8 1 -14z" />
    <glyph glyph-name="Gcircumflex" unicode="&#x11c;" horiz-adv-x="788" 
d="M388 -10c-195 -3 -346 153 -343 360c-3 201 153 364 348 360c181 0 296 -93 332 -241l-90 -30c-30 123 -110 184 -241 184c-139 0 -253 -110 -253 -273c0 -161 103 -273 258 -273c133 0 208 111 220 199h-317v86h429v-362h-79v157c-55 -109 -137 -167 -264 -167zM240 781
v14l121 106h62l121 -106v-14h-95l-57 69l-57 -69h-95z" />
    <glyph glyph-name="Gcommaaccent" unicode="&#x122;" horiz-adv-x="788" 
d="M388 -10c-195 -3 -346 153 -343 360c-3 201 153 364 348 360c181 0 296 -93 332 -241l-90 -30c-30 123 -110 184 -241 184c-139 0 -253 -110 -253 -273c0 -161 103 -273 258 -273c133 0 208 111 220 199h-317v86h429v-362h-79v157c-55 -109 -137 -167 -264 -167z
M314 -248l10 47c13 -5 27 -8 40 -8c21 0 35 11 35 32c0 20 -14 30 -37 30h-18v95h104v-121c0 -60 -33 -84 -84 -84c-17 0 -33 3 -50 9z" />
    <glyph glyph-name="Gdotaccent" unicode="&#x120;" horiz-adv-x="788" 
d="M388 -10c-195 -3 -346 153 -343 360c-3 201 153 364 348 360c181 0 296 -93 332 -241l-90 -30c-30 123 -110 184 -241 184c-139 0 -253 -110 -253 -273c0 -161 103 -273 258 -273c133 0 208 111 220 199h-317v86h429v-362h-79v157c-55 -109 -137 -167 -264 -167zM344 893
h96v-100h-96v100z" />
    <glyph glyph-name="H" unicode="H" horiz-adv-x="737" 
d="M569 303h-401v-303h-92v700h92v-313h401v313h92v-700h-92v303z" />
    <glyph glyph-name="Hbar" unicode="&#x126;" horiz-adv-x="737" 
d="M569 303h-401v-303h-92v700h92v-313h401v313h92v-700h-92v303zM-2 508v78h741v-78h-741z" />
    <glyph glyph-name="Hcircumflex" unicode="&#x124;" horiz-adv-x="737" 
d="M569 303h-401v-303h-92v700h92v-313h401v313h92v-700h-92v303zM216 781v14l121 106h62l121 -106v-14h-95l-57 69l-57 -69h-95z" />
    <glyph glyph-name="I" unicode="I" horiz-adv-x="243" 
d="M76 0v700h92v-700h-92z" />
    <glyph glyph-name="IJ" unicode="&#x132;" horiz-adv-x="841" 
d="M76 0v700h92v-700h-92zM680 700h92v-466c0 -129 -69 -244 -236 -244c-151 0 -243 97 -243 232c0 46 9 86 28 121l87 -33c-15 -27 -23 -58 -23 -93c0 -83 60 -140 151 -140c96 0 144 61 144 174v449z" />
    <glyph glyph-name="Iacute" unicode="&#xcd;" horiz-adv-x="243" 
d="M76 0v700h92v-700h-92zM81 781l87 133h117v-14l-121 -119h-83z" />
    <glyph glyph-name="Ibreve" unicode="&#x12c;" horiz-adv-x="243" 
d="M76 0v700h92v-700h-92zM244 889c0 -71 -53 -109 -122 -109s-122 38 -122 109c0 6 0 11 1 14h68l-1 -11c0 -29 21 -50 54 -50s54 21 54 50l-1 11h68c1 -3 1 -8 1 -14z" />
    <glyph glyph-name="Icircumflex" unicode="&#xce;" horiz-adv-x="243" 
d="M76 0v700h92v-700h-92zM-30 781v14l121 106h62l121 -106v-14h-95l-57 69l-57 -69h-95z" />
    <glyph glyph-name="Idieresis" unicode="&#xcf;" horiz-adv-x="243" 
d="M76 0v700h92v-700h-92zM-11 793v99h97v-99h-97zM156 793v99h97v-99h-97z" />
    <glyph glyph-name="Idot" unicode="&#x130;" horiz-adv-x="243" 
d="M76 0v700h92v-700h-92zM74 893h96v-100h-96v100z" />
    <glyph glyph-name="Igrave" unicode="&#xcc;" horiz-adv-x="243" 
d="M76 0v700h92v-700h-92zM81 781l-121 119v14h117l87 -133h-83z" />
    <glyph glyph-name="Imacron" unicode="&#x12a;" horiz-adv-x="243" 
d="M76 0v700h92v-700h-92zM-5 876h254v-69h-254v69z" />
    <glyph glyph-name="Iogonek" unicode="&#x12e;" horiz-adv-x="243" 
d="M76 0v700h92v-700h-92zM129 -188c-53 0 -88 36 -88 83c0 39 21 77 68 105h59c-40 -25 -61 -50 -61 -79c0 -23 17 -38 41 -38c11 0 23 4 34 11l27 -61c-28 -15 -48 -21 -80 -21z" />
    <glyph glyph-name="Itilde" unicode="&#x128;" horiz-adv-x="243" 
d="M76 0v700h92v-700h-92zM107 815c-16 15 -26 21 -43 21c-19 0 -34 -13 -34 -34c0 -5 1 -11 3 -16l-63 8c-1 4 -2 9 -2 16c0 52 40 89 92 89c37 0 54 -11 77 -31c16 -15 26 -21 43 -21c19 0 34 13 34 34c0 6 -1 11 -3 16l64 -8c1 -4 2 -9 2 -16c0 -52 -41 -89 -93 -89
c-37 0 -54 11 -77 31z" />
    <glyph glyph-name="J" unicode="J" horiz-adv-x="598" 
d="M437 700h92v-466c0 -129 -69 -244 -236 -244c-151 0 -243 97 -243 232c0 46 9 86 28 121l87 -33c-15 -27 -23 -58 -23 -93c0 -83 60 -140 151 -140c96 0 144 61 144 174v449z" />
    <glyph glyph-name="Jcircumflex" unicode="&#x134;" horiz-adv-x="598" 
d="M437 700h92v-466c0 -129 -69 -244 -236 -244c-151 0 -243 97 -243 232c0 46 9 86 28 121l87 -33c-15 -27 -23 -58 -23 -93c0 -83 60 -140 151 -140c96 0 144 61 144 174v449zM331 781v14l121 106h62l121 -106v-14h-95l-57 69l-57 -69h-95z" />
    <glyph glyph-name="K" unicode="K" horiz-adv-x="672" 
d="M378 426l270 -426h-110l-223 358l-147 -156v-202h-92v700h92v-374l348 374h119z" />
    <glyph glyph-name="Kcommaaccent" unicode="&#x136;" horiz-adv-x="672" 
d="M378 426l270 -426h-110l-223 358l-147 -156v-202h-92v700h92v-374l348 374h119zM271 -248l10 47c13 -5 27 -8 40 -8c21 0 35 11 35 32c0 20 -14 30 -37 30h-18v95h104v-121c0 -60 -33 -84 -84 -84c-17 0 -33 3 -50 9z" />
    <glyph glyph-name="L" unicode="L" horiz-adv-x="638" 
d="M76 700h92v-613h428v-87h-520v700z" />
    <glyph glyph-name="Lacute" unicode="&#x139;" horiz-adv-x="638" 
d="M76 700h92v-613h428v-87h-520v700zM81 781l87 133h117v-14l-121 -119h-83z" />
    <glyph glyph-name="Lcaron" unicode="&#x13d;" horiz-adv-x="638" 
d="M76 700h92v-613h428v-87h-520v700zM480 491v52h25c26 0 39 10 39 30c0 19 -13 30 -34 30h-18v97h104v-122c0 -60 -38 -87 -93 -87h-23z" />
    <glyph glyph-name="Lcommaaccent" unicode="&#x13b;" horiz-adv-x="638" 
d="M76 700h92v-613h428v-87h-520v700zM244 -248l10 47c13 -5 27 -8 40 -8c21 0 35 11 35 32c0 20 -14 30 -37 30h-18v95h104v-121c0 -60 -33 -84 -84 -84c-17 0 -33 3 -50 9z" />
    <glyph glyph-name="Ldot" unicode="&#x13f;" horiz-adv-x="600" 
d="M76 700h92v-613h428v-87h-520v700zM386 403h104v-105h-104v105z" />
    <glyph glyph-name="Lslash" unicode="&#x141;" horiz-adv-x="638" 
d="M76 700h92v-613h428v-87h-520v700zM18 255l-34 67l291 152l35 -68z" />
    <glyph glyph-name="M" unicode="M" horiz-adv-x="942" 
d="M867 0h-92v651l-234 -651h-140l-233 651v-651h-92v700h170l225 -631l225 631h171v-700z" />
    <glyph glyph-name="N" unicode="N" horiz-adv-x="766" 
d="M168 636v-636h-92v700h158l364 -636v636h92v-700h-159z" />
    <glyph glyph-name="Nacute" unicode="&#x143;" horiz-adv-x="766" 
d="M168 636v-636h-92v700h158l364 -636v636h92v-700h-159zM342 781l87 133h117v-14l-121 -119h-83z" />
    <glyph glyph-name="Ncaron" unicode="&#x147;" horiz-adv-x="766" 
d="M168 636v-636h-92v700h158l364 -636v636h92v-700h-159zM352 781l-121 106v14h95l57 -69l57 69h95v-14l-121 -106h-62z" />
    <glyph glyph-name="Ncommaaccent" unicode="&#x145;" horiz-adv-x="766" 
d="M168 636v-636h-92v700h158l364 -636v636h92v-700h-159zM301 -248l10 47c13 -5 27 -8 40 -8c21 0 35 11 35 32c0 20 -14 30 -37 30h-18v95h104v-121c0 -60 -33 -84 -84 -84c-17 0 -33 3 -50 9z" />
    <glyph glyph-name="Eng" unicode="&#x14a;" horiz-adv-x="766" 
d="M317 -72l83 34c15 -56 51 -86 107 -86c59 0 91 36 91 104v20h-67l-363 636v-636h-92v700h158l364 -636v636h92v-704c0 -129 -64 -204 -180 -204c-100 0 -170 52 -193 136z" />
    <glyph glyph-name="Ntilde" unicode="&#xd1;" horiz-adv-x="766" 
d="M168 636v-636h-92v700h158l364 -636v636h92v-700h-159zM368 815c-16 15 -26 21 -43 21c-19 0 -34 -13 -34 -34c0 -5 1 -11 3 -16l-63 8c-1 4 -2 9 -2 16c0 52 40 89 92 89c37 0 54 -11 77 -31c16 -15 26 -21 43 -21c19 0 34 13 34 34c0 6 -1 11 -3 16l64 -8
c1 -4 2 -9 2 -16c0 -52 -41 -89 -93 -89c-37 0 -54 11 -77 31z" />
    <glyph glyph-name="O" unicode="O" horiz-adv-x="812" 
d="M406 710c202 4 365 -164 362 -360c3 -197 -160 -364 -362 -360c-203 -4 -364 163 -361 360c-3 196 158 364 361 360zM406 77c149 0 265 110 265 273s-114 273 -265 273s-265 -110 -265 -274s116 -272 265 -272z" />
    <glyph glyph-name="Oacute" unicode="&#xd3;" horiz-adv-x="812" 
d="M406 710c202 4 365 -164 362 -360c3 -197 -160 -364 -362 -360c-203 -4 -364 163 -361 360c-3 196 158 364 361 360zM406 77c149 0 265 110 265 273s-114 273 -265 273s-265 -110 -265 -274s116 -272 265 -272zM365 781l87 133h117v-14l-121 -119h-83z" />
    <glyph glyph-name="Obreve" unicode="&#x14e;" horiz-adv-x="812" 
d="M406 710c202 4 365 -164 362 -360c3 -197 -160 -364 -362 -360c-203 -4 -364 163 -361 360c-3 196 158 364 361 360zM406 77c149 0 265 110 265 273s-114 273 -265 273s-265 -110 -265 -274s116 -272 265 -272zM528 889c0 -71 -53 -109 -122 -109s-122 38 -122 109
c0 6 0 11 1 14h68l-1 -11c0 -29 21 -50 54 -50s54 21 54 50l-1 11h68c1 -3 1 -8 1 -14z" />
    <glyph glyph-name="Ocircumflex" unicode="&#xd4;" horiz-adv-x="812" 
d="M406 710c202 4 365 -164 362 -360c3 -197 -160 -364 -362 -360c-203 -4 -364 163 -361 360c-3 196 158 364 361 360zM406 77c149 0 265 110 265 273s-114 273 -265 273s-265 -110 -265 -274s116 -272 265 -272zM254 781v14l121 106h62l121 -106v-14h-95l-57 69l-57 -69
h-95z" />
    <glyph glyph-name="Odieresis" unicode="&#xd6;" horiz-adv-x="812" 
d="M406 710c202 4 365 -164 362 -360c3 -197 -160 -364 -362 -360c-203 -4 -364 163 -361 360c-3 196 158 364 361 360zM406 77c149 0 265 110 265 273s-114 273 -265 273s-265 -110 -265 -274s116 -272 265 -272zM274 793v99h97v-99h-97zM441 793v99h97v-99h-97z" />
    <glyph glyph-name="Ograve" unicode="&#xd2;" horiz-adv-x="812" 
d="M406 710c202 4 365 -164 362 -360c3 -197 -160 -364 -362 -360c-203 -4 -364 163 -361 360c-3 196 158 364 361 360zM406 77c149 0 265 110 265 273s-114 273 -265 273s-265 -110 -265 -274s116 -272 265 -272zM365 781l-121 119v14h117l87 -133h-83z" />
    <glyph glyph-name="Ohungarumlaut" unicode="&#x150;" horiz-adv-x="812" 
d="M406 710c202 4 365 -164 362 -360c3 -197 -160 -364 -362 -360c-203 -4 -364 163 -361 360c-3 196 158 364 361 360zM406 77c149 0 265 110 265 273s-114 273 -265 273s-265 -110 -265 -274s116 -272 265 -272zM275 781l87 133h117v-14l-121 -119h-83zM454 781l87 133
h117v-14l-121 -119h-83z" />
    <glyph glyph-name="Omacron" unicode="&#x14c;" horiz-adv-x="812" 
d="M406 710c202 4 365 -164 362 -360c3 -197 -160 -364 -362 -360c-203 -4 -364 163 -361 360c-3 196 158 364 361 360zM406 77c149 0 265 110 265 273s-114 273 -265 273s-265 -110 -265 -274s116 -272 265 -272zM279 876h254v-69h-254v69z" />
    <glyph glyph-name="Oslash" unicode="&#xd8;" horiz-adv-x="812" 
d="M406 710c202 4 365 -164 362 -360c3 -197 -160 -364 -362 -360c-203 -4 -364 163 -361 360c-3 196 158 364 361 360zM406 77c149 0 265 110 265 273s-114 273 -265 273s-265 -110 -265 -274s116 -272 265 -272zM181 -27l-64 47l514 707l64 -47z" />
    <glyph glyph-name="Otilde" unicode="&#xd5;" horiz-adv-x="812" 
d="M406 710c202 4 365 -164 362 -360c3 -197 -160 -364 -362 -360c-203 -4 -364 163 -361 360c-3 196 158 364 361 360zM406 77c149 0 265 110 265 273s-114 273 -265 273s-265 -110 -265 -274s116 -272 265 -272zM391 815c-16 15 -26 21 -43 21c-19 0 -34 -13 -34 -34
c0 -5 1 -11 3 -16l-63 8c-1 4 -2 9 -2 16c0 52 40 89 92 89c37 0 54 -11 77 -31c16 -15 26 -21 43 -21c19 0 34 13 34 34c0 6 -1 11 -3 16l64 -8c1 -4 2 -9 2 -16c0 -52 -41 -89 -93 -89c-37 0 -54 11 -77 31z" />
    <glyph glyph-name="OE" unicode="&#x152;" horiz-adv-x="1230" 
d="M45 350c-3 196 158 364 361 360c112 0 207 -47 267 -128v118h493v-87h-401v-207h371v-87h-371v-232h411v-87h-503v119c-66 -86 -155 -129 -267 -129c-203 -4 -364 163 -361 360zM671 350c0 163 -114 273 -265 273s-265 -110 -265 -274s116 -272 265 -272
c151 0 265 110 265 273z" />
    <glyph glyph-name="P" unicode="P" horiz-adv-x="658" 
d="M168 288v-288h-92v700h309c145 0 227 -92 227 -206c0 -111 -86 -206 -227 -206h-217zM168 375h209c83 0 138 43 138 119s-55 119 -138 119h-209v-238z" />
    <glyph glyph-name="Thorn" unicode="&#xde;" horiz-adv-x="658" 
d="M168 147v-147h-92v700h92v-141h217c145 0 227 -92 227 -206c0 -112 -86 -206 -227 -206h-217zM168 233h209c83 0 138 44 138 120s-55 119 -138 119h-209v-239z" />
    <glyph glyph-name="Q" unicode="Q" horiz-adv-x="812" 
d="M526 9c-40 -13 -80 -19 -120 -19c-203 -4 -364 163 -361 360c-3 196 158 364 361 360c202 4 365 -164 362 -360c0 -128 -62 -239 -165 -304c19 -48 52 -71 105 -71c28 0 53 8 74 24l29 -77c-32 -21 -65 -32 -112 -32c-81 0 -146 40 -173 119zM257 178
c0 88 68 148 160 148c103 0 162 -59 171 -172v-8c52 48 83 119 83 204c0 163 -114 273 -265 273s-265 -110 -265 -274c0 -109 50 -196 133 -240c-11 20 -17 43 -17 69zM512 96c-1 3 -1 8 -1 15c-3 96 -36 140 -101 140c-49 0 -84 -34 -84 -82c0 -55 33 -92 88 -92
c35 0 67 6 98 19z" />
    <glyph glyph-name="R" unicode="R" horiz-adv-x="672" 
d="M625 0h-113c-16 32 -23 72 -24 160c-1 100 -48 136 -137 136h-183v-296h-92v700h320c139 0 223 -85 223 -190c0 -87 -49 -149 -140 -180c71 -27 108 -78 111 -171c3 -80 7 -114 35 -145v-14zM168 383h220c84 0 134 43 134 115c0 73 -50 115 -134 115h-220v-230z" />
    <glyph glyph-name="Racute" unicode="&#x154;" horiz-adv-x="672" 
d="M625 0h-113c-16 32 -23 72 -24 160c-1 100 -48 136 -137 136h-183v-296h-92v700h320c139 0 223 -85 223 -190c0 -87 -49 -149 -140 -180c71 -27 108 -78 111 -171c3 -80 7 -114 35 -145v-14zM168 383h220c84 0 134 43 134 115c0 73 -50 115 -134 115h-220v-230zM259 781
l87 133h117v-14l-121 -119h-83z" />
    <glyph glyph-name="Rcaron" unicode="&#x158;" horiz-adv-x="672" 
d="M625 0h-113c-16 32 -23 72 -24 160c-1 100 -48 136 -137 136h-183v-296h-92v700h320c139 0 223 -85 223 -190c0 -87 -49 -149 -140 -180c71 -27 108 -78 111 -171c3 -80 7 -114 35 -145v-14zM168 383h220c84 0 134 43 134 115c0 73 -50 115 -134 115h-220v-230zM269 781
l-121 106v14h95l57 -69l57 69h95v-14l-121 -106h-62z" />
    <glyph glyph-name="Rcommaaccent" unicode="&#x156;" horiz-adv-x="672" 
d="M625 0h-113c-16 32 -23 72 -24 160c-1 100 -48 136 -137 136h-183v-296h-92v700h320c139 0 223 -85 223 -190c0 -87 -49 -149 -140 -180c71 -27 108 -78 111 -171c3 -80 7 -114 35 -145v-14zM168 383h220c84 0 134 43 134 115c0 73 -50 115 -134 115h-220v-230zM258 -248
l10 47c13 -5 27 -8 40 -8c21 0 35 11 35 32c0 20 -14 30 -37 30h-18v95h104v-121c0 -60 -33 -84 -84 -84c-17 0 -33 3 -50 9z" />
    <glyph glyph-name="S" unicode="S" horiz-adv-x="629" 
d="M308 623c-79 0 -136 -38 -136 -98c0 -69 67 -105 183 -128c165 -32 239 -91 239 -200c0 -120 -110 -207 -264 -207c-66 0 -127 17 -182 50s-95 88 -119 164l85 53c28 -115 104 -180 217 -180c101 0 168 46 168 117c0 63 -45 99 -176 120c-162 28 -243 98 -243 209
c0 103 95 187 236 187c116 0 212 -61 249 -166l-86 -49c-23 84 -82 128 -171 128z" />
    <glyph glyph-name="Sacute" unicode="&#x15a;" horiz-adv-x="629" 
d="M308 623c-79 0 -136 -38 -136 -98c0 -69 67 -105 183 -128c165 -32 239 -91 239 -200c0 -120 -110 -207 -264 -207c-66 0 -127 17 -182 50s-95 88 -119 164l85 53c28 -115 104 -180 217 -180c101 0 168 46 168 117c0 63 -45 99 -176 120c-162 28 -243 98 -243 209
c0 103 95 187 236 187c116 0 212 -61 249 -166l-86 -49c-23 84 -82 128 -171 128zM275 781l87 133h117v-14l-121 -119h-83z" />
    <glyph glyph-name="Scaron" unicode="&#x160;" horiz-adv-x="629" 
d="M308 623c-79 0 -136 -38 -136 -98c0 -69 67 -105 183 -128c165 -32 239 -91 239 -200c0 -120 -110 -207 -264 -207c-66 0 -127 17 -182 50s-95 88 -119 164l85 53c28 -115 104 -180 217 -180c101 0 168 46 168 117c0 63 -45 99 -176 120c-162 28 -243 98 -243 209
c0 103 95 187 236 187c116 0 212 -61 249 -166l-86 -49c-23 84 -82 128 -171 128zM285 781l-121 106v14h95l57 -69l57 69h95v-14l-121 -106h-62z" />
    <glyph glyph-name="Scedilla" unicode="&#x15e;" horiz-adv-x="629" 
d="M308 623c-79 0 -136 -38 -136 -98c0 -69 67 -105 183 -128c165 -32 239 -91 239 -200c0 -120 -110 -207 -264 -207c-66 0 -127 17 -182 50s-95 88 -119 164l85 53c28 -115 104 -180 217 -180c101 0 168 46 168 117c0 63 -45 99 -176 120c-162 28 -243 98 -243 209
c0 103 95 187 236 187c116 0 212 -61 249 -166l-86 -49c-23 84 -82 128 -171 128zM330 -53c12 13 33 23 50 23c45 0 77 -29 77 -77c0 -51 -35 -81 -84 -81c-45 0 -81 23 -89 67l47 12c3 -20 19 -34 40 -34c25 0 40 15 40 36s-15 37 -40 37c-16 0 -31 -9 -38 -21l-47 9
c7 24 14 57 21 98h51c-10 -31 -19 -54 -28 -69z" />
    <glyph glyph-name="Scircumflex" unicode="&#x15c;" horiz-adv-x="629" 
d="M308 623c-79 0 -136 -38 -136 -98c0 -69 67 -105 183 -128c165 -32 239 -91 239 -200c0 -120 -110 -207 -264 -207c-66 0 -127 17 -182 50s-95 88 -119 164l85 53c28 -115 104 -180 217 -180c101 0 168 46 168 117c0 63 -45 99 -176 120c-162 28 -243 98 -243 209
c0 103 95 187 236 187c116 0 212 -61 249 -166l-86 -49c-23 84 -82 128 -171 128zM164 781v14l121 106h62l121 -106v-14h-95l-57 69l-57 -69h-95z" />
    <glyph glyph-name="Scommaaccent" unicode="&#x218;" horiz-adv-x="629" 
d="M308 623c-79 0 -136 -38 -136 -98c0 -69 67 -105 183 -128c165 -32 239 -91 239 -200c0 -120 -110 -207 -264 -207c-66 0 -127 17 -182 50s-95 88 -119 164l85 53c28 -115 104 -180 217 -180c101 0 168 46 168 117c0 63 -45 99 -176 120c-162 28 -243 98 -243 209
c0 103 95 187 236 187c116 0 212 -61 249 -166l-86 -49c-23 84 -82 128 -171 128zM247 -248l10 47c13 -5 27 -8 40 -8c21 0 35 11 35 32c0 20 -14 30 -37 30h-18v95h104v-121c0 -60 -33 -84 -84 -84c-17 0 -33 3 -50 9z" />
    <glyph glyph-name="uni1E9E" unicode="&#x1e9e;" horiz-adv-x="688" 
d="M195 116l80 46c23 -53 67 -85 131 -85c80 0 142 54 142 139c0 42 -14 75 -42 99c-27 24 -61 36 -100 36c-40 0 -78 -16 -99 -37l-60 54l236 245h-162c-113 0 -160 -48 -160 -160v-453h-92v453c0 168 78 247 249 247h280v-87l-190 -194c6 3 16 4 31 4
c111 0 201 -82 201 -207c0 -135 -101 -225 -234 -225c-107 0 -178 49 -211 125z" />
    <glyph glyph-name="T" unicode="T" horiz-adv-x="672" 
d="M641 700v-87h-259v-613h-92v613h-259v87h610z" />
    <glyph glyph-name="Tbar" unicode="&#x166;" horiz-adv-x="672" 
d="M641 700v-87h-259v-613h-92v613h-259v87h610zM148 387h376v-75h-376v75z" />
    <glyph glyph-name="Tcaron" unicode="&#x164;" horiz-adv-x="672" 
d="M641 700v-87h-259v-613h-92v613h-259v87h610zM305 781l-121 106v14h95l57 -69l57 69h95v-14l-121 -106h-62z" />
    <glyph glyph-name="uni0162" unicode="&#x162;" horiz-adv-x="672" 
d="M641 700v-87h-259v-613h-92v613h-259v87h610zM337 -53c12 13 33 23 50 23c45 0 77 -29 77 -77c0 -51 -35 -81 -84 -81c-45 0 -81 23 -89 67l47 12c3 -20 19 -34 40 -34c25 0 40 15 40 36s-15 37 -40 37c-16 0 -31 -9 -38 -21l-47 9c7 24 14 57 21 98h51
c-10 -31 -19 -54 -28 -69z" />
    <glyph glyph-name="uni021A" unicode="&#x21a;" horiz-adv-x="672" 
d="M641 700v-87h-259v-613h-92v613h-259v87h610zM254 -248l10 47c13 -5 27 -8 40 -8c21 0 35 11 35 32c0 20 -14 30 -37 30h-18v95h104v-121c0 -60 -33 -84 -84 -84c-17 0 -33 3 -50 9z" />
    <glyph glyph-name="U" unicode="U" horiz-adv-x="715" 
d="M69 700h92v-411c0 -135 75 -212 196 -212c123 0 197 77 197 212v411h92v-420c0 -169 -111 -290 -289 -290s-288 121 -288 290v420z" />
    <glyph glyph-name="Uacute" unicode="&#xda;" horiz-adv-x="715" 
d="M69 700h92v-411c0 -135 75 -212 196 -212c123 0 197 77 197 212v411h92v-420c0 -169 -111 -290 -289 -290s-288 121 -288 290v420zM316 781l87 133h117v-14l-121 -119h-83z" />
    <glyph glyph-name="Ubreve" unicode="&#x16c;" horiz-adv-x="715" 
d="M69 700h92v-411c0 -135 75 -212 196 -212c123 0 197 77 197 212v411h92v-420c0 -169 -111 -290 -289 -290s-288 121 -288 290v420zM479 889c0 -71 -53 -109 -122 -109s-122 38 -122 109c0 6 0 11 1 14h68l-1 -11c0 -29 21 -50 54 -50s54 21 54 50l-1 11h68
c1 -3 1 -8 1 -14z" />
    <glyph glyph-name="Ucircumflex" unicode="&#xdb;" horiz-adv-x="715" 
d="M69 700h92v-411c0 -135 75 -212 196 -212c123 0 197 77 197 212v411h92v-420c0 -169 -111 -290 -289 -290s-288 121 -288 290v420zM205 781v14l121 106h62l121 -106v-14h-95l-57 69l-57 -69h-95z" />
    <glyph glyph-name="Udieresis" unicode="&#xdc;" horiz-adv-x="715" 
d="M69 700h92v-411c0 -135 75 -212 196 -212c123 0 197 77 197 212v411h92v-420c0 -169 -111 -290 -289 -290s-288 121 -288 290v420zM224 793v99h97v-99h-97zM391 793v99h97v-99h-97z" />
    <glyph glyph-name="Ugrave" unicode="&#xd9;" horiz-adv-x="715" 
d="M69 700h92v-411c0 -135 75 -212 196 -212c123 0 197 77 197 212v411h92v-420c0 -169 -111 -290 -289 -290s-288 121 -288 290v420zM316 781l-121 119v14h117l87 -133h-83z" />
    <glyph glyph-name="Uhungarumlaut" unicode="&#x170;" horiz-adv-x="715" 
d="M69 700h92v-411c0 -135 75 -212 196 -212c123 0 197 77 197 212v411h92v-420c0 -169 -111 -290 -289 -290s-288 121 -288 290v420zM226 781l87 133h117v-14l-121 -119h-83zM405 781l87 133h117v-14l-121 -119h-83z" />
    <glyph glyph-name="Umacron" unicode="&#x16a;" horiz-adv-x="715" 
d="M69 700h92v-411c0 -135 75 -212 196 -212c123 0 197 77 197 212v411h92v-420c0 -169 -111 -290 -289 -290s-288 121 -288 290v420zM230 876h254v-69h-254v69z" />
    <glyph glyph-name="Uogonek" unicode="&#x172;" horiz-adv-x="715" 
d="M69 700h92v-411c0 -135 75 -212 196 -212c123 0 197 77 197 212v411h92v-420c0 -169 -111 -290 -289 -290s-288 121 -288 290v420zM378 -188c-53 0 -88 36 -88 83c0 39 21 77 68 105h59c-40 -25 -61 -50 -61 -79c0 -23 17 -38 41 -38c11 0 23 4 34 11l27 -61
c-28 -15 -48 -21 -80 -21z" />
    <glyph glyph-name="Uring" unicode="&#x16e;" horiz-adv-x="715" 
d="M69 700h92v-411c0 -135 75 -212 196 -212c123 0 197 77 197 212v411h92v-420c0 -169 -111 -290 -289 -290s-288 121 -288 290v420zM269 853c0 49 39 89 88 89s89 -40 89 -89s-40 -88 -89 -88s-88 39 -88 88zM396 853c0 21 -18 39 -39 39s-39 -18 -39 -39s18 -39 39 -39
s39 18 39 39z" />
    <glyph glyph-name="Utilde" unicode="&#x168;" horiz-adv-x="715" 
d="M69 700h92v-411c0 -135 75 -212 196 -212c123 0 197 77 197 212v411h92v-420c0 -169 -111 -290 -289 -290s-288 121 -288 290v420zM342 815c-16 15 -26 21 -43 21c-19 0 -34 -13 -34 -34c0 -5 1 -11 3 -16l-63 8c-1 4 -2 9 -2 16c0 52 40 89 92 89c37 0 54 -11 77 -31
c16 -15 26 -21 43 -21c19 0 34 13 34 34c0 6 -1 11 -3 16l64 -8c1 -4 2 -9 2 -16c0 -52 -41 -89 -93 -89c-37 0 -54 11 -77 31z" />
    <glyph glyph-name="V" unicode="V" horiz-adv-x="728" 
d="M364 71l253 629h100l-289 -700h-128l-289 700h101z" />
    <glyph glyph-name="W" unicode="W" horiz-adv-x="988" 
d="M182 0l-169 700h97l149 -639l155 639h160l155 -639l149 639h97l-169 -700h-154l-158 641l-159 -641h-153z" />
    <glyph glyph-name="Wacute" unicode="&#x1e82;" horiz-adv-x="988" 
d="M182 0l-169 700h97l149 -639l155 639h160l155 -639l149 639h97l-169 -700h-154l-158 641l-159 -641h-153zM453 781l87 133h117v-14l-121 -119h-83z" />
    <glyph glyph-name="Wcircumflex" unicode="&#x174;" horiz-adv-x="988" 
d="M182 0l-169 700h97l149 -639l155 639h160l155 -639l149 639h97l-169 -700h-154l-158 641l-159 -641h-153zM342 781v14l121 106h62l121 -106v-14h-95l-57 69l-57 -69h-95z" />
    <glyph glyph-name="Wdieresis" unicode="&#x1e84;" horiz-adv-x="988" 
d="M182 0l-169 700h97l149 -639l155 639h160l155 -639l149 639h97l-169 -700h-154l-158 641l-159 -641h-153zM361 793v99h97v-99h-97zM528 793v99h97v-99h-97z" />
    <glyph glyph-name="Wgrave" unicode="&#x1e80;" horiz-adv-x="988" 
d="M182 0l-169 700h97l149 -639l155 639h160l155 -639l149 639h97l-169 -700h-154l-158 641l-159 -641h-153zM453 781l-121 119v14h117l87 -133h-83z" />
    <glyph glyph-name="X" unicode="X" horiz-adv-x="674" 
d="M18 0l265 380l-225 320h112l167 -252l171 252h108l-225 -320l265 -380h-109l-210 308l-210 -308h-109z" />
    <glyph glyph-name="Y" unicode="Y" horiz-adv-x="672" 
d="M124 700l212 -331l218 331h105l-277 -412v-288h-92v288l-276 412h110z" />
    <glyph glyph-name="Yacute" unicode="&#xdd;" horiz-adv-x="672" 
d="M124 700l212 -331l218 331h105l-277 -412v-288h-92v288l-276 412h110zM295 781l87 133h117v-14l-121 -119h-83z" />
    <glyph glyph-name="Ycircumflex" unicode="&#x176;" horiz-adv-x="672" 
d="M124 700l212 -331l218 331h105l-277 -412v-288h-92v288l-276 412h110zM184 781v14l121 106h62l121 -106v-14h-95l-57 69l-57 -69h-95z" />
    <glyph glyph-name="Ydieresis" unicode="&#x178;" horiz-adv-x="672" 
d="M124 700l212 -331l218 331h105l-277 -412v-288h-92v288l-276 412h110zM203 793v99h97v-99h-97zM370 793v99h97v-99h-97z" />
    <glyph glyph-name="Ygrave" unicode="&#x1ef2;" horiz-adv-x="672" 
d="M124 700l212 -331l218 331h105l-277 -412v-288h-92v288l-276 412h110zM295 781l-121 119v14h117l87 -133h-83z" />
    <glyph glyph-name="Z" unicode="Z" horiz-adv-x="702" 
d="M52 87l472 526h-467v87h586v-87l-473 -526h478v-87h-596v87z" />
    <glyph glyph-name="Zacute" unicode="&#x179;" horiz-adv-x="702" 
d="M52 87l472 526h-467v87h586v-87l-473 -526h478v-87h-596v87zM306 781l87 133h117v-14l-121 -119h-83z" />
    <glyph glyph-name="Zcaron" unicode="&#x17d;" horiz-adv-x="702" 
d="M52 87l472 526h-467v87h586v-87l-473 -526h478v-87h-596v87zM316 781l-121 106v14h95l57 -69l57 69h95v-14l-121 -106h-62z" />
    <glyph glyph-name="Zdotaccent" unicode="&#x17b;" horiz-adv-x="702" 
d="M52 87l472 526h-467v87h586v-87l-473 -526h478v-87h-596v87zM299 893h96v-100h-96v100z" />
    <glyph glyph-name="uni01B5" unicode="&#x1b5;" horiz-adv-x="600" 
d="M170 87h478v-87h-596v87l201 224h-164v78h234l201 224h-467v87h586v-87l-201 -224h158v-78h-229z" />
    <glyph glyph-name="Adieresis.ss01" horiz-adv-x="739" 
d="M13 0l293 700h128l293 -700h-102l-72 178h-366l-73 -178h-101zM220 262h299l-149 365zM227 842c0 31 25 56 56 56s56 -25 56 -56s-25 -56 -56 -56s-56 25 -56 56zM400 842c0 31 25 56 56 56s56 -25 56 -56s-25 -56 -56 -56s-56 25 -56 56z" />
    <glyph glyph-name="Cdotaccent.ss01" horiz-adv-x="777" 
d="M141 350c0 -174 106 -276 254 -276c77 0 137 20 180 61s72 96 87 163l81 -33c-36 -159 -159 -275 -348 -275c-210 -2 -353 156 -350 360c-3 201 153 364 350 360c85 0 154 -22 205 -66c52 -44 87 -100 105 -167l-84 -38c-24 112 -103 187 -226 187
c-143 0 -254 -108 -254 -276zM389 904c33 0 58 -25 58 -58s-25 -58 -58 -58c-32 0 -57 25 -57 58s25 58 57 58z" />
    <glyph glyph-name="Edieresis.ss01" horiz-adv-x="633" 
d="M76 700h493v-87h-401v-207h371v-87h-371v-232h411v-87h-503v700zM179 842c0 31 25 56 56 56s56 -25 56 -56s-25 -56 -56 -56s-56 25 -56 56zM352 842c0 31 25 56 56 56s56 -25 56 -56s-25 -56 -56 -56s-56 25 -56 56z" />
    <glyph glyph-name="Edotaccent.ss01" horiz-adv-x="633" 
d="M76 700h493v-87h-401v-207h371v-87h-371v-232h411v-87h-503v700zM321 904c33 0 58 -25 58 -58s-25 -58 -58 -58c-32 0 -57 25 -57 58s25 58 57 58z" />
    <glyph glyph-name="Gcommaaccent.ss01" horiz-adv-x="788" 
d="M388 -10c-195 -3 -346 153 -343 360c-3 201 153 364 348 360c181 0 296 -93 332 -241l-90 -30c-30 123 -110 184 -241 184c-139 0 -253 -110 -253 -273c0 -161 103 -273 258 -273c133 0 208 111 220 199h-317v86h429v-362h-79v157c-55 -109 -137 -167 -264 -167z
M331 -249l10 48c13 -6 26 -9 37 -9c22 0 33 9 33 26c0 12 -6 17 -26 26c-29 11 -43 29 -43 55c0 35 25 59 57 59c33 0 61 -28 61 -61v-68c0 -57 -28 -85 -83 -85c-16 0 -31 3 -46 9z" />
    <glyph glyph-name="Gdotaccent.ss01" horiz-adv-x="788" 
d="M388 -10c-195 -3 -346 153 -343 360c-3 201 153 364 348 360c181 0 296 -93 332 -241l-90 -30c-30 123 -110 184 -241 184c-139 0 -253 -110 -253 -273c0 -161 103 -273 258 -273c133 0 208 111 220 199h-317v86h429v-362h-79v157c-55 -109 -137 -167 -264 -167zM391 904
c33 0 58 -25 58 -58s-25 -58 -58 -58c-32 0 -57 25 -57 58s25 58 57 58z" />
    <glyph glyph-name="Idieresis.ss01" horiz-adv-x="243" 
d="M76 0v700h92v-700h-92zM-21 842c0 31 25 56 56 56s56 -25 56 -56s-25 -56 -56 -56s-56 25 -56 56zM152 842c0 31 25 56 56 56s56 -25 56 -56s-25 -56 -56 -56s-56 25 -56 56z" />
    <glyph glyph-name="Idotaccent.ss01" horiz-adv-x="243" 
d="M76 0v700h92v-700h-92zM121 904c33 0 58 -25 58 -58s-25 -58 -58 -58c-32 0 -57 25 -57 58s25 58 57 58z" />
    <glyph glyph-name="Kcommaaccent.ss01" horiz-adv-x="672" 
d="M378 426l270 -426h-110l-223 358l-147 -156v-202h-92v700h92v-374l348 374h119zM288 -249l10 48c13 -6 26 -9 37 -9c22 0 33 9 33 26c0 12 -6 17 -26 26c-29 11 -43 29 -43 55c0 35 25 59 57 59c33 0 61 -28 61 -61v-68c0 -57 -28 -85 -83 -85c-16 0 -31 3 -46 9z" />
    <glyph glyph-name="Lcaron.ss01" horiz-adv-x="638" 
d="M76 700h92v-613h428v-87h-520v700zM482 491v52h43c16 0 26 7 26 20c0 11 -8 18 -23 22c-29 5 -49 31 -49 60c0 35 26 62 62 62c37 0 63 -28 63 -69v-59c0 -60 -31 -88 -83 -88h-39z" />
    <glyph glyph-name="Lcommaaccent.ss01" horiz-adv-x="638" 
d="M76 700h92v-613h428v-87h-520v700zM261 -249l10 48c13 -6 26 -9 37 -9c22 0 33 9 33 26c0 12 -6 17 -26 26c-29 11 -43 29 -43 55c0 35 25 59 57 59c33 0 61 -28 61 -61v-68c0 -57 -28 -85 -83 -85c-16 0 -31 3 -46 9z" />
    <glyph glyph-name="Ldot.ss01" horiz-adv-x="638" 
d="M76 700h92v-613h428v-87h-520v700zM377 350c0 35 28 61 61 61c35 0 61 -26 61 -61c0 -33 -26 -61 -61 -61c-33 0 -61 28 -61 61z" />
    <glyph glyph-name="Ncommaaccent.ss01" horiz-adv-x="766" 
d="M168 636v-636h-92v700h158l364 -636v636h92v-700h-159zM318 -249l10 48c13 -6 26 -9 37 -9c22 0 33 9 33 26c0 12 -6 17 -26 26c-29 11 -43 29 -43 55c0 35 25 59 57 59c33 0 61 -28 61 -61v-68c0 -57 -28 -85 -83 -85c-16 0 -31 3 -46 9z" />
    <glyph glyph-name="Odieresis.ss01" horiz-adv-x="812" 
d="M406 710c202 4 365 -164 362 -360c3 -197 -160 -364 -362 -360c-203 -4 -364 163 -361 360c-3 196 158 364 361 360zM406 77c149 0 265 110 265 273s-114 273 -265 273s-265 -110 -265 -274s116 -272 265 -272zM263 842c0 31 25 56 56 56s56 -25 56 -56s-25 -56 -56 -56
s-56 25 -56 56zM436 842c0 31 25 56 56 56s56 -25 56 -56s-25 -56 -56 -56s-56 25 -56 56z" />
    <glyph glyph-name="Rcommaaccent.ss01" horiz-adv-x="672" 
d="M625 0h-113c-16 32 -23 72 -24 160c-1 100 -48 136 -137 136h-183v-296h-92v700h320c139 0 223 -85 223 -190c0 -87 -49 -149 -140 -180c71 -27 108 -78 111 -171c3 -80 7 -114 35 -145v-14zM168 383h220c84 0 134 43 134 115c0 73 -50 115 -134 115h-220v-230zM275 -249
l10 48c13 -6 26 -9 37 -9c22 0 33 9 33 26c0 12 -6 17 -26 26c-29 11 -43 29 -43 55c0 35 25 59 57 59c33 0 61 -28 61 -61v-68c0 -57 -28 -85 -83 -85c-16 0 -31 3 -46 9z" />
    <glyph glyph-name="Scommaaccent.ss01" horiz-adv-x="629" 
d="M308 623c-79 0 -136 -38 -136 -98c0 -69 67 -105 183 -128c165 -32 239 -91 239 -200c0 -120 -110 -207 -264 -207c-66 0 -127 17 -182 50s-95 88 -119 164l85 53c28 -115 104 -180 217 -180c101 0 168 46 168 117c0 63 -45 99 -176 120c-162 28 -243 98 -243 209
c0 103 95 187 236 187c116 0 212 -61 249 -166l-86 -49c-23 84 -82 128 -171 128zM264 -249l10 48c13 -6 26 -9 37 -9c22 0 33 9 33 26c0 12 -6 17 -26 26c-29 11 -43 29 -43 55c0 35 25 59 57 59c33 0 61 -28 61 -61v-68c0 -57 -28 -85 -83 -85c-16 0 -31 3 -46 9z" />
    <glyph glyph-name="uni021A.ss01" horiz-adv-x="672" 
d="M641 700v-87h-259v-613h-92v613h-259v87h610zM271 -249l10 48c13 -6 26 -9 37 -9c22 0 33 9 33 26c0 12 -6 17 -26 26c-29 11 -43 29 -43 55c0 35 25 59 57 59c33 0 61 -28 61 -61v-68c0 -57 -28 -85 -83 -85c-16 0 -31 3 -46 9z" />
    <glyph glyph-name="Udieresis.ss01" horiz-adv-x="715" 
d="M69 700h92v-411c0 -135 75 -212 196 -212c123 0 197 77 197 212v411h92v-420c0 -169 -111 -290 -289 -290s-288 121 -288 290v420zM214 842c0 31 25 56 56 56s56 -25 56 -56s-25 -56 -56 -56s-56 25 -56 56zM387 842c0 31 25 56 56 56s56 -25 56 -56s-25 -56 -56 -56
s-56 25 -56 56z" />
    <glyph glyph-name="Wdieresis.ss01" horiz-adv-x="988" 
d="M182 0l-169 700h97l149 -639l155 639h160l155 -639l149 639h97l-169 -700h-154l-158 641l-159 -641h-153zM351 842c0 31 25 56 56 56s56 -25 56 -56s-25 -56 -56 -56s-56 25 -56 56zM524 842c0 31 25 56 56 56s56 -25 56 -56s-25 -56 -56 -56s-56 25 -56 56z" />
    <glyph glyph-name="Ydieresis.ss01" horiz-adv-x="672" 
d="M124 700l212 -331l218 331h105l-277 -412v-288h-92v288l-276 412h110zM193 842c0 31 25 56 56 56s56 -25 56 -56s-25 -56 -56 -56s-56 25 -56 56zM366 842c0 31 25 56 56 56s56 -25 56 -56s-25 -56 -56 -56s-56 25 -56 56z" />
    <glyph glyph-name="Zdotaccent.ss01" horiz-adv-x="702" 
d="M52 87l472 526h-467v87h586v-87l-473 -526h478v-87h-596v87zM346 904c33 0 58 -25 58 -58s-25 -58 -58 -58c-32 0 -57 25 -57 58s25 58 57 58z" />
    <glyph glyph-name="a" unicode="a" horiz-adv-x="515" 
d="M45 135c0 97 73 147 176 147c35 0 69 -5 101 -15l43 -12v49c0 69 -48 107 -119 107c-68 0 -114 -37 -126 -98l-78 22c19 91 93 149 204 149c129 0 202 -70 202 -187v-297h-83v75c-24 -51 -87 -85 -163 -85c-44 0 -81 13 -112 39c-30 27 -45 62 -45 106zM365 177v10
l-44 13c-33 10 -63 15 -88 15c-61 0 -99 -26 -99 -75c0 -44 34 -74 97 -74c79 0 134 42 134 111z" />
    <glyph glyph-name="aacute" unicode="&#xe1;" horiz-adv-x="515" 
d="M45 135c0 97 73 147 176 147c35 0 69 -5 101 -15l43 -12v49c0 69 -48 107 -119 107c-68 0 -114 -37 -126 -98l-78 22c19 91 93 149 204 149c129 0 202 -70 202 -187v-297h-83v75c-24 -51 -87 -85 -163 -85c-44 0 -81 13 -112 39c-30 27 -45 62 -45 106zM365 177v10
l-44 13c-33 10 -63 15 -88 15c-61 0 -99 -26 -99 -75c0 -44 34 -74 97 -74c79 0 134 42 134 111zM205 555l87 133h117v-14l-121 -119h-83z" />
    <glyph glyph-name="abreve" unicode="&#x103;" horiz-adv-x="515" 
d="M45 135c0 97 73 147 176 147c35 0 69 -5 101 -15l43 -12v49c0 69 -48 107 -119 107c-68 0 -114 -37 -126 -98l-78 22c19 91 93 149 204 149c129 0 202 -70 202 -187v-297h-83v75c-24 -51 -87 -85 -163 -85c-44 0 -81 13 -112 39c-30 27 -45 62 -45 106zM365 177v10
l-44 13c-33 10 -63 15 -88 15c-61 0 -99 -26 -99 -75c0 -44 34 -74 97 -74c79 0 134 42 134 111zM368 663c0 -71 -53 -109 -122 -109s-122 38 -122 109c0 6 0 11 1 14h68l-1 -11c0 -29 21 -50 54 -50s54 21 54 50l-1 11h68c1 -3 1 -8 1 -14z" />
    <glyph glyph-name="acircumflex" unicode="&#xe2;" horiz-adv-x="515" 
d="M45 135c0 97 73 147 176 147c35 0 69 -5 101 -15l43 -12v49c0 69 -48 107 -119 107c-68 0 -114 -37 -126 -98l-78 22c19 91 93 149 204 149c129 0 202 -70 202 -187v-297h-83v75c-24 -51 -87 -85 -163 -85c-44 0 -81 13 -112 39c-30 27 -45 62 -45 106zM365 177v10
l-44 13c-33 10 -63 15 -88 15c-61 0 -99 -26 -99 -75c0 -44 34 -74 97 -74c79 0 134 42 134 111zM94 555v14l121 106h62l121 -106v-14h-95l-57 69l-57 -69h-95z" />
    <glyph glyph-name="adieresis" unicode="&#xe4;" horiz-adv-x="515" 
d="M45 135c0 97 73 147 176 147c35 0 69 -5 101 -15l43 -12v49c0 69 -48 107 -119 107c-68 0 -114 -37 -126 -98l-78 22c19 91 93 149 204 149c129 0 202 -70 202 -187v-297h-83v75c-24 -51 -87 -85 -163 -85c-44 0 -81 13 -112 39c-30 27 -45 62 -45 106zM365 177v10
l-44 13c-33 10 -63 15 -88 15c-61 0 -99 -26 -99 -75c0 -44 34 -74 97 -74c79 0 134 42 134 111zM113 567v99h97v-99h-97zM280 567v99h97v-99h-97z" />
    <glyph glyph-name="agrave" unicode="&#xe0;" horiz-adv-x="515" 
d="M45 135c0 97 73 147 176 147c35 0 69 -5 101 -15l43 -12v49c0 69 -48 107 -119 107c-68 0 -114 -37 -126 -98l-78 22c19 91 93 149 204 149c129 0 202 -70 202 -187v-297h-83v75c-24 -51 -87 -85 -163 -85c-44 0 -81 13 -112 39c-30 27 -45 62 -45 106zM365 177v10
l-44 13c-33 10 -63 15 -88 15c-61 0 -99 -26 -99 -75c0 -44 34 -74 97 -74c79 0 134 42 134 111zM204 555l-121 119v14h117l87 -133h-83z" />
    <glyph glyph-name="amacron" unicode="&#x101;" horiz-adv-x="515" 
d="M45 135c0 97 73 147 176 147c35 0 69 -5 101 -15l43 -12v49c0 69 -48 107 -119 107c-68 0 -114 -37 -126 -98l-78 22c19 91 93 149 204 149c129 0 202 -70 202 -187v-297h-83v75c-24 -51 -87 -85 -163 -85c-44 0 -81 13 -112 39c-30 27 -45 62 -45 106zM365 177v10
l-44 13c-33 10 -63 15 -88 15c-61 0 -99 -26 -99 -75c0 -44 34 -74 97 -74c79 0 134 42 134 111zM118 650h254v-69h-254v69z" />
    <glyph glyph-name="aogonek" unicode="&#x105;" horiz-adv-x="515" 
d="M45 135c0 97 73 147 176 147c35 0 69 -5 101 -15l43 -12v49c0 69 -48 107 -119 107c-68 0 -114 -37 -126 -98l-78 22c19 91 93 149 204 149c129 0 202 -70 202 -187v-297h-83v75c-24 -51 -87 -85 -163 -85c-44 0 -81 13 -112 39c-30 27 -45 62 -45 106zM365 177v10
l-44 13c-33 10 -63 15 -88 15c-61 0 -99 -26 -99 -75c0 -44 34 -74 97 -74c79 0 134 42 134 111zM409 -188c-53 0 -88 36 -88 83c0 39 21 77 68 105h59c-40 -25 -61 -50 -61 -79c0 -23 17 -38 41 -38c11 0 23 4 34 11l27 -61c-28 -15 -48 -21 -80 -21z" />
    <glyph glyph-name="aring" unicode="&#xe5;" horiz-adv-x="515" 
d="M45 135c0 97 73 147 176 147c35 0 69 -5 101 -15l43 -12v49c0 69 -48 107 -119 107c-68 0 -114 -37 -126 -98l-78 22c19 91 93 149 204 149c129 0 202 -70 202 -187v-297h-83v75c-24 -51 -87 -85 -163 -85c-44 0 -81 13 -112 39c-30 27 -45 62 -45 106zM365 177v10
l-44 13c-33 10 -63 15 -88 15c-61 0 -99 -26 -99 -75c0 -44 34 -74 97 -74c79 0 134 42 134 111zM158 627c0 49 39 89 88 89s89 -40 89 -89s-40 -88 -89 -88s-88 39 -88 88zM285 627c0 21 -18 39 -39 39s-39 -18 -39 -39s18 -39 39 -39s39 18 39 39z" />
    <glyph glyph-name="aringacute" unicode="&#x1fb;" horiz-adv-x="515" 
d="M45 135c0 97 73 147 176 147c35 0 69 -5 101 -15l43 -12v49c0 69 -48 107 -119 107c-68 0 -114 -37 -126 -98l-78 22c19 91 93 149 204 149c129 0 202 -70 202 -187v-297h-83v75c-24 -51 -87 -85 -163 -85c-44 0 -81 13 -112 39c-30 27 -45 62 -45 106zM365 177v10
l-44 13c-33 10 -63 15 -88 15c-61 0 -99 -26 -99 -75c0 -44 34 -74 97 -74c79 0 134 42 134 111zM158 627c0 49 39 89 88 89s89 -40 89 -89s-40 -88 -89 -88s-88 39 -88 88zM285 627c0 21 -18 39 -39 39s-39 -18 -39 -39s18 -39 39 -39s39 18 39 39zM205 691l87 133h117v-14
l-121 -119h-83z" />
    <glyph glyph-name="atilde" unicode="&#xe3;" horiz-adv-x="515" 
d="M45 135c0 97 73 147 176 147c35 0 69 -5 101 -15l43 -12v49c0 69 -48 107 -119 107c-68 0 -114 -37 -126 -98l-78 22c19 91 93 149 204 149c129 0 202 -70 202 -187v-297h-83v75c-24 -51 -87 -85 -163 -85c-44 0 -81 13 -112 39c-30 27 -45 62 -45 106zM365 177v10
l-44 13c-33 10 -63 15 -88 15c-61 0 -99 -26 -99 -75c0 -44 34 -74 97 -74c79 0 134 42 134 111zM231 589c-16 15 -26 21 -43 21c-19 0 -34 -13 -34 -34c0 -5 1 -11 3 -16l-63 8c-1 4 -2 9 -2 16c0 52 40 89 92 89c37 0 54 -11 77 -31c16 -15 26 -21 43 -21
c19 0 34 13 34 34c0 6 -1 11 -3 16l64 -8c1 -4 2 -9 2 -16c0 -52 -41 -89 -93 -89c-37 0 -54 11 -77 31z" />
    <glyph glyph-name="ae" unicode="&#xe6;" horiz-adv-x="844" 
d="M45 138c0 97 69 148 176 148h140v18c0 69 -46 107 -119 107c-67 0 -113 -34 -125 -93l-75 21c21 93 93 145 200 145c83 0 143 -31 174 -84c37 52 100 84 171 84c63 0 113 -18 152 -55c39 -36 59 -85 59 -147c0 -15 -2 -34 -6 -58h-343c1 -103 66 -159 151 -159
c73 0 118 39 137 107l74 -29c-32 -96 -102 -153 -211 -153c-89 0 -162 42 -195 113c-40 -75 -106 -113 -198 -113c-48 0 -87 14 -117 42s-45 63 -45 106zM448 286h263c1 3 1 8 1 14c0 68 -55 108 -127 108c-73 0 -128 -47 -137 -122zM361 187v33h-123
c-64 0 -106 -29 -106 -80c0 -48 35 -74 94 -74c81 0 135 46 135 121z" />
    <glyph glyph-name="aeacute" unicode="&#x1fd;" horiz-adv-x="844" 
d="M45 138c0 97 69 148 176 148h140v18c0 69 -46 107 -119 107c-67 0 -113 -34 -125 -93l-75 21c21 93 93 145 200 145c83 0 143 -31 174 -84c37 52 100 84 171 84c63 0 113 -18 152 -55c39 -36 59 -85 59 -147c0 -15 -2 -34 -6 -58h-343c1 -103 66 -159 151 -159
c73 0 118 39 137 107l74 -29c-32 -96 -102 -153 -211 -153c-89 0 -162 42 -195 113c-40 -75 -106 -113 -198 -113c-48 0 -87 14 -117 42s-45 63 -45 106zM448 286h263c1 3 1 8 1 14c0 68 -55 108 -127 108c-73 0 -128 -47 -137 -122zM361 187v33h-123
c-64 0 -106 -29 -106 -80c0 -48 35 -74 94 -74c81 0 135 46 135 121zM376 555l87 133h117v-14l-121 -119h-83z" />
    <glyph glyph-name="b" unicode="b" horiz-adv-x="573" 
d="M67 700h86v-315c32 59 97 99 168 99c126 0 214 -103 214 -250s-93 -244 -224 -244c-68 0 -129 33 -162 88v-78h-82v700zM299 67c81 0 150 61 150 168c0 106 -69 171 -150 171c-76 0 -150 -66 -150 -171s73 -168 150 -168z" />
    <glyph glyph-name="c" unicode="c" horiz-adv-x="550" 
d="M285 66c92 0 138 53 157 142l77 -29c-27 -120 -113 -189 -232 -189c-149 0 -249 100 -249 250c0 142 109 244 238 244c115 0 197 -63 220 -171l-79 -24c-15 75 -65 119 -142 119c-73 0 -153 -59 -153 -168c0 -106 79 -174 163 -174z" />
    <glyph glyph-name="cacute" unicode="&#x107;" horiz-adv-x="550" 
d="M285 66c92 0 138 53 157 142l77 -29c-27 -120 -113 -189 -232 -189c-149 0 -249 100 -249 250c0 142 109 244 238 244c115 0 197 -63 220 -171l-79 -24c-15 75 -65 119 -142 119c-73 0 -153 -59 -153 -168c0 -106 79 -174 163 -174zM235 555l87 133h117v-14l-121 -119
h-83z" />
    <glyph glyph-name="ccaron" unicode="&#x10d;" horiz-adv-x="550" 
d="M285 66c92 0 138 53 157 142l77 -29c-27 -120 -113 -189 -232 -189c-149 0 -249 100 -249 250c0 142 109 244 238 244c115 0 197 -63 220 -171l-79 -24c-15 75 -65 119 -142 119c-73 0 -153 -59 -153 -168c0 -106 79 -174 163 -174zM247 555l-121 106v14h95l57 -69l57 69
h95v-14l-121 -106h-62z" />
    <glyph glyph-name="ccedilla" unicode="&#xe7;" horiz-adv-x="550" 
d="M285 66c92 0 138 53 157 142l77 -29c-27 -120 -113 -189 -232 -189c-149 0 -249 100 -249 250c0 142 109 244 238 244c115 0 197 -63 220 -171l-79 -24c-15 75 -65 119 -142 119c-73 0 -153 -59 -153 -168c0 -106 79 -174 163 -174zM256 -53c12 13 33 23 50 23
c45 0 77 -29 77 -77c0 -51 -35 -81 -84 -81c-45 0 -81 23 -89 67l47 12c3 -20 19 -34 40 -34c25 0 40 15 40 36s-15 37 -40 37c-16 0 -31 -9 -38 -21l-47 9c7 24 14 57 21 98h51c-10 -31 -19 -54 -28 -69z" />
    <glyph glyph-name="ccircumflex" unicode="&#x109;" horiz-adv-x="550" 
d="M285 66c92 0 138 53 157 142l77 -29c-27 -120 -113 -189 -232 -189c-149 0 -249 100 -249 250c0 142 109 244 238 244c115 0 197 -63 220 -171l-79 -24c-15 75 -65 119 -142 119c-73 0 -153 -59 -153 -168c0 -106 79 -174 163 -174zM124 555v14l121 106h62l121 -106v-14
h-95l-57 69l-57 -69h-95z" />
    <glyph glyph-name="cdotaccent" unicode="&#x10b;" horiz-adv-x="550" 
d="M285 66c92 0 138 53 157 142l77 -29c-27 -120 -113 -189 -232 -189c-149 0 -249 100 -249 250c0 142 109 244 238 244c115 0 197 -63 220 -171l-79 -24c-15 75 -65 119 -142 119c-73 0 -153 -59 -153 -168c0 -106 79 -174 163 -174zM228 562v101h96v-101h-96z" />
    <glyph glyph-name="d" unicode="d" horiz-adv-x="573" 
d="M38 234c0 147 91 250 220 250c73 0 131 -37 162 -96v312h87v-700h-83v85c-32 -57 -92 -95 -164 -95c-131 0 -222 99 -222 244zM424 235c0 105 -76 171 -150 171c-77 0 -150 -65 -150 -171c0 -107 72 -168 150 -168c74 0 150 62 150 168z" />
    <glyph glyph-name="eth" unicode="&#xf0;" horiz-adv-x="552" 
d="M38 235c0 141 94 249 234 249c55 0 105 -25 136 -66c-17 53 -47 102 -90 146l-37 -43l-54 45l38 44c-19 15 -37 27 -54 38l52 62c20 -13 38 -27 55 -40l35 40l54 -45l-37 -42c92 -93 144 -210 144 -369c0 -157 -95 -264 -238 -264s-238 105 -238 245zM426 235
c0 100 -62 171 -150 171s-150 -71 -150 -171s61 -167 150 -167s150 67 150 167z" />
    <glyph glyph-name="dcaron" unicode="&#x10f;" horiz-adv-x="671" 
d="M38 234c0 147 91 250 220 250c73 0 131 -37 162 -96v312h87v-700h-83v85c-32 -57 -92 -95 -164 -95c-131 0 -222 99 -222 244zM424 235c0 105 -76 171 -150 171c-77 0 -150 -65 -150 -171c0 -107 72 -168 150 -168c74 0 150 62 150 168zM555 491v52h25c26 0 39 10 39 30
c0 19 -13 30 -34 30h-18v97h104v-122c0 -60 -38 -87 -93 -87h-23z" />
    <glyph glyph-name="dslash" unicode="&#x111;" horiz-adv-x="573" 
d="M38 234c0 147 91 250 220 250c73 0 131 -37 162 -96v312h87v-700h-83v85c-32 -57 -92 -95 -164 -95c-131 0 -222 99 -222 244zM424 235c0 105 -76 171 -150 171c-77 0 -150 -65 -150 -171c0 -107 72 -168 150 -168c74 0 150 62 150 168zM269 631h305v-70h-305v70z" />
    <glyph glyph-name="e" unicode="e" horiz-adv-x="522" 
d="M414 172l75 -29c-32 -96 -103 -153 -212 -153c-139 0 -239 97 -239 250c0 136 91 244 226 244c63 0 114 -18 153 -55c39 -36 58 -85 58 -147c0 -21 -2 -40 -6 -58h-343c1 -103 67 -158 151 -158c73 0 118 38 137 106zM126 286h263l1 14c0 68 -55 108 -127 108
c-73 0 -128 -47 -137 -122z" />
    <glyph glyph-name="eacute" unicode="&#xe9;" horiz-adv-x="522" 
d="M414 172l75 -29c-32 -96 -103 -153 -212 -153c-139 0 -239 97 -239 250c0 136 91 244 226 244c63 0 114 -18 153 -55c39 -36 58 -85 58 -147c0 -21 -2 -40 -6 -58h-343c1 -103 67 -158 151 -158c73 0 118 38 137 106zM126 286h263l1 14c0 68 -55 108 -127 108
c-73 0 -128 -47 -137 -122zM223 555l87 133h117v-14l-121 -119h-83z" />
    <glyph glyph-name="ebreve" unicode="&#x115;" horiz-adv-x="522" 
d="M414 172l75 -29c-32 -96 -103 -153 -212 -153c-139 0 -239 97 -239 250c0 136 91 244 226 244c63 0 114 -18 153 -55c39 -36 58 -85 58 -147c0 -21 -2 -40 -6 -58h-343c1 -103 67 -158 151 -158c73 0 118 38 137 106zM126 286h263l1 14c0 68 -55 108 -127 108
c-73 0 -128 -47 -137 -122zM386 663c0 -71 -53 -109 -122 -109s-122 38 -122 109c0 6 0 11 1 14h68l-1 -11c0 -29 21 -50 54 -50s54 21 54 50l-1 11h68c1 -3 1 -8 1 -14z" />
    <glyph glyph-name="ecaron" unicode="&#x11b;" horiz-adv-x="522" 
d="M414 172l75 -29c-32 -96 -103 -153 -212 -153c-139 0 -239 97 -239 250c0 136 91 244 226 244c63 0 114 -18 153 -55c39 -36 58 -85 58 -147c0 -21 -2 -40 -6 -58h-343c1 -103 67 -158 151 -158c73 0 118 38 137 106zM126 286h263l1 14c0 68 -55 108 -127 108
c-73 0 -128 -47 -137 -122zM235 555l-121 106v14h95l57 -69l57 69h95v-14l-121 -106h-62z" />
    <glyph glyph-name="ecircumflex" unicode="&#xea;" horiz-adv-x="522" 
d="M414 172l75 -29c-32 -96 -103 -153 -212 -153c-139 0 -239 97 -239 250c0 136 91 244 226 244c63 0 114 -18 153 -55c39 -36 58 -85 58 -147c0 -21 -2 -40 -6 -58h-343c1 -103 67 -158 151 -158c73 0 118 38 137 106zM126 286h263l1 14c0 68 -55 108 -127 108
c-73 0 -128 -47 -137 -122zM112 555v14l121 106h62l121 -106v-14h-95l-57 69l-57 -69h-95z" />
    <glyph glyph-name="edieresis" unicode="&#xeb;" horiz-adv-x="522" 
d="M414 172l75 -29c-32 -96 -103 -153 -212 -153c-139 0 -239 97 -239 250c0 136 91 244 226 244c63 0 114 -18 153 -55c39 -36 58 -85 58 -147c0 -21 -2 -40 -6 -58h-343c1 -103 67 -158 151 -158c73 0 118 38 137 106zM126 286h263l1 14c0 68 -55 108 -127 108
c-73 0 -128 -47 -137 -122zM131 567v99h97v-99h-97zM298 567v99h97v-99h-97z" />
    <glyph glyph-name="edotaccent" unicode="&#x117;" horiz-adv-x="522" 
d="M414 172l75 -29c-32 -96 -103 -153 -212 -153c-139 0 -239 97 -239 250c0 136 91 244 226 244c63 0 114 -18 153 -55c39 -36 58 -85 58 -147c0 -21 -2 -40 -6 -58h-343c1 -103 67 -158 151 -158c73 0 118 38 137 106zM126 286h263l1 14c0 68 -55 108 -127 108
c-73 0 -128 -47 -137 -122zM216 562v101h96v-101h-96z" />
    <glyph glyph-name="egrave" unicode="&#xe8;" horiz-adv-x="522" 
d="M414 172l75 -29c-32 -96 -103 -153 -212 -153c-139 0 -239 97 -239 250c0 136 91 244 226 244c63 0 114 -18 153 -55c39 -36 58 -85 58 -147c0 -21 -2 -40 -6 -58h-343c1 -103 67 -158 151 -158c73 0 118 38 137 106zM126 286h263l1 14c0 68 -55 108 -127 108
c-73 0 -128 -47 -137 -122zM222 555l-121 119v14h117l87 -133h-83z" />
    <glyph glyph-name="emacron" unicode="&#x113;" horiz-adv-x="522" 
d="M414 172l75 -29c-32 -96 -103 -153 -212 -153c-139 0 -239 97 -239 250c0 136 91 244 226 244c63 0 114 -18 153 -55c39 -36 58 -85 58 -147c0 -21 -2 -40 -6 -58h-343c1 -103 67 -158 151 -158c73 0 118 38 137 106zM126 286h263l1 14c0 68 -55 108 -127 108
c-73 0 -128 -47 -137 -122zM136 650h254v-69h-254v69z" />
    <glyph glyph-name="eogonek" unicode="&#x119;" horiz-adv-x="522" 
d="M414 172l75 -29c-32 -96 -103 -153 -212 -153c-139 0 -239 97 -239 250c0 136 91 244 226 244c63 0 114 -18 153 -55c39 -36 58 -85 58 -147c0 -21 -2 -40 -6 -58h-343c1 -103 67 -158 151 -158c73 0 118 38 137 106zM126 286h263l1 14c0 68 -55 108 -127 108
c-73 0 -128 -47 -137 -122zM297 -188c-53 0 -88 36 -88 83c0 39 21 77 68 105h59c-40 -25 -61 -50 -61 -79c0 -23 17 -38 41 -38c11 0 23 4 34 11l27 -61c-28 -15 -48 -21 -80 -21z" />
    <glyph glyph-name="f" unicode="f" horiz-adv-x="387" 
d="M117 0v401h-106v73h106v72c0 99 58 164 161 164c104 0 157 -57 157 -140c0 -9 0 -16 -1 -22h-81l1 18c0 45 -29 71 -76 71c-50 0 -75 -31 -75 -93v-70h134v-73h-134v-401h-86z" />
    <glyph glyph-name="g" unicode="g" horiz-adv-x="576" 
d="M65 -62l78 33c19 -69 66 -103 140 -103c92 0 139 61 139 168v53c-28 -53 -86 -89 -165 -89c-120 0 -219 93 -219 235c0 148 99 249 224 249c72 0 125 -27 160 -81v71h87v-432c0 -75 -20 -135 -59 -181s-95 -69 -167 -69c-115 0 -187 49 -218 146zM426 241
c0 96 -64 167 -150 167c-88 0 -152 -66 -152 -174c0 -97 64 -158 152 -158c86 0 150 68 150 165z" />
    <glyph glyph-name="gbreve" unicode="&#x11f;" horiz-adv-x="576" 
d="M65 -62l78 33c19 -69 66 -103 140 -103c92 0 139 61 139 168v53c-28 -53 -86 -89 -165 -89c-120 0 -219 93 -219 235c0 148 99 249 224 249c72 0 125 -27 160 -81v71h87v-432c0 -75 -20 -135 -59 -181s-95 -69 -167 -69c-115 0 -187 49 -218 146zM426 241
c0 96 -64 167 -150 167c-88 0 -152 -66 -152 -174c0 -97 64 -158 152 -158c86 0 150 68 150 165zM408 663c0 -71 -53 -109 -122 -109s-122 38 -122 109c0 6 0 11 1 14h68l-1 -11c0 -29 21 -50 54 -50s54 21 54 50l-1 11h68c1 -3 1 -8 1 -14z" />
    <glyph glyph-name="gcircumflex" unicode="&#x11d;" horiz-adv-x="576" 
d="M65 -62l78 33c19 -69 66 -103 140 -103c92 0 139 61 139 168v53c-28 -53 -86 -89 -165 -89c-120 0 -219 93 -219 235c0 148 99 249 224 249c72 0 125 -27 160 -81v71h87v-432c0 -75 -20 -135 -59 -181s-95 -69 -167 -69c-115 0 -187 49 -218 146zM426 241
c0 96 -64 167 -150 167c-88 0 -152 -66 -152 -174c0 -97 64 -158 152 -158c86 0 150 68 150 165zM134 555v14l121 106h62l121 -106v-14h-95l-57 69l-57 -69h-95z" />
    <glyph glyph-name="gcommaaccent" unicode="&#x123;" horiz-adv-x="576" 
d="M65 -62l78 33c19 -69 66 -103 140 -103c92 0 139 61 139 168v53c-28 -53 -86 -89 -165 -89c-120 0 -219 93 -219 235c0 148 99 249 224 249c72 0 125 -27 160 -81v71h87v-432c0 -75 -20 -135 -59 -181s-95 -69 -167 -69c-115 0 -187 49 -218 146zM426 241
c0 96 -64 167 -150 167c-88 0 -152 -66 -152 -174c0 -97 64 -158 152 -158c86 0 150 68 150 165zM323 542h-105v133c0 60 38 84 94 84h32v-52h-35c-24 0 -39 -10 -39 -30c0 -19 12 -30 35 -30h18v-105z" />
    <glyph glyph-name="gdotaccent" unicode="&#x121;" horiz-adv-x="576" 
d="M65 -62l78 33c19 -69 66 -103 140 -103c92 0 139 61 139 168v53c-28 -53 -86 -89 -165 -89c-120 0 -219 93 -219 235c0 148 99 249 224 249c72 0 125 -27 160 -81v71h87v-432c0 -75 -20 -135 -59 -181s-95 -69 -167 -69c-115 0 -187 49 -218 146zM426 241
c0 96 -64 167 -150 167c-88 0 -152 -66 -152 -174c0 -97 64 -158 152 -158c86 0 150 68 150 165zM238 562v101h96v-101h-96z" />
    <glyph glyph-name="h" unicode="h" horiz-adv-x="555" 
d="M153 0h-86v700h86v-326c27 68 90 110 167 110c104 0 169 -69 169 -177v-307h-87v287c0 81 -41 123 -113 123c-76 0 -136 -67 -136 -165v-245z" />
    <glyph glyph-name="hbar" unicode="&#x127;" horiz-adv-x="555" 
d="M153 0h-86v700h86v-326c27 68 90 110 167 110c104 0 169 -69 169 -177v-307h-87v287c0 81 -41 123 -113 123c-76 0 -136 -67 -136 -165v-245zM0 631h305v-70h-305v70z" />
    <glyph glyph-name="hcircumflex" unicode="&#x125;" horiz-adv-x="555" 
d="M153 0h-86v700h86v-326c27 68 90 110 167 110c104 0 169 -69 169 -177v-307h-87v287c0 81 -41 123 -113 123c-76 0 -136 -67 -136 -165v-245zM-42 781v14l121 106h62l121 -106v-14h-95l-57 69l-57 -69h-95z" />
    <glyph glyph-name="i" unicode="i" horiz-adv-x="220" 
d="M67 474h86v-474h-86v474zM62 562v101h96v-101h-96z" />
    <glyph glyph-name="dotlessi" unicode="&#x131;" horiz-adv-x="220" 
d="M67 474h86v-474h-86v474z" />
    <glyph glyph-name="iacute" unicode="&#xed;" horiz-adv-x="220" 
d="M67 474h86v-474h-86v474zM69 555l87 133h117v-14l-121 -119h-83z" />
    <glyph glyph-name="ibreve" unicode="&#x12d;" horiz-adv-x="220" 
d="M67 474h86v-474h-86v474zM232 663c0 -71 -53 -109 -122 -109s-122 38 -122 109c0 6 0 11 1 14h68l-1 -11c0 -29 21 -50 54 -50s54 21 54 50l-1 11h68c1 -3 1 -8 1 -14z" />
    <glyph glyph-name="icircumflex" unicode="&#xee;" horiz-adv-x="220" 
d="M67 474h86v-474h-86v474zM-42 555v14l121 106h62l121 -106v-14h-95l-57 69l-57 -69h-95z" />
    <glyph glyph-name="idieresis" unicode="&#xef;" horiz-adv-x="220" 
d="M67 474h86v-474h-86v474zM-23 567v99h97v-99h-97zM144 567v99h97v-99h-97z" />
    <glyph glyph-name="i.loclTRK" horiz-adv-x="220" 
d="M67 474h86v-474h-86v474zM62 562v101h96v-101h-96z" />
    <glyph glyph-name="igrave" unicode="&#xec;" horiz-adv-x="220" 
d="M67 474h86v-474h-86v474zM68 555l-121 119v14h117l87 -133h-83z" />
    <glyph glyph-name="ij" unicode="&#x133;" horiz-adv-x="440" 
d="M67 474h86v-474h-86v474zM62 562v101h96v-101h-96zM287 -198v672h86v-672h-86zM282 562v101h96v-101h-96z" />
    <glyph glyph-name="imacron" unicode="&#x12b;" horiz-adv-x="220" 
d="M67 474h86v-474h-86v474zM-18 650h254v-69h-254v69z" />
    <glyph glyph-name="iogonek" unicode="&#x12f;" horiz-adv-x="220" 
d="M67 474h86v-474h-86v474zM62 562v101h96v-101h-96zM114 -188c-53 0 -88 36 -88 83c0 39 21 77 68 105h59c-40 -25 -61 -50 -61 -79c0 -23 17 -38 41 -38c11 0 23 4 34 11l27 -61c-28 -15 -48 -21 -80 -21z" />
    <glyph glyph-name="itilde" unicode="&#x129;" horiz-adv-x="220" 
d="M67 474h86v-474h-86v474zM95 589c-16 15 -26 21 -43 21c-19 0 -34 -13 -34 -34c0 -5 1 -11 3 -16l-63 8c-1 4 -2 9 -2 16c0 52 40 89 92 89c37 0 54 -11 77 -31c16 -15 26 -21 43 -21c19 0 34 13 34 34c0 6 -1 11 -3 16l64 -8c1 -4 2 -9 2 -16c0 -52 -41 -89 -93 -89
c-37 0 -54 11 -77 31z" />
    <glyph glyph-name="j" unicode="j" horiz-adv-x="220" 
d="M67 -198v672h86v-672h-86zM62 562v101h96v-101h-96z" />
    <glyph glyph-name="uni0237" unicode="&#x237;" horiz-adv-x="220" 
d="M67 -198v672h86v-672h-86z" />
    <glyph glyph-name="jcircumflex" unicode="&#x135;" horiz-adv-x="220" 
d="M67 -198v672h86v-672h-86zM-42 555v14l121 106h62l121 -106v-14h-95l-57 69l-57 -69h-95z" />
    <glyph glyph-name="k" unicode="k" horiz-adv-x="505" 
d="M286 282l195 -282h-105l-150 218l-73 -77v-141h-86v700h86v-448l203 222h110z" />
    <glyph glyph-name="kcommaaccent" unicode="&#x137;" horiz-adv-x="505" 
d="M286 282l195 -282h-105l-150 218l-73 -77v-141h-86v700h86v-448l203 222h110zM175 -248l10 47c13 -5 27 -8 40 -8c21 0 35 11 35 32c0 20 -14 30 -37 30h-18v95h104v-121c0 -60 -33 -84 -84 -84c-17 0 -33 3 -50 9z" />
    <glyph glyph-name="kgreenlandic" unicode="&#x138;" horiz-adv-x="467" 
d="M67 0v474h86v-191l171 191h111l-210 -224l219 -250h-110l-181 212v-212h-86z" />
    <glyph glyph-name="l" unicode="l" horiz-adv-x="220" 
d="M67 0v700h86v-700h-86z" />
    <glyph glyph-name="lacute" unicode="&#x13a;" horiz-adv-x="220" 
d="M67 0v700h86v-700h-86zM69 781l87 133h117v-14l-121 -119h-83z" />
    <glyph glyph-name="lcaron" unicode="&#x13e;" horiz-adv-x="318" 
d="M67 0v700h86v-700h-86zM202 491v52h25c26 0 39 10 39 30c0 19 -13 30 -34 30h-18v97h104v-122c0 -60 -38 -87 -93 -87h-23z" />
    <glyph glyph-name="lcommaaccent" unicode="&#x13c;" horiz-adv-x="220" 
d="M67 0v700h86v-700h-86zM28 -248l10 47c13 -5 27 -8 40 -8c21 0 35 11 35 32c0 20 -14 30 -37 30h-18v95h104v-121c0 -60 -33 -84 -84 -84c-17 0 -33 3 -50 9z" />
    <glyph glyph-name="ldot" unicode="&#x140;" horiz-adv-x="400" 
d="M67 0v700h86v-700h-86zM258 403h104v-105h-104v105z" />
    <glyph glyph-name="lslash" unicode="&#x142;" horiz-adv-x="220" 
d="M67 0v700h86v-700h-86zM4 260l-35 67l248 128l34 -67z" />
    <glyph glyph-name="m" unicode="m" horiz-adv-x="752" 
d="M67 474h86v-67c23 47 65 77 128 77c57 0 105 -33 121 -94c25 60 79 94 139 94c88 0 144 -55 144 -155v-329h-86v311c0 59 -36 95 -87 95c-52 0 -93 -38 -93 -111v-295h-87v307c0 65 -35 99 -87 99s-92 -39 -92 -116v-290h-86v474z" />
    <glyph glyph-name="n" unicode="n" horiz-adv-x="543" 
d="M153 0h-86v474h86v-77c33 55 89 87 156 87c101 0 167 -65 167 -176v-308h-87v282c0 83 -40 126 -108 126c-72 0 -128 -57 -128 -148v-260z" />
    <glyph glyph-name="nacute" unicode="&#x144;" horiz-adv-x="543" 
d="M153 0h-86v474h86v-77c33 55 89 87 156 87c101 0 167 -65 167 -176v-308h-87v282c0 83 -40 126 -108 126c-72 0 -128 -57 -128 -148v-260zM241 555l87 133h117v-14l-121 -119h-83z" />
    <glyph glyph-name="ncaron" unicode="&#x148;" horiz-adv-x="543" 
d="M153 0h-86v474h86v-77c33 55 89 87 156 87c101 0 167 -65 167 -176v-308h-87v282c0 83 -40 126 -108 126c-72 0 -128 -57 -128 -148v-260zM253 555l-121 106v14h95l57 -69l57 69h95v-14l-121 -106h-62z" />
    <glyph glyph-name="ncommaaccent" unicode="&#x146;" horiz-adv-x="543" 
d="M153 0h-86v474h86v-77c33 55 89 87 156 87c101 0 167 -65 167 -176v-308h-87v282c0 83 -40 126 -108 126c-72 0 -128 -57 -128 -148v-260zM188 -248l10 47c13 -5 27 -8 40 -8c21 0 35 11 35 32c0 20 -14 30 -37 30h-18v95h104v-121c0 -60 -33 -84 -84 -84
c-17 0 -33 3 -50 9z" />
    <glyph glyph-name="eng" unicode="&#x14b;" horiz-adv-x="543" 
d="M218 -110l78 29c5 -31 23 -49 48 -49c29 0 45 17 45 57v355c0 83 -40 126 -109 126c-71 0 -127 -58 -127 -147v-261h-86v474h86v-77c33 55 89 87 156 87c101 0 167 -65 167 -176v-374c0 -89 -43 -142 -132 -142c-64 0 -114 37 -126 98z" />
    <glyph glyph-name="ntilde" unicode="&#xf1;" horiz-adv-x="543" 
d="M153 0h-86v474h86v-77c33 55 89 87 156 87c101 0 167 -65 167 -176v-308h-87v282c0 83 -40 126 -108 126c-72 0 -128 -57 -128 -148v-260zM267 589c-16 15 -26 21 -43 21c-19 0 -34 -13 -34 -34c0 -5 1 -11 3 -16l-63 8c-1 4 -2 9 -2 16c0 52 40 89 92 89
c37 0 54 -11 77 -31c16 -15 26 -21 43 -21c19 0 34 13 34 34c0 6 -1 11 -3 16l64 -8c1 -4 2 -9 2 -16c0 -52 -41 -89 -93 -89c-37 0 -54 11 -77 31z" />
    <glyph glyph-name="o" unicode="o" horiz-adv-x="556" 
d="M38 237c0 140 97 247 240 247c144 0 241 -107 241 -247s-99 -247 -241 -247c-143 0 -240 107 -240 247zM430 237c0 49 -14 90 -43 121c-28 32 -64 48 -109 48c-88 0 -152 -70 -152 -169s64 -169 152 -169c89 0 152 69 152 169z" />
    <glyph glyph-name="oacute" unicode="&#xf3;" horiz-adv-x="556" 
d="M38 237c0 140 97 247 240 247c144 0 241 -107 241 -247s-99 -247 -241 -247c-143 0 -240 107 -240 247zM430 237c0 49 -14 90 -43 121c-28 32 -64 48 -109 48c-88 0 -152 -70 -152 -169s64 -169 152 -169c89 0 152 69 152 169zM237 555l87 133h117v-14l-121 -119h-83z
" />
    <glyph glyph-name="obreve" unicode="&#x14f;" horiz-adv-x="556" 
d="M38 237c0 140 97 247 240 247c144 0 241 -107 241 -247s-99 -247 -241 -247c-143 0 -240 107 -240 247zM430 237c0 49 -14 90 -43 121c-28 32 -64 48 -109 48c-88 0 -152 -70 -152 -169s64 -169 152 -169c89 0 152 69 152 169zM400 663c0 -71 -53 -109 -122 -109
s-122 38 -122 109c0 6 0 11 1 14h68l-1 -11c0 -29 21 -50 54 -50s54 21 54 50l-1 11h68c1 -3 1 -8 1 -14z" />
    <glyph glyph-name="ocircumflex" unicode="&#xf4;" horiz-adv-x="556" 
d="M38 237c0 140 97 247 240 247c144 0 241 -107 241 -247s-99 -247 -241 -247c-143 0 -240 107 -240 247zM430 237c0 49 -14 90 -43 121c-28 32 -64 48 -109 48c-88 0 -152 -70 -152 -169s64 -169 152 -169c89 0 152 69 152 169zM126 555v14l121 106h62l121 -106v-14h-95
l-57 69l-57 -69h-95z" />
    <glyph glyph-name="odieresis" unicode="&#xf6;" horiz-adv-x="556" 
d="M38 237c0 140 97 247 240 247c144 0 241 -107 241 -247s-99 -247 -241 -247c-143 0 -240 107 -240 247zM430 237c0 49 -14 90 -43 121c-28 32 -64 48 -109 48c-88 0 -152 -70 -152 -169s64 -169 152 -169c89 0 152 69 152 169zM145 567v99h97v-99h-97zM312 567v99h97v-99
h-97z" />
    <glyph glyph-name="ograve" unicode="&#xf2;" horiz-adv-x="556" 
d="M38 237c0 140 97 247 240 247c144 0 241 -107 241 -247s-99 -247 -241 -247c-143 0 -240 107 -240 247zM430 237c0 49 -14 90 -43 121c-28 32 -64 48 -109 48c-88 0 -152 -70 -152 -169s64 -169 152 -169c89 0 152 69 152 169zM236 555l-121 119v14h117l87 -133h-83z" />
    <glyph glyph-name="ohungarumlaut" unicode="&#x151;" horiz-adv-x="556" 
d="M38 237c0 140 97 247 240 247c144 0 241 -107 241 -247s-99 -247 -241 -247c-143 0 -240 107 -240 247zM430 237c0 49 -14 90 -43 121c-28 32 -64 48 -109 48c-88 0 -152 -70 -152 -169s64 -169 152 -169c89 0 152 69 152 169zM147 555l87 133h117v-14l-121 -119h-83z
M326 555l87 133h117v-14l-121 -119h-83z" />
    <glyph glyph-name="omacron" unicode="&#x14d;" horiz-adv-x="556" 
d="M38 237c0 140 97 247 240 247c144 0 241 -107 241 -247s-99 -247 -241 -247c-143 0 -240 107 -240 247zM430 237c0 49 -14 90 -43 121c-28 32 -64 48 -109 48c-88 0 -152 -70 -152 -169s64 -169 152 -169c89 0 152 69 152 169zM150 650h254v-69h-254v69z" />
    <glyph glyph-name="oslash" unicode="&#xf8;" horiz-adv-x="556" 
d="M519 237c0 -140 -99 -247 -241 -247c-18 0 -34 1 -47 4l-18 -49l-74 27l18 48c-75 41 -119 122 -119 217c0 140 97 247 240 247c19 0 35 -1 48 -4l18 49l73 -27l-18 -48c75 -41 120 -121 120 -217zM186 99l112 306c-4 1 -11 1 -20 1c-88 0 -152 -70 -152 -169
c0 -59 23 -107 60 -138zM430 237c0 59 -23 107 -60 138l-112 -306c5 -1 11 -1 20 -1c89 0 152 69 152 169z" />
    <glyph glyph-name="otilde" unicode="&#xf5;" horiz-adv-x="556" 
d="M38 237c0 140 97 247 240 247c144 0 241 -107 241 -247s-99 -247 -241 -247c-143 0 -240 107 -240 247zM430 237c0 49 -14 90 -43 121c-28 32 -64 48 -109 48c-88 0 -152 -70 -152 -169s64 -169 152 -169c89 0 152 69 152 169zM263 589c-16 15 -26 21 -43 21
c-19 0 -34 -13 -34 -34c0 -5 1 -11 3 -16l-63 8c-1 4 -2 9 -2 16c0 52 40 89 92 89c37 0 54 -11 77 -31c16 -15 26 -21 43 -21c19 0 34 13 34 34c0 6 -1 11 -3 16l64 -8c1 -4 2 -9 2 -16c0 -52 -41 -89 -93 -89c-37 0 -54 11 -77 31z" />
    <glyph glyph-name="oe" unicode="&#x153;" horiz-adv-x="914" 
d="M38 236c0 141 97 248 240 248c85 0 154 -40 195 -105c40 65 104 105 184 105c63 0 114 -18 153 -55c39 -36 58 -85 58 -147c0 -15 -2 -34 -6 -58h-343c1 -103 67 -159 151 -159c73 0 118 39 137 107l74 -29c-32 -96 -102 -153 -211 -153c-87 0 -154 35 -195 103
c-41 -65 -110 -103 -197 -103c-143 0 -240 105 -240 246zM519 286h262c1 3 1 8 1 14c0 69 -55 108 -126 108c-73 0 -128 -47 -137 -122zM430 236c0 50 -14 91 -43 122c-28 32 -64 48 -109 48c-88 0 -152 -71 -152 -170c0 -100 64 -168 152 -168c89 0 152 68 152 168z" />
    <glyph glyph-name="p" unicode="p" horiz-adv-x="573" 
d="M67 474h82v-89c31 57 99 99 170 99c128 0 216 -100 216 -247s-93 -247 -222 -247c-68 0 -128 31 -160 84v-272h-86v672zM299 67c78 0 150 59 150 169c0 109 -72 170 -150 170c-74 0 -150 -65 -150 -170s76 -169 150 -169z" />
    <glyph glyph-name="thorn" unicode="&#xfe;" horiz-adv-x="573" 
d="M67 700h86v-310c31 53 95 94 166 94c128 0 216 -100 216 -247s-93 -247 -222 -247c-68 0 -129 31 -160 84v-272h-86v898zM299 67c78 0 150 59 150 169c0 109 -72 170 -150 170c-74 0 -150 -65 -150 -170s76 -169 150 -169z" />
    <glyph glyph-name="q" unicode="q" horiz-adv-x="573" 
d="M420 -198v283c-36 -63 -91 -95 -164 -95c-128 0 -218 103 -218 247c0 147 93 247 223 247c76 0 136 -39 163 -98v88h83v-672h-87zM424 236c0 107 -72 170 -150 170s-150 -61 -150 -170c0 -111 72 -169 150 -169c74 0 150 61 150 169z" />
    <glyph glyph-name="r" unicode="r" horiz-adv-x="440" 
d="M67 474h86v-69c21 51 64 79 121 79c77 0 130 -57 130 -129c0 -19 -2 -37 -6 -53h-84c2 14 3 26 3 35c0 44 -29 71 -76 71c-53 0 -88 -42 -88 -106v-302h-86v474z" />
    <glyph glyph-name="racute" unicode="&#x155;" horiz-adv-x="440" 
d="M67 474h86v-69c21 51 64 79 121 79c77 0 130 -57 130 -129c0 -19 -2 -37 -6 -53h-84c2 14 3 26 3 35c0 44 -29 71 -76 71c-53 0 -88 -42 -88 -106v-302h-86v474zM214 555l87 133h117v-14l-121 -119h-83z" />
    <glyph glyph-name="rcaron" unicode="&#x159;" horiz-adv-x="440" 
d="M67 474h86v-69c21 51 64 79 121 79c77 0 130 -57 130 -129c0 -19 -2 -37 -6 -53h-84c2 14 3 26 3 35c0 44 -29 71 -76 71c-53 0 -88 -42 -88 -106v-302h-86v474zM226 555l-121 106v14h95l57 -69l57 69h95v-14l-121 -106h-62z" />
    <glyph glyph-name="rcommaaccent" unicode="&#x157;" horiz-adv-x="440" 
d="M67 474h86v-69c21 51 64 79 121 79c77 0 130 -57 130 -129c0 -19 -2 -37 -6 -53h-84c2 14 3 26 3 35c0 44 -29 71 -76 71c-53 0 -88 -42 -88 -106v-302h-86v474zM28 -248l10 47c13 -5 27 -8 40 -8c21 0 35 11 35 32c0 20 -14 30 -37 30h-18v95h104v-121
c0 -60 -33 -84 -84 -84c-17 0 -33 3 -50 9z" />
    <glyph glyph-name="s" unicode="s" horiz-adv-x="472" 
d="M33 124l71 37c27 -67 69 -95 141 -95c63 0 102 28 102 69c0 45 -29 70 -125 83c-109 16 -163 61 -163 136c0 38 16 69 48 93c33 25 74 37 123 37c89 0 142 -38 171 -105l-67 -37c-16 48 -53 72 -104 72c-52 0 -92 -24 -92 -61c0 -41 34 -59 127 -72
c111 -15 166 -62 166 -141c0 -88 -83 -150 -190 -150s-180 53 -208 134z" />
    <glyph glyph-name="sacute" unicode="&#x15b;" horiz-adv-x="472" 
d="M33 124l71 37c27 -67 69 -95 141 -95c63 0 102 28 102 69c0 45 -29 70 -125 83c-109 16 -163 61 -163 136c0 38 16 69 48 93c33 25 74 37 123 37c89 0 142 -38 171 -105l-67 -37c-16 48 -53 72 -104 72c-52 0 -92 -24 -92 -61c0 -41 34 -59 127 -72
c111 -15 166 -62 166 -141c0 -88 -83 -150 -190 -150s-180 53 -208 134zM190 555l87 133h117v-14l-121 -119h-83z" />
    <glyph glyph-name="scaron" unicode="&#x161;" horiz-adv-x="472" 
d="M33 124l71 37c27 -67 69 -95 141 -95c63 0 102 28 102 69c0 45 -29 70 -125 83c-109 16 -163 61 -163 136c0 38 16 69 48 93c33 25 74 37 123 37c89 0 142 -38 171 -105l-67 -37c-16 48 -53 72 -104 72c-52 0 -92 -24 -92 -61c0 -41 34 -59 127 -72
c111 -15 166 -62 166 -141c0 -88 -83 -150 -190 -150s-180 53 -208 134zM202 555l-121 106v14h95l57 -69l57 69h95v-14l-121 -106h-62z" />
    <glyph glyph-name="scedilla" unicode="&#x15f;" horiz-adv-x="472" 
d="M33 124l71 37c27 -67 69 -95 141 -95c63 0 102 28 102 69c0 45 -29 70 -125 83c-109 16 -163 61 -163 136c0 38 16 69 48 93c33 25 74 37 123 37c89 0 142 -38 171 -105l-67 -37c-16 48 -53 72 -104 72c-52 0 -92 -24 -92 -61c0 -41 34 -59 127 -72
c111 -15 166 -62 166 -141c0 -88 -83 -150 -190 -150s-180 53 -208 134zM212 -53c12 13 33 23 50 23c45 0 77 -29 77 -77c0 -51 -35 -81 -84 -81c-45 0 -81 23 -89 67l47 12c3 -20 19 -34 40 -34c25 0 40 15 40 36s-15 37 -40 37c-16 0 -31 -9 -38 -21l-47 9
c7 24 14 57 21 98h51c-10 -31 -19 -54 -28 -69z" />
    <glyph glyph-name="scircumflex" unicode="&#x15d;" horiz-adv-x="472" 
d="M33 124l71 37c27 -67 69 -95 141 -95c63 0 102 28 102 69c0 45 -29 70 -125 83c-109 16 -163 61 -163 136c0 38 16 69 48 93c33 25 74 37 123 37c89 0 142 -38 171 -105l-67 -37c-16 48 -53 72 -104 72c-52 0 -92 -24 -92 -61c0 -41 34 -59 127 -72
c111 -15 166 -62 166 -141c0 -88 -83 -150 -190 -150s-180 53 -208 134zM79 555v14l121 106h62l121 -106v-14h-95l-57 69l-57 -69h-95z" />
    <glyph glyph-name="scommaaccent" unicode="&#x219;" horiz-adv-x="472" 
d="M33 124l71 37c27 -67 69 -95 141 -95c63 0 102 28 102 69c0 45 -29 70 -125 83c-109 16 -163 61 -163 136c0 38 16 69 48 93c33 25 74 37 123 37c89 0 142 -38 171 -105l-67 -37c-16 48 -53 72 -104 72c-52 0 -92 -24 -92 -61c0 -41 34 -59 127 -72
c111 -15 166 -62 166 -141c0 -88 -83 -150 -190 -150s-180 53 -208 134zM159 -248l10 47c13 -5 27 -8 40 -8c21 0 35 11 35 32c0 20 -14 30 -37 30h-18v95h104v-121c0 -60 -33 -84 -84 -84c-17 0 -33 3 -50 9z" />
    <glyph glyph-name="germandbls" unicode="&#xdf;" horiz-adv-x="590" 
d="M338 69c67 0 116 49 116 142c0 103 -89 159 -190 159v76c68 4 122 41 122 106c0 52 -35 82 -91 82c-59 0 -96 -39 -96 -111v-523h-86v370h-86v76h86v82c0 112 73 182 182 182c107 0 173 -61 173 -149c0 -69 -44 -116 -97 -141c99 -21 169 -94 169 -207
c0 -132 -86 -223 -200 -223c-37 0 -73 8 -106 25l15 82c28 -19 58 -28 89 -28z" />
    <glyph glyph-name="t" unicode="t" horiz-adv-x="448" 
d="M117 141v260h-94v73h94v147h87v-147h170v-73h-170v-264c0 -45 28 -71 65 -71c40 0 63 22 71 74l80 -18c-13 -85 -67 -132 -148 -132c-100 0 -155 56 -155 151z" />
    <glyph glyph-name="tbar" unicode="&#x167;" horiz-adv-x="448" 
d="M117 141v260h-94v73h94v147h87v-147h170v-73h-170v-264c0 -45 28 -71 65 -71c40 0 63 22 71 74l80 -18c-13 -85 -67 -132 -148 -132c-100 0 -155 56 -155 151zM39 303h305v-70h-305v70z" />
    <glyph glyph-name="tcaron" unicode="&#x165;" horiz-adv-x="448" 
d="M117 141v260h-94v73h94v147h87v-147h170v-73h-170v-264c0 -45 28 -71 65 -71c40 0 63 22 71 74l80 -18c-13 -85 -67 -132 -148 -132c-100 0 -155 56 -155 151zM256 525v52h25c26 0 39 10 39 30c0 19 -13 30 -34 30h-18v97h104v-122c0 -60 -38 -87 -93 -87h-23z" />
    <glyph glyph-name="uni0163" unicode="&#x163;" horiz-adv-x="448" 
d="M117 141v260h-94v73h94v147h87v-147h170v-73h-170v-264c0 -45 28 -71 65 -71c40 0 63 22 71 74l80 -18c-13 -85 -67 -132 -148 -132c-100 0 -155 56 -155 151zM237 -53c12 13 33 23 50 23c45 0 77 -29 77 -77c0 -51 -35 -81 -84 -81c-45 0 -81 23 -89 67l47 12
c3 -20 19 -34 40 -34c25 0 40 15 40 36s-15 37 -40 37c-16 0 -31 -9 -38 -21l-47 9c7 24 14 57 21 98h51c-10 -31 -19 -54 -28 -69z" />
    <glyph glyph-name="uni021B" unicode="&#x21b;" horiz-adv-x="448" 
d="M117 141v260h-94v73h94v147h87v-147h170v-73h-170v-264c0 -45 28 -71 65 -71c40 0 63 22 71 74l80 -18c-13 -85 -67 -132 -148 -132c-100 0 -155 56 -155 151zM187 -248l10 47c13 -5 27 -8 40 -8c21 0 35 11 35 32c0 20 -14 30 -37 30h-18v95h104v-121
c0 -60 -33 -84 -84 -84c-17 0 -33 3 -50 9z" />
    <glyph glyph-name="u" unicode="u" horiz-adv-x="545" 
d="M392 474h87v-474h-87v80c-32 -55 -86 -90 -155 -90c-104 0 -170 63 -170 180v304h86v-284c0 -83 38 -124 107 -124c75 0 132 61 132 156v252z" />
    <glyph glyph-name="uacute" unicode="&#xfa;" horiz-adv-x="545" 
d="M392 474h87v-474h-87v80c-32 -55 -86 -90 -155 -90c-104 0 -170 63 -170 180v304h86v-284c0 -83 38 -124 107 -124c75 0 132 61 132 156v252zM232 555l87 133h117v-14l-121 -119h-83z" />
    <glyph glyph-name="ubreve" unicode="&#x16d;" horiz-adv-x="545" 
d="M392 474h87v-474h-87v80c-32 -55 -86 -90 -155 -90c-104 0 -170 63 -170 180v304h86v-284c0 -83 38 -124 107 -124c75 0 132 61 132 156v252zM395 663c0 -71 -53 -109 -122 -109s-122 38 -122 109c0 6 0 11 1 14h68l-1 -11c0 -29 21 -50 54 -50s54 21 54 50l-1 11h68
c1 -3 1 -8 1 -14z" />
    <glyph glyph-name="ucircumflex" unicode="&#xfb;" horiz-adv-x="545" 
d="M392 474h87v-474h-87v80c-32 -55 -86 -90 -155 -90c-104 0 -170 63 -170 180v304h86v-284c0 -83 38 -124 107 -124c75 0 132 61 132 156v252zM121 555v14l121 106h62l121 -106v-14h-95l-57 69l-57 -69h-95z" />
    <glyph glyph-name="udieresis" unicode="&#xfc;" horiz-adv-x="545" 
d="M392 474h87v-474h-87v80c-32 -55 -86 -90 -155 -90c-104 0 -170 63 -170 180v304h86v-284c0 -83 38 -124 107 -124c75 0 132 61 132 156v252zM140 567v99h97v-99h-97zM307 567v99h97v-99h-97z" />
    <glyph glyph-name="ugrave" unicode="&#xf9;" horiz-adv-x="545" 
d="M392 474h87v-474h-87v80c-32 -55 -86 -90 -155 -90c-104 0 -170 63 -170 180v304h86v-284c0 -83 38 -124 107 -124c75 0 132 61 132 156v252zM231 555l-121 119v14h117l87 -133h-83z" />
    <glyph glyph-name="uhungarumlaut" unicode="&#x171;" horiz-adv-x="545" 
d="M392 474h87v-474h-87v80c-32 -55 -86 -90 -155 -90c-104 0 -170 63 -170 180v304h86v-284c0 -83 38 -124 107 -124c75 0 132 61 132 156v252zM142 555l87 133h117v-14l-121 -119h-83zM321 555l87 133h117v-14l-121 -119h-83z" />
    <glyph glyph-name="umacron" unicode="&#x16b;" horiz-adv-x="545" 
d="M392 474h87v-474h-87v80c-32 -55 -86 -90 -155 -90c-104 0 -170 63 -170 180v304h86v-284c0 -83 38 -124 107 -124c75 0 132 61 132 156v252zM145 650h254v-69h-254v69z" />
    <glyph glyph-name="uogonek" unicode="&#x173;" horiz-adv-x="545" 
d="M392 474h87v-474h-87v80c-32 -55 -86 -90 -155 -90c-104 0 -170 63 -170 180v304h86v-284c0 -83 38 -124 107 -124c75 0 132 61 132 156v252zM440 -188c-53 0 -88 36 -88 83c0 39 21 77 68 105h59c-40 -25 -61 -50 -61 -79c0 -23 17 -38 41 -38c11 0 23 4 34 11l27 -61
c-28 -15 -48 -21 -80 -21z" />
    <glyph glyph-name="uring" unicode="&#x16f;" horiz-adv-x="545" 
d="M392 474h87v-474h-87v80c-32 -55 -86 -90 -155 -90c-104 0 -170 63 -170 180v304h86v-284c0 -83 38 -124 107 -124c75 0 132 61 132 156v252zM185 627c0 49 39 89 88 89s89 -40 89 -89s-40 -88 -89 -88s-88 39 -88 88zM312 627c0 21 -18 39 -39 39s-39 -18 -39 -39
s18 -39 39 -39s39 18 39 39z" />
    <glyph glyph-name="utilde" unicode="&#x169;" horiz-adv-x="545" 
d="M392 474h87v-474h-87v80c-32 -55 -86 -90 -155 -90c-104 0 -170 63 -170 180v304h86v-284c0 -83 38 -124 107 -124c75 0 132 61 132 156v252zM258 589c-16 15 -26 21 -43 21c-19 0 -34 -13 -34 -34c0 -5 1 -11 3 -16l-63 8c-1 4 -2 9 -2 16c0 52 40 89 92 89
c37 0 54 -11 77 -31c16 -15 26 -21 43 -21c19 0 34 13 34 34c0 6 -1 11 -3 16l64 -8c1 -4 2 -9 2 -16c0 -52 -41 -89 -93 -89c-37 0 -54 11 -77 31z" />
    <glyph glyph-name="v" unicode="v" horiz-adv-x="521" 
d="M110 474l151 -390l150 390h92l-190 -474h-105l-189 474h91z" />
    <glyph glyph-name="w" unicode="w" horiz-adv-x="741" 
d="M102 474l111 -390l107 390h101l107 -390l111 390h85l-141 -474h-107l-105 364l-105 -364h-108l-141 474h85z" />
    <glyph glyph-name="wacute" unicode="&#x1e83;" horiz-adv-x="741" 
d="M102 474l111 -390l107 390h101l107 -390l111 390h85l-141 -474h-107l-105 364l-105 -364h-108l-141 474h85zM330 555l87 133h117v-14l-121 -119h-83z" />
    <glyph glyph-name="wcircumflex" unicode="&#x175;" horiz-adv-x="741" 
d="M102 474l111 -390l107 390h101l107 -390l111 390h85l-141 -474h-107l-105 364l-105 -364h-108l-141 474h85zM219 555v14l121 106h62l121 -106v-14h-95l-57 69l-57 -69h-95z" />
    <glyph glyph-name="wdieresis" unicode="&#x1e85;" horiz-adv-x="741" 
d="M102 474l111 -390l107 390h101l107 -390l111 390h85l-141 -474h-107l-105 364l-105 -364h-108l-141 474h85zM238 567v99h97v-99h-97zM405 567v99h97v-99h-97z" />
    <glyph glyph-name="wgrave" unicode="&#x1e81;" horiz-adv-x="741" 
d="M102 474l111 -390l107 390h101l107 -390l111 390h85l-141 -474h-107l-105 364l-105 -364h-108l-141 474h85zM329 555l-121 119v14h117l87 -133h-83z" />
    <glyph glyph-name="x" unicode="x" horiz-adv-x="468" 
d="M434 474l-152 -223l173 -251h-99l-122 183l-122 -183h-99l174 250l-154 224h101l100 -154l99 154h101z" />
    <glyph glyph-name="y" unicode="y" horiz-adv-x="481" 
d="M376 474h92l-304 -672h-92l117 259l-181 413h94l133 -312z" />
    <glyph glyph-name="yacute" unicode="&#xfd;" horiz-adv-x="481" 
d="M376 474h92l-304 -672h-92l117 259l-181 413h94l133 -312zM194 555l87 133h117v-14l-121 -119h-83z" />
    <glyph glyph-name="ycircumflex" unicode="&#x177;" horiz-adv-x="481" 
d="M376 474h92l-304 -672h-92l117 259l-181 413h94l133 -312zM83 555v14l121 106h62l121 -106v-14h-95l-57 69l-57 -69h-95z" />
    <glyph glyph-name="ydieresis" unicode="&#xff;" horiz-adv-x="481" 
d="M376 474h92l-304 -672h-92l117 259l-181 413h94l133 -312zM102 567v99h97v-99h-97zM269 567v99h97v-99h-97z" />
    <glyph glyph-name="ygrave" unicode="&#x1ef3;" horiz-adv-x="481" 
d="M376 474h92l-304 -672h-92l117 259l-181 413h94l133 -312zM193 555l-121 119v14h117l87 -133h-83z" />
    <glyph glyph-name="z" unicode="z" horiz-adv-x="495" 
d="M448 0h-406v73l293 323h-288v78h396v-73l-293 -323h298v-78z" />
    <glyph glyph-name="zacute" unicode="&#x17a;" horiz-adv-x="495" 
d="M448 0h-406v73l293 323h-288v78h396v-73l-293 -323h298v-78zM203 555l87 133h117v-14l-121 -119h-83z" />
    <glyph glyph-name="zcaron" unicode="&#x17e;" horiz-adv-x="495" 
d="M448 0h-406v73l293 323h-288v78h396v-73l-293 -323h298v-78zM215 555l-121 106v14h95l57 -69l57 69h95v-14l-121 -106h-62z" />
    <glyph glyph-name="zdotaccent" unicode="&#x17c;" horiz-adv-x="495" 
d="M448 0h-406v73l293 323h-288v78h396v-73l-293 -323h298v-78zM196 562v101h96v-101h-96z" />
    <glyph glyph-name="uni01B6" unicode="&#x1b6;" horiz-adv-x="495" 
d="M42 0v73l119 132h-70v70h135l109 121h-288v78h396v-73l-114 -126h66v-70h-130l-115 -127h298v-78h-406z" />
    <glyph glyph-name="adieresis.ss01" horiz-adv-x="515" 
d="M45 135c0 97 73 147 176 147c35 0 69 -5 101 -15l43 -12v49c0 69 -48 107 -119 107c-68 0 -114 -37 -126 -98l-78 22c19 91 93 149 204 149c129 0 202 -70 202 -187v-297h-83v75c-24 -51 -87 -85 -163 -85c-44 0 -81 13 -112 39c-30 27 -45 62 -45 106zM365 177v10
l-44 13c-33 10 -63 15 -88 15c-61 0 -99 -26 -99 -75c0 -44 34 -74 97 -74c79 0 134 42 134 111zM104 616c0 31 25 56 56 56s56 -25 56 -56s-25 -56 -56 -56s-56 25 -56 56zM277 616c0 31 25 56 56 56s56 -25 56 -56s-25 -56 -56 -56s-56 25 -56 56z" />
    <glyph glyph-name="cdotaccent.ss01" horiz-adv-x="550" 
d="M285 66c92 0 138 53 157 142l77 -29c-27 -120 -113 -189 -232 -189c-149 0 -249 100 -249 250c0 142 109 244 238 244c115 0 197 -63 220 -171l-79 -24c-15 75 -65 119 -142 119c-73 0 -153 -59 -153 -168c0 -106 79 -174 163 -174zM274 670c33 0 58 -25 58 -58
s-25 -58 -58 -58c-32 0 -57 25 -57 58s25 58 57 58z" />
    <glyph glyph-name="dcaron.ss01" horiz-adv-x="682" 
d="M38 234c0 147 91 250 220 250c73 0 131 -37 162 -96v312h87v-700h-83v85c-32 -57 -92 -95 -164 -95c-131 0 -222 99 -222 244zM424 235c0 105 -76 171 -150 171c-77 0 -150 -65 -150 -171c0 -107 72 -168 150 -168c74 0 150 62 150 168zM560 491v52h43c16 0 26 7 26 20
c0 11 -8 18 -23 22c-29 5 -49 31 -49 60c0 35 26 62 62 62c37 0 63 -28 63 -69v-59c0 -60 -31 -88 -83 -88h-39z" />
    <glyph glyph-name="edieresis.ss01" horiz-adv-x="515" 
d="M414 172l75 -29c-32 -96 -103 -153 -212 -153c-139 0 -239 97 -239 250c0 136 91 244 226 244c63 0 114 -18 153 -55c39 -36 58 -85 58 -147c0 -21 -2 -40 -6 -58h-343c1 -103 67 -158 151 -158c73 0 118 38 137 106zM126 286h263l1 14c0 68 -55 108 -127 108
c-73 0 -128 -47 -137 -122zM119 616c0 31 25 56 56 56s56 -25 56 -56s-25 -56 -56 -56s-56 25 -56 56zM292 616c0 31 25 56 56 56s56 -25 56 -56s-25 -56 -56 -56s-56 25 -56 56z" />
    <glyph glyph-name="edotaccent.ss01" horiz-adv-x="522" 
d="M414 172l75 -29c-32 -96 -103 -153 -212 -153c-139 0 -239 97 -239 250c0 136 91 244 226 244c63 0 114 -18 153 -55c39 -36 58 -85 58 -147c0 -21 -2 -40 -6 -58h-343c1 -103 67 -158 151 -158c73 0 118 38 137 106zM126 286h263l1 14c0 68 -55 108 -127 108
c-73 0 -128 -47 -137 -122zM262 670c33 0 58 -25 58 -58s-25 -58 -58 -58c-32 0 -57 25 -57 58s25 58 57 58z" />
    <glyph glyph-name="gcommaaccent.ss01" horiz-adv-x="576" 
d="M65 -62l78 33c19 -69 66 -103 140 -103c92 0 139 61 139 168v53c-28 -53 -86 -89 -165 -89c-120 0 -219 93 -219 235c0 148 99 249 224 249c72 0 125 -27 160 -81v71h87v-432c0 -75 -20 -135 -59 -181s-95 -69 -167 -69c-115 0 -187 49 -218 146zM426 241
c0 96 -64 167 -150 167c-88 0 -152 -66 -152 -174c0 -97 64 -158 152 -158c86 0 150 68 150 165zM225 607v68c0 58 25 87 76 87h49v-45h-45c-17 0 -29 -10 -29 -26c0 -13 8 -20 25 -25c27 -7 46 -31 46 -59c0 -35 -26 -61 -61 -61s-61 28 -61 61z" />
    <glyph glyph-name="gdotaccent.ss01" horiz-adv-x="576" 
d="M65 -62l78 33c19 -69 66 -103 140 -103c92 0 139 61 139 168v53c-28 -53 -86 -89 -165 -89c-120 0 -219 93 -219 235c0 148 99 249 224 249c72 0 125 -27 160 -81v71h87v-432c0 -75 -20 -135 -59 -181s-95 -69 -167 -69c-115 0 -187 49 -218 146zM426 241
c0 96 -64 167 -150 167c-88 0 -152 -66 -152 -174c0 -97 64 -158 152 -158c86 0 150 68 150 165zM284 670c33 0 58 -25 58 -58s-25 -58 -58 -58c-32 0 -57 25 -57 58s25 58 57 58z" />
    <glyph glyph-name="i.ss01" horiz-adv-x="220" 
d="M67 474h86v-474h-86v474zM108 670c33 0 58 -25 58 -58s-25 -58 -58 -58c-32 0 -57 25 -57 58s25 58 57 58z" />
    <glyph glyph-name="idieresis.ss01" horiz-adv-x="220" 
d="M67 474h86v-474h-86v474zM-32 616c0 31 25 56 56 56s56 -25 56 -56s-25 -56 -56 -56s-56 25 -56 56zM141 616c0 31 25 56 56 56s56 -25 56 -56s-25 -56 -56 -56s-56 25 -56 56z" />
    <glyph glyph-name="i.loclTRK.ss01" horiz-adv-x="220" 
d="M67 474h86v-474h-86v474zM108 670c33 0 58 -25 58 -58s-25 -58 -58 -58c-32 0 -57 25 -57 58s25 58 57 58z" />
    <glyph glyph-name="ij.ss01" horiz-adv-x="440" 
d="M67 474h86v-474h-86v474zM108 670c33 0 58 -25 58 -58s-25 -58 -58 -58c-32 0 -57 25 -57 58s25 58 57 58zM287 -198v672h86v-672h-86zM328 670c33 0 58 -25 58 -58s-25 -58 -58 -58c-32 0 -57 25 -57 58s25 58 57 58z" />
    <glyph glyph-name="iogonek.ss01" horiz-adv-x="220" 
d="M67 474h86v-474h-86v474zM108 670c33 0 58 -25 58 -58s-25 -58 -58 -58c-32 0 -57 25 -57 58s25 58 57 58zM114 -188c-53 0 -88 36 -88 83c0 39 21 77 68 105h59c-40 -25 -61 -50 -61 -79c0 -23 17 -38 41 -38c11 0 23 4 34 11l27 -61c-28 -15 -48 -21 -80 -21z" />
    <glyph glyph-name="j.ss01" horiz-adv-x="220" 
d="M67 -198v672h86v-672h-86zM108 670c33 0 58 -25 58 -58s-25 -58 -58 -58c-32 0 -57 25 -57 58s25 58 57 58z" />
    <glyph glyph-name="kcommaaccent.ss01" horiz-adv-x="505" 
d="M286 282l195 -282h-105l-150 218l-73 -77v-141h-86v700h86v-448l203 222h110zM192 -249l10 48c13 -6 26 -9 37 -9c22 0 33 9 33 26c0 12 -6 17 -26 26c-29 11 -43 29 -43 55c0 35 25 59 57 59c33 0 61 -28 61 -61v-68c0 -57 -28 -85 -83 -85c-16 0 -31 3 -46 9z" />
    <glyph glyph-name="lcaron.ss01" horiz-adv-x="328" 
d="M67 0v700h86v-700h-86zM207 491v52h43c16 0 26 7 26 20c0 11 -8 18 -23 22c-29 5 -49 31 -49 60c0 35 26 62 62 62c37 0 63 -28 63 -69v-59c0 -60 -31 -88 -83 -88h-39z" />
    <glyph glyph-name="lcommaaccent.ss01" horiz-adv-x="220" 
d="M67 0v700h86v-700h-86zM45 -249l10 48c13 -6 26 -9 37 -9c22 0 33 9 33 26c0 12 -6 17 -26 26c-29 11 -43 29 -43 55c0 35 25 59 57 59c33 0 61 -28 61 -61v-68c0 -57 -28 -85 -83 -85c-16 0 -31 3 -46 9z" />
    <glyph glyph-name="ldot.ss01" horiz-adv-x="400" 
d="M67 0v700h86v-700h-86zM249 350c0 35 28 61 61 61c35 0 61 -26 61 -61c0 -33 -26 -61 -61 -61c-33 0 -61 28 -61 61z" />
    <glyph glyph-name="ncommaaccent.ss01" horiz-adv-x="543" 
d="M153 0h-86v474h86v-77c33 55 89 87 156 87c101 0 167 -65 167 -176v-308h-87v282c0 83 -40 126 -108 126c-72 0 -128 -57 -128 -148v-260zM205 -249l10 48c13 -6 26 -9 37 -9c22 0 33 9 33 26c0 12 -6 17 -26 26c-29 11 -43 29 -43 55c0 35 25 59 57 59
c33 0 61 -28 61 -61v-68c0 -57 -28 -85 -83 -85c-16 0 -31 3 -46 9z" />
    <glyph glyph-name="odieresis.ss01" horiz-adv-x="544" 
d="M38 237c0 140 97 247 240 247c144 0 241 -107 241 -247s-99 -247 -241 -247c-143 0 -240 107 -240 247zM430 237c0 49 -14 90 -43 121c-28 32 -64 48 -109 48c-88 0 -152 -70 -152 -169s64 -169 152 -169c89 0 152 69 152 169zM129 616c0 31 25 56 56 56s56 -25 56 -56
s-25 -56 -56 -56s-56 25 -56 56zM302 616c0 31 25 56 56 56s56 -25 56 -56s-25 -56 -56 -56s-56 25 -56 56z" />
    <glyph glyph-name="rcommaaccent.ss01" horiz-adv-x="440" 
d="M67 474h86v-69c21 51 64 79 121 79c77 0 130 -57 130 -129c0 -19 -2 -37 -6 -53h-84c2 14 3 26 3 35c0 44 -29 71 -76 71c-53 0 -88 -42 -88 -106v-302h-86v474zM45 -249l10 48c13 -6 26 -9 37 -9c22 0 33 9 33 26c0 12 -6 17 -26 26c-29 11 -43 29 -43 55
c0 35 25 59 57 59c33 0 61 -28 61 -61v-68c0 -57 -28 -85 -83 -85c-16 0 -31 3 -46 9z" />
    <glyph glyph-name="scommaaccent.ss01" horiz-adv-x="472" 
d="M33 124l71 37c27 -67 69 -95 141 -95c63 0 102 28 102 69c0 45 -29 70 -125 83c-109 16 -163 61 -163 136c0 38 16 69 48 93c33 25 74 37 123 37c89 0 142 -38 171 -105l-67 -37c-16 48 -53 72 -104 72c-52 0 -92 -24 -92 -61c0 -41 34 -59 127 -72
c111 -15 166 -62 166 -141c0 -88 -83 -150 -190 -150s-180 53 -208 134zM176 -249l10 48c13 -6 26 -9 37 -9c22 0 33 9 33 26c0 12 -6 17 -26 26c-29 11 -43 29 -43 55c0 35 25 59 57 59c33 0 61 -28 61 -61v-68c0 -57 -28 -85 -83 -85c-16 0 -31 3 -46 9z" />
    <glyph glyph-name="tcaron.ss01" horiz-adv-x="448" 
d="M117 141v260h-94v73h94v147h87v-147h170v-73h-170v-264c0 -45 28 -71 65 -71c40 0 63 22 71 74l80 -18c-13 -85 -67 -132 -148 -132c-100 0 -155 56 -155 151zM261 525v52h43c16 0 26 7 26 20c0 11 -8 18 -23 22c-29 5 -49 31 -49 60c0 35 26 62 62 62
c37 0 63 -28 63 -69v-59c0 -60 -31 -88 -83 -88h-39z" />
    <glyph glyph-name="uni021B.ss01" horiz-adv-x="448" 
d="M117 141v260h-94v73h94v147h87v-147h170v-73h-170v-264c0 -45 28 -71 65 -71c40 0 63 22 71 74l80 -18c-13 -85 -67 -132 -148 -132c-100 0 -155 56 -155 151zM204 -249l10 48c13 -6 26 -9 37 -9c22 0 33 9 33 26c0 12 -6 17 -26 26c-29 11 -43 29 -43 55
c0 35 25 59 57 59c33 0 61 -28 61 -61v-68c0 -57 -28 -85 -83 -85c-16 0 -31 3 -46 9z" />
    <glyph glyph-name="udieresis.ss01" horiz-adv-x="528" 
d="M392 474h87v-474h-87v80c-32 -55 -86 -90 -155 -90c-104 0 -170 63 -170 180v304h86v-284c0 -83 38 -124 107 -124c75 0 132 61 132 156v252zM121 616c0 31 25 56 56 56s56 -25 56 -56s-25 -56 -56 -56s-56 25 -56 56zM294 616c0 31 25 56 56 56s56 -25 56 -56
s-25 -56 -56 -56s-56 25 -56 56z" />
    <glyph glyph-name="wdieresis.ss01" horiz-adv-x="741" 
d="M102 474l111 -390l107 390h101l107 -390l111 390h85l-141 -474h-107l-105 364l-105 -364h-108l-141 474h85zM229 616c0 31 25 56 56 56s56 -25 56 -56s-25 -56 -56 -56s-56 25 -56 56zM402 616c0 31 25 56 56 56s56 -25 56 -56s-25 -56 -56 -56s-56 25 -56 56z" />
    <glyph glyph-name="ydieresis.ss01" horiz-adv-x="484" 
d="M376 474h92l-304 -672h-92l117 259l-181 413h94l133 -312zM99 616c0 31 25 56 56 56s56 -25 56 -56s-25 -56 -56 -56s-56 25 -56 56zM272 616c0 31 25 56 56 56s56 -25 56 -56s-25 -56 -56 -56s-56 25 -56 56z" />
    <glyph glyph-name="zdotaccent.ss01" horiz-adv-x="495" 
d="M448 0h-406v73l293 323h-288v78h396v-73l-293 -323h298v-78zM242 670c33 0 58 -25 58 -58s-25 -58 -58 -58c-32 0 -57 25 -57 58s25 58 57 58z" />
    <glyph glyph-name="a.ss02" horiz-adv-x="584" 
d="M38 234c0 147 97 250 226 250c77 0 137 -35 166 -92v82h87v-474h-82v85c-40 -63 -96 -95 -169 -95c-131 0 -228 101 -228 244zM434 235c0 105 -77 171 -155 171c-81 0 -155 -65 -155 -171c0 -107 73 -168 155 -168c79 0 155 61 155 168z" />
    <glyph glyph-name="aacute.ss02" horiz-adv-x="584" 
d="M38 234c0 147 97 250 226 250c77 0 137 -35 166 -92v82h87v-474h-82v85c-40 -63 -96 -95 -169 -95c-131 0 -228 101 -228 244zM434 235c0 105 -77 171 -155 171c-81 0 -155 -65 -155 -171c0 -107 73 -168 155 -168c79 0 155 61 155 168zM242 555l87 133h117v-14
l-121 -119h-83z" />
    <glyph glyph-name="abreve.ss02" horiz-adv-x="584" 
d="M38 234c0 147 97 250 226 250c77 0 137 -35 166 -92v82h87v-474h-82v85c-40 -63 -96 -95 -169 -95c-131 0 -228 101 -228 244zM434 235c0 105 -77 171 -155 171c-81 0 -155 -65 -155 -171c0 -107 73 -168 155 -168c79 0 155 61 155 168zM405 663
c0 -71 -53 -109 -122 -109s-122 38 -122 109c0 6 0 11 1 14h68l-1 -11c0 -29 21 -50 54 -50s54 21 54 50l-1 11h68c1 -3 1 -8 1 -14z" />
    <glyph glyph-name="acircumflex.ss02" horiz-adv-x="584" 
d="M38 234c0 147 97 250 226 250c77 0 137 -35 166 -92v82h87v-474h-82v85c-40 -63 -96 -95 -169 -95c-131 0 -228 101 -228 244zM434 235c0 105 -77 171 -155 171c-81 0 -155 -65 -155 -171c0 -107 73 -168 155 -168c79 0 155 61 155 168zM131 555v14l121 106h62l121 -106
v-14h-95l-57 69l-57 -69h-95z" />
    <glyph glyph-name="adieresis.ss02" horiz-adv-x="584" 
d="M38 234c0 147 97 250 226 250c77 0 137 -35 166 -92v82h87v-474h-82v85c-40 -63 -96 -95 -169 -95c-131 0 -228 101 -228 244zM434 235c0 105 -77 171 -155 171c-81 0 -155 -65 -155 -171c0 -107 73 -168 155 -168c79 0 155 61 155 168zM150 567v99h97v-99h-97zM317 567
v99h97v-99h-97z" />
    <glyph glyph-name="agrave.ss02" horiz-adv-x="584" 
d="M38 234c0 147 97 250 226 250c77 0 137 -35 166 -92v82h87v-474h-82v85c-40 -63 -96 -95 -169 -95c-131 0 -228 101 -228 244zM434 235c0 105 -77 171 -155 171c-81 0 -155 -65 -155 -171c0 -107 73 -168 155 -168c79 0 155 61 155 168zM241 555l-121 119v14h117l87 -133
h-83z" />
    <glyph glyph-name="amacron.ss02" horiz-adv-x="584" 
d="M38 234c0 147 97 250 226 250c77 0 137 -35 166 -92v82h87v-474h-82v85c-40 -63 -96 -95 -169 -95c-131 0 -228 101 -228 244zM434 235c0 105 -77 171 -155 171c-81 0 -155 -65 -155 -171c0 -107 73 -168 155 -168c79 0 155 61 155 168zM155 650h254v-69h-254v69z" />
    <glyph glyph-name="aogonek.ss02" horiz-adv-x="584" 
d="M38 234c0 147 97 250 226 250c77 0 137 -35 166 -92v82h87v-474h-82v85c-40 -63 -96 -95 -169 -95c-131 0 -228 101 -228 244zM434 235c0 105 -77 171 -155 171c-81 0 -155 -65 -155 -171c0 -107 73 -168 155 -168c79 0 155 61 155 168zM478 -188c-53 0 -88 36 -88 83
c0 39 21 77 68 105h59c-40 -25 -61 -50 -61 -79c0 -23 17 -38 41 -38c11 0 23 4 34 11l27 -61c-28 -15 -48 -21 -80 -21z" />
    <glyph glyph-name="aring.ss02" horiz-adv-x="584" 
d="M38 234c0 147 97 250 226 250c77 0 137 -35 166 -92v82h87v-474h-82v85c-40 -63 -96 -95 -169 -95c-131 0 -228 101 -228 244zM434 235c0 105 -77 171 -155 171c-81 0 -155 -65 -155 -171c0 -107 73 -168 155 -168c79 0 155 61 155 168zM195 627c0 49 39 89 88 89
s89 -40 89 -89s-40 -88 -89 -88s-88 39 -88 88zM322 627c0 21 -18 39 -39 39s-39 -18 -39 -39s18 -39 39 -39s39 18 39 39z" />
    <glyph glyph-name="aringacute.ss02" horiz-adv-x="584" 
d="M38 234c0 147 97 250 226 250c77 0 137 -35 166 -92v82h87v-474h-82v85c-40 -63 -96 -95 -169 -95c-131 0 -228 101 -228 244zM434 235c0 105 -77 171 -155 171c-81 0 -155 -65 -155 -171c0 -107 73 -168 155 -168c79 0 155 61 155 168zM195 627c0 49 39 89 88 89
s89 -40 89 -89s-40 -88 -89 -88s-88 39 -88 88zM322 627c0 21 -18 39 -39 39s-39 -18 -39 -39s18 -39 39 -39s39 18 39 39zM242 691l87 133h117v-14l-121 -119h-83z" />
    <glyph glyph-name="atilde.ss02" horiz-adv-x="584" 
d="M38 234c0 147 97 250 226 250c77 0 137 -35 166 -92v82h87v-474h-82v85c-40 -63 -96 -95 -169 -95c-131 0 -228 101 -228 244zM434 235c0 105 -77 171 -155 171c-81 0 -155 -65 -155 -171c0 -107 73 -168 155 -168c79 0 155 61 155 168zM268 589c-16 15 -26 21 -43 21
c-19 0 -34 -13 -34 -34c0 -5 1 -11 3 -16l-63 8c-1 4 -2 9 -2 16c0 52 40 89 92 89c37 0 54 -11 77 -31c16 -15 26 -21 43 -21c19 0 34 13 34 34c0 6 -1 11 -3 16l64 -8c1 -4 2 -9 2 -16c0 -52 -41 -89 -93 -89c-37 0 -54 11 -77 31z" />
    <glyph glyph-name="ae.ss02" horiz-adv-x="918" 
d="M38 234c0 147 97 250 226 250c77 0 137 -35 166 -92v82h87v-66c28 48 86 76 145 76c63 0 113 -18 152 -55c39 -36 58 -85 58 -147c0 -15 -2 -34 -6 -58h-343c1 -103 66 -159 151 -159c73 0 118 39 137 107l74 -29c-32 -96 -102 -153 -211 -153c-68 0 -120 26 -157 78v-68
h-82v85c-40 -63 -96 -95 -169 -95c-131 0 -228 101 -228 244zM523 286h262c1 3 1 8 1 14c0 69 -55 108 -126 108c-73 0 -128 -47 -137 -122zM434 235c0 105 -77 171 -155 171c-81 0 -155 -65 -155 -171c0 -107 73 -168 155 -168c79 0 155 61 155 168z" />
    <glyph glyph-name="aeacute.ss02" horiz-adv-x="918" 
d="M38 234c0 147 97 250 226 250c77 0 137 -35 166 -92v82h87v-66c28 48 86 76 145 76c63 0 113 -18 152 -55c39 -36 58 -85 58 -147c0 -15 -2 -34 -6 -58h-343c1 -103 66 -159 151 -159c73 0 118 39 137 107l74 -29c-32 -96 -102 -153 -211 -153c-68 0 -120 26 -157 78v-68
h-82v85c-40 -63 -96 -95 -169 -95c-131 0 -228 101 -228 244zM523 286h262c1 3 1 8 1 14c0 69 -55 108 -126 108c-73 0 -128 -47 -137 -122zM434 235c0 105 -77 171 -155 171c-81 0 -155 -65 -155 -171c0 -107 73 -168 155 -168c79 0 155 61 155 168zM432 555l87 133h117
v-14l-121 -119h-83z" />
    <glyph glyph-name="adieresis.ss01.ss02" horiz-adv-x="584" 
d="M38 234c0 147 97 250 226 250c77 0 137 -35 166 -92v82h87v-474h-82v85c-40 -63 -96 -95 -169 -95c-131 0 -228 101 -228 244zM434 235c0 105 -77 171 -155 171c-81 0 -155 -65 -155 -171c0 -107 73 -168 155 -168c79 0 155 61 155 168zM141 616c0 31 25 56 56 56
s56 -25 56 -56s-25 -56 -56 -56s-56 25 -56 56zM314 616c0 31 25 56 56 56s56 -25 56 -56s-25 -56 -56 -56s-56 25 -56 56z" />
    <glyph glyph-name="g.ss03" horiz-adv-x="527" 
d="M25 -52c0 40 16 72 47 97c-23 18 -35 44 -35 78c0 35 20 65 49 85c-22 28 -33 62 -33 103c0 106 85 173 189 173c47 0 91 -13 120 -34c7 37 38 63 82 63c55 0 84 -32 87 -96l-75 -13c0 29 -10 43 -31 43c-15 0 -26 -10 -26 -25c0 -6 2 -12 5 -17c18 -30 27 -61 27 -94
c0 -108 -85 -173 -189 -173c-39 0 -75 9 -107 27c-13 -9 -20 -20 -20 -35c0 -27 24 -41 64 -41h138c99 0 162 -51 162 -131c0 -104 -87 -166 -235 -166c-63 0 -115 13 -157 40c-41 27 -62 65 -62 116zM346 311c0 60 -43 100 -104 100s-104 -40 -104 -100
c0 -63 41 -100 104 -100s104 39 104 100zM395 -50c0 43 -32 65 -96 65h-126c-14 0 -24 1 -31 2c-23 -16 -35 -38 -35 -67c0 -53 54 -86 142 -86c96 0 146 30 146 86z" />
    <glyph glyph-name="gbreve.ss03" horiz-adv-x="527" 
d="M25 -52c0 40 16 72 47 97c-23 18 -35 44 -35 78c0 35 20 65 49 85c-22 28 -33 62 -33 103c0 106 85 173 189 173c47 0 91 -13 120 -34c7 37 38 63 82 63c55 0 84 -32 87 -96l-75 -13c0 29 -10 43 -31 43c-15 0 -26 -10 -26 -25c0 -6 2 -12 5 -17c18 -30 27 -61 27 -94
c0 -108 -85 -173 -189 -173c-39 0 -75 9 -107 27c-13 -9 -20 -20 -20 -35c0 -27 24 -41 64 -41h138c99 0 162 -51 162 -131c0 -104 -87 -166 -235 -166c-63 0 -115 13 -157 40c-41 27 -62 65 -62 116zM346 311c0 60 -43 100 -104 100s-104 -40 -104 -100
c0 -63 41 -100 104 -100s104 39 104 100zM395 -50c0 43 -32 65 -96 65h-126c-14 0 -24 1 -31 2c-23 -16 -35 -38 -35 -67c0 -53 54 -86 142 -86c96 0 146 30 146 86zM364 663c0 -71 -53 -109 -122 -109s-122 38 -122 109c0 6 0 11 1 14h68l-1 -11c0 -29 21 -50 54 -50
s54 21 54 50l-1 11h68c1 -3 1 -8 1 -14z" />
    <glyph glyph-name="gcircumflex.ss03" horiz-adv-x="527" 
d="M25 -52c0 40 16 72 47 97c-23 18 -35 44 -35 78c0 35 20 65 49 85c-22 28 -33 62 -33 103c0 106 85 173 189 173c47 0 91 -13 120 -34c7 37 38 63 82 63c55 0 84 -32 87 -96l-75 -13c0 29 -10 43 -31 43c-15 0 -26 -10 -26 -25c0 -6 2 -12 5 -17c18 -30 27 -61 27 -94
c0 -108 -85 -173 -189 -173c-39 0 -75 9 -107 27c-13 -9 -20 -20 -20 -35c0 -27 24 -41 64 -41h138c99 0 162 -51 162 -131c0 -104 -87 -166 -235 -166c-63 0 -115 13 -157 40c-41 27 -62 65 -62 116zM346 311c0 60 -43 100 -104 100s-104 -40 -104 -100
c0 -63 41 -100 104 -100s104 39 104 100zM395 -50c0 43 -32 65 -96 65h-126c-14 0 -24 1 -31 2c-23 -16 -35 -38 -35 -67c0 -53 54 -86 142 -86c96 0 146 30 146 86zM90 555v14l121 106h62l121 -106v-14h-95l-57 69l-57 -69h-95z" />
    <glyph glyph-name="gcommaaccent.ss03" horiz-adv-x="527" 
d="M25 -52c0 40 16 72 47 97c-23 18 -35 44 -35 78c0 35 20 65 49 85c-22 28 -33 62 -33 103c0 106 85 173 189 173c47 0 91 -13 120 -34c7 37 38 63 82 63c55 0 84 -32 87 -96l-75 -13c0 29 -10 43 -31 43c-15 0 -26 -10 -26 -25c0 -6 2 -12 5 -17c18 -30 27 -61 27 -94
c0 -108 -85 -173 -189 -173c-39 0 -75 9 -107 27c-13 -9 -20 -20 -20 -35c0 -27 24 -41 64 -41h138c99 0 162 -51 162 -131c0 -104 -87 -166 -235 -166c-63 0 -115 13 -157 40c-41 27 -62 65 -62 116zM346 311c0 60 -43 100 -104 100s-104 -40 -104 -100
c0 -63 41 -100 104 -100s104 39 104 100zM395 -50c0 43 -32 65 -96 65h-126c-14 0 -24 1 -31 2c-23 -16 -35 -38 -35 -67c0 -53 54 -86 142 -86c96 0 146 30 146 86zM279 542h-105v133c0 60 38 84 94 84h32v-52h-35c-24 0 -39 -10 -39 -30c0 -19 12 -30 35 -30h18v-105z" />
    <glyph glyph-name="gdotaccent.ss03" horiz-adv-x="527" 
d="M25 -52c0 40 16 72 47 97c-23 18 -35 44 -35 78c0 35 20 65 49 85c-22 28 -33 62 -33 103c0 106 85 173 189 173c47 0 91 -13 120 -34c7 37 38 63 82 63c55 0 84 -32 87 -96l-75 -13c0 29 -10 43 -31 43c-15 0 -26 -10 -26 -25c0 -6 2 -12 5 -17c18 -30 27 -61 27 -94
c0 -108 -85 -173 -189 -173c-39 0 -75 9 -107 27c-13 -9 -20 -20 -20 -35c0 -27 24 -41 64 -41h138c99 0 162 -51 162 -131c0 -104 -87 -166 -235 -166c-63 0 -115 13 -157 40c-41 27 -62 65 -62 116zM346 311c0 60 -43 100 -104 100s-104 -40 -104 -100
c0 -63 41 -100 104 -100s104 39 104 100zM395 -50c0 43 -32 65 -96 65h-126c-14 0 -24 1 -31 2c-23 -16 -35 -38 -35 -67c0 -53 54 -86 142 -86c96 0 146 30 146 86zM194 562v101h96v-101h-96z" />
    <glyph glyph-name="gcommaaccent.ss01.ss03" horiz-adv-x="527" 
d="M25 -52c0 40 16 72 47 97c-23 18 -35 44 -35 78c0 35 20 65 49 85c-22 28 -33 62 -33 103c0 106 85 173 189 173c47 0 91 -13 120 -34c7 37 38 63 82 63c55 0 84 -32 87 -96l-75 -13c0 29 -10 43 -31 43c-15 0 -26 -10 -26 -25c0 -6 2 -12 5 -17c18 -30 27 -61 27 -94
c0 -108 -85 -173 -189 -173c-39 0 -75 9 -107 27c-13 -9 -20 -20 -20 -35c0 -27 24 -41 64 -41h138c99 0 162 -51 162 -131c0 -104 -87 -166 -235 -166c-63 0 -115 13 -157 40c-41 27 -62 65 -62 116zM346 311c0 60 -43 100 -104 100s-104 -40 -104 -100
c0 -63 41 -100 104 -100s104 39 104 100zM395 -50c0 43 -32 65 -96 65h-126c-14 0 -24 1 -31 2c-23 -16 -35 -38 -35 -67c0 -53 54 -86 142 -86c96 0 146 30 146 86zM181 607v68c0 58 25 87 76 87h49v-45h-45c-17 0 -29 -10 -29 -26c0 -13 8 -20 25 -25c27 -7 46 -31 46 -59
c0 -35 -26 -61 -61 -61s-61 28 -61 61z" />
    <glyph glyph-name="gdotaccent.ss01.ss03" horiz-adv-x="527" 
d="M25 -52c0 40 16 72 47 97c-23 18 -35 44 -35 78c0 35 20 65 49 85c-22 28 -33 62 -33 103c0 106 85 173 189 173c47 0 91 -13 120 -34c7 37 38 63 82 63c55 0 84 -32 87 -96l-75 -13c0 29 -10 43 -31 43c-15 0 -26 -10 -26 -25c0 -6 2 -12 5 -17c18 -30 27 -61 27 -94
c0 -108 -85 -173 -189 -173c-39 0 -75 9 -107 27c-13 -9 -20 -20 -20 -35c0 -27 24 -41 64 -41h138c99 0 162 -51 162 -131c0 -104 -87 -166 -235 -166c-63 0 -115 13 -157 40c-41 27 -62 65 -62 116zM346 311c0 60 -43 100 -104 100s-104 -40 -104 -100
c0 -63 41 -100 104 -100s104 39 104 100zM395 -50c0 43 -32 65 -96 65h-126c-14 0 -24 1 -31 2c-23 -16 -35 -38 -35 -67c0 -53 54 -86 142 -86c96 0 146 30 146 86zM240 670c33 0 58 -25 58 -58s-25 -58 -58 -58c-32 0 -57 25 -57 58s25 58 57 58z" />
    <glyph glyph-name="tcaron.ss01.ss04" horiz-adv-x="364" 
d="M117 0v401h-94v73h94v147h87v-147h139v-73h-139v-401h-87zM256 525v52h43c16 0 26 7 26 20c0 11 -8 18 -23 22c-29 5 -49 31 -49 60c0 35 26 62 62 62c37 0 63 -28 63 -69v-59c0 -60 -31 -88 -83 -88h-39z" />
    <glyph glyph-name="uni021B.ss01.ss04" horiz-adv-x="364" 
d="M117 0v401h-94v73h94v147h87v-147h139v-73h-139v-401h-87zM95 -249l10 48c13 -6 26 -9 37 -9c22 0 33 9 33 26c0 12 -6 17 -26 26c-29 11 -43 29 -43 55c0 35 25 59 57 59c33 0 61 -28 61 -61v-68c0 -57 -28 -85 -83 -85c-16 0 -31 3 -46 9z" />
    <glyph glyph-name="t.ss04" horiz-adv-x="364" 
d="M117 0v401h-94v73h94v147h87v-147h139v-73h-139v-401h-87z" />
    <glyph glyph-name="tbar.ss04" horiz-adv-x="364" 
d="M117 0v401h-94v73h94v147h87v-147h139v-73h-139v-401h-87zM36 305h305v-70h-305v70z" />
    <glyph glyph-name="tcaron.ss04" horiz-adv-x="364" 
d="M117 0v401h-94v73h94v147h87v-147h139v-73h-139v-401h-87zM251 525v52h25c26 0 39 10 39 30c0 19 -13 30 -34 30h-18v97h104v-122c0 -60 -38 -87 -93 -87h-23z" />
    <glyph glyph-name="uni0163.ss04" horiz-adv-x="364" 
d="M117 0v401h-94v73h94v147h87v-147h139v-73h-139v-401h-87zM161 -53c12 13 33 23 50 23c45 0 77 -29 77 -77c0 -51 -35 -81 -84 -81c-45 0 -81 23 -89 67l47 12c3 -20 19 -34 40 -34c25 0 40 15 40 36s-15 37 -40 37c-16 0 -31 -9 -38 -21l-47 9c7 24 14 57 21 98h51
c-10 -31 -19 -54 -28 -69z" />
    <glyph glyph-name="uni021B.ss04" horiz-adv-x="364" 
d="M117 0v401h-94v73h94v147h87v-147h139v-73h-139v-401h-87zM78 -248l10 47c13 -5 27 -8 40 -8c21 0 35 11 35 32c0 20 -14 30 -37 30h-18v95h104v-121c0 -60 -33 -84 -84 -84c-17 0 -33 3 -50 9z" />
    <glyph glyph-name="c_slash_o" horiz-adv-x="955" 
d="M38 527c0 106 81 183 178 183c87 0 149 -48 164 -131l-67 -19c-9 55 -46 85 -99 85c-59 0 -107 -43 -107 -118c0 -76 46 -122 110 -122c67 0 105 40 116 99l64 -22c-19 -89 -93 -142 -178 -142c-109 0 -181 74 -181 187zM252 74l-48 49l490 469l49 -49zM564 175
c0 105 74 185 177 185c102 0 176 -80 176 -185s-74 -185 -176 -185c-103 0 -177 80 -177 185zM849 175c0 72 -43 120 -108 120s-108 -48 -108 -120s43 -120 108 -120s108 48 108 120z" />
    <glyph glyph-name="f_b" horiz-adv-x="866" 
d="M828 234c0 -147 -93 -244 -224 -244c-68 0 -130 33 -163 88v-78h-81v550c0 55 -27 87 -78 87c-52 0 -78 -32 -78 -87v-76h101v-73h-101v-401h-87v401h-106v73h106v79c0 95 57 157 165 157c107 0 164 -62 164 -157v-168c32 59 97 99 168 99c126 0 214 -103 214 -250z
M742 235c0 106 -69 171 -150 171c-76 0 -150 -66 -150 -171s73 -168 150 -168c81 0 150 61 150 168z" />
    <glyph glyph-name="f_f_b" horiz-adv-x="1109" 
d="M683 78v-78h-81v550c0 55 -26 87 -78 87c-51 0 -78 -32 -78 -87v-76h102v-73h-102v-401h-86v401h-156v-401h-87v401h-106v73h106v72c0 99 62 164 166 164c53 0 98 -18 122 -53c24 33 67 53 119 53c108 0 165 -62 165 -157v-168c32 59 98 99 167 99
c127 0 215 -103 215 -250s-95 -244 -225 -244c-68 0 -130 33 -163 88zM204 474h156v84c0 53 -29 79 -76 79c-51 0 -80 -34 -80 -94v-69zM984 235c0 108 -69 171 -149 171c-78 0 -150 -66 -150 -171s72 -168 150 -168c80 0 149 61 149 168z" />
    <glyph glyph-name="f_f_h" horiz-adv-x="1091" 
d="M117 0v401h-106v73h106v72c0 99 62 164 166 164c53 0 98 -18 122 -54c23 35 66 54 119 54c108 0 165 -62 165 -157v-179c27 68 90 110 167 110c104 0 168 -69 168 -177v-307h-86v287c0 80 -41 123 -113 123c-76 0 -136 -67 -136 -165v-245h-87v550c0 55 -26 87 -78 87
c-51 0 -78 -32 -78 -87v-76h102v-73h-102v-401h-86v401h-156v-401h-87zM204 474h156v84c0 53 -29 79 -76 79c-51 0 -80 -34 -80 -94v-69z" />
    <glyph glyph-name="f_f_j" horiz-adv-x="751" 
d="M602 -198v599h-156v-401h-86v401h-156v-401h-87v401h-106v73h106v72c0 99 62 164 166 164c53 0 100 -18 123 -54c23 33 63 54 115 54c104 0 157 -57 157 -140c0 -9 0 -16 -1 -22h-81l1 18c0 45 -29 71 -76 71c-50 0 -75 -31 -75 -93v-70h243v-672h-87zM204 474h156v84
c0 53 -29 79 -76 79c-51 0 -80 -34 -80 -94v-69z" />
    <glyph glyph-name="f_f_k" horiz-adv-x="1040" 
d="M117 0v401h-106v73h106v72c0 99 62 164 166 164c53 0 98 -18 122 -54c23 35 66 54 119 54c108 0 165 -62 165 -157v-301l202 222h111l-181 -192l196 -282h-105l-151 218l-72 -77v-141h-87v550c0 55 -26 87 -78 87c-51 0 -78 -32 -78 -87v-76h102v-73h-102v-401h-86v401
h-156v-401h-87zM204 474h156v84c0 53 -29 79 -76 79c-51 0 -80 -34 -80 -94v-69z" />
    <glyph glyph-name="f_f_t" horiz-adv-x="933" 
d="M602 141v260h-156v-401h-86v401h-156v-401h-87v401h-106v73h106v72c0 99 62 164 166 164c53 0 98 -18 122 -54c23 35 66 54 119 54c108 0 165 -62 165 -157v-79h170v-73h-170v-264c0 -45 28 -71 65 -71c40 0 63 22 71 74l80 -18c-13 -85 -67 -132 -148 -132
c-100 0 -155 56 -155 151zM204 474h156v84c0 53 -29 79 -76 79c-51 0 -80 -34 -80 -94v-69zM446 474h156v76c0 55 -26 87 -78 87c-51 0 -78 -32 -78 -87v-76z" />
    <glyph glyph-name="f_h" horiz-adv-x="848" 
d="M117 0v401h-106v73h106v79c0 95 57 157 165 157c107 0 164 -62 164 -157v-179c27 68 90 110 167 110c104 0 169 -69 169 -177v-307h-87v287c0 81 -41 123 -113 123c-76 0 -136 -67 -136 -165v-245h-86v550c0 55 -27 87 -78 87c-52 0 -78 -32 -78 -87v-76h107v-73h-107
v-401h-87z" />
    <glyph glyph-name="f_i" horiz-adv-x="507" 
d="M446 474v-474h-87v401h-156v-401h-86v401h-106v73h106v72c0 99 58 164 161 164c104 0 157 -57 157 -140c0 -9 0 -16 -1 -22h-81l1 18c0 45 -29 71 -76 71c-50 0 -75 -31 -75 -93v-70h243z" />
    <glyph glyph-name="f_j" horiz-adv-x="507" 
d="M446 474v-672h-87v599h-156v-401h-86v401h-106v73h106v72c0 99 58 164 161 164c104 0 157 -57 157 -140c0 -9 0 -16 -1 -22h-81l1 18c0 45 -29 71 -76 71c-50 0 -75 -31 -75 -93v-70h243z" />
    <glyph glyph-name="f_k" horiz-adv-x="798" 
d="M117 0v401h-106v73h106v79c0 95 57 157 165 157c107 0 164 -62 164 -157v-301l203 222h110l-180 -192l195 -282h-105l-150 218l-73 -77v-141h-86v550c0 55 -27 87 -78 87c-52 0 -78 -32 -78 -87v-76h101v-73h-101v-401h-87z" />
    <glyph glyph-name="f_l" horiz-adv-x="513" 
d="M117 0v401h-106v73h106v79c0 95 57 157 165 157c107 0 164 -62 164 -157v-553h-86v550c0 55 -27 87 -78 87c-52 0 -78 -32 -78 -87v-76h101v-73h-101v-401h-87z" />
    <glyph glyph-name="f_t" horiz-adv-x="691" 
d="M360 141v260h-156v-401h-87v401h-106v73h106v79c0 95 57 157 165 157c107 0 164 -62 164 -157v-79h171v-73h-171v-264c0 -45 28 -71 65 -71c41 0 63 22 71 74l81 -18c-13 -85 -68 -132 -149 -132c-100 0 -154 56 -154 151zM204 474h156v76c0 55 -27 87 -78 87
c-52 0 -78 -32 -78 -87v-76z" />
    <glyph glyph-name="i_m" horiz-adv-x="752" 
d="M67 474h86v-474h-86v474zM62 562v101h96v-101h-96zM67 474h86v-67c23 47 65 77 128 77c57 0 105 -33 121 -94c25 60 79 94 139 94c88 0 144 -55 144 -155v-329h-86v311c0 59 -36 95 -87 95c-52 0 -93 -38 -93 -111v-295h-87v307c0 65 -35 99 -87 99s-92 -39 -92 -116
v-290h-86v474z" />
    <glyph glyph-name="t_t" horiz-adv-x="670" 
d="M117 141v260h-94v73h94v147h87v-147h136v147h86v-147h171v-73h-171v-264c0 -45 28 -71 65 -71c41 0 63 22 71 74l81 -18c-13 -85 -68 -132 -149 -132c-53 0 -92 17 -116 51c-26 -34 -61 -51 -106 -51c-100 0 -155 56 -155 151zM340 147v254h-136v-264
c0 -45 28 -71 65 -71c41 0 71 30 71 81z" />
    <glyph glyph-name="w_w_w" horiz-adv-x="1647" 
d="M147 0l-142 474h85l112 -390l107 390h97l107 -390l108 390h96l106 -390l107 390h96l108 -390l106 390h97l108 -390l111 390h86l-142 -474h-106l-104 364l-105 -364h-102l-105 364l-104 -364h-101l-105 364l-104 -364h-103l-104 364l-104 -364h-106z" />
    <glyph glyph-name="i_m.ss01" horiz-adv-x="752" 
d="M67 474h86v-474h-86v474zM108 670c33 0 58 -25 58 -58s-25 -58 -58 -58c-32 0 -57 25 -57 58s25 58 57 58zM67 474h86v-67c23 47 65 77 128 77c57 0 105 -33 121 -94c25 60 79 94 139 94c88 0 144 -55 144 -155v-329h-86v311c0 59 -36 95 -87 95c-52 0 -93 -38 -93 -111
v-295h-87v307c0 65 -35 99 -87 99s-92 -39 -92 -116v-290h-86v474z" />
    <glyph glyph-name="f_f_t.ss04" horiz-adv-x="887" 
d="M117 0v401h-106v73h106v72c0 99 62 164 166 164c53 0 98 -18 122 -54c23 35 66 54 119 54c108 0 165 -62 165 -157v-79h170v-73h-170v-401h-87v401h-156v-401h-86v401h-156v-401h-87zM204 474h156v84c0 53 -29 79 -76 79c-51 0 -80 -34 -80 -94v-69zM446 474h156v76
c0 55 -26 87 -78 87c-51 0 -78 -32 -78 -87v-76z" />
    <glyph glyph-name="f_t.ss04" horiz-adv-x="645" 
d="M117 0v401h-106v73h106v79c0 95 57 157 165 157c107 0 164 -62 164 -157v-79h171v-73h-171v-401h-86v401h-156v-401h-87zM204 474h156v76c0 55 -27 87 -78 87c-52 0 -78 -32 -78 -87v-76z" />
    <glyph glyph-name="t_t.ss04" horiz-adv-x="594" 
d="M117 0v401h-94v73h94v147h87v-147h136v147h86v-147h140v-73h-140v-401h-86v401h-136v-401h-87z" />
    <glyph glyph-name="ordfeminine" unicode="&#xaa;" horiz-adv-x="465" 
d="M39 394c0 87 67 133 159 133c31 0 62 -5 91 -14l37 -10v43c0 61 -42 96 -105 96c-59 0 -100 -34 -111 -87l-72 20c17 81 84 135 183 135c117 0 184 -63 184 -170v-269h-77v67c-24 -47 -78 -76 -147 -76c-80 0 -142 52 -142 132zM326 431v9l-37 12c-28 9 -54 13 -79 13
c-55 0 -87 -23 -87 -68c0 -39 31 -65 86 -65c69 0 117 38 117 99z" />
    <glyph glyph-name="ordmasculine" unicode="&#xba;" horiz-adv-x="500" 
d="M250 710c131 0 216 -93 216 -224s-85 -224 -216 -224s-216 93 -216 224s85 224 216 224zM250 334c80 0 136 61 136 152s-56 152 -136 152s-135 -61 -135 -152s55 -152 135 -152z" />
    <glyph glyph-name="uni0410" unicode="&#x410;" horiz-adv-x="739" 
d="M13 0l293 700h128l293 -700h-102l-72 178h-366l-73 -178h-101zM220 262h299l-149 365z" />
    <glyph glyph-name="uni0411" unicode="&#x411;" horiz-adv-x="690" 
d="M76 0v700h484v-87h-392v-210h249c129 0 226 -77 226 -201s-97 -202 -226 -202h-341zM168 87h245c79 0 134 46 134 115s-55 114 -134 114h-245v-229z" />
    <glyph glyph-name="uni0412" unicode="&#x412;" horiz-adv-x="688" 
d="M76 0v700h317c133 0 222 -80 222 -182c0 -69 -41 -128 -105 -157c81 -27 130 -84 130 -172c0 -108 -98 -189 -226 -189h-338zM168 401h229c79 0 127 40 127 108c0 65 -56 104 -127 104h-229v-212zM168 87h243c77 0 133 45 133 114c0 68 -54 118 -133 118h-243v-232z" />
    <glyph glyph-name="uni0413" unicode="&#x413;" horiz-adv-x="613" 
d="M583 613h-415v-613h-92v700h507v-87z" />
    <glyph glyph-name="uni0403" unicode="&#x403;" horiz-adv-x="613" 
d="M583 613h-415v-613h-92v700h507v-87zM282 781l87 133h117v-14l-121 -119h-83z" />
    <glyph glyph-name="uni0490" unicode="&#x490;" horiz-adv-x="613" 
d="M496 870h87v-257h-415v-613h-92v700h420v170z" />
    <glyph glyph-name="uni0414" unicode="&#x414;" horiz-adv-x="695" 
d="M29 -110v194h61c27 38 47 75 60 111s21 73 24 112c4 39 6 90 6 155v238h412v-616h74v-194h-86v110h-465v-110h-86zM196 84h304v532h-231v-158c0 -89 -5 -161 -15 -217s-29 -108 -58 -157z" />
    <glyph glyph-name="uni0415" unicode="&#x415;" horiz-adv-x="633" 
d="M76 700h493v-87h-401v-207h371v-87h-371v-232h411v-87h-503v700z" />
    <glyph glyph-name="uni0400" unicode="&#x400;" horiz-adv-x="633" 
d="M76 700h493v-87h-401v-207h371v-87h-371v-232h411v-87h-503v700zM265 781l-121 119v14h117l87 -133h-83z" />
    <glyph glyph-name="uni0401" unicode="&#x401;" horiz-adv-x="633" 
d="M76 700h493v-87h-401v-207h371v-87h-371v-232h411v-87h-503v700zM174 793v99h97v-99h-97zM341 793v99h97v-99h-97z" />
    <glyph glyph-name="uni0416" unicode="&#x416;" horiz-adv-x="1003" 
d="M633 365l353 -365h-125l-313 324v-324h-92v324l-314 -324h-125l353 365l-336 335h120l302 -304v304h92v-304l301 304h120z" />
    <glyph glyph-name="uni0417" unicode="&#x417;" horiz-adv-x="582" 
d="M43 197l85 35c13 -95 67 -155 166 -155c87 0 146 38 146 115s-53 118 -129 118h-36v86h33c77 0 122 38 122 111c0 75 -50 116 -138 116c-76 0 -129 -45 -146 -125l-83 37c11 50 38 92 79 125s92 50 153 50c139 0 227 -74 227 -198c0 -80 -44 -134 -111 -157
c69 -16 121 -74 121 -159c0 -65 -22 -116 -67 -152s-103 -54 -174 -54c-141 0 -227 86 -248 207z" />
    <glyph glyph-name="uni0418" unicode="&#x418;" horiz-adv-x="766" 
d="M598 636l-363 -636h-159v700h92v-636l364 636h158v-700h-92v636z" />
    <glyph glyph-name="uni0419" unicode="&#x419;" horiz-adv-x="766" 
d="M598 636l-363 -636h-159v700h92v-636l364 636h158v-700h-92v636zM493 889c0 -71 -53 -109 -122 -109s-122 38 -122 109c0 6 0 11 1 14h68l-1 -11c0 -29 21 -50 54 -50s54 21 54 50l-1 11h68c1 -3 1 -8 1 -14z" />
    <glyph glyph-name="uni040D" unicode="&#x40d;" horiz-adv-x="766" 
d="M598 636l-363 -636h-159v700h92v-636l364 636h158v-700h-92v636zM330 781l-121 119v14h117l87 -133h-83z" />
    <glyph glyph-name="uni041A" unicode="&#x41a;" horiz-adv-x="623" 
d="M76 0v700h92v-304l301 304h120l-336 -335l353 -365h-125l-313 324v-324h-92z" />
    <glyph glyph-name="uni040C" unicode="&#x40c;" horiz-adv-x="623" 
d="M76 0v700h92v-304l301 304h120l-336 -335l353 -365h-125l-313 324v-324h-92zM277 781l87 133h117v-14l-121 -119h-83z" />
    <glyph glyph-name="uni041B" unicode="&#x41b;" horiz-adv-x="695" 
d="M29 0v12c21 39 36 83 45 134c10 51 15 117 15 199v355h530v-700h-92v616h-346v-261c0 -160 -18 -278 -55 -355h-97z" />
    <glyph glyph-name="uni041C" unicode="&#x41c;" horiz-adv-x="942" 
d="M867 0h-92v651l-234 -651h-140l-233 651v-651h-92v700h170l225 -631l225 631h171v-700z" />
    <glyph glyph-name="uni041D" unicode="&#x41d;" horiz-adv-x="737" 
d="M569 303h-401v-303h-92v700h92v-313h401v313h92v-700h-92v303z" />
    <glyph glyph-name="uni041E" unicode="&#x41e;" horiz-adv-x="812" 
d="M406 710c202 4 365 -164 362 -360c3 -197 -160 -364 -362 -360c-203 -4 -364 163 -361 360c-3 196 158 364 361 360zM406 77c149 0 265 110 265 273s-114 273 -265 273s-265 -110 -265 -274s116 -272 265 -272z" />
    <glyph glyph-name="uni041F" unicode="&#x41f;" horiz-adv-x="737" 
d="M569 616h-401v-616h-92v700h585v-700h-92v616z" />
    <glyph glyph-name="uni0420" unicode="&#x420;" horiz-adv-x="658" 
d="M168 288v-288h-92v700h309c145 0 227 -92 227 -206c0 -111 -86 -206 -227 -206h-217zM168 375h209c83 0 138 43 138 119s-55 119 -138 119h-209v-238z" />
    <glyph glyph-name="uni0421" unicode="&#x421;" horiz-adv-x="777" 
d="M141 350c0 -174 106 -276 254 -276c77 0 137 20 180 61s72 96 87 163l81 -33c-36 -159 -159 -275 -348 -275c-210 -2 -353 156 -350 360c-3 201 153 364 350 360c85 0 154 -22 205 -66c52 -44 87 -100 105 -167l-84 -38c-24 112 -103 187 -226 187
c-143 0 -254 -108 -254 -276z" />
    <glyph glyph-name="uni0422" unicode="&#x422;" horiz-adv-x="672" 
d="M641 700v-87h-259v-613h-92v613h-259v87h610z" />
    <glyph glyph-name="uni0423" unicode="&#x423;" horiz-adv-x="690" 
d="M119 0l173 265l-276 435h110l219 -351l220 351h109l-444 -700h-111z" />
    <glyph glyph-name="uni040E" unicode="&#x40e;" horiz-adv-x="690" 
d="M119 0l173 265l-276 435h110l219 -351l220 351h109l-444 -700h-111zM468 889c0 -71 -53 -109 -122 -109s-122 38 -122 109c0 6 0 11 1 14h68l-1 -11c0 -29 21 -50 54 -50s54 21 54 50l-1 11h68c1 -3 1 -8 1 -14z" />
    <glyph glyph-name="uni0424" unicode="&#x424;" horiz-adv-x="819" 
d="M456 0h-92v80h-54c-154 -3 -267 121 -265 270c0 147 112 270 265 270h54v80h92v-80h53c153 0 265 -123 265 -270c2 -149 -111 -273 -265 -270h-53v-80zM321 167h43v366h-43c-113 0 -184 -75 -184 -183s71 -183 184 -183zM498 533h-42v-366h42c113 0 184 75 184 183
s-71 183 -184 183z" />
    <glyph glyph-name="uni0425" unicode="&#x425;" horiz-adv-x="674" 
d="M18 0l265 380l-225 320h112l167 -252l171 252h108l-225 -320l265 -380h-109l-210 308l-210 -308h-109z" />
    <glyph glyph-name="uni0427" unicode="&#x427;" horiz-adv-x="680" 
d="M513 0v241c-45 -51 -117 -83 -205 -83c-149 0 -239 102 -239 250v292h92v-278c0 -116 63 -177 168 -177c67 0 129 34 184 101v354h92v-700h-92z" />
    <glyph glyph-name="uni0426" unicode="&#x426;" horiz-adv-x="692" 
d="M577 -110v110h-501v700h92v-616h323v616h92v-616h81v-194h-87z" />
    <glyph glyph-name="uni0428" unicode="&#x428;" horiz-adv-x="922" 
d="M755 700h92v-700h-771v700h92v-616h247v616h92v-616h248v616z" />
    <glyph glyph-name="uni0429" unicode="&#x429;" horiz-adv-x="956" 
d="M841 -110v110h-765v700h92v-616h247v616h92v-616h248v616h92v-616h80v-194h-86z" />
    <glyph glyph-name="uni040F" unicode="&#x40f;" horiz-adv-x="665" 
d="M289 -110v110h-213v700h92v-616h330v616h92v-700h-214v-110h-87z" />
    <glyph glyph-name="uni042C" unicode="&#x42c;" horiz-adv-x="688" 
d="M76 0v700h92v-297h246c130 0 226 -76 226 -201c0 -124 -96 -202 -226 -202h-338zM168 87h243c79 0 133 46 133 115s-54 114 -133 114h-243v-229z" />
    <glyph glyph-name="uni042A" unicode="&#x42a;" horiz-adv-x="787" 
d="M740 202c0 -124 -97 -202 -226 -202h-339v613h-144v87h236v-297h247c129 0 226 -77 226 -201zM643 202c0 69 -54 114 -133 114h-243v-229h243c79 0 133 46 133 115z" />
    <glyph glyph-name="uni042B" unicode="&#x42b;" horiz-adv-x="931" 
d="M76 0v700h92v-297h246c130 0 226 -76 226 -201c0 -124 -96 -202 -226 -202h-338zM168 87h243c79 0 133 46 133 115s-54 114 -133 114h-243v-229zM764 0v700h92v-700h-92z" />
    <glyph glyph-name="uni0409" unicode="&#x409;" horiz-adv-x="1012" 
d="M29 0v12c21 39 36 83 45 134c10 51 15 117 15 199v355h455v-293h197c137 0 223 -90 223 -203c0 -117 -86 -204 -223 -204h-289v616h-271v-261c0 -160 -18 -278 -55 -355h-97zM544 87h191c79 0 133 45 133 117s-54 117 -133 117h-191v-234z" />
    <glyph glyph-name="uni040A" unicode="&#x40a;" horiz-adv-x="989" 
d="M76 0v700h92v-293h278v293h92v-293h180c137 0 223 -90 223 -203c0 -117 -86 -204 -223 -204h-272v321h-278v-321h-92zM538 87h174c79 0 133 45 133 117s-54 117 -133 117h-174v-234z" />
    <glyph glyph-name="uni0405" unicode="&#x405;" horiz-adv-x="629" 
d="M308 623c-79 0 -136 -38 -136 -98c0 -69 67 -105 183 -128c165 -32 239 -91 239 -200c0 -120 -110 -207 -264 -207c-66 0 -127 17 -182 50s-95 88 -119 164l85 53c28 -115 104 -180 217 -180c101 0 168 46 168 117c0 63 -45 99 -176 120c-162 28 -243 98 -243 209
c0 103 95 187 236 187c116 0 212 -61 249 -166l-86 -49c-23 84 -82 128 -171 128z" />
    <glyph glyph-name="uni0404" unicode="&#x404;" horiz-adv-x="777" 
d="M662 298l81 -33c-36 -159 -159 -275 -348 -275c-210 -2 -353 156 -350 360c-3 201 153 364 350 360c85 0 154 -22 205 -66c52 -44 87 -100 105 -167l-84 -38c-24 112 -103 187 -226 187c-130 0 -233 -87 -251 -230h306v-87h-307c15 -148 113 -235 252 -235
c77 0 137 20 180 61s72 96 87 163z" />
    <glyph glyph-name="uni042D" unicode="&#x42d;" horiz-adv-x="777" 
d="M34 265l81 33c29 -133 113 -224 268 -224c69 0 127 21 174 62s74 99 81 173h-316v87h316c-18 142 -126 230 -255 230c-123 0 -203 -75 -227 -187l-84 38c19 67 54 123 106 167c53 44 122 66 208 66c201 3 350 -155 347 -360c0 -208 -133 -360 -351 -360
c-93 0 -170 25 -230 76s-99 117 -118 199z" />
    <glyph glyph-name="uni0406" unicode="&#x406;" horiz-adv-x="243" 
d="M76 0v700h92v-700h-92z" />
    <glyph glyph-name="uni0407" unicode="&#x407;" horiz-adv-x="243" 
d="M76 0v700h92v-700h-92zM-10 793v99h97v-99h-97zM157 793v99h97v-99h-97z" />
    <glyph glyph-name="uni0408" unicode="&#x408;" horiz-adv-x="598" 
d="M437 700h92v-466c0 -129 -69 -244 -236 -244c-151 0 -243 97 -243 232c0 46 9 86 28 121l87 -33c-15 -27 -23 -58 -23 -93c0 -83 60 -140 151 -140c96 0 144 61 144 174v449z" />
    <glyph glyph-name="uni040B" unicode="&#x40b;" horiz-adv-x="800" 
d="M290 0v613h-259v87h610v-87h-259v-227c29 61 93 98 170 98c108 0 176 -68 176 -177v-307h-92v282c0 80 -42 123 -115 123c-77 0 -139 -65 -139 -161v-244h-92z" />
    <glyph glyph-name="uni042E" unicode="&#x42e;" horiz-adv-x="1092" 
d="M1048 350c3 -197 -160 -364 -362 -360c-187 -3 -338 138 -358 313h-160v-303h-92v700h92v-313h159c13 179 170 326 359 323c202 4 365 -164 362 -360zM951 350c0 163 -114 273 -265 273s-265 -110 -265 -274s116 -272 265 -272s265 110 265 273z" />
    <glyph glyph-name="uni042F" unicode="&#x42f;" horiz-adv-x="672" 
d="M47 0v14l237 282h-5c-140 0 -226 87 -226 208c0 108 84 196 223 196h320v-700h-92v296h-98l-248 -296h-111zM284 383h220v230h-220c-84 0 -134 -42 -134 -115c0 -72 50 -115 134 -115z" />
    <glyph glyph-name="uni0402" unicode="&#x402;" horiz-adv-x="841" 
d="M621 -110v13c53 94 79 189 79 286c0 140 -52 210 -157 210c-91 0 -161 -79 -161 -184v-215h-92v616h-259v84h610v-84h-259v-238c33 63 97 106 189 106c147 0 221 -113 221 -289c0 -112 -28 -205 -77 -305h-94z" />
    <glyph glyph-name="uni0462" unicode="&#x462;" horiz-adv-x="757" 
d="M709 202c0 -124 -96 -202 -226 -202h-338v528h-142v75h142v97h92v-97h142v-75h-142v-125h246c130 0 226 -76 226 -201zM613 202c0 69 -54 114 -133 114h-243v-229h243c79 0 133 46 133 115z" />
    <glyph glyph-name="uni0472" unicode="&#x472;" horiz-adv-x="812" 
d="M768 350c3 -197 -160 -364 -362 -360c-203 -4 -364 163 -361 360c-3 196 158 364 361 360c202 4 365 -164 362 -360zM143 390c37 30 81 45 132 45c60 0 96 -17 148 -49c44 -27 71 -40 111 -40c53 0 100 21 132 60c-11 66 -41 119 -89 158c-47 39 -104 59 -171 59
c-139 0 -245 -92 -263 -233zM669 309c-37 -29 -80 -44 -131 -44c-61 0 -96 17 -149 49c-44 27 -70 40 -110 40c-53 0 -101 -22 -133 -62c22 -132 130 -215 260 -215c136 0 245 91 263 232z" />
    <glyph glyph-name="uni0474" unicode="&#x474;" horiz-adv-x="808" 
d="M300 0l-289 700h101l252 -629l223 555c28 69 70 94 123 94c49 0 89 -27 106 -79l-74 -37c-5 19 -15 28 -31 28s-29 -11 -38 -32l-245 -600h-128z" />
    <glyph glyph-name="uni0492" unicode="&#x492;" horiz-adv-x="655" 
d="M604 613h-415v-216h257v-78h-257v-319h-92v319h-79v78h79v303h507v-87z" />
    <glyph glyph-name="uni0496" unicode="&#x496;" horiz-adv-x="1003" 
d="M633 365l353 -365h-125l-313 324v-324h-92v324l-314 -324h-125l353 365l-336 335h120l302 -304v304h92v-304l301 304h120zM905 -110v194h87v-194h-87z" />
    <glyph glyph-name="uni0498" unicode="&#x498;" horiz-adv-x="582" 
d="M43 197l85 35c13 -95 67 -155 166 -155c87 0 146 38 146 115s-53 118 -129 118h-36v86h33c77 0 122 38 122 111c0 75 -50 116 -138 116c-76 0 -129 -45 -146 -125l-83 37c11 50 38 92 79 125s92 50 153 50c139 0 227 -74 227 -198c0 -80 -44 -134 -111 -157
c69 -16 121 -74 121 -159c0 -65 -22 -116 -67 -152s-103 -54 -174 -54c-141 0 -227 86 -248 207zM266 -53c12 13 33 23 50 23c45 0 77 -29 77 -77c0 -51 -35 -81 -84 -81c-45 0 -81 23 -89 67l47 12c3 -20 19 -34 40 -34c25 0 40 15 40 36s-15 37 -40 37
c-16 0 -31 -9 -38 -21l-47 9c7 24 14 57 21 98h51c-10 -31 -19 -54 -28 -69z" />
    <glyph glyph-name="uni049A" unicode="&#x49a;" horiz-adv-x="623" 
d="M76 0v700h92v-304l301 304h120l-336 -335l353 -365h-125l-313 324v-324h-92zM525 -110v194h87v-194h-87z" />
    <glyph glyph-name="uni04A0" unicode="&#x4a0;" horiz-adv-x="783" 
d="M412 365l353 -365h-125l-313 324v-324h-92v622h-204v78h296v-304l301 304h120z" />
    <glyph glyph-name="uni04A2" unicode="&#x4a2;" horiz-adv-x="737" 
d="M569 303h-401v-303h-92v700h92v-313h401v313h92v-700h-92v303zM649 -110v194h87v-194h-87z" />
    <glyph glyph-name="uni04AA" unicode="&#x4aa;" horiz-adv-x="777" 
d="M141 350c0 -174 106 -276 254 -276c77 0 137 20 180 61s72 96 87 163l81 -33c-36 -159 -159 -275 -348 -275c-210 -2 -353 156 -350 360c-3 201 153 364 350 360c85 0 154 -22 205 -66c52 -44 87 -100 105 -167l-84 -38c-24 112 -103 187 -226 187
c-143 0 -254 -108 -254 -276zM364 -53c12 13 33 23 50 23c45 0 77 -29 77 -77c0 -51 -35 -81 -84 -81c-45 0 -81 23 -89 67l47 12c3 -20 19 -34 40 -34c25 0 40 15 40 36s-15 37 -40 37c-16 0 -31 -9 -38 -21l-47 9c7 24 14 57 21 98h51c-10 -31 -19 -54 -28 -69z" />
    <glyph glyph-name="uni04AE" unicode="&#x4ae;" horiz-adv-x="672" 
d="M124 700l212 -331l218 331h105l-277 -412v-288h-92v288l-276 412h110z" />
    <glyph glyph-name="uni04B0" unicode="&#x4b0;" horiz-adv-x="672" 
d="M659 700l-230 -342h122v-70h-169v-288h-92v288h-168v70h121l-229 342h110l212 -331l218 331h105z" />
    <glyph glyph-name="uni04B2" unicode="&#x4b2;" horiz-adv-x="674" 
d="M18 0l265 380l-225 320h112l167 -252l171 252h108l-225 -320l265 -380h-109l-210 308l-210 -308h-109zM590 -110v194h87v-194h-87z" />
    <glyph glyph-name="uni04B6" unicode="&#x4b6;" horiz-adv-x="680" 
d="M513 0v241c-45 -51 -117 -83 -205 -83c-149 0 -239 102 -239 250v292h92v-278c0 -116 63 -177 168 -177c67 0 129 34 184 101v354h92v-700h-92zM605 -110v194h87v-194h-87z" />
    <glyph glyph-name="uni04BA" unicode="&#x4ba;" horiz-adv-x="680" 
d="M76 0v700h92v-241c45 51 117 83 204 83c151 0 240 -102 240 -250v-292h-92v278c0 116 -63 177 -168 177c-69 0 -130 -34 -184 -101v-354h-92z" />
    <glyph glyph-name="uni04C0" unicode="&#x4c0;" horiz-adv-x="243" 
d="M76 0v700h92v-700h-92z" />
    <glyph glyph-name="uni04C1" unicode="&#x4c1;" horiz-adv-x="1003" 
d="M633 365l353 -365h-125l-313 324v-324h-92v324l-314 -324h-125l353 365l-336 335h120l302 -304v304h92v-304l301 304h120zM624 889c0 -71 -53 -109 -122 -109s-122 38 -122 109c0 6 0 11 1 14h68l-1 -11c0 -29 21 -50 54 -50s54 21 54 50l-1 11h68c1 -3 1 -8 1 -14z" />
    <glyph glyph-name="uni04D0" unicode="&#x4d0;" horiz-adv-x="739" 
d="M13 0l293 700h128l293 -700h-102l-72 178h-366l-73 -178h-101zM220 262h299l-149 365zM492 889c0 -71 -53 -109 -122 -109s-122 38 -122 109c0 6 0 11 1 14h68l-1 -11c0 -29 21 -50 54 -50s54 21 54 50l-1 11h68c1 -3 1 -8 1 -14z" />
    <glyph glyph-name="uni04D2" unicode="&#x4d2;" horiz-adv-x="739" 
d="M13 0l293 700h128l293 -700h-102l-72 178h-366l-73 -178h-101zM220 262h299l-149 365zM238 793v99h97v-99h-97zM405 793v99h97v-99h-97z" />
    <glyph glyph-name="uni04D4" unicode="&#x4d4;" horiz-adv-x="947" 
d="M524 87h369v-87h-461v178h-225l-92 -178h-102l363 700h507v-87h-359v-207h329v-87h-329v-232zM432 262v352l-182 -352h182z" />
    <glyph glyph-name="uni04D6" unicode="&#x4d6;" horiz-adv-x="633" 
d="M76 700h493v-87h-401v-207h371v-87h-371v-232h411v-87h-503v700zM428 889c0 -71 -53 -109 -122 -109s-122 38 -122 109c0 6 0 11 1 14h68l-1 -11c0 -29 21 -50 54 -50s54 21 54 50l-1 11h68c1 -3 1 -8 1 -14z" />
    <glyph glyph-name="uni04D8" unicode="&#x4d8;" horiz-adv-x="721" 
d="M676 350c2 -199 -135 -364 -330 -360c-181 0 -308 121 -308 299c0 27 3 54 9 81h535c-8 159 -111 253 -249 253c-104 0 -180 -68 -211 -161l-88 34c44 128 149 214 300 214c201 0 342 -141 342 -360zM577 287h-436c-1 -11 -2 -19 -2 -25c0 -106 86 -185 209 -185
s209 81 229 210z" />
    <glyph glyph-name="uni04DA" unicode="&#x4da;" horiz-adv-x="721" 
d="M676 350c2 -199 -135 -364 -330 -360c-181 0 -308 121 -308 299c0 27 3 54 9 81h535c-8 159 -111 253 -249 253c-104 0 -180 -68 -211 -161l-88 34c44 128 149 214 300 214c201 0 342 -141 342 -360zM577 287h-436c-1 -11 -2 -19 -2 -25c0 -106 86 -185 209 -185
s209 81 229 210zM201 793v99h97v-99h-97zM368 793v99h97v-99h-97z" />
    <glyph glyph-name="uni04DC" unicode="&#x4dc;" horiz-adv-x="1003" 
d="M633 365l353 -365h-125l-313 324v-324h-92v324l-314 -324h-125l353 365l-336 335h120l302 -304v304h92v-304l301 304h120zM370 793v99h97v-99h-97zM537 793v99h97v-99h-97z" />
    <glyph glyph-name="uni04DE" unicode="&#x4de;" horiz-adv-x="582" 
d="M43 197l85 35c13 -95 67 -155 166 -155c87 0 146 38 146 115s-53 118 -129 118h-36v86h33c77 0 122 38 122 111c0 75 -50 116 -138 116c-76 0 -129 -45 -146 -125l-83 37c11 50 38 92 79 125s92 50 153 50c139 0 227 -74 227 -198c0 -80 -44 -134 -111 -157
c69 -16 121 -74 121 -159c0 -65 -22 -116 -67 -152s-103 -54 -174 -54c-141 0 -227 86 -248 207zM164 793v99h97v-99h-97zM331 793v99h97v-99h-97z" />
    <glyph glyph-name="uni04E2" unicode="&#x4e2;" horiz-adv-x="766" 
d="M598 636l-363 -636h-159v700h92v-636l364 636h158v-700h-92v636zM244 876h254v-69h-254v69z" />
    <glyph glyph-name="uni04E4" unicode="&#x4e4;" horiz-adv-x="766" 
d="M598 636l-363 -636h-159v700h92v-636l364 636h158v-700h-92v636zM239 793v99h97v-99h-97zM406 793v99h97v-99h-97z" />
    <glyph glyph-name="uni04E6" unicode="&#x4e6;" horiz-adv-x="812" 
d="M406 710c202 4 365 -164 362 -360c3 -197 -160 -364 -362 -360c-203 -4 -364 163 -361 360c-3 196 158 364 361 360zM406 77c149 0 265 110 265 273s-114 273 -265 273s-265 -110 -265 -274s116 -272 265 -272zM269 793v99h97v-99h-97zM436 793v99h97v-99h-97z" />
    <glyph glyph-name="uni04E8" unicode="&#x4e8;" horiz-adv-x="812" 
d="M45 350c-3 196 158 364 361 360c202 4 365 -164 362 -360c3 -197 -160 -364 -362 -360c-203 -4 -364 163 -361 360zM144 389h524c-16 141 -123 234 -262 234c-138 0 -246 -91 -262 -234zM668 311h-524c16 -143 125 -234 262 -234c136 0 246 91 262 234z" />
    <glyph glyph-name="uni04EA" unicode="&#x4ea;" horiz-adv-x="812" 
d="M45 350c-3 196 158 364 361 360c202 4 365 -164 362 -360c3 -197 -160 -364 -362 -360c-203 -4 -364 163 -361 360zM144 389h524c-16 141 -123 234 -262 234c-138 0 -246 -91 -262 -234zM668 311h-524c16 -143 125 -234 262 -234c136 0 246 91 262 234zM274 793v99h97
v-99h-97zM441 793v99h97v-99h-97z" />
    <glyph glyph-name="uni04EC" unicode="&#x4ec;" horiz-adv-x="777" 
d="M34 265l81 33c29 -133 113 -224 268 -224c69 0 127 21 174 62s74 99 81 173h-316v87h316c-18 142 -126 230 -255 230c-123 0 -203 -75 -227 -187l-84 38c19 67 54 123 106 167c53 44 122 66 208 66c201 3 350 -155 347 -360c0 -208 -133 -360 -351 -360
c-93 0 -170 25 -230 76s-99 117 -118 199zM254 793v99h97v-99h-97zM421 793v99h97v-99h-97z" />
    <glyph glyph-name="uni04EE" unicode="&#x4ee;" horiz-adv-x="690" 
d="M119 0l173 265l-276 435h110l219 -351l220 351h109l-444 -700h-111zM219 876h254v-69h-254v69z" />
    <glyph glyph-name="uni04F0" unicode="&#x4f0;" horiz-adv-x="690" 
d="M119 0l173 265l-276 435h110l219 -351l220 351h109l-444 -700h-111zM214 793v99h97v-99h-97zM381 793v99h97v-99h-97z" />
    <glyph glyph-name="uni04F2" unicode="&#x4f2;" horiz-adv-x="690" 
d="M119 0l173 265l-276 435h110l219 -351l220 351h109l-444 -700h-111zM215 781l87 133h117v-14l-121 -119h-83zM394 781l87 133h117v-14l-121 -119h-83z" />
    <glyph glyph-name="uni04F4" unicode="&#x4f4;" horiz-adv-x="680" 
d="M513 0v241c-45 -51 -117 -83 -205 -83c-149 0 -239 102 -239 250v292h92v-278c0 -116 63 -177 168 -177c67 0 129 34 184 101v354h92v-700h-92zM205 793v99h97v-99h-97zM372 793v99h97v-99h-97z" />
    <glyph glyph-name="uni04F8" unicode="&#x4f8;" horiz-adv-x="931" 
d="M76 0v700h92v-297h246c130 0 226 -76 226 -201c0 -124 -96 -202 -226 -202h-338zM168 87h243c79 0 133 46 133 115s-54 114 -133 114h-243v-229zM764 0v700h92v-700h-92zM313 793v99h97v-99h-97zM480 793v99h97v-99h-97z" />
    <glyph glyph-name="uni0401.ss01" horiz-adv-x="633" 
d="M76 700h493v-87h-401v-207h371v-87h-371v-232h411v-87h-503v700zM163 842c0 31 25 56 56 56s56 -25 56 -56s-25 -56 -56 -56s-56 25 -56 56zM336 842c0 31 25 56 56 56s56 -25 56 -56s-25 -56 -56 -56s-56 25 -56 56z" />
    <glyph glyph-name="uni0407.ss01" horiz-adv-x="243" 
d="M76 0v700h92v-700h-92zM-21 842c0 31 25 56 56 56s56 -25 56 -56s-25 -56 -56 -56s-56 25 -56 56zM152 842c0 31 25 56 56 56s56 -25 56 -56s-25 -56 -56 -56s-56 25 -56 56z" />
    <glyph glyph-name="uni04D2.ss01" horiz-adv-x="739" 
d="M13 0l293 700h128l293 -700h-102l-72 178h-366l-73 -178h-101zM220 262h299l-149 365zM227 842c0 31 25 56 56 56s56 -25 56 -56s-25 -56 -56 -56s-56 25 -56 56zM400 842c0 31 25 56 56 56s56 -25 56 -56s-25 -56 -56 -56s-56 25 -56 56z" />
    <glyph glyph-name="uni04DA.ss01" horiz-adv-x="721" 
d="M676 350c2 -199 -135 -364 -330 -360c-181 0 -308 121 -308 299c0 27 3 54 9 81h535c-8 159 -111 253 -249 253c-104 0 -180 -68 -211 -161l-88 34c44 128 149 214 300 214c201 0 342 -141 342 -360zM577 287h-436c-1 -11 -2 -19 -2 -25c0 -106 86 -185 209 -185
s209 81 229 210zM190 842c0 31 25 56 56 56s56 -25 56 -56s-25 -56 -56 -56s-56 25 -56 56zM363 842c0 31 25 56 56 56s56 -25 56 -56s-25 -56 -56 -56s-56 25 -56 56z" />
    <glyph glyph-name="uni04DC.ss01" horiz-adv-x="1003" 
d="M633 365l353 -365h-125l-313 324v-324h-92v324l-314 -324h-125l353 365l-336 335h120l302 -304v304h92v-304l301 304h120zM359 842c0 31 25 56 56 56s56 -25 56 -56s-25 -56 -56 -56s-56 25 -56 56zM532 842c0 31 25 56 56 56s56 -25 56 -56s-25 -56 -56 -56
s-56 25 -56 56z" />
    <glyph glyph-name="uni04DE.ss01" horiz-adv-x="582" 
d="M43 197l85 35c13 -95 67 -155 166 -155c87 0 146 38 146 115s-53 118 -129 118h-36v86h33c77 0 122 38 122 111c0 75 -50 116 -138 116c-76 0 -129 -45 -146 -125l-83 37c11 50 38 92 79 125s92 50 153 50c139 0 227 -74 227 -198c0 -80 -44 -134 -111 -157
c69 -16 121 -74 121 -159c0 -65 -22 -116 -67 -152s-103 -54 -174 -54c-141 0 -227 86 -248 207zM153 842c0 31 25 56 56 56s56 -25 56 -56s-25 -56 -56 -56s-56 25 -56 56zM326 842c0 31 25 56 56 56s56 -25 56 -56s-25 -56 -56 -56s-56 25 -56 56z" />
    <glyph glyph-name="uni04E4.ss01" horiz-adv-x="766" 
d="M598 636l-363 -636h-159v700h92v-636l364 636h158v-700h-92v636zM228 842c0 31 25 56 56 56s56 -25 56 -56s-25 -56 -56 -56s-56 25 -56 56zM401 842c0 31 25 56 56 56s56 -25 56 -56s-25 -56 -56 -56s-56 25 -56 56z" />
    <glyph glyph-name="uni04E6.ss01" horiz-adv-x="812" 
d="M406 710c202 4 365 -164 362 -360c3 -197 -160 -364 -362 -360c-203 -4 -364 163 -361 360c-3 196 158 364 361 360zM406 77c149 0 265 110 265 273s-114 273 -265 273s-265 -110 -265 -274s116 -272 265 -272zM258 842c0 31 25 56 56 56s56 -25 56 -56s-25 -56 -56 -56
s-56 25 -56 56zM431 842c0 31 25 56 56 56s56 -25 56 -56s-25 -56 -56 -56s-56 25 -56 56z" />
    <glyph glyph-name="uni04EA.ss01" horiz-adv-x="812" 
d="M45 350c-3 196 158 364 361 360c202 4 365 -164 362 -360c3 -197 -160 -364 -362 -360c-203 -4 -364 163 -361 360zM144 389h524c-16 141 -123 234 -262 234c-138 0 -246 -91 -262 -234zM668 311h-524c16 -143 125 -234 262 -234c136 0 246 91 262 234zM263 842
c0 31 25 56 56 56s56 -25 56 -56s-25 -56 -56 -56s-56 25 -56 56zM436 842c0 31 25 56 56 56s56 -25 56 -56s-25 -56 -56 -56s-56 25 -56 56z" />
    <glyph glyph-name="uni04EC.ss01" horiz-adv-x="777" 
d="M34 265l81 33c29 -133 113 -224 268 -224c69 0 127 21 174 62s74 99 81 173h-316v87h316c-18 142 -126 230 -255 230c-123 0 -203 -75 -227 -187l-84 38c19 67 54 123 106 167c53 44 122 66 208 66c201 3 350 -155 347 -360c0 -208 -133 -360 -351 -360
c-93 0 -170 25 -230 76s-99 117 -118 199zM243 842c0 31 25 56 56 56s56 -25 56 -56s-25 -56 -56 -56s-56 25 -56 56zM416 842c0 31 25 56 56 56s56 -25 56 -56s-25 -56 -56 -56s-56 25 -56 56z" />
    <glyph glyph-name="uni04F0.ss01" horiz-adv-x="690" 
d="M119 0l173 265l-276 435h110l219 -351l220 351h109l-444 -700h-111zM203 842c0 31 25 56 56 56s56 -25 56 -56s-25 -56 -56 -56s-56 25 -56 56zM376 842c0 31 25 56 56 56s56 -25 56 -56s-25 -56 -56 -56s-56 25 -56 56z" />
    <glyph glyph-name="uni04F4.ss01" horiz-adv-x="680" 
d="M513 0v241c-45 -51 -117 -83 -205 -83c-149 0 -239 102 -239 250v292h92v-278c0 -116 63 -177 168 -177c67 0 129 34 184 101v354h92v-700h-92zM194 842c0 31 25 56 56 56s56 -25 56 -56s-25 -56 -56 -56s-56 25 -56 56zM367 842c0 31 25 56 56 56s56 -25 56 -56
s-25 -56 -56 -56s-56 25 -56 56z" />
    <glyph glyph-name="uni04F8.ss01" horiz-adv-x="931" 
d="M76 0v700h92v-297h246c130 0 226 -76 226 -201c0 -124 -96 -202 -226 -202h-338zM168 87h243c79 0 133 46 133 115s-54 114 -133 114h-243v-229zM764 0v700h92v-700h-92zM302 842c0 31 25 56 56 56s56 -25 56 -56s-25 -56 -56 -56s-56 25 -56 56zM475 842
c0 31 25 56 56 56s56 -25 56 -56s-25 -56 -56 -56s-56 25 -56 56z" />
    <glyph glyph-name="uni0430" unicode="&#x430;" horiz-adv-x="515" 
d="M45 135c0 97 73 147 176 147c35 0 69 -5 101 -15l43 -12v49c0 69 -48 107 -119 107c-68 0 -114 -37 -126 -98l-78 22c19 91 93 149 204 149c129 0 202 -70 202 -187v-297h-83v75c-24 -51 -87 -85 -163 -85c-44 0 -81 13 -112 39c-30 27 -45 62 -45 106zM365 177v10
l-44 13c-33 10 -63 15 -88 15c-61 0 -99 -26 -99 -75c0 -44 34 -74 97 -74c79 0 134 42 134 111z" />
    <glyph glyph-name="uni0431" unicode="&#x431;" horiz-adv-x="559" 
d="M38 290c0 95 23 169 69 224c47 55 108 94 185 116c113 33 143 47 140 105h79l1 -16c0 -84 -63 -128 -179 -156c-125 -32 -186 -92 -206 -189c32 68 95 110 178 110c139 0 217 -114 217 -249c0 -137 -98 -245 -237 -245c-85 0 -147 28 -187 85s-60 129 -60 215zM433 235
c0 51 -14 92 -43 123c-29 32 -65 48 -109 48c-89 0 -153 -70 -153 -171c0 -99 66 -167 153 -167c89 0 152 66 152 167z" />
    <glyph glyph-name="uni0432" unicode="&#x432;" horiz-adv-x="528" 
d="M67 0v474h244c95 0 155 -49 155 -126c0 -48 -31 -91 -78 -106c56 -12 93 -49 93 -110c0 -39 -15 -70 -44 -95s-66 -37 -111 -37h-259zM153 278h157c44 0 69 22 69 59s-25 59 -69 59h-157v-118zM153 78h167c45 0 74 24 74 63s-27 62 -74 62h-167v-125z" />
    <glyph glyph-name="uni0433" unicode="&#x433;" horiz-adv-x="405" 
d="M67 0v474h318v-81h-232v-393h-86z" />
    <glyph glyph-name="uni0453" unicode="&#x453;" horiz-adv-x="405" 
d="M67 0v474h318v-81h-232v-393h-86zM185 555l87 133h117v-14l-121 -119h-83z" />
    <glyph glyph-name="uni0491" unicode="&#x491;" horiz-adv-x="405" 
d="M299 585h86v-192h-232v-393h-86v474h232v111z" />
    <glyph glyph-name="uni0434" unicode="&#x434;" horiz-adv-x="566" 
d="M33 -110v188h45c22 43 37 84 44 121c7 38 11 86 11 143v132h344v-396h56v-188h-81v110h-338v-110h-81zM169 78h224v318h-176v-54c0 -56 -4 -104 -12 -144c-7 -39 -19 -79 -36 -120z" />
    <glyph glyph-name="uni0435" unicode="&#x435;" horiz-adv-x="522" 
d="M414 172l75 -29c-32 -96 -103 -153 -212 -153c-139 0 -239 97 -239 250c0 136 91 244 226 244c63 0 114 -18 153 -55c39 -36 58 -85 58 -147c0 -21 -2 -40 -6 -58h-343c1 -103 67 -158 151 -158c73 0 118 38 137 106zM126 286h263l1 14c0 68 -55 108 -127 108
c-73 0 -128 -47 -137 -122z" />
    <glyph glyph-name="uni0450" unicode="&#x450;" horiz-adv-x="522" 
d="M414 172l75 -29c-32 -96 -103 -153 -212 -153c-139 0 -239 97 -239 250c0 136 91 244 226 244c63 0 114 -18 153 -55c39 -36 58 -85 58 -147c0 -21 -2 -40 -6 -58h-343c1 -103 67 -158 151 -158c73 0 118 38 137 106zM126 286h263l1 14c0 68 -55 108 -127 108
c-73 0 -128 -47 -137 -122zM222 555l-121 119v14h117l87 -133h-83z" />
    <glyph glyph-name="uni0451" unicode="&#x451;" horiz-adv-x="522" 
d="M414 172l75 -29c-32 -96 -103 -153 -212 -153c-139 0 -239 97 -239 250c0 136 91 244 226 244c63 0 114 -18 153 -55c39 -36 58 -85 58 -147c0 -21 -2 -40 -6 -58h-343c1 -103 67 -158 151 -158c73 0 118 38 137 106zM126 286h263l1 14c0 68 -55 108 -127 108
c-73 0 -128 -47 -137 -122zM131 567v99h97v-99h-97zM298 567v99h97v-99h-97z" />
    <glyph glyph-name="uni0436" unicode="&#x436;" horiz-adv-x="711" 
d="M23 0l219 250l-210 224h109l171 -191v191h87v-191l171 191h108l-209 -224l218 -250h-107l-181 212v-212h-87v212l-181 -212h-108z" />
    <glyph glyph-name="uni0437" unicode="&#x437;" horiz-adv-x="452" 
d="M33 142l75 34c11 -65 50 -108 122 -108c59 0 98 25 98 73c0 39 -30 61 -77 61h-43v76h33c43 0 76 24 76 67s-34 64 -83 64c-52 0 -86 -29 -102 -86l-74 37c29 79 91 124 176 124c97 0 167 -51 167 -134c0 -55 -33 -96 -82 -109c53 -12 93 -44 93 -108
c0 -85 -85 -143 -189 -143c-101 0 -174 64 -190 152z" />
    <glyph glyph-name="uni0438" unicode="&#x438;" horiz-adv-x="576" 
d="M67 0v474h86v-390l224 390h133v-474h-87v390l-224 -390h-132z" />
    <glyph glyph-name="uni0439" unicode="&#x439;" horiz-adv-x="576" 
d="M67 0v474h86v-390l224 390h133v-474h-87v390l-224 -390h-132zM410 663c0 -71 -53 -109 -122 -109s-122 38 -122 109c0 6 0 11 1 14h68l-1 -11c0 -29 21 -50 54 -50s54 21 54 50l-1 11h68c1 -3 1 -8 1 -14z" />
    <glyph glyph-name="uni045D" unicode="&#x45d;" horiz-adv-x="576" 
d="M67 0v474h86v-390l224 390h133v-474h-87v390l-224 -390h-132zM246 555l-121 119v14h117l87 -133h-83z" />
    <glyph glyph-name="uni043A" unicode="&#x43a;" horiz-adv-x="467" 
d="M67 0v474h86v-191l171 191h111l-210 -224l219 -250h-110l-181 212v-212h-86z" />
    <glyph glyph-name="uni045C" unicode="&#x45c;" horiz-adv-x="467" 
d="M67 0v474h86v-191l171 191h111l-210 -224l219 -250h-110l-181 212v-212h-86zM192 555l87 133h117v-14l-121 -119h-83z" />
    <glyph glyph-name="uni043B" unicode="&#x43b;" horiz-adv-x="522" 
d="M26 0v14c20 37 35 79 45 126c11 47 16 111 16 190v144h368v-474h-87v396h-194v-50c0 -91 -6 -163 -18 -215c-11 -52 -26 -96 -44 -131h-86z" />
    <glyph glyph-name="uni043C" unicode="&#x43c;" horiz-adv-x="702" 
d="M635 474v-474h-87v398l-137 -398h-121l-137 398v-398h-86v474h146l138 -401l138 401h146z" />
    <glyph glyph-name="uni043D" unicode="&#x43d;" horiz-adv-x="546" 
d="M153 474v-192h240v192h87v-474h-87v204h-240v-204h-86v474h86z" />
    <glyph glyph-name="uni043E" unicode="&#x43e;" horiz-adv-x="556" 
d="M38 237c0 140 97 247 240 247c144 0 241 -107 241 -247s-99 -247 -241 -247c-143 0 -240 107 -240 247zM430 237c0 49 -14 90 -43 121c-28 32 -64 48 -109 48c-88 0 -152 -70 -152 -169s64 -169 152 -169c89 0 152 69 152 169z" />
    <glyph glyph-name="uni043F" unicode="&#x43f;" horiz-adv-x="541" 
d="M67 0v474h407v-474h-86v396h-235v-396h-86z" />
    <glyph glyph-name="uni0440" unicode="&#x440;" horiz-adv-x="573" 
d="M67 474h82v-89c31 57 99 99 170 99c128 0 216 -100 216 -247s-93 -247 -222 -247c-68 0 -128 31 -160 84v-272h-86v672zM299 67c78 0 150 59 150 169c0 109 -72 170 -150 170c-74 0 -150 -65 -150 -170s76 -169 150 -169z" />
    <glyph glyph-name="uni0441" unicode="&#x441;" horiz-adv-x="550" 
d="M285 66c92 0 138 53 157 142l77 -29c-27 -120 -113 -189 -232 -189c-149 0 -249 100 -249 250c0 142 109 244 238 244c115 0 197 -63 220 -171l-79 -24c-15 75 -65 119 -142 119c-73 0 -153 -59 -153 -168c0 -106 79 -174 163 -174z" />
    <glyph glyph-name="uni0442" unicode="&#x442;" horiz-adv-x="415" 
d="M164 0v396h-149v78h385v-78h-149v-396h-87z" />
    <glyph glyph-name="uni0443" unicode="&#x443;" horiz-adv-x="481" 
d="M376 474h92l-304 -672h-92l117 259l-181 413h94l133 -312z" />
    <glyph glyph-name="uni045E" unicode="&#x45e;" horiz-adv-x="481" 
d="M376 474h92l-304 -672h-92l117 259l-181 413h94l133 -312zM357 663c0 -71 -53 -109 -122 -109s-122 38 -122 109c0 6 0 11 1 14h68l-1 -11c0 -29 21 -50 54 -50s54 21 54 50l-1 11h68c1 -3 1 -8 1 -14z" />
    <glyph glyph-name="uni0444" unicode="&#x444;" horiz-adv-x="893" 
d="M403 -198v265c-35 -49 -92 -77 -152 -77c-123 0 -213 103 -213 246c0 150 90 248 211 248c69 0 125 -32 154 -85v301h87v-301c28 53 85 85 154 85c121 0 211 -98 211 -248c0 -143 -91 -246 -214 -246c-60 0 -116 28 -151 77v-265h-87zM408 236c0 105 -66 169 -142 169
c-84 0 -142 -65 -142 -169c0 -105 58 -169 142 -169c76 0 142 63 142 169zM768 236c0 104 -58 169 -142 169c-76 0 -141 -63 -141 -169s65 -169 141 -169c85 0 142 64 142 169z" />
    <glyph glyph-name="uni0445" unicode="&#x445;" horiz-adv-x="468" 
d="M434 474l-152 -223l173 -251h-99l-122 183l-122 -183h-99l174 250l-154 224h101l100 -154l99 154h101z" />
    <glyph glyph-name="uni0447" unicode="&#x447;" horiz-adv-x="547" 
d="M394 258v216h86v-474h-86v187c-31 -44 -87 -76 -164 -76c-104 0 -163 67 -163 170v193h86v-177c0 -73 38 -112 105 -112c56 0 97 24 136 73z" />
    <glyph glyph-name="uni0446" unicode="&#x446;" horiz-adv-x="570" 
d="M456 -110v110h-389v474h86v-396h231v396h87v-396h66v-188h-81z" />
    <glyph glyph-name="uni0448" unicode="&#x448;" horiz-adv-x="780" 
d="M67 0v474h86v-396h194v396h86v-396h194v396h86v-474h-646z" />
    <glyph glyph-name="uni0449" unicode="&#x449;" horiz-adv-x="812" 
d="M698 -110v110h-631v474h86v-396h194v396h86v-396h194v396h86v-396h66v-188h-81z" />
    <glyph glyph-name="uni045F" unicode="&#x45f;" horiz-adv-x="540" 
d="M230 -110v110h-163v474h86v-396h234v396h87v-474h-163v-110h-81z" />
    <glyph glyph-name="uni044C" unicode="&#x44c;" horiz-adv-x="499" 
d="M67 0v474h86v-171h141c97 0 158 -64 158 -149c0 -84 -62 -154 -158 -154h-227zM153 78h137c47 0 78 30 78 73c0 44 -31 73 -78 73h-137v-146z" />
    <glyph glyph-name="uni044A" unicode="&#x44a;" horiz-adv-x="576" 
d="M144 0v396h-125v78h212v-171h140c97 0 158 -64 158 -149c0 -84 -61 -154 -158 -154h-227zM231 78h137c45 0 77 30 77 73c0 44 -30 73 -77 73h-137v-146z" />
    <glyph glyph-name="uni044B" unicode="&#x44b;" horiz-adv-x="719" 
d="M67 0v474h86v-171h141c97 0 158 -64 158 -149c0 -84 -62 -154 -158 -154h-227zM153 78h137c47 0 78 30 78 73c0 44 -31 73 -78 73h-137v-146zM566 474h86v-474h-86v474z" />
    <glyph glyph-name="uni0459" unicode="&#x459;" horiz-adv-x="779" 
d="M26 0v14c20 37 35 79 45 126c11 47 16 111 16 190v144h347v-171h141c97 0 157 -64 157 -149c0 -84 -60 -154 -157 -154h-228v396h-173v-50c0 -91 -6 -163 -18 -215c-11 -52 -26 -96 -44 -131h-86zM434 78h137c45 0 78 30 78 73c0 44 -31 73 -78 73h-137v-146z" />
    <glyph glyph-name="uni045A" unicode="&#x45a;" horiz-adv-x="806" 
d="M67 0v474h86v-192h225v192h86v-192h140c96 0 156 -56 156 -141c0 -87 -59 -141 -156 -141h-226v204h-225v-204h-86zM464 78h137c47 0 75 22 75 63s-28 63 -75 63h-137v-126z" />
    <glyph glyph-name="uni0455" unicode="&#x455;" horiz-adv-x="472" 
d="M33 124l71 37c27 -67 69 -95 141 -95c63 0 102 28 102 69c0 45 -29 70 -125 83c-109 16 -163 61 -163 136c0 38 16 69 48 93c33 25 74 37 123 37c89 0 142 -38 171 -105l-67 -37c-16 48 -53 72 -104 72c-52 0 -92 -24 -92 -61c0 -41 34 -59 127 -72
c111 -15 166 -62 166 -141c0 -88 -83 -150 -190 -150s-180 53 -208 134z" />
    <glyph glyph-name="uni0454" unicode="&#x454;" horiz-adv-x="551" 
d="M37 240c0 145 104 244 235 244c117 0 198 -62 223 -171l-78 -24c-16 75 -66 119 -142 119c-35 0 -67 -11 -96 -33s-48 -54 -55 -97h174v-76h-174c16 -85 81 -136 160 -136c93 0 140 54 157 142l77 -29c-25 -120 -112 -189 -231 -189c-150 0 -250 100 -250 250z" />
    <glyph glyph-name="uni044D" unicode="&#x44d;" horiz-adv-x="550" 
d="M513 240c0 -150 -100 -250 -250 -250c-119 0 -206 69 -231 189l77 29c17 -88 64 -142 157 -142c79 0 144 51 160 136h-174v76h174c-7 43 -26 75 -55 97s-61 33 -96 33c-76 0 -126 -44 -142 -119l-78 24c25 109 106 171 223 171c131 0 235 -99 235 -244z" />
    <glyph glyph-name="uni0456" unicode="&#x456;" horiz-adv-x="220" 
d="M67 474h86v-474h-86v474zM62 562v101h96v-101h-96z" />
    <glyph glyph-name="uni0457" unicode="&#x457;" horiz-adv-x="220" 
d="M67 474h86v-474h-86v474zM-23 567v99h97v-99h-97zM144 567v99h97v-99h-97z" />
    <glyph glyph-name="uni0458" unicode="&#x458;" horiz-adv-x="220" 
d="M67 -198v672h86v-672h-86zM62 562v101h96v-101h-96z" />
    <glyph glyph-name="uni045B" unicode="&#x45b;" horiz-adv-x="555" 
d="M153 0h-86v700h86v-326c27 68 90 110 167 110c104 0 169 -69 169 -177v-307h-87v287c0 81 -41 123 -113 123c-76 0 -136 -67 -136 -165v-245zM0 631h305v-70h-305v70z" />
    <glyph glyph-name="uni044E" unicode="&#x44e;" horiz-adv-x="753" 
d="M715 236c0 -141 -97 -246 -240 -246c-132 0 -227 90 -239 214h-83v-204h-86v474h86v-192h85c9 59 35 108 78 145c43 38 96 57 159 57c143 0 240 -107 240 -248zM627 236c0 99 -64 170 -152 170c-89 0 -153 -71 -153 -170c0 -100 64 -168 153 -168c88 0 152 68 152 168z
" />
    <glyph glyph-name="uni044F" unicode="&#x44f;" horiz-adv-x="496" 
d="M33 10l147 180c-41 0 -75 13 -102 40s-41 61 -41 102c0 83 58 142 155 142h237v-474h-86v190h-60l-157 -190h-93v10zM343 265v131h-145c-48 0 -75 -26 -75 -67c0 -40 27 -64 75 -64h145z" />
    <glyph glyph-name="uni0452" unicode="&#x452;" horiz-adv-x="555" 
d="M489 307v-383c0 -85 -50 -132 -127 -132c-68 0 -121 38 -130 98l81 25c4 -27 21 -44 49 -44c25 0 40 17 40 48v368c0 81 -41 123 -113 123c-76 0 -136 -67 -136 -165v-245h-86v561h-67v70h67v69h86v-69h152v-70h-152v-187c27 68 90 110 167 110c104 0 169 -69 169 -177z
" />
    <glyph glyph-name="uni0463" unicode="&#x463;" horiz-adv-x="479" 
d="M432 189c0 -121 -85 -189 -210 -189h-155v526h-123v78h123v96h86v-96h160v-78h-160v-147h69c124 0 210 -69 210 -190zM340 189c0 71 -43 111 -122 111h-65v-222h65c79 0 122 42 122 111z" />
    <glyph glyph-name="uni0473" unicode="&#x473;" horiz-adv-x="556" 
d="M519 235c0 -140 -99 -245 -241 -245c-143 0 -240 105 -240 245s98 249 240 249c144 0 241 -109 241 -249zM130 275c20 12 44 18 72 18c31 0 55 -9 87 -24c36 -15 49 -20 70 -20c27 0 50 9 67 26c-15 79 -72 131 -148 131s-133 -52 -148 -131zM427 200
c-20 -12 -44 -18 -72 -18c-31 0 -54 8 -87 24c-31 15 -48 21 -71 21c-28 0 -51 -9 -68 -28c15 -80 72 -131 149 -131s136 52 149 132z" />
    <glyph glyph-name="uni0475" unicode="&#x475;" horiz-adv-x="556" 
d="M206 0l-187 474h91l149 -390l123 326c23 59 56 85 108 85c39 0 68 -18 87 -54l-59 -53c-5 13 -14 19 -27 19c-14 0 -24 -8 -29 -24l-151 -383h-105z" />
    <glyph glyph-name="uni0493" unicode="&#x493;" horiz-adv-x="418" 
d="M401 393h-231v-123h119v-68h-119v-202h-87v202h-65v68h65v204h318v-81z" />
    <glyph glyph-name="uni0497" unicode="&#x497;" horiz-adv-x="711" 
d="M23 0l219 250l-210 224h109l171 -191v191h87v-191l171 191h108l-209 -224l218 -250h-107l-181 212v-212h-87v212l-181 -212h-108zM624 -110v183h77v-183h-77z" />
    <glyph glyph-name="uni0499" unicode="&#x499;" horiz-adv-x="452" 
d="M33 142l75 34c11 -65 50 -108 122 -108c59 0 98 25 98 73c0 39 -30 61 -77 61h-43v76h33c43 0 76 24 76 67s-34 64 -83 64c-52 0 -86 -29 -102 -86l-74 37c29 79 91 124 176 124c97 0 167 -51 167 -134c0 -55 -33 -96 -82 -109c53 -12 93 -44 93 -108
c0 -85 -85 -143 -189 -143c-101 0 -174 64 -190 152zM200 -53c12 13 33 23 50 23c45 0 77 -29 77 -77c0 -51 -35 -81 -84 -81c-45 0 -81 23 -89 67l47 12c3 -20 19 -34 40 -34c25 0 40 15 40 36s-15 37 -40 37c-16 0 -31 -9 -38 -21l-47 9c7 24 14 57 21 98h51
c-10 -31 -19 -54 -28 -69z" />
    <glyph glyph-name="uni049B" unicode="&#x49b;" horiz-adv-x="467" 
d="M67 0v474h86v-191l171 191h111l-210 -224l219 -250h-110l-181 212v-212h-86zM380 -110v183h77v-183h-77z" />
    <glyph glyph-name="uni04A1" unicode="&#x4a1;" horiz-adv-x="534" 
d="M292 250l219 -250h-110l-181 212v-212h-86v404h-119v70h205v-191l171 191h111z" />
    <glyph glyph-name="uni04A3" unicode="&#x4a3;" horiz-adv-x="546" 
d="M153 474v-192h240v192h87v-474h-87v204h-240v-204h-86v474h86zM480 -110v183h77v-183h-77z" />
    <glyph glyph-name="uni04AB" unicode="&#x4ab;" horiz-adv-x="550" 
d="M285 66c92 0 138 53 157 142l77 -29c-27 -120 -113 -189 -232 -189c-149 0 -249 100 -249 250c0 142 109 244 238 244c115 0 197 -63 220 -171l-79 -24c-15 75 -65 119 -142 119c-73 0 -153 -59 -153 -168c0 -106 79 -174 163 -174zM256 -53c12 13 33 23 50 23
c45 0 77 -29 77 -77c0 -51 -35 -81 -84 -81c-45 0 -81 23 -89 67l47 12c3 -20 19 -34 40 -34c25 0 40 15 40 36s-15 37 -40 37c-16 0 -31 -9 -38 -21l-47 9c7 24 14 57 21 98h51c-10 -31 -19 -54 -28 -69z" />
    <glyph glyph-name="uni04AF" unicode="&#x4af;" horiz-adv-x="517" 
d="M216 -198v198l-197 474h91l149 -377l148 377h91l-196 -474v-198h-86z" />
    <glyph glyph-name="uni04B1" unicode="&#x4b1;" horiz-adv-x="517" 
d="M498 474l-182 -441h86v-66h-100v-165h-86v165h-100v66h86l-183 441h91l149 -377l148 377h91z" />
    <glyph glyph-name="uni04B3" unicode="&#x4b3;" horiz-adv-x="468" 
d="M434 474l-152 -223l173 -251h-99l-122 183l-122 -183h-99l174 250l-154 224h101l100 -154l99 154h101zM389 -110v183h77v-183h-77z" />
    <glyph glyph-name="uni04B7" unicode="&#x4b7;" horiz-adv-x="569" 
d="M394 258v216h86v-474h-86v187c-31 -44 -87 -76 -164 -76c-104 0 -163 67 -163 170v193h86v-177c0 -73 38 -112 105 -112c56 0 97 24 136 73zM480 -110v183h77v-183h-77z" />
    <glyph glyph-name="uni04BB" unicode="&#x4bb;" horiz-adv-x="555" 
d="M153 0h-86v700h86v-326c27 68 90 110 167 110c104 0 169 -69 169 -177v-307h-87v287c0 81 -41 123 -113 123c-76 0 -136 -67 -136 -165v-245z" />
    <glyph glyph-name="uni0527" unicode="&#x527;" horiz-adv-x="577" 
d="M153 0h-86v700h86v-326c27 68 90 110 167 110c104 0 169 -69 169 -177v-307h-87v287c0 81 -41 123 -113 123c-76 0 -136 -67 -136 -165v-245zM489 -110v183h77v-183h-77z" />
    <glyph glyph-name="uni04CF" unicode="&#x4cf;" horiz-adv-x="220" 
d="M67 0v700h86v-700h-86z" />
    <glyph glyph-name="uni04C2" unicode="&#x4c2;" horiz-adv-x="711" 
d="M23 0l219 250l-210 224h109l171 -191v191h87v-191l171 191h108l-209 -224l218 -250h-107l-181 212v-212h-87v212l-181 -212h-108zM478 663c0 -71 -53 -109 -122 -109s-122 38 -122 109c0 6 0 11 1 14h68l-1 -11c0 -29 21 -50 54 -50s54 21 54 50l-1 11h68
c1 -3 1 -8 1 -14z" />
    <glyph glyph-name="uni04D1" unicode="&#x4d1;" horiz-adv-x="515" 
d="M45 135c0 97 73 147 176 147c35 0 69 -5 101 -15l43 -12v49c0 69 -48 107 -119 107c-68 0 -114 -37 -126 -98l-78 22c19 91 93 149 204 149c129 0 202 -70 202 -187v-297h-83v75c-24 -51 -87 -85 -163 -85c-44 0 -81 13 -112 39c-30 27 -45 62 -45 106zM365 177v10
l-44 13c-33 10 -63 15 -88 15c-61 0 -99 -26 -99 -75c0 -44 34 -74 97 -74c79 0 134 42 134 111zM368 663c0 -71 -53 -109 -122 -109s-122 38 -122 109c0 6 0 11 1 14h68l-1 -11c0 -29 21 -50 54 -50s54 21 54 50l-1 11h68c1 -3 1 -8 1 -14z" />
    <glyph glyph-name="uni04D3" unicode="&#x4d3;" horiz-adv-x="515" 
d="M45 135c0 97 73 147 176 147c35 0 69 -5 101 -15l43 -12v49c0 69 -48 107 -119 107c-68 0 -114 -37 -126 -98l-78 22c19 91 93 149 204 149c129 0 202 -70 202 -187v-297h-83v75c-24 -51 -87 -85 -163 -85c-44 0 -81 13 -112 39c-30 27 -45 62 -45 106zM365 177v10
l-44 13c-33 10 -63 15 -88 15c-61 0 -99 -26 -99 -75c0 -44 34 -74 97 -74c79 0 134 42 134 111zM113 567v99h97v-99h-97zM280 567v99h97v-99h-97z" />
    <glyph glyph-name="uni04D5" unicode="&#x4d5;" horiz-adv-x="844" 
d="M45 138c0 97 69 148 176 148h140v18c0 69 -46 107 -119 107c-67 0 -113 -34 -125 -93l-75 21c21 93 93 145 200 145c83 0 143 -31 174 -84c37 52 100 84 171 84c63 0 113 -18 152 -55c39 -36 59 -85 59 -147c0 -15 -2 -34 -6 -58h-343c1 -103 66 -159 151 -159
c73 0 118 39 137 107l74 -29c-32 -96 -102 -153 -211 -153c-89 0 -162 42 -195 113c-40 -75 -106 -113 -198 -113c-48 0 -87 14 -117 42s-45 63 -45 106zM448 286h263c1 3 1 8 1 14c0 68 -55 108 -127 108c-73 0 -128 -47 -137 -122zM361 187v33h-123
c-64 0 -106 -29 -106 -80c0 -48 35 -74 94 -74c81 0 135 46 135 121z" />
    <glyph glyph-name="uni04D7" unicode="&#x4d7;" horiz-adv-x="522" 
d="M414 172l75 -29c-32 -96 -103 -153 -212 -153c-139 0 -239 97 -239 250c0 136 91 244 226 244c63 0 114 -18 153 -55c39 -36 58 -85 58 -147c0 -21 -2 -40 -6 -58h-343c1 -103 67 -158 151 -158c73 0 118 38 137 106zM126 286h263l1 14c0 68 -55 108 -127 108
c-73 0 -128 -47 -137 -122zM386 663c0 -71 -53 -109 -122 -109s-122 38 -122 109c0 6 0 11 1 14h68l-1 -11c0 -29 21 -50 54 -50s54 21 54 50l-1 11h68c1 -3 1 -8 1 -14z" />
    <glyph glyph-name="uni04D9" unicode="&#x4d9;" horiz-adv-x="522" 
d="M108 302l-75 29c32 96 103 153 212 153c139 0 239 -97 239 -250c0 -136 -91 -244 -226 -244c-63 0 -114 18 -153 54c-39 37 -58 86 -58 148c0 21 2 40 6 58h343c-1 103 -67 158 -151 158c-73 0 -118 -38 -137 -106zM396 188h-263l-1 -14c0 -68 55 -108 127 -108
c73 0 128 47 137 122z" />
    <glyph glyph-name="uni04DB" unicode="&#x4db;" horiz-adv-x="522" 
d="M108 302l-75 29c32 96 103 153 212 153c139 0 239 -97 239 -250c0 -136 -91 -244 -226 -244c-63 0 -114 18 -153 54c-39 37 -58 86 -58 148c0 21 2 40 6 58h343c-1 103 -67 158 -151 158c-73 0 -118 -38 -137 -106zM396 188h-263l-1 -14c0 -68 55 -108 127 -108
c73 0 128 47 137 122zM125 567v99h97v-99h-97zM292 567v99h97v-99h-97z" />
    <glyph glyph-name="uni04DD" unicode="&#x4dd;" horiz-adv-x="711" 
d="M23 0l219 250l-210 224h109l171 -191v191h87v-191l171 191h108l-209 -224l218 -250h-107l-181 212v-212h-87v212l-181 -212h-108zM223 567v99h97v-99h-97zM390 567v99h97v-99h-97z" />
    <glyph glyph-name="uni04DF" unicode="&#x4df;" horiz-adv-x="452" 
d="M33 142l75 34c11 -65 50 -108 122 -108c59 0 98 25 98 73c0 39 -30 61 -77 61h-43v76h33c43 0 76 24 76 67s-34 64 -83 64c-52 0 -86 -29 -102 -86l-74 37c29 79 91 124 176 124c97 0 167 -51 167 -134c0 -55 -33 -96 -82 -109c53 -12 93 -44 93 -108
c0 -85 -85 -143 -189 -143c-101 0 -174 64 -190 152zM102 567v99h97v-99h-97zM269 567v99h97v-99h-97z" />
    <glyph glyph-name="uni04E3" unicode="&#x4e3;" horiz-adv-x="576" 
d="M67 0v474h86v-390l224 390h133v-474h-87v390l-224 -390h-132zM160 650h254v-69h-254v69z" />
    <glyph glyph-name="uni04E5" unicode="&#x4e5;" horiz-adv-x="576" 
d="M67 0v474h86v-390l224 390h133v-474h-87v390l-224 -390h-132zM155 567v99h97v-99h-97zM322 567v99h97v-99h-97z" />
    <glyph glyph-name="uni04E7" unicode="&#x4e7;" horiz-adv-x="556" 
d="M38 237c0 140 97 247 240 247c144 0 241 -107 241 -247s-99 -247 -241 -247c-143 0 -240 107 -240 247zM430 237c0 49 -14 90 -43 121c-28 32 -64 48 -109 48c-88 0 -152 -70 -152 -169s64 -169 152 -169c89 0 152 69 152 169zM145 567v99h97v-99h-97zM312 567v99h97v-99
h-97z" />
    <glyph glyph-name="uni04E9" unicode="&#x4e9;" horiz-adv-x="556" 
d="M38 236c0 141 97 248 240 248c144 0 241 -107 241 -248s-99 -246 -241 -246c-143 0 -240 105 -240 246zM129 270h298c-12 83 -72 136 -149 136s-137 -53 -149 -136zM428 204h-299c12 -83 70 -136 149 -136s138 53 150 136z" />
    <glyph glyph-name="uni04EB" unicode="&#x4eb;" horiz-adv-x="556" 
d="M38 236c0 141 97 248 240 248c144 0 241 -107 241 -248s-99 -246 -241 -246c-143 0 -240 105 -240 246zM129 270h298c-12 83 -72 136 -149 136s-137 -53 -149 -136zM428 204h-299c12 -83 70 -136 149 -136s138 53 150 136zM145 567v99h97v-99h-97zM312 567v99h97v-99h-97
z" />
    <glyph glyph-name="uni04ED" unicode="&#x4ed;" horiz-adv-x="550" 
d="M513 240c0 -150 -100 -250 -250 -250c-119 0 -206 69 -231 189l77 29c17 -88 64 -142 157 -142c79 0 144 51 160 136h-174v76h174c-7 43 -26 75 -55 97s-61 33 -96 33c-76 0 -126 -44 -142 -119l-78 24c25 109 106 171 223 171c131 0 235 -99 235 -244zM140 567v99h97
v-99h-97zM307 567v99h97v-99h-97z" />
    <glyph glyph-name="uni04EF" unicode="&#x4ef;" horiz-adv-x="481" 
d="M376 474h92l-304 -672h-92l117 259l-181 413h94l133 -312zM107 650h254v-69h-254v69z" />
    <glyph glyph-name="uni04F1" unicode="&#x4f1;" horiz-adv-x="481" 
d="M376 474h92l-304 -672h-92l117 259l-181 413h94l133 -312zM102 567v99h97v-99h-97zM269 567v99h97v-99h-97z" />
    <glyph glyph-name="uni04F3" unicode="&#x4f3;" horiz-adv-x="481" 
d="M376 474h92l-304 -672h-92l117 259l-181 413h94l133 -312zM104 555l87 133h117v-14l-121 -119h-83zM283 555l87 133h117v-14l-121 -119h-83z" />
    <glyph glyph-name="uni04F5" unicode="&#x4f5;" horiz-adv-x="547" 
d="M394 258v216h86v-474h-86v187c-31 -44 -87 -76 -164 -76c-104 0 -163 67 -163 170v193h86v-177c0 -73 38 -112 105 -112c56 0 97 24 136 73zM140 567v99h97v-99h-97zM307 567v99h97v-99h-97z" />
    <glyph glyph-name="uni04F9" unicode="&#x4f9;" horiz-adv-x="719" 
d="M67 0v474h86v-171h141c97 0 158 -64 158 -149c0 -84 -62 -154 -158 -154h-227zM153 78h137c47 0 78 30 78 73c0 44 -31 73 -78 73h-137v-146zM566 474h86v-474h-86v474zM227 567v99h97v-99h-97zM394 567v99h97v-99h-97z" />
    <glyph glyph-name="uni0451.ss01" horiz-adv-x="522" 
d="M414 172l75 -29c-32 -96 -103 -153 -212 -153c-139 0 -239 97 -239 250c0 136 91 244 226 244c63 0 114 -18 153 -55c39 -36 58 -85 58 -147c0 -21 -2 -40 -6 -58h-343c1 -103 67 -158 151 -158c73 0 118 38 137 106zM126 286h263l1 14c0 68 -55 108 -127 108
c-73 0 -128 -47 -137 -122zM122 616c0 31 25 56 56 56s56 -25 56 -56s-25 -56 -56 -56s-56 25 -56 56zM295 616c0 31 25 56 56 56s56 -25 56 -56s-25 -56 -56 -56s-56 25 -56 56z" />
    <glyph glyph-name="uni0456.ss01" horiz-adv-x="220" 
d="M67 474h86v-474h-86v474zM108 670c33 0 58 -25 58 -58s-25 -58 -58 -58c-32 0 -57 25 -57 58s25 58 57 58z" />
    <glyph glyph-name="uni0457.ss01" horiz-adv-x="220" 
d="M67 474h86v-474h-86v474zM-32 616c0 31 25 56 56 56s56 -25 56 -56s-25 -56 -56 -56s-56 25 -56 56zM141 616c0 31 25 56 56 56s56 -25 56 -56s-25 -56 -56 -56s-56 25 -56 56z" />
    <glyph glyph-name="uni0458.ss01" horiz-adv-x="220" 
d="M67 -198v672h86v-672h-86zM108 670c33 0 58 -25 58 -58s-25 -58 -58 -58c-32 0 -57 25 -57 58s25 58 57 58z" />
    <glyph glyph-name="uni04D3.ss01" horiz-adv-x="515" 
d="M45 135c0 97 73 147 176 147c35 0 69 -5 101 -15l43 -12v49c0 69 -48 107 -119 107c-68 0 -114 -37 -126 -98l-78 22c19 91 93 149 204 149c129 0 202 -70 202 -187v-297h-83v75c-24 -51 -87 -85 -163 -85c-44 0 -81 13 -112 39c-30 27 -45 62 -45 106zM365 177v10
l-44 13c-33 10 -63 15 -88 15c-61 0 -99 -26 -99 -75c0 -44 34 -74 97 -74c79 0 134 42 134 111zM104 616c0 31 25 56 56 56s56 -25 56 -56s-25 -56 -56 -56s-56 25 -56 56zM277 616c0 31 25 56 56 56s56 -25 56 -56s-25 -56 -56 -56s-56 25 -56 56z" />
    <glyph glyph-name="uni04DB.ss01" horiz-adv-x="522" 
d="M108 302l-75 29c32 96 103 153 212 153c139 0 239 -97 239 -250c0 -136 -91 -244 -226 -244c-63 0 -114 18 -153 54c-39 37 -58 86 -58 148c0 21 2 40 6 58h343c-1 103 -67 158 -151 158c-73 0 -118 -38 -137 -106zM396 188h-263l-1 -14c0 -68 55 -108 127 -108
c73 0 128 47 137 122zM116 616c0 31 25 56 56 56s56 -25 56 -56s-25 -56 -56 -56s-56 25 -56 56zM289 616c0 31 25 56 56 56s56 -25 56 -56s-25 -56 -56 -56s-56 25 -56 56z" />
    <glyph glyph-name="uni04DD.ss01" horiz-adv-x="711" 
d="M23 0l219 250l-210 224h109l171 -191v191h87v-191l171 191h108l-209 -224l218 -250h-107l-181 212v-212h-87v212l-181 -212h-108zM214 616c0 31 25 56 56 56s56 -25 56 -56s-25 -56 -56 -56s-56 25 -56 56zM387 616c0 31 25 56 56 56s56 -25 56 -56s-25 -56 -56 -56
s-56 25 -56 56z" />
    <glyph glyph-name="uni04DF.ss01" horiz-adv-x="452" 
d="M33 142l75 34c11 -65 50 -108 122 -108c59 0 98 25 98 73c0 39 -30 61 -77 61h-43v76h33c43 0 76 24 76 67s-34 64 -83 64c-52 0 -86 -29 -102 -86l-74 37c29 79 91 124 176 124c97 0 167 -51 167 -134c0 -55 -33 -96 -82 -109c53 -12 93 -44 93 -108
c0 -85 -85 -143 -189 -143c-101 0 -174 64 -190 152zM93 616c0 31 25 56 56 56s56 -25 56 -56s-25 -56 -56 -56s-56 25 -56 56zM266 616c0 31 25 56 56 56s56 -25 56 -56s-25 -56 -56 -56s-56 25 -56 56z" />
    <glyph glyph-name="uni04E5.ss01" horiz-adv-x="576" 
d="M67 0v474h86v-390l224 390h133v-474h-87v390l-224 -390h-132zM146 616c0 31 25 56 56 56s56 -25 56 -56s-25 -56 -56 -56s-56 25 -56 56zM319 616c0 31 25 56 56 56s56 -25 56 -56s-25 -56 -56 -56s-56 25 -56 56z" />
    <glyph glyph-name="uni04E7.ss01" horiz-adv-x="556" 
d="M38 237c0 140 97 247 240 247c144 0 241 -107 241 -247s-99 -247 -241 -247c-143 0 -240 107 -240 247zM430 237c0 49 -14 90 -43 121c-28 32 -64 48 -109 48c-88 0 -152 -70 -152 -169s64 -169 152 -169c89 0 152 69 152 169zM136 616c0 31 25 56 56 56s56 -25 56 -56
s-25 -56 -56 -56s-56 25 -56 56zM309 616c0 31 25 56 56 56s56 -25 56 -56s-25 -56 -56 -56s-56 25 -56 56z" />
    <glyph glyph-name="uni04EB.ss01" horiz-adv-x="556" 
d="M38 236c0 141 97 248 240 248c144 0 241 -107 241 -248s-99 -246 -241 -246c-143 0 -240 105 -240 246zM129 270h298c-12 83 -72 136 -149 136s-137 -53 -149 -136zM428 204h-299c12 -83 70 -136 149 -136s138 53 150 136zM136 616c0 31 25 56 56 56s56 -25 56 -56
s-25 -56 -56 -56s-56 25 -56 56zM309 616c0 31 25 56 56 56s56 -25 56 -56s-25 -56 -56 -56s-56 25 -56 56z" />
    <glyph glyph-name="uni04ED.ss01" horiz-adv-x="550" 
d="M513 240c0 -150 -100 -250 -250 -250c-119 0 -206 69 -231 189l77 29c17 -88 64 -142 157 -142c79 0 144 51 160 136h-174v76h174c-7 43 -26 75 -55 97s-61 33 -96 33c-76 0 -126 -44 -142 -119l-78 24c25 109 106 171 223 171c131 0 235 -99 235 -244zM131 616
c0 31 25 56 56 56s56 -25 56 -56s-25 -56 -56 -56s-56 25 -56 56zM304 616c0 31 25 56 56 56s56 -25 56 -56s-25 -56 -56 -56s-56 25 -56 56z" />
    <glyph glyph-name="uni04F1.ss01" horiz-adv-x="481" 
d="M376 474h92l-304 -672h-92l117 259l-181 413h94l133 -312zM93 616c0 31 25 56 56 56s56 -25 56 -56s-25 -56 -56 -56s-56 25 -56 56zM266 616c0 31 25 56 56 56s56 -25 56 -56s-25 -56 -56 -56s-56 25 -56 56z" />
    <glyph glyph-name="uni04F5.ss01" horiz-adv-x="547" 
d="M394 258v216h86v-474h-86v187c-31 -44 -87 -76 -164 -76c-104 0 -163 67 -163 170v193h86v-177c0 -73 38 -112 105 -112c56 0 97 24 136 73zM131 616c0 31 25 56 56 56s56 -25 56 -56s-25 -56 -56 -56s-56 25 -56 56zM304 616c0 31 25 56 56 56s56 -25 56 -56
s-25 -56 -56 -56s-56 25 -56 56z" />
    <glyph glyph-name="uni04F9.ss01" horiz-adv-x="719" 
d="M67 0v474h86v-171h141c97 0 158 -64 158 -149c0 -84 -62 -154 -158 -154h-227zM153 78h137c47 0 78 30 78 73c0 44 -31 73 -78 73h-137v-146zM566 474h86v-474h-86v474zM218 616c0 31 25 56 56 56s56 -25 56 -56s-25 -56 -56 -56s-56 25 -56 56zM391 616
c0 31 25 56 56 56s56 -25 56 -56s-25 -56 -56 -56s-56 25 -56 56z" />
    <glyph glyph-name="uni0430.ss02" horiz-adv-x="584" 
d="M38 234c0 147 97 250 226 250c77 0 137 -35 166 -92v82h87v-474h-82v85c-40 -63 -96 -95 -169 -95c-131 0 -228 101 -228 244zM434 235c0 105 -77 171 -155 171c-81 0 -155 -65 -155 -171c0 -107 73 -168 155 -168c79 0 155 61 155 168z" />
    <glyph glyph-name="uni04D1.ss02" horiz-adv-x="584" 
d="M38 234c0 147 97 250 226 250c77 0 137 -35 166 -92v82h87v-474h-82v85c-40 -63 -96 -95 -169 -95c-131 0 -228 101 -228 244zM434 235c0 105 -77 171 -155 171c-81 0 -155 -65 -155 -171c0 -107 73 -168 155 -168c79 0 155 61 155 168zM405 663
c0 -71 -53 -109 -122 -109s-122 38 -122 109c0 6 0 11 1 14h68l-1 -11c0 -29 21 -50 54 -50s54 21 54 50l-1 11h68c1 -3 1 -8 1 -14z" />
    <glyph glyph-name="uni04D3.ss02" horiz-adv-x="584" 
d="M38 234c0 147 97 250 226 250c77 0 137 -35 166 -92v82h87v-474h-82v85c-40 -63 -96 -95 -169 -95c-131 0 -228 101 -228 244zM434 235c0 105 -77 171 -155 171c-81 0 -155 -65 -155 -171c0 -107 73 -168 155 -168c79 0 155 61 155 168zM150 567v99h97v-99h-97zM317 567
v99h97v-99h-97z" />
    <glyph glyph-name="uni04D5.ss02" horiz-adv-x="918" 
d="M38 234c0 147 97 250 226 250c77 0 137 -35 166 -92v82h87v-66c28 48 86 76 145 76c63 0 113 -18 152 -55c39 -36 58 -85 58 -147c0 -15 -2 -34 -6 -58h-343c1 -103 66 -159 151 -159c73 0 118 39 137 107l74 -29c-32 -96 -102 -153 -211 -153c-68 0 -120 26 -157 78v-68
h-82v85c-40 -63 -96 -95 -169 -95c-131 0 -228 101 -228 244zM523 286h262c1 3 1 8 1 14c0 69 -55 108 -126 108c-73 0 -128 -47 -137 -122zM434 235c0 105 -77 171 -155 171c-81 0 -155 -65 -155 -171c0 -107 73 -168 155 -168c79 0 155 61 155 168z" />
    <glyph glyph-name="uni04D3.ss01.ss02" horiz-adv-x="584" 
d="M38 234c0 147 97 250 226 250c77 0 137 -35 166 -92v82h87v-474h-82v85c-40 -63 -96 -95 -169 -95c-131 0 -228 101 -228 244zM434 235c0 105 -77 171 -155 171c-81 0 -155 -65 -155 -171c0 -107 73 -168 155 -168c79 0 155 61 155 168zM141 616c0 31 25 56 56 56
s56 -25 56 -56s-25 -56 -56 -56s-56 25 -56 56zM314 616c0 31 25 56 56 56s56 -25 56 -56s-25 -56 -56 -56s-56 25 -56 56z" />
    <glyph glyph-name="Alpha" unicode="&#x391;" horiz-adv-x="739" 
d="M13 0l293 700h128l293 -700h-102l-72 178h-366l-73 -178h-101zM220 262h299l-149 365z" />
    <glyph glyph-name="Beta" unicode="&#x392;" horiz-adv-x="688" 
d="M76 0v700h317c133 0 222 -80 222 -182c0 -69 -41 -128 -105 -157c81 -27 130 -84 130 -172c0 -108 -98 -189 -226 -189h-338zM168 401h229c79 0 127 40 127 108c0 65 -56 104 -127 104h-229v-212zM168 87h243c77 0 133 45 133 114c0 68 -54 118 -133 118h-243v-232z" />
    <glyph glyph-name="Gamma" unicode="&#x393;" horiz-adv-x="613" 
d="M583 613h-415v-613h-92v700h507v-87z" />
    <glyph glyph-name="uni0394" unicode="&#x394;" horiz-adv-x="739" 
d="M13 0l293 700h128l293 -700h-714zM149 84h442l-221 544z" />
    <glyph glyph-name="Epsilon" unicode="&#x395;" horiz-adv-x="633" 
d="M76 700h493v-87h-401v-207h371v-87h-371v-232h411v-87h-503v700z" />
    <glyph glyph-name="Zeta" unicode="&#x396;" horiz-adv-x="702" 
d="M52 87l472 526h-467v87h586v-87l-473 -526h478v-87h-596v87z" />
    <glyph glyph-name="Eta" unicode="&#x397;" horiz-adv-x="737" 
d="M569 303h-401v-303h-92v700h92v-313h401v313h92v-700h-92v303z" />
    <glyph glyph-name="Theta" unicode="&#x398;" horiz-adv-x="812" 
d="M406 710c202 4 365 -164 362 -360c3 -197 -160 -364 -362 -360c-203 -4 -364 163 -361 360c-3 196 158 364 361 360zM406 77c149 0 265 110 265 273s-114 273 -265 273s-265 -110 -265 -274s116 -272 265 -272zM279 312v76h254v-76h-254z" />
    <glyph glyph-name="Iota" unicode="&#x399;" horiz-adv-x="243" 
d="M76 0v700h92v-700h-92z" />
    <glyph glyph-name="Kappa" unicode="&#x39a;" horiz-adv-x="672" 
d="M378 426l270 -426h-110l-223 358l-147 -156v-202h-92v700h92v-374l348 374h119z" />
    <glyph glyph-name="Lambda" unicode="&#x39b;" horiz-adv-x="739" 
d="M13 0l293 700h128l293 -700h-102l-255 628l-256 -628h-101z" />
    <glyph glyph-name="Mu" unicode="&#x39c;" horiz-adv-x="942" 
d="M867 0h-92v651l-234 -651h-140l-233 651v-651h-92v700h170l225 -631l225 631h171v-700z" />
    <glyph glyph-name="Nu" unicode="&#x39d;" horiz-adv-x="766" 
d="M168 636v-636h-92v700h158l364 -636v636h92v-700h-159z" />
    <glyph glyph-name="Xi" unicode="&#x39e;" horiz-adv-x="676" 
d="M617 613h-557v87h557v-87zM497 313h-317v84h317v-84zM55 87h567v-87h-567v87z" />
    <glyph glyph-name="Omicron" unicode="&#x39f;" horiz-adv-x="812" 
d="M406 710c202 4 365 -164 362 -360c3 -197 -160 -364 -362 -360c-203 -4 -364 163 -361 360c-3 196 158 364 361 360zM406 77c149 0 265 110 265 273s-114 273 -265 273s-265 -110 -265 -274s116 -272 265 -272z" />
    <glyph glyph-name="Pi" unicode="&#x3a0;" horiz-adv-x="737" 
d="M569 616h-401v-616h-92v700h585v-700h-92v616z" />
    <glyph glyph-name="Rho" unicode="&#x3a1;" horiz-adv-x="658" 
d="M168 288v-288h-92v700h309c145 0 227 -92 227 -206c0 -111 -86 -206 -227 -206h-217zM168 375h209c83 0 138 43 138 119s-55 119 -138 119h-209v-238z" />
    <glyph glyph-name="Sigma" unicode="&#x3a3;" horiz-adv-x="652" 
d="M415 391v-82l-253 -222h436v-87h-546v105l283 245l-283 245v105h526v-87h-416z" />
    <glyph glyph-name="Tau" unicode="&#x3a4;" horiz-adv-x="672" 
d="M641 700v-87h-259v-613h-92v613h-259v87h610z" />
    <glyph glyph-name="Upsilon" unicode="&#x3a5;" horiz-adv-x="672" 
d="M124 700l212 -331l218 331h105l-277 -412v-288h-92v288l-276 412h110z" />
    <glyph glyph-name="Phi" unicode="&#x3a6;" horiz-adv-x="817" 
d="M362 0v80h-55c-153 0 -262 117 -262 270c0 148 109 270 262 270h55v80h92v-80h55c153 0 263 -122 263 -270c0 -153 -109 -270 -263 -270h-55v-80h-92zM316 167h46v366h-46c-105 0 -179 -79 -179 -183c0 -103 74 -183 179 -183zM454 167h47c105 0 179 80 179 183
c0 104 -74 183 -179 183h-47v-366z" />
    <glyph glyph-name="Chi" unicode="&#x3a7;" horiz-adv-x="674" 
d="M18 0l265 380l-225 320h112l167 -252l171 252h108l-225 -320l265 -380h-109l-210 308l-210 -308h-109z" />
    <glyph glyph-name="Psi" unicode="&#x3a8;" horiz-adv-x="803" 
d="M642 700h92v-170c0 -200 -106 -324 -287 -343v-187h-92v187c-180 19 -286 143 -286 343v170h92v-174c0 -147 70 -237 194 -254v428h92v-428c125 17 195 107 195 254v174z" />
    <glyph glyph-name="uni03A9" unicode="&#x3a9;" horiz-adv-x="777" 
d="M732 378c0 -63 -16 -120 -47 -171s-70 -92 -115 -123h136v-84h-272v79c54 28 101 67 142 118s61 109 61 174c0 145 -106 252 -249 252c-142 0 -249 -107 -249 -252c0 -65 20 -123 61 -174s89 -90 143 -118v-79h-272v84h135c-45 31 -84 72 -115 123s-46 108 -46 171
c-3 186 148 335 343 332c199 3 346 -146 344 -332z" />
    <glyph glyph-name="Alphatonos" unicode="&#x386;" horiz-adv-x="739" 
d="M13 0l293 700h128l293 -700h-102l-72 178h-366l-73 -178h-101zM220 262h299l-149 365zM44 567l37 133h113v-14l-71 -119h-79z" />
    <glyph glyph-name="Epsilontonos" unicode="&#x388;" horiz-adv-x="633" 
d="M76 700h493v-87h-401v-207h371v-87h-371v-232h411v-87h-503v700zM-135 567l37 133h113v-14l-71 -119h-79z" />
    <glyph glyph-name="Etatonos" unicode="&#x389;" horiz-adv-x="737" 
d="M569 303h-401v-303h-92v700h92v-313h401v313h92v-700h-92v303zM-135 567l37 133h113v-14l-71 -119h-79z" />
    <glyph glyph-name="Iotatonos" unicode="&#x38a;" horiz-adv-x="243" 
d="M76 0v700h92v-700h-92zM-135 567l37 133h113v-14l-71 -119h-79z" />
    <glyph glyph-name="Omicrontonos" unicode="&#x38c;" horiz-adv-x="812" 
d="M406 710c202 4 365 -164 362 -360c3 -197 -160 -364 -362 -360c-203 -4 -364 163 -361 360c-3 196 158 364 361 360zM406 77c149 0 265 110 265 273s-114 273 -265 273s-265 -110 -265 -274s116 -272 265 -272zM-44 567l37 133h113v-14l-71 -119h-79z" />
    <glyph glyph-name="Upsilontonos" unicode="&#x38e;" horiz-adv-x="672" 
d="M124 700l212 -331l218 331h105l-277 -412v-288h-92v288l-276 412h110zM-166 567l37 133h113v-14l-71 -119h-79z" />
    <glyph glyph-name="Omegatonos" unicode="&#x38f;" horiz-adv-x="777" 
d="M732 378c0 -63 -16 -120 -47 -171s-70 -92 -115 -123h136v-84h-272v79c54 28 101 67 142 118s61 109 61 174c0 145 -106 252 -249 252c-142 0 -249 -107 -249 -252c0 -65 20 -123 61 -174s89 -90 143 -118v-79h-272v84h135c-45 31 -84 72 -115 123s-46 108 -46 171
c-3 186 148 335 343 332c199 3 346 -146 344 -332zM-56 567l37 133h113v-14l-71 -119h-79z" />
    <glyph glyph-name="Iotadieresis" unicode="&#x3aa;" horiz-adv-x="243" 
d="M76 0v700h92v-700h-92zM-10 793v99h97v-99h-97zM157 793v99h97v-99h-97z" />
    <glyph glyph-name="Upsilondieresis" unicode="&#x3ab;" horiz-adv-x="672" 
d="M124 700l212 -331l218 331h105l-277 -412v-288h-92v288l-276 412h110zM199 793v99h97v-99h-97zM366 793v99h97v-99h-97z" />
    <glyph glyph-name="Iotadieresis.ss01" horiz-adv-x="243" 
d="M76 0v700h92v-700h-92zM-21 842c0 31 25 56 56 56s56 -25 56 -56s-25 -56 -56 -56s-56 25 -56 56zM152 842c0 31 25 56 56 56s56 -25 56 -56s-25 -56 -56 -56s-56 25 -56 56z" />
    <glyph glyph-name="Upsilondieresis.ss01" horiz-adv-x="672" 
d="M124 700l212 -331l218 331h105l-277 -412v-288h-92v288l-276 412h110zM188 842c0 31 25 56 56 56s56 -25 56 -56s-25 -56 -56 -56s-56 25 -56 56zM361 842c0 31 25 56 56 56s56 -25 56 -56s-25 -56 -56 -56s-56 25 -56 56z" />
    <glyph glyph-name="alpha" unicode="&#x3b1;" horiz-adv-x="619" 
d="M38 236c0 154 92 248 203 248c72 0 121 -33 145 -84v74h86v-360c0 -29 14 -44 37 -44c18 0 31 12 38 35l68 -36c-15 -48 -57 -79 -109 -79c-60 0 -103 36 -111 95c-23 -56 -72 -95 -152 -95c-111 0 -205 93 -205 246zM387 239c0 109 -57 167 -132 167
c-73 0 -131 -61 -131 -169c0 -109 56 -169 131 -169s132 59 132 171z" />
    <glyph glyph-name="beta" unicode="&#x3b2;" horiz-adv-x="546" 
d="M67 -198v721c0 115 73 187 182 187c107 0 172 -64 172 -156c0 -71 -39 -124 -91 -145c95 -17 166 -84 166 -201c0 -131 -83 -218 -200 -218c-57 0 -114 23 -143 64v-252h-86zM410 208c0 103 -87 157 -178 157h-20v75h20c64 1 107 41 107 106c0 53 -37 88 -89 88
c-60 0 -97 -40 -97 -112v-311c0 -87 57 -142 134 -142c73 0 123 48 123 139z" />
    <glyph glyph-name="gamma" unicode="&#x3b3;" horiz-adv-x="529" 
d="M222 -198v269l-203 403h92l154 -322l153 322h93l-203 -403v-269h-86z" />
    <glyph glyph-name="delta" unicode="&#x3b4;" horiz-adv-x="552" 
d="M38 233c0 56 13 102 39 137c26 36 57 60 92 72c-64 12 -107 59 -107 122c0 88 92 146 204 146c80 0 147 -25 200 -74l-45 -66c-43 41 -94 62 -152 62c-69 0 -119 -29 -119 -77s42 -77 126 -77c153 0 238 -109 238 -239c0 -144 -95 -249 -238 -249
c-142 0 -238 106 -238 243zM426 237c0 99 -62 165 -150 165s-150 -66 -150 -165c0 -100 62 -169 150 -169s150 69 150 169z" />
    <glyph glyph-name="epsilon" unicode="&#x3b5;" horiz-adv-x="452" 
d="M40 133c0 64 40 96 93 108c-49 13 -82 54 -82 109c0 83 70 134 167 134c85 0 147 -45 176 -124l-74 -37c-16 57 -50 86 -102 86c-49 0 -83 -21 -83 -64s33 -67 76 -67h33v-76h-43c-47 0 -77 -22 -77 -61c0 -48 39 -73 98 -73c72 0 111 43 122 108l75 -34
c-16 -88 -89 -152 -190 -152c-104 0 -189 58 -189 143z" />
    <glyph glyph-name="zeta" unicode="&#x3b6;" horiz-adv-x="494" 
d="M426 -208l-64 44c27 23 40 49 40 78c0 44 -31 76 -100 76c-144 0 -264 96 -264 269c-2 196 158 315 299 363h-286v78h424v-78c-236 -85 -353 -193 -353 -358c0 -135 80 -198 199 -198c103 0 165 -54 165 -146c0 -53 -25 -97 -60 -128z" />
    <glyph glyph-name="eta" unicode="&#x3b7;" horiz-adv-x="543" 
d="M389 -198v480c0 83 -42 126 -110 126c-72 0 -126 -56 -126 -145v-263h-86v474h86v-75c36 55 89 85 156 85c101 0 167 -65 167 -176v-506h-87z" />
    <glyph glyph-name="theta" unicode="&#x3b8;" horiz-adv-x="559" 
d="M38 350c0 222 89 360 241 360c153 0 242 -138 242 -360c0 -225 -87 -360 -242 -360s-241 135 -241 360zM127 388h305c-5 149 -58 244 -153 244s-147 -95 -152 -244zM432 312h-305c5 -153 53 -244 152 -244s148 92 153 244z" />
    <glyph glyph-name="iota" unicode="&#x3b9;" horiz-adv-x="328" 
d="M67 136v338h86v-345c0 -40 21 -61 54 -61c25 0 42 13 49 39l68 -43c-19 -47 -62 -74 -117 -74c-93 0 -140 54 -140 146z" />
    <glyph glyph-name="kappa" unicode="&#x3ba;" horiz-adv-x="467" 
d="M67 0v474h86v-191l171 191h111l-210 -224l219 -250h-110l-181 212v-212h-86z" />
    <glyph glyph-name="lambda" unicode="&#x3bb;" horiz-adv-x="500" 
d="M487 0h-92l-142 379l-146 -379h-92l197 489l-30 80c-14 36 -35 54 -62 54s-46 -13 -57 -40l-61 42c21 48 67 75 122 75c68 0 110 -32 137 -104z" />
    <glyph glyph-name="uni03BC" unicode="&#x3bc;" horiz-adv-x="545" 
d="M67 -198v672h86v-284c0 -83 38 -124 113 -124c71 0 126 60 126 156v252h87v-474h-87v80c-28 -56 -78 -90 -142 -90c-41 0 -76 14 -97 41v-229h-86z" />
    <glyph glyph-name="nu" unicode="&#x3bd;" horiz-adv-x="521" 
d="M110 474l151 -390l150 390h92l-190 -474h-105l-189 474h91z" />
    <glyph glyph-name="xi" unicode="&#x3be;" horiz-adv-x="487" 
d="M419 -208l-66 46c23 19 38 44 38 72c0 48 -25 80 -106 80c-152 0 -245 75 -245 199c0 92 52 155 129 182c-56 21 -105 79 -105 155c0 111 92 184 203 184c117 0 195 -59 212 -171l-81 -22c-9 79 -56 117 -129 117c-72 0 -121 -45 -121 -110c0 -72 51 -119 138 -119h80
v-76h-88c-97 0 -154 -56 -154 -133c0 -92 55 -130 172 -130c115 0 179 -52 179 -155c0 -44 -23 -88 -56 -119z" />
    <glyph glyph-name="omicron" unicode="&#x3bf;" horiz-adv-x="556" 
d="M38 237c0 140 97 247 240 247c144 0 241 -107 241 -247s-99 -247 -241 -247c-143 0 -240 107 -240 247zM430 237c0 49 -14 90 -43 121c-28 32 -64 48 -109 48c-88 0 -152 -70 -152 -169s64 -169 152 -169c89 0 152 69 152 169z" />
    <glyph glyph-name="pi" unicode="&#x3c0;" horiz-adv-x="622" 
d="M345 129v272h-130v-401h-87v401h-114v73h544v-73h-126v-278c0 -36 19 -55 48 -55c21 0 37 13 48 39l66 -41c-16 -47 -61 -76 -114 -76c-91 0 -135 55 -135 139z" />
    <glyph glyph-name="rho" unicode="&#x3c1;" horiz-adv-x="569" 
d="M67 -198v412c0 184 103 270 236 270c140 0 228 -101 228 -246s-92 -248 -219 -248c-71 0 -129 26 -161 78v-266h-84zM445 237c0 109 -65 169 -148 169c-78 0 -148 -58 -148 -169c0 -112 70 -170 148 -170c79 0 148 58 148 170z" />
    <glyph glyph-name="uni03C2" unicode="&#x3c2;" horiz-adv-x="504" 
d="M431 -208l-65 47c24 20 40 48 40 75c0 43 -33 76 -117 76c-144 0 -251 100 -251 250c0 143 109 244 238 244c115 0 197 -63 220 -171l-79 -24c-15 75 -65 119 -142 119c-73 0 -153 -59 -153 -168c0 -107 73 -174 178 -174c119 0 189 -54 189 -151c0 -47 -19 -88 -58 -123
z" />
    <glyph glyph-name="sigma" unicode="&#x3c3;" horiz-adv-x="556" 
d="M38 232c0 138 95 242 258 242h228v-76h-102c59 -32 92 -96 92 -173c0 -132 -95 -235 -238 -235c-142 0 -238 106 -238 242zM426 232c0 97 -61 164 -149 164s-151 -68 -151 -164c0 -97 61 -164 150 -164s150 67 150 164z" />
    <glyph glyph-name="tau" unicode="&#x3c4;" horiz-adv-x="433" 
d="M148 136v262h-125v76h348v-76h-136v-269c0 -40 19 -61 54 -61c25 0 41 13 49 39l67 -43c-19 -47 -61 -74 -116 -74c-93 0 -141 54 -141 146z" />
    <glyph glyph-name="upsilon" unicode="&#x3c5;" horiz-adv-x="538" 
d="M67 196v278h86v-281c0 -83 43 -125 116 -125c72 0 116 44 116 125v281h86v-278c0 -127 -78 -206 -202 -206s-202 79 -202 206z" />
    <glyph glyph-name="phi" unicode="&#x3c6;" horiz-adv-x="698" 
d="M660 237c0 -139 -101 -237 -232 -237h-36v-198h-86v198h-36c-131 0 -232 98 -232 237s101 237 232 237h36v226h86v-226h36c131 0 232 -98 232 -237zM281 78h25v318h-25c-97 0 -159 -63 -159 -159s62 -159 159 -159zM576 237c0 96 -61 159 -160 159h-24v-318h24
c99 0 160 63 160 159z" />
    <glyph glyph-name="chi" unicode="&#x3c7;" horiz-adv-x="470" 
d="M13 -198l173 350l-156 322h100l105 -233l104 233h101l-156 -321l173 -351h-99l-123 263l-123 -263h-99z" />
    <glyph glyph-name="psi" unicode="&#x3c8;" horiz-adv-x="627" 
d="M270 78v622h87v-622c75 3 117 48 117 144v252h87v-249c0 -141 -73 -218 -204 -225v-198h-87v198c-131 7 -203 84 -203 225v249h86v-252c0 -96 42 -141 117 -144z" />
    <glyph glyph-name="omega" unicode="&#x3c9;" horiz-adv-x="744" 
d="M329 198v171h86v-171c0 -83 37 -130 98 -130c69 0 107 61 107 173c0 95 -35 178 -76 233h93c39 -53 69 -135 69 -228c0 -156 -64 -256 -189 -256c-71 0 -124 39 -145 107c-23 -68 -76 -107 -145 -107c-125 0 -189 100 -189 256c0 92 31 173 70 228h92
c-41 -55 -76 -138 -76 -233c0 -112 38 -173 107 -173c61 0 98 47 98 130z" />
    <glyph glyph-name="iotatonos" unicode="&#x3af;" horiz-adv-x="328" 
d="M67 136v338h86v-345c0 -40 21 -61 54 -61c25 0 42 13 49 39l68 -43c-19 -47 -62 -74 -117 -74c-93 0 -140 54 -140 146zM71 555l37 133h113v-14l-71 -119h-79z" />
    <glyph glyph-name="iotadieresis" unicode="&#x3ca;" horiz-adv-x="328" 
d="M67 136v338h86v-345c0 -40 21 -61 54 -61c25 0 42 13 49 39l68 -43c-19 -47 -62 -74 -117 -74c-93 0 -140 54 -140 146zM-23 567v99h97v-99h-97zM144 567v99h97v-99h-97z" />
    <glyph glyph-name="iotadieresistonos" unicode="&#x390;" horiz-adv-x="328" 
d="M67 136v338h86v-345c0 -40 21 -61 54 -61c25 0 42 13 49 39l68 -43c-19 -47 -62 -74 -117 -74c-93 0 -140 54 -140 146zM49 550l17 133h105v-14l-51 -119h-71zM-65 567v99h98v-99h-98zM187 567v99h97v-99h-97z" />
    <glyph glyph-name="upsilontonos" unicode="&#x3cd;" horiz-adv-x="538" 
d="M67 196v278h86v-281c0 -83 43 -125 116 -125c72 0 116 44 116 125v281h86v-278c0 -127 -78 -206 -202 -206s-202 79 -202 206zM230 555l37 133h113v-14l-71 -119h-79z" />
    <glyph glyph-name="upsilondieresis" unicode="&#x3cb;" horiz-adv-x="538" 
d="M67 196v278h86v-281c0 -83 43 -125 116 -125c72 0 116 44 116 125v281h86v-278c0 -127 -78 -206 -202 -206s-202 79 -202 206zM136 567v99h97v-99h-97zM303 567v99h97v-99h-97z" />
    <glyph glyph-name="upsilondieresistonos" unicode="&#x3b0;" horiz-adv-x="538" 
d="M67 196v278h86v-281c0 -83 43 -125 116 -125c72 0 116 44 116 125v281h86v-278c0 -127 -78 -206 -202 -206s-202 79 -202 206zM208 550l17 133h105v-14l-51 -119h-71zM94 567v99h98v-99h-98zM346 567v99h97v-99h-97z" />
    <glyph glyph-name="omicrontonos" unicode="&#x3cc;" horiz-adv-x="556" 
d="M38 237c0 140 97 247 240 247c144 0 241 -107 241 -247s-99 -247 -241 -247c-143 0 -240 107 -240 247zM430 237c0 49 -14 90 -43 121c-28 32 -64 48 -109 48c-88 0 -152 -70 -152 -169s64 -169 152 -169c89 0 152 69 152 169zM239 555l37 133h113v-14l-71 -119h-79z" />
    <glyph glyph-name="omegatonos" unicode="&#x3ce;" horiz-adv-x="744" 
d="M329 198v171h86v-171c0 -83 37 -130 98 -130c69 0 107 61 107 173c0 95 -35 178 -76 233h93c39 -53 69 -135 69 -228c0 -156 -64 -256 -189 -256c-71 0 -124 39 -145 107c-23 -68 -76 -107 -145 -107c-125 0 -189 100 -189 256c0 92 31 173 70 228h92
c-41 -55 -76 -138 -76 -233c0 -112 38 -173 107 -173c61 0 98 47 98 130zM342 555l37 133h113v-14l-71 -119h-79z" />
    <glyph glyph-name="alphatonos" unicode="&#x3ac;" horiz-adv-x="619" 
d="M38 236c0 154 92 248 203 248c72 0 121 -33 145 -84v74h86v-360c0 -29 14 -44 37 -44c18 0 31 12 38 35l68 -36c-15 -48 -57 -79 -109 -79c-60 0 -103 36 -111 95c-23 -56 -72 -95 -152 -95c-111 0 -205 93 -205 246zM387 239c0 109 -57 167 -132 167
c-73 0 -131 -61 -131 -169c0 -109 56 -169 131 -169s132 59 132 171zM263 555l37 133h113v-14l-71 -119h-79z" />
    <glyph glyph-name="epsilontonos" unicode="&#x3ad;" horiz-adv-x="452" 
d="M40 133c0 64 40 96 93 108c-49 13 -82 54 -82 109c0 83 70 134 167 134c85 0 147 -45 176 -124l-74 -37c-16 57 -50 86 -102 86c-49 0 -83 -21 -83 -64s33 -67 76 -67h33v-76h-43c-47 0 -77 -22 -77 -61c0 -48 39 -73 98 -73c72 0 111 43 122 108l75 -34
c-16 -88 -89 -152 -190 -152c-104 0 -189 58 -189 143zM183 555l37 133h113v-14l-71 -119h-79z" />
    <glyph glyph-name="etatonos" unicode="&#x3ae;" horiz-adv-x="543" 
d="M389 -198v480c0 83 -42 126 -110 126c-72 0 -126 -56 -126 -145v-263h-86v474h86v-75c36 55 89 85 156 85c101 0 167 -65 167 -176v-506h-87zM243 555l37 133h113v-14l-71 -119h-79z" />
    <glyph glyph-name="iotadieresis.ss01" horiz-adv-x="328" 
d="M67 136v338h86v-345c0 -40 21 -61 54 -61c25 0 42 13 49 39l68 -43c-19 -47 -62 -74 -117 -74c-93 0 -140 54 -140 146zM-32 616c0 31 25 56 56 56s56 -25 56 -56s-25 -56 -56 -56s-56 25 -56 56zM141 616c0 31 25 56 56 56s56 -25 56 -56s-25 -56 -56 -56s-56 25 -56 56
z" />
    <glyph glyph-name="iotadieresistonos.ss01" horiz-adv-x="328" 
d="M67 136v338h86v-345c0 -40 21 -61 54 -61c25 0 42 13 49 39l68 -43c-19 -47 -62 -74 -117 -74c-93 0 -140 54 -140 146zM53 550l17 133h105v-14l-51 -119h-71zM-76 616c0 31 25 56 56 56s56 -25 56 -56s-25 -56 -56 -56s-56 25 -56 56zM184 616c0 31 25 56 56 56
s56 -25 56 -56s-25 -56 -56 -56s-56 25 -56 56z" />
    <glyph glyph-name="upsilondieresis.ss01" horiz-adv-x="538" 
d="M67 196v278h86v-281c0 -83 43 -125 116 -125c72 0 116 44 116 125v281h86v-278c0 -127 -78 -206 -202 -206s-202 79 -202 206zM127 616c0 31 25 56 56 56s56 -25 56 -56s-25 -56 -56 -56s-56 25 -56 56zM300 616c0 31 25 56 56 56s56 -25 56 -56s-25 -56 -56 -56
s-56 25 -56 56z" />
    <glyph glyph-name="upsilondieresistonos.ss01" horiz-adv-x="538" 
d="M67 196v278h86v-281c0 -83 43 -125 116 -125c72 0 116 44 116 125v281h86v-278c0 -127 -78 -206 -202 -206s-202 79 -202 206zM212 550l17 133h105v-14l-51 -119h-71zM83 616c0 31 25 56 56 56s56 -25 56 -56s-25 -56 -56 -56s-56 25 -56 56zM343 616c0 31 25 56 56 56
s56 -25 56 -56s-25 -56 -56 -56s-56 25 -56 56z" />
    <glyph glyph-name="zero" unicode="0" horiz-adv-x="642" 
d="M41 350c0 219 110 360 280 360c171 0 281 -141 281 -360s-110 -360 -281 -360c-170 0 -280 141 -280 360zM515 350c0 83 -17 150 -51 203c-33 53 -81 79 -143 79c-61 0 -109 -26 -143 -79s-51 -120 -51 -203s17 -150 51 -203s82 -79 143 -79c62 0 110 26 143 79
c34 53 51 120 51 203z" />
    <glyph glyph-name="one" unicode="1" horiz-adv-x="374" 
d="M211 0v563c-14 -32 -38 -59 -71 -80s-66 -33 -101 -36l-17 89c103 11 175 68 199 164h77v-700h-87z" />
    <glyph glyph-name="two" unicode="2" horiz-adv-x="581" 
d="M249 281c48 25 85 45 111 62c53 35 85 78 85 143c0 87 -62 146 -161 146c-91 0 -156 -65 -156 -141c0 -41 13 -77 39 -109l-74 -48c-35 46 -53 96 -53 151c0 123 98 225 248 225c153 0 244 -91 244 -220c0 -115 -58 -182 -171 -239c-47 -25 -81 -44 -104 -57
c-44 -25 -86 -65 -94 -113h370v-81h-478c0 141 73 221 194 281z" />
    <glyph glyph-name="three" unicode="3" horiz-adv-x="571" 
d="M22 192l83 37c12 -95 78 -158 175 -158c88 0 162 61 162 155c0 99 -64 158 -159 158c-39 0 -77 -14 -100 -35l-50 62l236 208h-317v81h449v-66l-219 -189c10 2 22 3 37 3c108 0 209 -81 209 -216c0 -145 -107 -242 -248 -242c-137 0 -233 82 -258 202z" />
    <glyph glyph-name="four" unicode="4" horiz-adv-x="575" 
d="M351 0v179h-315v91c125 123 148 205 150 385v45h87v-45c0 -85 -11 -159 -32 -222s-58 -121 -113 -176h223v227h87v-227h119v-78h-119v-179h-87z" />
    <glyph glyph-name="five" unicode="5" horiz-adv-x="596" 
d="M523 700v-81h-358c0 -65 -8 -140 -25 -225c41 47 107 80 184 80c129 0 231 -85 231 -229c0 -149 -99 -255 -257 -255c-66 0 -122 18 -169 53c-47 36 -74 87 -83 153l84 24c15 -95 72 -149 168 -149c108 0 170 69 170 164s-57 161 -164 161c-69 0 -134 -41 -158 -93
l-92 21c20 131 30 257 30 376h439z" />
    <glyph glyph-name="six" unicode="6" horiz-adv-x="591" 
d="M41 345c0 203 92 365 273 365c133 0 213 -73 229 -186l-82 -25c-13 89 -64 133 -152 133c-98 0 -182 -89 -182 -281v-14c33 67 112 113 192 113c135 0 225 -101 225 -222c0 -141 -99 -238 -234 -238c-178 0 -269 148 -269 355zM458 220c0 92 -65 152 -156 152
c-81 0 -150 -62 -150 -149c0 -91 65 -152 156 -152c88 0 150 61 150 149z" />
    <glyph glyph-name="seven" unicode="7" horiz-adv-x="524" 
d="M34 700h456v-71c-153 -105 -230 -261 -230 -466c0 -51 4 -105 12 -163h-95c-6 46 -9 93 -9 142c0 203 71 362 202 477h-336v81z" />
    <glyph glyph-name="eight" unicode="8" horiz-adv-x="582" 
d="M42 200c0 87 50 161 137 189c-65 30 -98 78 -98 143c0 98 83 178 210 178c126 0 210 -80 210 -178c0 -65 -33 -113 -98 -143c87 -28 137 -102 137 -189c0 -113 -89 -210 -249 -210c-161 0 -249 97 -249 210zM417 528c0 61 -51 104 -126 104s-126 -43 -126 -104
c0 -65 50 -107 126 -107s126 42 126 107zM454 210c0 81 -66 138 -163 138s-163 -57 -163 -138c0 -83 62 -139 163 -139s163 56 163 139z" />
    <glyph glyph-name="nine" unicode="9" horiz-adv-x="596" 
d="M42 197l85 25c9 -99 68 -151 164 -151c111 0 183 97 184 276l-1 36c-31 -80 -101 -133 -190 -133c-141 0 -231 100 -231 224c0 140 102 236 233 236c93 0 161 -33 204 -100c43 -66 65 -152 65 -258c0 -193 -77 -362 -269 -362c-140 0 -230 93 -244 207zM443 480
c0 44 -14 80 -43 109c-28 29 -64 43 -109 43s-81 -15 -109 -44s-42 -66 -42 -111c0 -92 63 -149 151 -149s152 61 152 152z" />
    <glyph glyph-name="uni2780" unicode="&#x2780;" horiz-adv-x="780" 
d="M40 350c-4 189 161 354 350 350c189 4 354 -161 350 -350c4 -189 -161 -354 -350 -350c-189 -4 -354 161 -350 350zM671 350c3 153 -128 284 -281 281c-153 3 -284 -128 -281 -281c-3 -153 128 -284 281 -281c153 -3 284 128 281 281zM371 180v254
c-16 -33 -47 -50 -83 -53l-9 65c55 4 87 29 97 74h56v-340h-61z" />
    <glyph glyph-name="uni2781" unicode="&#x2781;" horiz-adv-x="780" 
d="M40 350c-4 189 161 354 350 350c189 4 354 -161 350 -350c4 -189 -161 -354 -350 -350c-189 -4 -354 161 -350 350zM671 350c3 153 -128 284 -281 281c-153 3 -284 -128 -281 -281c-3 -153 128 -284 281 -281c153 -3 284 128 281 281zM272 418c0 63 50 106 119 106
c77 0 120 -41 120 -105c-3 -70 -35 -89 -90 -124c-36 -23 -55 -36 -63 -59h154v-56h-236c0 75 35 113 95 148c59 32 78 52 78 88c0 32 -21 52 -60 52c-33 0 -57 -21 -57 -49c0 -15 5 -28 14 -37l-48 -32c-17 19 -26 41 -26 68z" />
    <glyph glyph-name="uni2782" unicode="&#x2782;" horiz-adv-x="780" 
d="M40 350c-4 189 161 354 350 350c189 4 354 -161 350 -350c4 -189 -161 -354 -350 -350c-189 -4 -354 161 -350 350zM671 350c3 153 -128 284 -281 281c-153 3 -284 -128 -281 -281c-3 -153 128 -284 281 -281c153 -3 284 128 281 281zM269 275l57 27c5 -41 31 -67 71 -67
c35 0 61 24 61 59c0 36 -23 60 -58 60c-16 0 -29 -4 -40 -13l-35 43l95 79h-133v57h216v-49l-83 -71h7c44 0 93 -38 93 -105c0 -71 -52 -119 -123 -119c-72 0 -116 40 -128 99z" />
    <glyph glyph-name="uni2783" unicode="&#x2783;" horiz-adv-x="780" 
d="M40 350c-4 189 161 354 350 350c189 4 354 -161 350 -350c4 -189 -161 -354 -350 -350c-189 -4 -354 161 -350 350zM671 350c3 153 -128 284 -281 281c-153 3 -284 -128 -281 -281c-3 -153 128 -284 281 -281c153 -3 284 128 281 281zM418 180v75h-160v64
c51 49 70 96 70 179v22h61v-22c0 -81 -20 -139 -65 -186h94v103h61v-103h42v-57h-42v-75h-61z" />
    <glyph glyph-name="uni2784" unicode="&#x2784;" horiz-adv-x="780" 
d="M40 350c-4 189 161 354 350 350c189 4 354 -161 350 -350c4 -189 -161 -354 -350 -350c-189 -4 -354 161 -350 350zM671 350c3 153 -128 284 -281 281c-153 3 -284 -128 -281 -281c-3 -153 128 -284 281 -281c153 -3 284 128 281 281zM493 520v-56h-162
c0 -30 -4 -60 -12 -90c16 23 45 36 80 36c64 0 112 -42 112 -111c0 -75 -46 -123 -123 -123c-64 0 -116 36 -124 100l60 14c7 -35 29 -57 64 -57c40 0 62 25 62 62c0 36 -23 60 -62 60c-25 0 -50 -15 -58 -34l-62 17c10 67 15 128 15 182h210z" />
    <glyph glyph-name="uni2785" unicode="&#x2785;" horiz-adv-x="780" 
d="M40 350c-4 189 161 354 350 350c189 4 354 -161 350 -350c4 -189 -161 -354 -350 -350c-189 -4 -354 161 -350 350zM671 350c3 153 -128 284 -281 281c-153 3 -284 -128 -281 -281c-3 -153 128 -284 281 -281c153 -3 284 128 281 281zM256 351c0 101 49 173 134 173
c65 0 105 -32 116 -87l-52 -14c-7 32 -29 48 -66 48c-43 0 -74 -39 -74 -112v-6c13 29 45 49 84 49c67 0 112 -44 112 -109c0 -69 -50 -117 -118 -117c-88 0 -136 68 -136 175zM452 290c0 37 -26 61 -62 61s-63 -25 -63 -61c0 -37 27 -61 63 -61s62 25 62 61z" />
    <glyph glyph-name="uni2786" unicode="&#x2786;" horiz-adv-x="780" 
d="M40 350c-4 189 161 354 350 350c189 4 354 -161 350 -350c4 -189 -161 -354 -350 -350c-189 -4 -354 161 -350 350zM671 350c3 153 -128 284 -281 281c-153 3 -284 -128 -281 -281c-3 -153 128 -284 281 -281c153 -3 284 128 281 281zM276 520h228v-51
c-68 -51 -106 -111 -106 -210c0 -25 2 -51 6 -79h-61c-3 22 -5 45 -5 69c0 95 31 160 90 215h-152v56z" />
    <glyph glyph-name="uni2787" unicode="&#x2787;" horiz-adv-x="780" 
d="M40 350c-4 189 161 354 350 350c189 4 354 -161 350 -350c4 -189 -161 -354 -350 -350c-189 -4 -354 161 -350 350zM671 350c3 153 -128 284 -281 281c-153 3 -284 -128 -281 -281c-3 -153 128 -284 281 -281c153 -3 284 128 281 281zM264 282c0 43 23 73 64 88
c-30 15 -45 38 -45 68c0 51 43 86 107 86s107 -35 107 -86c0 -30 -15 -53 -45 -68c41 -15 64 -45 64 -88c0 -60 -47 -106 -126 -106s-126 46 -126 106zM442 435c0 28 -21 42 -52 42s-53 -14 -53 -42c0 -27 22 -42 53 -42s52 15 52 42zM456 286c0 36 -27 56 -66 56
s-66 -20 -66 -56s29 -56 66 -56s66 20 66 56z" />
    <glyph glyph-name="uni2788" unicode="&#x2788;" horiz-adv-x="780" 
d="M40 350c-4 189 161 354 350 350c189 4 354 -161 350 -350c4 -189 -161 -354 -350 -350c-189 -4 -354 161 -350 350zM671 350c3 153 -128 284 -281 281c-153 3 -284 -128 -281 -281c-3 -153 128 -284 281 -281c153 -3 284 128 281 281zM267 272l50 16c8 -36 32 -59 72 -59
c53 0 77 39 77 116v6c-13 -29 -44 -49 -83 -49c-67 0 -111 46 -111 106c0 71 50 116 118 116c87 0 134 -64 134 -171c0 -103 -47 -177 -135 -177c-68 0 -113 40 -122 96zM454 412c0 36 -26 59 -62 59s-62 -23 -62 -59s26 -59 62 -59c35 0 62 24 62 59z" />
    <glyph glyph-name="uni278A" unicode="&#x278a;" horiz-adv-x="780" 
d="M40 350c-4 189 161 354 350 350c189 4 354 -161 350 -350c4 -189 -161 -354 -350 -350c-189 -4 -354 161 -350 350zM372 180h61v340h-56c-11 -45 -43 -70 -98 -74l10 -65c35 3 66 20 83 53v-254z" />
    <glyph glyph-name="uni278B" unicode="&#x278b;" horiz-adv-x="780" 
d="M40 350c-4 189 161 354 350 350c189 4 354 -161 350 -350c4 -189 -161 -354 -350 -350c-189 -4 -354 161 -350 350zM276 180h236v56h-154c8 23 27 36 63 59c55 35 87 54 90 124c0 64 -42 105 -121 105c-68 0 -118 -43 -118 -106c0 -27 9 -49 26 -68l48 32
c-9 9 -14 22 -14 37c0 28 24 49 57 49c39 0 60 -20 60 -52c0 -36 -19 -55 -78 -88c-60 -35 -95 -73 -95 -148z" />
    <glyph glyph-name="uni278C" unicode="&#x278c;" horiz-adv-x="780" 
d="M40 350c-4 189 161 354 350 350c189 4 354 -161 350 -350c4 -189 -161 -354 -350 -350c-189 -4 -354 161 -350 350zM520 295c0 65 -46 105 -93 105h-7l84 71v49h-217v-57h133l-94 -79l34 -43c12 9 25 13 40 13c35 0 58 -24 58 -60c0 -35 -26 -59 -61 -59
c-40 0 -65 26 -70 67l-58 -27c13 -59 57 -99 128 -99s123 48 123 119z" />
    <glyph glyph-name="uni278D" unicode="&#x278d;" horiz-adv-x="780" 
d="M40 350c-4 189 161 354 350 350c189 4 354 -161 350 -350c4 -189 -161 -354 -350 -350c-189 -4 -354 161 -350 350zM419 180h61v75h41v57h-41v103h-61v-103h-95c45 47 65 105 65 186v22h-61v-22c0 -83 -19 -130 -70 -179v-64h161v-75z" />
    <glyph glyph-name="uni278E" unicode="&#x278e;" horiz-adv-x="780" 
d="M40 350c-4 189 161 354 350 350c189 4 354 -161 350 -350c4 -189 -161 -354 -350 -350c-189 -4 -354 161 -350 350zM511 299c0 69 -48 111 -112 111c-35 0 -64 -13 -80 -36c8 30 12 60 12 90h162v56h-210c0 -54 -5 -115 -15 -182l61 -17c9 19 34 34 59 34
c39 0 62 -24 62 -60c0 -37 -22 -62 -62 -62c-35 0 -57 22 -64 57l-60 -14c8 -64 60 -100 124 -100c77 0 123 48 123 123z" />
    <glyph glyph-name="uni278F" unicode="&#x278f;" horiz-adv-x="780" 
d="M40 350c-4 189 161 354 350 350c189 4 354 -161 350 -350c4 -189 -161 -354 -350 -350c-189 -4 -354 161 -350 350zM510 293c0 65 -45 109 -112 109c-39 0 -71 -20 -84 -49v6c0 73 31 112 74 112c37 0 59 -16 66 -48l52 14c-11 55 -51 87 -116 87
c-85 0 -134 -72 -134 -173c0 -107 48 -175 136 -175c68 0 118 48 118 117zM327 290c0 36 27 61 63 61s62 -24 62 -61c0 -36 -26 -61 -62 -61s-63 24 -63 61z" />
    <glyph glyph-name="uni2790" unicode="&#x2790;" horiz-adv-x="780" 
d="M40 350c-4 189 161 354 350 350c189 4 354 -161 350 -350c4 -189 -161 -354 -350 -350c-189 -4 -354 161 -350 350zM342 180h61c-3 23 -5 50 -5 79c0 99 37 161 105 210v51h-227v-56h152c-59 -55 -90 -120 -90 -215c0 -19 1 -42 4 -69z" />
    <glyph glyph-name="uni2791" unicode="&#x2791;" horiz-adv-x="780" 
d="M40 350c-4 189 161 354 350 350c189 4 354 -161 350 -350c4 -189 -161 -354 -350 -350c-189 -4 -354 161 -350 350zM516 282c0 43 -23 73 -64 88c30 15 45 38 45 68c0 51 -43 86 -107 86s-107 -35 -107 -86c0 -30 15 -53 45 -68c-41 -15 -64 -45 -64 -88
c0 -60 47 -106 126 -106s126 46 126 106zM337 435c0 28 22 42 53 42s53 -14 53 -42c0 -27 -22 -42 -53 -42s-53 15 -53 42zM324 286c0 36 27 56 66 56s66 -20 66 -56s-29 -56 -66 -56s-66 20 -66 56z" />
    <glyph glyph-name="uni2792" unicode="&#x2792;" horiz-adv-x="780" 
d="M40 350c-4 189 161 354 350 350c189 4 354 -161 350 -350c4 -189 -161 -354 -350 -350c-189 -4 -354 161 -350 350zM524 353c0 107 -47 171 -134 171c-67 0 -118 -45 -118 -116c0 -60 44 -106 111 -106c39 0 70 20 83 49v-6c0 -77 -24 -116 -77 -116c-40 0 -64 23 -72 59
l-50 -16c9 -56 55 -96 122 -96c88 0 135 74 135 177zM330 412c0 36 26 59 62 59s62 -23 62 -59c0 -35 -27 -59 -62 -59c-36 0 -62 23 -62 59z" />
    <glyph glyph-name="zero.osf" horiz-adv-x="578" 
d="M289 -10c-149 0 -251 115 -251 260s102 260 251 260c150 0 252 -115 252 -260s-102 -260 -252 -260zM289 432c-94 0 -165 -73 -165 -182s71 -182 165 -182s165 73 165 182s-71 182 -165 182z" />
    <glyph glyph-name="one.osf" horiz-adv-x="496" 
d="M52 0v78h169v287c-33 -53 -100 -91 -173 -96l-14 84c101 3 172 59 197 147h77v-422h158v-78h-414z" />
    <glyph glyph-name="two.osf" horiz-adv-x="517" 
d="M243 217c108 35 152 65 152 121c0 57 -54 94 -134 94c-83 0 -139 -39 -139 -102c0 -25 9 -47 27 -67l-69 -47c-29 31 -44 69 -44 114c0 110 102 180 222 180c64 0 117 -15 159 -44c43 -29 64 -71 64 -124c0 -81 -42 -130 -141 -167l-46 -17c-76 -28 -111 -42 -128 -77
h320v-81h-438c0 119 79 181 195 217z" />
    <glyph glyph-name="three.osf" horiz-adv-x="570" 
d="M22 -6l83 37c12 -95 78 -158 175 -158c89 0 161 59 161 154c0 99 -63 159 -158 159c-39 0 -77 -15 -100 -36l-50 62l235 207h-316v81h450v-66l-221 -188c10 2 22 3 37 3c108 0 209 -81 209 -216c0 -144 -107 -241 -247 -241c-137 0 -233 82 -258 202z" />
    <glyph glyph-name="four.osf" horiz-adv-x="580" 
d="M352 -198v198h-316v91c119 93 150 181 150 345v64h87v-61c0 -160 -40 -274 -148 -361h227v219h86v-219h124v-78h-124v-198h-86z" />
    <glyph glyph-name="five.osf" horiz-adv-x="596" 
d="M523 500v-81h-358c0 -65 -8 -139 -25 -224c41 47 107 80 184 80c129 0 231 -85 231 -229c0 -148 -99 -254 -257 -254c-66 0 -122 18 -169 54c-47 35 -74 86 -83 152l84 24c15 -95 72 -149 168 -149c108 0 170 68 170 163s-57 161 -164 161c-69 0 -134 -41 -158 -93
l-92 21c20 131 30 256 30 375h439z" />
    <glyph glyph-name="six.osf" horiz-adv-x="591" 
d="M41 345c0 203 92 365 273 365c133 0 213 -73 229 -186l-82 -25c-13 89 -64 133 -152 133c-98 0 -182 -89 -182 -281v-14c33 67 112 113 192 113c135 0 225 -101 225 -222c0 -141 -99 -238 -234 -238c-178 0 -269 148 -269 355zM458 220c0 92 -65 152 -156 152
c-81 0 -150 -62 -150 -149c0 -91 65 -152 156 -152c88 0 150 61 150 149z" />
    <glyph glyph-name="seven.osf" horiz-adv-x="525" 
d="M34 500h457v-71c-154 -105 -231 -260 -231 -465c0 -50 4 -104 12 -162h-95c-6 46 -9 93 -9 141c0 199 68 358 204 476h-338v81z" />
    <glyph glyph-name="eight.osf" horiz-adv-x="582" 
d="M42 200c0 87 50 161 137 189c-65 30 -98 78 -98 143c0 98 83 178 210 178c126 0 210 -80 210 -178c0 -65 -33 -113 -98 -143c87 -28 137 -102 137 -189c0 -113 -89 -210 -249 -210c-161 0 -249 97 -249 210zM417 528c0 61 -51 104 -126 104s-126 -43 -126 -104
c0 -65 50 -107 126 -107s126 42 126 107zM454 210c0 81 -66 138 -163 138s-163 -57 -163 -138c0 -83 62 -139 163 -139s163 56 163 139z" />
    <glyph glyph-name="nine.osf" horiz-adv-x="596" 
d="M42 -2l85 25c9 -99 68 -150 164 -150c111 0 184 95 184 274l-1 36c-31 -80 -101 -133 -190 -133c-141 0 -231 100 -231 224c0 140 102 236 233 236c93 0 161 -33 204 -100c43 -66 65 -152 65 -258c0 -193 -77 -360 -269 -360c-141 0 -230 92 -244 206zM443 280
c0 44 -14 80 -43 109c-28 29 -64 43 -109 43s-81 -15 -109 -44s-42 -66 -42 -111c0 -92 63 -149 151 -149s152 61 152 152z" />
    <glyph glyph-name="zero.osf.zero" horiz-adv-x="578" 
d="M541 250c0 -145 -102 -260 -252 -260c-149 0 -251 115 -251 260s102 260 251 260c150 0 252 -115 252 -260zM124 250c0 -50 14 -92 42 -127l186 297c-19 8 -40 12 -63 12c-94 0 -165 -73 -165 -182zM454 250c0 50 -14 92 -42 127l-186 -297c19 -8 40 -12 63 -12
c94 0 165 73 165 182z" />
    <glyph glyph-name="zero.tf" horiz-adv-x="620" 
d="M29 350c0 219 110 360 280 360c171 0 281 -141 281 -360s-110 -360 -281 -360c-170 0 -280 141 -280 360zM503 350c0 83 -17 150 -51 203c-33 53 -81 79 -143 79c-61 0 -109 -26 -143 -79s-51 -120 -51 -203s17 -150 51 -203s82 -79 143 -79c62 0 110 26 143 79
c34 53 51 120 51 203z" />
    <glyph glyph-name="one.tf" horiz-adv-x="620" 
d="M363 81h169v-81h-430v81h175v482c-29 -64 -104 -111 -173 -116l-17 89c101 11 176 68 200 164h76v-619z" />
    </font>
</defs>
</svg>
