<?xml version="1.0" standalone="no"?>
<!DOCTYPE svg PUBLIC "-//W3C//DTD SVG 1.1//EN" "http://www.w3.org/Graphics/SVG/1.1/DTD/svg11.dtd" >
<svg xmlns="http://www.w3.org/2000/svg" xmlns:xlink="http://www.w3.org/1999/xlink" version="1.1">
<metadata>
Created by FontForge 20190801 at Tue Apr 17 03:24:32 2018
 By Jimmy Wärting
Copyright \(c\) 2018 by Colophon Foundry. All rights reserved.
</metadata>
<defs>
<font id="MabryPro-Medium" horiz-adv-x="0" >
  <font-face 
    font-family="Mabry Pro"
    font-weight="500"
    font-stretch="normal"
    units-per-em="1000"
    panose-1="2 13 6 3 4 0 2 4 3 3"
    ascent="792"
    descent="-208"
    x-height="474"
    cap-height="700"
    bbox="-814 -274 1790 1060"
    underline-thickness="62"
    underline-position="-160"
    unicode-range="U+000D-1F610"
  />
<missing-glyph horiz-adv-x="590" 
d="M45 0v700h500v-700h-500zM295 416l135 219h-270zM110 585v-470l144 235zM480 115v470l-145 -235zM160 65h270l-135 219z" />
    <glyph glyph-name="f_f" unicode="ff" horiz-adv-x="640" 
d="M114 0v384h-105v90h105v76c0 95 69 160 173 160c59 0 106 -22 125 -54c23 33 66 54 115 54c113 0 166 -65 166 -148c0 -10 0 -18 -1 -23h-100c1 7 2 13 2 20c0 36 -24 61 -67 61c-40 0 -65 -26 -65 -73v-73h130v-90h-130v-384h-105v384h-138v-384h-105zM219 474h138v71
c0 50 -23 75 -68 75c-44 0 -70 -30 -70 -75v-71z" />
    <glyph glyph-name="f_f_i" unicode="ffi" horiz-adv-x="764" 
d="M114 0v384h-105v90h105v76c0 95 69 160 173 160c55 0 102 -18 125 -54c23 33 64 54 115 54c113 0 166 -65 166 -148c0 -10 0 -18 -1 -23h-100c1 7 2 13 2 20c0 36 -24 61 -67 61c-40 0 -65 -26 -65 -73v-73h243v-474h-105v384h-138v-384h-105v384h-138v-384h-105z
M219 474h138v71c0 50 -23 75 -68 75c-44 0 -70 -30 -70 -75v-71z" />
    <glyph glyph-name="f_f_l" unicode="ffl" horiz-adv-x="769" 
d="M114 0v384h-105v90h105v76c0 95 69 160 173 160c55 0 101 -18 124 -54c23 32 69 54 120 54c116 0 174 -68 174 -160v-550h-105v545c0 44 -22 75 -69 75s-69 -31 -69 -75v-71h90v-90h-90v-384h-105v384h-138v-384h-105zM219 474h138v71c0 50 -23 75 -68 75
c-44 0 -70 -30 -70 -75v-71z" />
    <glyph glyph-name="fi" unicode="fi" horiz-adv-x="520" 
d="M461 474v-474h-105v384h-138v-384h-105v384h-104v90h104v76c0 95 66 160 170 160c113 0 166 -65 166 -148c0 -10 0 -18 -1 -23h-100c1 7 2 13 2 20c0 36 -24 61 -67 61c-40 0 -65 -26 -65 -73v-73h243z" />
    <glyph glyph-name="fl" unicode="fl" horiz-adv-x="526" 
d="M114 0v384h-105v90h105v76c0 92 58 160 174 160s174 -68 174 -160v-550h-105v545c0 44 -22 75 -69 75s-69 -31 -69 -75v-71h90v-90h-90v-384h-105z" />
    <glyph glyph-name=".notdef" horiz-adv-x="590" 
d="M45 0v700h500v-700h-500zM295 416l135 219h-270zM110 585v-470l144 235zM480 115v470l-145 -235zM160 65h270l-135 219z" />
    <glyph glyph-name="CR" unicode="&#xd;" horiz-adv-x="240" 
 />
    <glyph glyph-name="space" unicode=" " horiz-adv-x="240" 
 />
    <glyph glyph-name="A" unicode="A" horiz-adv-x="752" 
d="M12 0l288 700h152l288 -700h-124l-67 170h-346l-67 -170h-124zM242 270h268l-134 339z" />
    <glyph glyph-name="Aacute" unicode="&#xc1;" horiz-adv-x="752" 
d="M12 0l288 700h152l288 -700h-124l-67 170h-346l-67 -170h-124zM242 270h268l-134 339zM326 781l86 133h135v-16l-121 -117h-100z" />
    <glyph glyph-name="Abreve" unicode="&#x102;" horiz-adv-x="752" 
d="M12 0l288 700h152l288 -700h-124l-67 170h-346l-67 -170h-124zM242 270h268l-134 339zM501 890c0 -72 -53 -111 -125 -111s-125 39 -125 111c0 6 0 11 1 14h76l-1 -10c0 -25 20 -45 49 -45s49 20 49 45l-1 10h76c1 -3 1 -8 1 -14z" />
    <glyph glyph-name="Acircumflex" unicode="&#xc2;" horiz-adv-x="752" 
d="M12 0l288 700h152l288 -700h-124l-67 170h-346l-67 -170h-124zM242 270h268l-134 339zM217 781v16l125 108h68l125 -108v-16h-109l-50 64l-50 -64h-109z" />
    <glyph glyph-name="Adieresis" unicode="&#xc4;" horiz-adv-x="752" 
d="M12 0l288 700h152l288 -700h-124l-67 170h-346l-67 -170h-124zM242 270h268l-134 339zM231 789v112h110v-112h-110zM411 789v112h110v-112h-110z" />
    <glyph glyph-name="Agrave" unicode="&#xc0;" horiz-adv-x="752" 
d="M12 0l288 700h152l288 -700h-124l-67 170h-346l-67 -170h-124zM242 270h268l-134 339zM326 781l-121 117v16h135l86 -133h-100z" />
    <glyph glyph-name="Amacron" unicode="&#x100;" horiz-adv-x="752" 
d="M12 0l288 700h152l288 -700h-124l-67 170h-346l-67 -170h-124zM242 270h268l-134 339zM246 880h260v-78h-260v78z" />
    <glyph glyph-name="Aogonek" unicode="&#x104;" horiz-adv-x="752" 
d="M12 0l288 700h152l288 -700h-124l-67 170h-346l-67 -170h-124zM242 270h268l-134 339zM698 -190c-55 0 -91 36 -91 84c0 40 22 78 69 106h64c-37 -25 -56 -47 -56 -74c0 -20 16 -34 36 -34c11 0 21 4 32 11l32 -70c-28 -16 -53 -23 -86 -23z" />
    <glyph glyph-name="Aring" unicode="&#xc5;" horiz-adv-x="752" 
d="M12 0l288 700h152l288 -700h-124l-67 170h-346l-67 -170h-124zM242 270h268l-134 339zM283 853c0 52 41 93 93 93s93 -41 93 -93s-41 -93 -93 -93s-93 41 -93 93zM412 853c0 19 -17 36 -36 36s-36 -17 -36 -36s17 -36 36 -36s36 17 36 36z" />
    <glyph glyph-name="Aringacute" unicode="&#x1fa;" horiz-adv-x="752" 
d="M12 0l288 700h152l288 -700h-124l-67 170h-346l-67 -170h-124zM242 270h268l-134 339zM283 853c0 52 41 93 93 93s93 -41 93 -93s-41 -93 -93 -93s-93 41 -93 93zM412 853c0 19 -17 36 -36 36s-36 -17 -36 -36s17 -36 36 -36s36 17 36 36zM326 927l86 133h135v-16
l-121 -117h-100z" />
    <glyph glyph-name="Atilde" unicode="&#xc3;" horiz-adv-x="752" 
d="M12 0l288 700h152l288 -700h-124l-67 170h-346l-67 -170h-124zM242 270h268l-134 339zM359 812c-15 13 -23 19 -38 19c-17 0 -31 -12 -31 -33c0 -3 1 -8 2 -15l-73 10c-1 5 -2 10 -2 15c0 55 41 96 97 96c39 0 58 -12 79 -32c15 -13 23 -19 38 -19c17 0 31 12 31 33
c0 3 -1 8 -2 15l73 -10c1 -5 2 -10 2 -15c0 -55 -41 -96 -97 -96c-39 0 -58 12 -79 32z" />
    <glyph glyph-name="AE" unicode="&#xc6;" horiz-adv-x="971" 
d="M560 105h361v-105h-471v170h-224l-90 -170h-124l372 700h527v-105h-351v-180h321v-105h-321v-205zM450 270v325l-172 -325h172z" />
    <glyph glyph-name="AEacute" unicode="&#x1fc;" horiz-adv-x="971" 
d="M560 105h361v-105h-471v170h-224l-90 -170h-124l372 700h527v-105h-351v-180h321v-105h-321v-205zM450 270v325l-172 -325h172zM594 781l86 133h135v-16l-121 -117h-100z" />
    <glyph glyph-name="B" unicode="B" horiz-adv-x="698" 
d="M72 0v700h330c129 0 225 -81 225 -185c0 -69 -39 -124 -110 -155c83 -20 135 -82 135 -170c0 -109 -101 -190 -230 -190h-350zM182 410h215c79 0 120 34 120 95c0 57 -51 90 -120 90h-215v-185zM182 105h235c71 0 120 40 120 100c0 57 -48 105 -120 105h-235v-205z" />
    <glyph glyph-name="C" unicode="C" horiz-adv-x="784" 
d="M157 350c0 -163 98 -260 240 -260c73 0 131 21 174 63s70 94 81 157l100 -40c-36 -162 -163 -280 -355 -280c-211 -3 -357 157 -355 360c-4 201 156 364 355 360c178 0 283 -109 315 -235l-100 -45c-21 105 -96 180 -215 180c-136 0 -240 -103 -240 -260z" />
    <glyph glyph-name="Cacute" unicode="&#x106;" horiz-adv-x="784" 
d="M157 350c0 -163 98 -260 240 -260c73 0 131 21 174 63s70 94 81 157l100 -40c-36 -162 -163 -280 -355 -280c-211 -3 -357 157 -355 360c-4 201 156 364 355 360c178 0 283 -109 315 -235l-100 -45c-21 105 -96 180 -215 180c-136 0 -240 -103 -240 -260zM342 781l86 133
h135v-16l-121 -117h-100z" />
    <glyph glyph-name="Ccaron" unicode="&#x10c;" horiz-adv-x="784" 
d="M157 350c0 -163 98 -260 240 -260c73 0 131 21 174 63s70 94 81 157l100 -40c-36 -162 -163 -280 -355 -280c-211 -3 -357 157 -355 360c-4 201 156 364 355 360c178 0 283 -109 315 -235l-100 -45c-21 105 -96 180 -215 180c-136 0 -240 -103 -240 -260zM358 781
l-125 108v16h109l50 -64l50 64h109v-16l-125 -108h-68z" />
    <glyph glyph-name="Ccedilla" unicode="&#xc7;" horiz-adv-x="784" 
d="M157 350c0 -163 98 -260 240 -260c73 0 131 21 174 63s70 94 81 157l100 -40c-36 -162 -163 -280 -355 -280c-211 -3 -357 157 -355 360c-4 201 156 364 355 360c178 0 283 -109 315 -235l-100 -45c-21 105 -96 180 -215 180c-136 0 -240 -103 -240 -260zM371 -51
c12 13 32 21 48 21c45 0 78 -29 78 -77c0 -51 -34 -81 -85 -81c-47 0 -82 22 -90 66l53 13c3 -17 16 -29 35 -29c21 0 34 12 34 31s-13 32 -34 32c-15 0 -27 -7 -34 -18l-52 10c7 24 13 57 20 99h56c-9 -26 -18 -48 -29 -67z" />
    <glyph glyph-name="Ccircumflex" unicode="&#x108;" horiz-adv-x="784" 
d="M157 350c0 -163 98 -260 240 -260c73 0 131 21 174 63s70 94 81 157l100 -40c-36 -162 -163 -280 -355 -280c-211 -3 -357 157 -355 360c-4 201 156 364 355 360c178 0 283 -109 315 -235l-100 -45c-21 105 -96 180 -215 180c-136 0 -240 -103 -240 -260zM233 781v16
l125 108h68l125 -108v-16h-109l-50 64l-50 -64h-109z" />
    <glyph glyph-name="Cdotaccent" unicode="&#x10a;" horiz-adv-x="784" 
d="M157 350c0 -163 98 -260 240 -260c73 0 131 21 174 63s70 94 81 157l100 -40c-36 -162 -163 -280 -355 -280c-211 -3 -357 157 -355 360c-4 201 156 364 355 360c178 0 283 -109 315 -235l-100 -45c-21 105 -96 180 -215 180c-136 0 -240 -103 -240 -260zM334 904h115
v-115h-115v115z" />
    <glyph glyph-name="D" unicode="D" horiz-adv-x="729" 
d="M72 0v700h265c226 0 350 -148 350 -355c0 -198 -128 -345 -350 -345h-265zM182 600v-500h155c155 0 240 112 240 245c0 147 -83 255 -240 255h-155z" />
    <glyph glyph-name="Eth" unicode="&#xd0;" horiz-adv-x="729" 
d="M72 0v700h265c226 0 350 -148 350 -355c0 -198 -128 -345 -350 -345h-265zM182 600v-500h155c155 0 240 112 240 245c0 147 -83 255 -240 255h-155zM-8 395h394v-90h-394v90z" />
    <glyph glyph-name="Dcaron" unicode="&#x10e;" horiz-adv-x="729" 
d="M72 0v700h265c226 0 350 -148 350 -355c0 -198 -128 -345 -350 -345h-265zM182 600v-500h155c155 0 240 112 240 245c0 147 -83 255 -240 255h-155zM255 781l-125 108v16h109l50 -64l50 64h109v-16l-125 -108h-68z" />
    <glyph glyph-name="Dcroat" unicode="&#x110;" horiz-adv-x="729" 
d="M72 0v700h265c226 0 350 -148 350 -355c0 -198 -128 -345 -350 -345h-265zM182 600v-500h155c155 0 240 112 240 245c0 147 -83 255 -240 255h-155zM-8 395h394v-90h-394v90z" />
    <glyph glyph-name="E" unicode="E" horiz-adv-x="642" 
d="M72 700h510v-105h-400v-180h370v-105h-370v-205h410v-105h-520v700z" />
    <glyph glyph-name="Eacute" unicode="&#xc9;" horiz-adv-x="642" 
d="M72 700h510v-105h-400v-180h370v-105h-370v-205h410v-105h-520v700zM277 781l86 133h135v-16l-121 -117h-100z" />
    <glyph glyph-name="Ebreve" unicode="&#x114;" horiz-adv-x="642" 
d="M72 700h510v-105h-400v-180h370v-105h-370v-205h410v-105h-520v700zM452 890c0 -72 -53 -111 -125 -111s-125 39 -125 111c0 6 0 11 1 14h76l-1 -10c0 -25 20 -45 49 -45s49 20 49 45l-1 10h76c1 -3 1 -8 1 -14z" />
    <glyph glyph-name="Ecaron" unicode="&#x11a;" horiz-adv-x="642" 
d="M72 700h510v-105h-400v-180h370v-105h-370v-205h410v-105h-520v700zM293 781l-125 108v16h109l50 -64l50 64h109v-16l-125 -108h-68z" />
    <glyph glyph-name="Ecircumflex" unicode="&#xca;" horiz-adv-x="642" 
d="M72 700h510v-105h-400v-180h370v-105h-370v-205h410v-105h-520v700zM168 781v16l125 108h68l125 -108v-16h-109l-50 64l-50 -64h-109z" />
    <glyph glyph-name="Edieresis" unicode="&#xcb;" horiz-adv-x="642" 
d="M72 700h510v-105h-400v-180h370v-105h-370v-205h410v-105h-520v700zM182 789v112h110v-112h-110zM362 789v112h110v-112h-110z" />
    <glyph glyph-name="Edotaccent" unicode="&#x116;" horiz-adv-x="642" 
d="M72 700h510v-105h-400v-180h370v-105h-370v-205h410v-105h-520v700zM269 904h115v-115h-115v115z" />
    <glyph glyph-name="Egrave" unicode="&#xc8;" horiz-adv-x="642" 
d="M72 700h510v-105h-400v-180h370v-105h-370v-205h410v-105h-520v700zM277 781l-121 117v16h135l86 -133h-100z" />
    <glyph glyph-name="Emacron" unicode="&#x112;" horiz-adv-x="642" 
d="M72 700h510v-105h-400v-180h370v-105h-370v-205h410v-105h-520v700zM197 880h260v-78h-260v78z" />
    <glyph glyph-name="Eogonek" unicode="&#x118;" horiz-adv-x="642" 
d="M72 700h510v-105h-400v-180h370v-105h-370v-205h410v-105h-520v700zM550 -190c-55 0 -91 36 -91 84c0 40 22 78 69 106h64c-37 -25 -56 -47 -56 -74c0 -20 16 -34 36 -34c11 0 21 4 32 11l32 -70c-28 -16 -53 -23 -86 -23z" />
    <glyph glyph-name="F" unicode="F" horiz-adv-x="625" 
d="M72 700h505v-105h-395v-200h365v-105h-365v-290h-110v700z" />
    <glyph glyph-name="G" unicode="G" horiz-adv-x="791" 
d="M387 -10c-197 -3 -348 153 -345 360c-3 201 153 364 350 360c91 0 166 -23 223 -68c58 -45 96 -104 115 -177l-110 -35c-24 117 -106 175 -225 175c-131 0 -238 -103 -238 -255c0 -149 104 -255 240 -255c124 0 189 93 203 170h-303v105h438v-370h-94v149
c-50 -106 -135 -159 -254 -159z" />
    <glyph glyph-name="Gbreve" unicode="&#x11e;" horiz-adv-x="791" 
d="M387 -10c-197 -3 -348 153 -345 360c-3 201 153 364 350 360c91 0 166 -23 223 -68c58 -45 96 -104 115 -177l-110 -35c-24 117 -106 175 -225 175c-131 0 -238 -103 -238 -255c0 -149 104 -255 240 -255c124 0 189 93 203 170h-303v105h438v-370h-94v149
c-50 -106 -135 -159 -254 -159zM517 890c0 -72 -53 -111 -125 -111s-125 39 -125 111c0 6 0 11 1 14h76l-1 -10c0 -25 20 -45 49 -45s49 20 49 45l-1 10h76c1 -3 1 -8 1 -14z" />
    <glyph glyph-name="Gcircumflex" unicode="&#x11c;" horiz-adv-x="791" 
d="M387 -10c-197 -3 -348 153 -345 360c-3 201 153 364 350 360c91 0 166 -23 223 -68c58 -45 96 -104 115 -177l-110 -35c-24 117 -106 175 -225 175c-131 0 -238 -103 -238 -255c0 -149 104 -255 240 -255c124 0 189 93 203 170h-303v105h438v-370h-94v149
c-50 -106 -135 -159 -254 -159zM233 781v16l125 108h68l125 -108v-16h-109l-50 64l-50 -64h-109z" />
    <glyph glyph-name="Gcommaaccent" unicode="&#x122;" horiz-adv-x="791" 
d="M387 -10c-197 -3 -348 153 -345 360c-3 201 153 364 350 360c91 0 166 -23 223 -68c58 -45 96 -104 115 -177l-110 -35c-24 117 -106 175 -225 175c-131 0 -238 -103 -238 -255c0 -149 104 -255 240 -255c124 0 189 93 203 170h-303v105h438v-370h-94v149
c-50 -106 -135 -159 -254 -159zM305 -265l13 60c15 -6 29 -9 43 -9c20 0 34 11 34 30c0 20 -14 30 -34 30h-26v102h118v-130c0 -65 -40 -92 -91 -92c-20 0 -39 3 -57 9z" />
    <glyph glyph-name="Gdotaccent" unicode="&#x120;" horiz-adv-x="791" 
d="M387 -10c-197 -3 -348 153 -345 360c-3 201 153 364 350 360c91 0 166 -23 223 -68c58 -45 96 -104 115 -177l-110 -35c-24 117 -106 175 -225 175c-131 0 -238 -103 -238 -255c0 -149 104 -255 240 -255c124 0 189 93 203 170h-303v105h438v-370h-94v149
c-50 -106 -135 -159 -254 -159zM334 904h115v-115h-115v115z" />
    <glyph glyph-name="H" unicode="H" horiz-adv-x="744" 
d="M562 295h-380v-295h-110v700h110v-305h380v305h110v-700h-110v295z" />
    <glyph glyph-name="Hbar" unicode="&#x126;" horiz-adv-x="744" 
d="M562 295h-380v-295h-110v700h110v-305h380v305h110v-700h-110v295zM-5 500v95h754v-95h-754z" />
    <glyph glyph-name="Hcircumflex" unicode="&#x124;" horiz-adv-x="744" 
d="M562 295h-380v-295h-110v700h110v-305h380v305h110v-700h-110v295zM213 781v16l125 108h68l125 -108v-16h-109l-50 64l-50 -64h-109z" />
    <glyph glyph-name="I" unicode="I" horiz-adv-x="254" 
d="M72 0v700h110v-700h-110z" />
    <glyph glyph-name="IJ" unicode="&#x132;" horiz-adv-x="856" 
d="M72 0v700h110v-700h-110zM682 700h110v-465c0 -68 -19 -126 -58 -174c-38 -47 -100 -71 -187 -71c-157 0 -245 104 -245 240c0 45 10 85 30 120l105 -40c-17 -25 -25 -55 -25 -90c0 -73 59 -125 135 -125c91 0 135 60 135 153v452z" />
    <glyph glyph-name="Iacute" unicode="&#xcd;" horiz-adv-x="254" 
d="M72 0v700h110v-700h-110zM77 781l86 133h135v-16l-121 -117h-100z" />
    <glyph glyph-name="Ibreve" unicode="&#x12c;" horiz-adv-x="254" 
d="M72 0v700h110v-700h-110zM252 890c0 -72 -53 -111 -125 -111s-125 39 -125 111c0 6 0 11 1 14h76l-1 -10c0 -25 20 -45 49 -45s49 20 49 45l-1 10h76c1 -3 1 -8 1 -14z" />
    <glyph glyph-name="Icircumflex" unicode="&#xce;" horiz-adv-x="254" 
d="M72 0v700h110v-700h-110zM-32 781v16l125 108h68l125 -108v-16h-109l-50 64l-50 -64h-109z" />
    <glyph glyph-name="Idieresis" unicode="&#xcf;" horiz-adv-x="254" 
d="M72 0v700h110v-700h-110zM-18 789v112h110v-112h-110zM162 789v112h110v-112h-110z" />
    <glyph glyph-name="Idot" unicode="&#x130;" horiz-adv-x="254" 
d="M72 0v700h110v-700h-110zM69 904h115v-115h-115v115z" />
    <glyph glyph-name="Igrave" unicode="&#xcc;" horiz-adv-x="254" 
d="M72 0v700h110v-700h-110zM77 781l-121 117v16h135l86 -133h-100z" />
    <glyph glyph-name="Imacron" unicode="&#x12a;" horiz-adv-x="254" 
d="M72 0v700h110v-700h-110zM-3 880h260v-78h-260v78z" />
    <glyph glyph-name="Iogonek" unicode="&#x12e;" horiz-adv-x="254" 
d="M72 0v700h110v-700h-110zM140 -190c-55 0 -91 36 -91 84c0 40 22 78 69 106h64c-37 -25 -56 -47 -56 -74c0 -20 16 -34 36 -34c11 0 21 4 32 11l32 -70c-28 -16 -53 -23 -86 -23z" />
    <glyph glyph-name="Itilde" unicode="&#x128;" horiz-adv-x="254" 
d="M72 0v700h110v-700h-110zM110 812c-15 13 -23 19 -38 19c-17 0 -31 -12 -31 -33c0 -3 1 -8 2 -15l-73 10c-1 5 -2 10 -2 15c0 55 41 96 97 96c39 0 58 -12 79 -32c15 -13 23 -19 38 -19c17 0 31 12 31 33c0 3 -1 8 -2 15l73 -10c1 -5 2 -10 2 -15c0 -55 -41 -96 -97 -96
c-39 0 -58 12 -79 32z" />
    <glyph glyph-name="J" unicode="J" horiz-adv-x="602" 
d="M428 700h110v-465c0 -68 -19 -126 -58 -174c-38 -47 -100 -71 -187 -71c-157 0 -245 104 -245 240c0 45 10 85 30 120l105 -40c-17 -25 -25 -55 -25 -90c0 -73 59 -125 135 -125c91 0 135 60 135 153v452z" />
    <glyph glyph-name="Jcircumflex" unicode="&#x134;" horiz-adv-x="602" 
d="M428 700h110v-465c0 -68 -19 -126 -58 -174c-38 -47 -100 -71 -187 -71c-157 0 -245 104 -245 240c0 45 10 85 30 120l105 -40c-17 -25 -25 -55 -25 -90c0 -73 59 -125 135 -125c91 0 135 60 135 153v452zM324 781v16l125 108h68l125 -108v-16h-109l-50 64l-50 -64h-109z
" />
    <glyph glyph-name="K" unicode="K" horiz-adv-x="687" 
d="M394 426l273 -426h-135l-216 343l-134 -143v-200h-110v700h110v-347l325 347h145z" />
    <glyph glyph-name="Kcommaaccent" unicode="&#x136;" horiz-adv-x="687" 
d="M394 426l273 -426h-135l-216 343l-134 -143v-200h-110v700h110v-347l325 347h145zM267 -265l13 60c15 -6 29 -9 43 -9c20 0 34 11 34 30c0 20 -14 30 -34 30h-26v102h118v-130c0 -65 -40 -92 -91 -92c-20 0 -39 3 -57 9z" />
    <glyph glyph-name="L" unicode="L" horiz-adv-x="642" 
d="M72 700h110v-595h420v-105h-530v700z" />
    <glyph glyph-name="Lacute" unicode="&#x139;" horiz-adv-x="642" 
d="M72 700h110v-595h420v-105h-530v700zM77 781l86 133h135v-16l-121 -117h-100z" />
    <glyph glyph-name="Lcaron" unicode="&#x13d;" horiz-adv-x="642" 
d="M72 700h110v-595h420v-105h-530v700zM475 474v60h23c29 0 44 10 44 30s-14 30 -34 30h-26v106h120v-131c0 -69 -46 -95 -110 -95h-17z" />
    <glyph glyph-name="Lcommaaccent" unicode="&#x13b;" horiz-adv-x="642" 
d="M72 700h110v-595h420v-105h-530v700zM238 -265l13 60c15 -6 29 -9 43 -9c20 0 34 11 34 30c0 20 -14 30 -34 30h-26v102h118v-130c0 -65 -40 -92 -91 -92c-20 0 -39 3 -57 9z" />
    <glyph glyph-name="Ldot" unicode="&#x13f;" horiz-adv-x="600" 
d="M72 700h110v-595h420v-105h-530v700zM382 410h120v-120h-120v120z" />
    <glyph glyph-name="Lslash" unicode="&#x141;" horiz-adv-x="642" 
d="M72 700h110v-595h420v-105h-530v700zM17 246l-41 81l303 157l41 -81z" />
    <glyph glyph-name="M" unicode="M" horiz-adv-x="944" 
d="M872 0h-110v639l-205 -639h-170l-205 639v-639h-110v700h205l195 -615l195 615h205v-700z" />
    <glyph glyph-name="N" unicode="N" horiz-adv-x="771" 
d="M182 620v-620h-110v700h191l326 -621v621h110v-700h-191z" />
    <glyph glyph-name="Nacute" unicode="&#x143;" horiz-adv-x="771" 
d="M182 620v-620h-110v700h191l326 -621v621h110v-700h-191zM336 781l86 133h135v-16l-121 -117h-100z" />
    <glyph glyph-name="Ncaron" unicode="&#x147;" horiz-adv-x="771" 
d="M182 620v-620h-110v700h191l326 -621v621h110v-700h-191zM352 781l-125 108v16h109l50 -64l50 64h109v-16l-125 -108h-68z" />
    <glyph glyph-name="Ncommaaccent" unicode="&#x145;" horiz-adv-x="771" 
d="M182 620v-620h-110v700h191l326 -621v621h110v-700h-191zM296 -265l13 60c15 -6 29 -9 43 -9c20 0 34 11 34 30c0 20 -14 30 -34 30h-26v102h118v-130c0 -65 -40 -92 -91 -92c-20 0 -39 3 -57 9z" />
    <glyph glyph-name="Eng" unicode="&#x14a;" horiz-adv-x="771" 
d="M277 -55l100 40c15 -60 55 -93 115 -93c64 0 97 37 97 108h-81l-326 620v-620h-110v700h191l326 -621v621h110v-675c0 -148 -69 -233 -202 -233c-115 0 -195 57 -220 153z" />
    <glyph glyph-name="Ntilde" unicode="&#xd1;" horiz-adv-x="771" 
d="M182 620v-620h-110v700h191l326 -621v621h110v-700h-191zM369 812c-15 13 -23 19 -38 19c-17 0 -31 -12 -31 -33c0 -3 1 -8 2 -15l-73 10c-1 5 -2 10 -2 15c0 55 41 96 97 96c39 0 58 -12 79 -32c15 -13 23 -19 38 -19c17 0 31 12 31 33c0 3 -1 8 -2 15l73 -10
c1 -5 2 -10 2 -15c0 -55 -41 -96 -97 -96c-39 0 -58 12 -79 32z" />
    <glyph glyph-name="O" unicode="O" horiz-adv-x="814" 
d="M407 710c200 4 369 -164 365 -360c4 -197 -165 -364 -365 -360c-200 -4 -369 163 -365 360c-4 196 165 364 365 360zM407 95c138 0 250 104 250 255s-109 255 -250 255s-250 -106 -250 -256c0 -152 112 -254 250 -254z" />
    <glyph glyph-name="Oacute" unicode="&#xd3;" horiz-adv-x="814" 
d="M407 710c200 4 369 -164 365 -360c4 -197 -165 -364 -365 -360c-200 -4 -369 163 -365 360c-4 196 165 364 365 360zM407 95c138 0 250 104 250 255s-109 255 -250 255s-250 -106 -250 -256c0 -152 112 -254 250 -254zM357 781l86 133h135v-16l-121 -117h-100z" />
    <glyph glyph-name="Obreve" unicode="&#x14e;" horiz-adv-x="814" 
d="M407 710c200 4 369 -164 365 -360c4 -197 -165 -364 -365 -360c-200 -4 -369 163 -365 360c-4 196 165 364 365 360zM407 95c138 0 250 104 250 255s-109 255 -250 255s-250 -106 -250 -256c0 -152 112 -254 250 -254zM532 890c0 -72 -53 -111 -125 -111
s-125 39 -125 111c0 6 0 11 1 14h76l-1 -10c0 -25 20 -45 49 -45s49 20 49 45l-1 10h76c1 -3 1 -8 1 -14z" />
    <glyph glyph-name="Ocircumflex" unicode="&#xd4;" horiz-adv-x="814" 
d="M407 710c200 4 369 -164 365 -360c4 -197 -165 -364 -365 -360c-200 -4 -369 163 -365 360c-4 196 165 364 365 360zM407 95c138 0 250 104 250 255s-109 255 -250 255s-250 -106 -250 -256c0 -152 112 -254 250 -254zM248 781v16l125 108h68l125 -108v-16h-109l-50 64
l-50 -64h-109z" />
    <glyph glyph-name="Odieresis" unicode="&#xd6;" horiz-adv-x="814" 
d="M407 710c200 4 369 -164 365 -360c4 -197 -165 -364 -365 -360c-200 -4 -369 163 -365 360c-4 196 165 364 365 360zM407 95c138 0 250 104 250 255s-109 255 -250 255s-250 -106 -250 -256c0 -152 112 -254 250 -254zM262 789v112h110v-112h-110zM442 789v112h110v-112
h-110z" />
    <glyph glyph-name="Ograve" unicode="&#xd2;" horiz-adv-x="814" 
d="M407 710c200 4 369 -164 365 -360c4 -197 -165 -364 -365 -360c-200 -4 -369 163 -365 360c-4 196 165 364 365 360zM407 95c138 0 250 104 250 255s-109 255 -250 255s-250 -106 -250 -256c0 -152 112 -254 250 -254zM357 781l-121 117v16h135l86 -133h-100z" />
    <glyph glyph-name="Ohungarumlaut" unicode="&#x150;" horiz-adv-x="814" 
d="M407 710c200 4 369 -164 365 -360c4 -197 -165 -364 -365 -360c-200 -4 -369 163 -365 360c-4 196 165 364 365 360zM407 95c138 0 250 104 250 255s-109 255 -250 255s-250 -106 -250 -256c0 -152 112 -254 250 -254zM261 781l86 133h135v-16l-121 -117h-100zM454 781
l86 133h135v-16l-121 -117h-100z" />
    <glyph glyph-name="Omacron" unicode="&#x14c;" horiz-adv-x="814" 
d="M407 710c200 4 369 -164 365 -360c4 -197 -165 -364 -365 -360c-200 -4 -369 163 -365 360c-4 196 165 364 365 360zM407 95c138 0 250 104 250 255s-109 255 -250 255s-250 -106 -250 -256c0 -152 112 -254 250 -254zM277 880h260v-78h-260v78z" />
    <glyph glyph-name="Oslash" unicode="&#xd8;" horiz-adv-x="814" 
d="M407 710c200 4 369 -164 365 -360c4 -197 -165 -364 -365 -360c-200 -4 -369 163 -365 360c-4 196 165 364 365 360zM407 95c138 0 250 104 250 255s-109 255 -250 255s-250 -106 -250 -256c0 -152 112 -254 250 -254zM184 -34l-73 54l519 714l73 -54z" />
    <glyph glyph-name="Otilde" unicode="&#xd5;" horiz-adv-x="814" 
d="M407 710c200 4 369 -164 365 -360c4 -197 -165 -364 -365 -360c-200 -4 -369 163 -365 360c-4 196 165 364 365 360zM407 95c138 0 250 104 250 255s-109 255 -250 255s-250 -106 -250 -256c0 -152 112 -254 250 -254zM390 812c-15 13 -23 19 -38 19
c-17 0 -31 -12 -31 -33c0 -3 1 -8 2 -15l-73 10c-1 5 -2 10 -2 15c0 55 41 96 97 96c39 0 58 -12 79 -32c15 -13 23 -19 38 -19c17 0 31 12 31 33c0 3 -1 8 -2 15l73 -10c1 -5 2 -10 2 -15c0 -55 -41 -96 -97 -96c-39 0 -58 12 -79 32z" />
    <glyph glyph-name="OE" unicode="&#x152;" horiz-adv-x="1227" 
d="M42 350c-4 196 165 364 365 360c103 0 189 -37 250 -110v100h510v-105h-400v-180h370v-105h-370v-205h410v-105h-520v100c-61 -73 -147 -110 -250 -110c-200 -4 -369 163 -365 360zM657 350c0 151 -109 255 -250 255s-250 -106 -250 -256c0 -152 112 -254 250 -254
c140 0 250 104 250 255z" />
    <glyph glyph-name="P" unicode="P" horiz-adv-x="666" 
d="M182 280v-280h-110v700h325c146 0 225 -97 225 -210c0 -109 -80 -210 -225 -210h-215zM182 385h205c71 0 120 41 120 105s-49 105 -120 105h-205v-210z" />
    <glyph glyph-name="Thorn" unicode="&#xde;" horiz-adv-x="666" 
d="M182 145v-145h-110v700h110v-135h215c146 0 225 -97 225 -210c0 -109 -80 -210 -225 -210h-215zM182 250h205c71 0 120 41 120 105s-49 105 -120 105h-205v-210z" />
    <glyph glyph-name="Q" unicode="Q" horiz-adv-x="814" 
d="M521 7c-37 -11 -75 -17 -114 -17c-200 -4 -369 163 -365 360c-4 196 165 364 365 360c200 4 369 -164 365 -360c0 -123 -60 -232 -159 -299c19 -37 52 -56 99 -56c29 0 52 7 70 20l35 -95c-30 -20 -68 -30 -115 -30c-83 0 -152 41 -181 117zM261 185c0 88 71 150 161 150
c100 0 160 -59 172 -160c40 45 63 106 63 175c0 151 -109 255 -250 255s-250 -106 -250 -256c0 -96 44 -173 113 -216c-6 17 -9 35 -9 52zM506 114c-3 87 -35 131 -94 131c-44 0 -76 -30 -76 -73c0 -47 30 -77 71 -77c37 0 70 6 99 19z" />
    <glyph glyph-name="R" unicode="R" horiz-adv-x="681" 
d="M637 0h-135c-9 17 -15 37 -19 58c-4 22 -6 56 -6 102c0 97 -44 130 -125 130h-170v-290h-110v700h335c141 0 225 -83 225 -190c0 -89 -52 -154 -140 -185c68 -27 106 -77 110 -166c2 -41 5 -71 8 -91c4 -19 13 -37 27 -52v-16zM182 395h215c76 0 120 36 120 100
s-44 100 -120 100h-215v-200z" />
    <glyph glyph-name="Racute" unicode="&#x154;" horiz-adv-x="681" 
d="M637 0h-135c-9 17 -15 37 -19 58c-4 22 -6 56 -6 102c0 97 -44 130 -125 130h-170v-290h-110v700h335c141 0 225 -83 225 -190c0 -89 -52 -154 -140 -185c68 -27 106 -77 110 -166c2 -41 5 -71 8 -91c4 -19 13 -37 27 -52v-16zM182 395h215c76 0 120 36 120 100
s-44 100 -120 100h-215v-200zM255 781l86 133h135v-16l-121 -117h-100z" />
    <glyph glyph-name="Rcaron" unicode="&#x158;" horiz-adv-x="681" 
d="M637 0h-135c-9 17 -15 37 -19 58c-4 22 -6 56 -6 102c0 97 -44 130 -125 130h-170v-290h-110v700h335c141 0 225 -83 225 -190c0 -89 -52 -154 -140 -185c68 -27 106 -77 110 -166c2 -41 5 -71 8 -91c4 -19 13 -37 27 -52v-16zM182 395h215c76 0 120 36 120 100
s-44 100 -120 100h-215v-200zM271 781l-125 108v16h109l50 -64l50 64h109v-16l-125 -108h-68z" />
    <glyph glyph-name="Rcommaaccent" unicode="&#x156;" horiz-adv-x="681" 
d="M637 0h-135c-9 17 -15 37 -19 58c-4 22 -6 56 -6 102c0 97 -44 130 -125 130h-170v-290h-110v700h335c141 0 225 -83 225 -190c0 -89 -52 -154 -140 -185c68 -27 106 -77 110 -166c2 -41 5 -71 8 -91c4 -19 13 -37 27 -52v-16zM182 395h215c76 0 120 36 120 100
s-44 100 -120 100h-215v-200zM255 -265l13 60c15 -6 29 -9 43 -9c20 0 34 11 34 30c0 20 -14 30 -34 30h-26v102h118v-130c0 -65 -40 -92 -91 -92c-20 0 -39 3 -57 9z" />
    <glyph glyph-name="S" unicode="S" horiz-adv-x="642" 
d="M314 605c-76 0 -125 -37 -125 -85c0 -64 71 -94 179 -115c161 -31 241 -93 241 -205c0 -120 -111 -210 -273 -210c-67 0 -129 16 -188 48c-58 33 -99 88 -124 167l105 65c25 -113 100 -175 208 -175c95 0 157 41 157 100c0 56 -45 90 -165 110c-161 28 -250 91 -250 214
c0 103 99 191 245 191c117 0 216 -62 255 -170l-105 -60c-19 80 -73 125 -160 125z" />
    <glyph glyph-name="Sacute" unicode="&#x15a;" horiz-adv-x="642" 
d="M314 605c-76 0 -125 -37 -125 -85c0 -64 71 -94 179 -115c161 -31 241 -93 241 -205c0 -120 -111 -210 -273 -210c-67 0 -129 16 -188 48c-58 33 -99 88 -124 167l105 65c25 -113 100 -175 208 -175c95 0 157 41 157 100c0 56 -45 90 -165 110c-161 28 -250 91 -250 214
c0 103 99 191 245 191c117 0 216 -62 255 -170l-105 -60c-19 80 -73 125 -160 125zM271 781l86 133h135v-16l-121 -117h-100z" />
    <glyph glyph-name="Scaron" unicode="&#x160;" horiz-adv-x="642" 
d="M314 605c-76 0 -125 -37 -125 -85c0 -64 71 -94 179 -115c161 -31 241 -93 241 -205c0 -120 -111 -210 -273 -210c-67 0 -129 16 -188 48c-58 33 -99 88 -124 167l105 65c25 -113 100 -175 208 -175c95 0 157 41 157 100c0 56 -45 90 -165 110c-161 28 -250 91 -250 214
c0 103 99 191 245 191c117 0 216 -62 255 -170l-105 -60c-19 80 -73 125 -160 125zM287 781l-125 108v16h109l50 -64l50 64h109v-16l-125 -108h-68z" />
    <glyph glyph-name="Scedilla" unicode="&#x15e;" horiz-adv-x="642" 
d="M314 605c-76 0 -125 -37 -125 -85c0 -64 71 -94 179 -115c161 -31 241 -93 241 -205c0 -120 -111 -210 -273 -210c-67 0 -129 16 -188 48c-58 33 -99 88 -124 167l105 65c25 -113 100 -175 208 -175c95 0 157 41 157 100c0 56 -45 90 -165 110c-161 28 -250 91 -250 214
c0 103 99 191 245 191c117 0 216 -62 255 -170l-105 -60c-19 80 -73 125 -160 125zM337 -51c12 13 32 21 48 21c45 0 78 -29 78 -77c0 -51 -34 -81 -85 -81c-47 0 -82 22 -90 66l53 13c3 -17 16 -29 35 -29c21 0 34 12 34 31s-13 32 -34 32c-15 0 -27 -7 -34 -18l-52 10
c7 24 13 57 20 99h56c-9 -26 -18 -48 -29 -67z" />
    <glyph glyph-name="Scircumflex" unicode="&#x15c;" horiz-adv-x="642" 
d="M314 605c-76 0 -125 -37 -125 -85c0 -64 71 -94 179 -115c161 -31 241 -93 241 -205c0 -120 -111 -210 -273 -210c-67 0 -129 16 -188 48c-58 33 -99 88 -124 167l105 65c25 -113 100 -175 208 -175c95 0 157 41 157 100c0 56 -45 90 -165 110c-161 28 -250 91 -250 214
c0 103 99 191 245 191c117 0 216 -62 255 -170l-105 -60c-19 80 -73 125 -160 125zM162 781v16l125 108h68l125 -108v-16h-109l-50 64l-50 -64h-109z" />
    <glyph glyph-name="Scommaaccent" unicode="&#x218;" horiz-adv-x="642" 
d="M314 605c-76 0 -125 -37 -125 -85c0 -64 71 -94 179 -115c161 -31 241 -93 241 -205c0 -120 -111 -210 -273 -210c-67 0 -129 16 -188 48c-58 33 -99 88 -124 167l105 65c25 -113 100 -175 208 -175c95 0 157 41 157 100c0 56 -45 90 -165 110c-161 28 -250 91 -250 214
c0 103 99 191 245 191c117 0 216 -62 255 -170l-105 -60c-19 80 -73 125 -160 125zM244 -265l13 60c15 -6 29 -9 43 -9c20 0 34 11 34 30c0 20 -14 30 -34 30h-26v102h118v-130c0 -65 -40 -92 -91 -92c-20 0 -39 3 -57 9z" />
    <glyph glyph-name="uni1E9E" unicode="&#x1e9e;" horiz-adv-x="703" 
d="M206 115l98 56c17 -48 61 -75 116 -75c63 0 127 50 127 127s-63 121 -127 121c-41 0 -81 -19 -102 -46l-75 67l222 230h-126c-120 0 -165 -45 -165 -165v-430h-110v430c0 189 81 270 274 270h268v-105l-174 -176c10 3 23 4 40 4c101 0 185 -79 185 -200
c0 -138 -100 -232 -237 -232c-105 0 -179 47 -214 124z" />
    <glyph glyph-name="T" unicode="T" horiz-adv-x="676" 
d="M648 700v-105h-255v-595h-110v595h-255v105h620z" />
    <glyph glyph-name="Tbar" unicode="&#x166;" horiz-adv-x="676" 
d="M648 700v-105h-255v-595h-110v595h-255v105h620zM141 395h394v-90h-394v90z" />
    <glyph glyph-name="Tcaron" unicode="&#x164;" horiz-adv-x="676" 
d="M648 700v-105h-255v-595h-110v595h-255v105h620zM304 781l-125 108v16h109l50 -64l50 64h109v-16l-125 -108h-68z" />
    <glyph glyph-name="uni0162" unicode="&#x162;" horiz-adv-x="676" 
d="M648 700v-105h-255v-595h-110v595h-255v105h620zM341 -51c12 13 32 21 48 21c45 0 78 -29 78 -77c0 -51 -34 -81 -85 -81c-47 0 -82 22 -90 66l53 13c3 -17 16 -29 35 -29c21 0 34 12 34 31s-13 32 -34 32c-15 0 -27 -7 -34 -18l-52 10c7 24 13 57 20 99h56
c-9 -26 -18 -48 -29 -67z" />
    <glyph glyph-name="uni021A" unicode="&#x21a;" horiz-adv-x="676" 
d="M648 700v-105h-255v-595h-110v595h-255v105h620zM248 -265l13 60c15 -6 29 -9 43 -9c20 0 34 11 34 30c0 20 -14 30 -34 30h-26v102h118v-130c0 -65 -40 -92 -91 -92c-20 0 -39 3 -57 9z" />
    <glyph glyph-name="U" unicode="U" horiz-adv-x="712" 
d="M64 700h110v-414c0 -121 74 -191 182 -191s182 70 182 191v414h110v-420c0 -172 -114 -290 -292 -290s-292 118 -292 290v420z" />
    <glyph glyph-name="Uacute" unicode="&#xda;" horiz-adv-x="712" 
d="M64 700h110v-414c0 -121 74 -191 182 -191s182 70 182 191v414h110v-420c0 -172 -114 -290 -292 -290s-292 118 -292 290v420zM306 781l86 133h135v-16l-121 -117h-100z" />
    <glyph glyph-name="Ubreve" unicode="&#x16c;" horiz-adv-x="712" 
d="M64 700h110v-414c0 -121 74 -191 182 -191s182 70 182 191v414h110v-420c0 -172 -114 -290 -292 -290s-292 118 -292 290v420zM481 890c0 -72 -53 -111 -125 -111s-125 39 -125 111c0 6 0 11 1 14h76l-1 -10c0 -25 20 -45 49 -45s49 20 49 45l-1 10h76c1 -3 1 -8 1 -14z
" />
    <glyph glyph-name="Ucircumflex" unicode="&#xdb;" horiz-adv-x="712" 
d="M64 700h110v-414c0 -121 74 -191 182 -191s182 70 182 191v414h110v-420c0 -172 -114 -290 -292 -290s-292 118 -292 290v420zM197 781v16l125 108h68l125 -108v-16h-109l-50 64l-50 -64h-109z" />
    <glyph glyph-name="Udieresis" unicode="&#xdc;" horiz-adv-x="712" 
d="M64 700h110v-414c0 -121 74 -191 182 -191s182 70 182 191v414h110v-420c0 -172 -114 -290 -292 -290s-292 118 -292 290v420zM211 789v112h110v-112h-110zM391 789v112h110v-112h-110z" />
    <glyph glyph-name="Ugrave" unicode="&#xd9;" horiz-adv-x="712" 
d="M64 700h110v-414c0 -121 74 -191 182 -191s182 70 182 191v414h110v-420c0 -172 -114 -290 -292 -290s-292 118 -292 290v420zM306 781l-121 117v16h135l86 -133h-100z" />
    <glyph glyph-name="Uhungarumlaut" unicode="&#x170;" horiz-adv-x="712" 
d="M64 700h110v-414c0 -121 74 -191 182 -191s182 70 182 191v414h110v-420c0 -172 -114 -290 -292 -290s-292 118 -292 290v420zM210 781l86 133h135v-16l-121 -117h-100zM403 781l86 133h135v-16l-121 -117h-100z" />
    <glyph glyph-name="Umacron" unicode="&#x16a;" horiz-adv-x="712" 
d="M64 700h110v-414c0 -121 74 -191 182 -191s182 70 182 191v414h110v-420c0 -172 -114 -290 -292 -290s-292 118 -292 290v420zM226 880h260v-78h-260v78z" />
    <glyph glyph-name="Uogonek" unicode="&#x172;" horiz-adv-x="712" 
d="M64 700h110v-414c0 -121 74 -191 182 -191s182 70 182 191v414h110v-420c0 -172 -114 -290 -292 -290s-292 118 -292 290v420zM376 -190c-55 0 -91 36 -91 84c0 40 22 78 69 106h64c-37 -25 -56 -47 -56 -74c0 -20 16 -34 36 -34c11 0 21 4 32 11l32 -70
c-28 -16 -53 -23 -86 -23z" />
    <glyph glyph-name="Uring" unicode="&#x16e;" horiz-adv-x="712" 
d="M64 700h110v-414c0 -121 74 -191 182 -191s182 70 182 191v414h110v-420c0 -172 -114 -290 -292 -290s-292 118 -292 290v420zM263 853c0 52 41 93 93 93s93 -41 93 -93s-41 -93 -93 -93s-93 41 -93 93zM392 853c0 19 -17 36 -36 36s-36 -17 -36 -36s17 -36 36 -36
s36 17 36 36z" />
    <glyph glyph-name="Utilde" unicode="&#x168;" horiz-adv-x="712" 
d="M64 700h110v-414c0 -121 74 -191 182 -191s182 70 182 191v414h110v-420c0 -172 -114 -290 -292 -290s-292 118 -292 290v420zM339 812c-15 13 -23 19 -38 19c-17 0 -31 -12 -31 -33c0 -3 1 -8 2 -15l-73 10c-1 5 -2 10 -2 15c0 55 41 96 97 96c39 0 58 -12 79 -32
c15 -13 23 -19 38 -19c17 0 31 12 31 33c0 3 -1 8 -2 15l73 -10c1 -5 2 -10 2 -15c0 -55 -41 -96 -97 -96c-39 0 -58 12 -79 32z" />
    <glyph glyph-name="V" unicode="V" horiz-adv-x="748" 
d="M374 89l240 611h124l-288 -700h-152l-288 700h124z" />
    <glyph glyph-name="W" unicode="W" horiz-adv-x="1004" 
d="M177 0l-165 700h115l140 -623l140 623h190l140 -623l140 623h115l-165 -700h-180l-145 627l-145 -627h-180z" />
    <glyph glyph-name="Wacute" unicode="&#x1e82;" horiz-adv-x="1004" 
d="M177 0l-165 700h115l140 -623l140 623h190l140 -623l140 623h115l-165 -700h-180l-145 627l-145 -627h-180zM452 781l86 133h135v-16l-121 -117h-100z" />
    <glyph glyph-name="Wcircumflex" unicode="&#x174;" horiz-adv-x="1004" 
d="M177 0l-165 700h115l140 -623l140 623h190l140 -623l140 623h115l-165 -700h-180l-145 627l-145 -627h-180zM343 781v16l125 108h68l125 -108v-16h-109l-50 64l-50 -64h-109z" />
    <glyph glyph-name="Wdieresis" unicode="&#x1e84;" horiz-adv-x="1004" 
d="M177 0l-165 700h115l140 -623l140 623h190l140 -623l140 623h115l-165 -700h-180l-145 627l-145 -627h-180zM357 789v112h110v-112h-110zM537 789v112h110v-112h-110z" />
    <glyph glyph-name="Wgrave" unicode="&#x1e80;" horiz-adv-x="1004" 
d="M177 0l-165 700h115l140 -623l140 623h190l140 -623l140 623h115l-165 -700h-180l-145 627l-145 -627h-180zM452 781l-121 117v16h135l86 -133h-100z" />
    <glyph glyph-name="X" unicode="X" horiz-adv-x="692" 
d="M16 0l265 380l-225 320h135l155 -235l155 235h135l-225 -320l265 -380h-135l-195 290l-195 -290h-135z" />
    <glyph glyph-name="Y" unicode="Y" horiz-adv-x="694" 
d="M147 700l200 -318l210 318h125l-280 -415v-285h-110v285l-280 415h135z" />
    <glyph glyph-name="Yacute" unicode="&#xdd;" horiz-adv-x="694" 
d="M147 700l200 -318l210 318h125l-280 -415v-285h-110v285l-280 415h135zM297 781l86 133h135v-16l-121 -117h-100z" />
    <glyph glyph-name="Ycircumflex" unicode="&#x176;" horiz-adv-x="694" 
d="M147 700l200 -318l210 318h125l-280 -415v-285h-110v285l-280 415h135zM188 781v16l125 108h68l125 -108v-16h-109l-50 64l-50 -64h-109z" />
    <glyph glyph-name="Ydieresis" unicode="&#x178;" horiz-adv-x="694" 
d="M147 700l200 -318l210 318h125l-280 -415v-285h-110v285l-280 415h135zM202 789v112h110v-112h-110zM382 789v112h110v-112h-110z" />
    <glyph glyph-name="Ygrave" unicode="&#x1ef2;" horiz-adv-x="694" 
d="M147 700l200 -318l210 318h125l-280 -415v-285h-110v285l-280 415h135zM297 781l-121 117v16h135l86 -133h-100z" />
    <glyph glyph-name="Z" unicode="Z" horiz-adv-x="707" 
d="M50 105l455 490h-450v105h595v-105l-455 -490h460v-105h-605v105z" />
    <glyph glyph-name="Zacute" unicode="&#x179;" horiz-adv-x="707" 
d="M50 105l455 490h-450v105h595v-105l-455 -490h460v-105h-605v105zM300 781l86 133h135v-16l-121 -117h-100z" />
    <glyph glyph-name="Zcaron" unicode="&#x17d;" horiz-adv-x="707" 
d="M50 105l455 490h-450v105h595v-105l-455 -490h460v-105h-605v105zM316 781l-125 108v16h109l50 -64l50 64h109v-16l-125 -108h-68z" />
    <glyph glyph-name="Zdotaccent" unicode="&#x17b;" horiz-adv-x="707" 
d="M50 105l455 490h-450v105h595v-105l-455 -490h460v-105h-605v105zM292 904h115v-115h-115v115z" />
    <glyph glyph-name="uni01B5" unicode="&#x1b5;" horiz-adv-x="600" 
d="M195 105h460v-105h-605v105l184 198h-154v95h242l183 197h-450v105h595v-105l-183 -197h137v-95h-225z" />
    <glyph glyph-name="Adieresis.ss01" horiz-adv-x="752" 
d="M12 0l288 700h152l288 -700h-124l-67 170h-346l-67 -170h-124zM242 270h268l-134 339zM216 845c0 36 29 65 65 65s65 -29 65 -65s-29 -65 -65 -65s-65 29 -65 65zM406 845c0 36 29 65 65 65s65 -29 65 -65s-29 -65 -65 -65s-65 29 -65 65z" />
    <glyph glyph-name="Cdotaccent.ss01" horiz-adv-x="784" 
d="M157 350c0 -163 98 -260 240 -260c73 0 131 21 174 63s70 94 81 157l100 -40c-36 -162 -163 -280 -355 -280c-211 -3 -357 157 -355 360c-4 201 156 364 355 360c178 0 283 -109 315 -235l-100 -45c-21 105 -96 180 -215 180c-136 0 -240 -103 -240 -260zM391 914
c37 0 68 -29 68 -68c0 -37 -29 -67 -68 -67s-67 30 -67 67c0 39 30 68 67 68z" />
    <glyph glyph-name="Edieresis.ss01" horiz-adv-x="642" 
d="M72 700h510v-105h-400v-180h370v-105h-370v-205h410v-105h-520v700zM167 845c0 36 29 65 65 65s65 -29 65 -65s-29 -65 -65 -65s-65 29 -65 65zM357 845c0 36 29 65 65 65s65 -29 65 -65s-29 -65 -65 -65s-65 29 -65 65z" />
    <glyph glyph-name="Edotaccent.ss01" horiz-adv-x="642" 
d="M72 700h510v-105h-400v-180h370v-105h-370v-205h410v-105h-520v700zM326 914c37 0 68 -29 68 -68c0 -37 -29 -67 -68 -67s-67 30 -67 67c0 39 30 68 67 68z" />
    <glyph glyph-name="Gcommaaccent.ss01" horiz-adv-x="791" 
d="M387 -10c-197 -3 -348 153 -345 360c-3 201 153 364 350 360c91 0 166 -23 223 -68c58 -45 96 -104 115 -177l-110 -35c-24 117 -106 175 -225 175c-131 0 -238 -103 -238 -255c0 -149 104 -255 240 -255c124 0 189 93 203 170h-303v105h438v-370h-94v149
c-50 -106 -135 -159 -254 -159zM324 -262l13 59c15 -6 29 -9 40 -9c19 0 29 7 29 21c0 11 -4 13 -24 21c-33 13 -50 34 -50 63c0 39 27 65 63 65c39 0 70 -31 70 -70v-70c0 -60 -31 -90 -90 -90c-19 0 -36 3 -51 10z" />
    <glyph glyph-name="Gdotaccent.ss01" horiz-adv-x="791" 
d="M387 -10c-197 -3 -348 153 -345 360c-3 201 153 364 350 360c91 0 166 -23 223 -68c58 -45 96 -104 115 -177l-110 -35c-24 117 -106 175 -225 175c-131 0 -238 -103 -238 -255c0 -149 104 -255 240 -255c124 0 189 93 203 170h-303v105h438v-370h-94v149
c-50 -106 -135 -159 -254 -159zM391 914c37 0 68 -29 68 -68c0 -37 -29 -67 -68 -67s-67 30 -67 67c0 39 30 68 67 68z" />
    <glyph glyph-name="Idieresis.ss01" horiz-adv-x="254" 
d="M72 0v700h110v-700h-110zM-33 845c0 36 29 65 65 65s65 -29 65 -65s-29 -65 -65 -65s-65 29 -65 65zM157 845c0 36 29 65 65 65s65 -29 65 -65s-29 -65 -65 -65s-65 29 -65 65z" />
    <glyph glyph-name="Idotaccent.ss01" horiz-adv-x="254" 
d="M72 0v700h110v-700h-110zM126 914c37 0 68 -29 68 -68c0 -37 -29 -67 -68 -67s-67 30 -67 67c0 39 30 68 67 68z" />
    <glyph glyph-name="Kcommaaccent.ss01" horiz-adv-x="687" 
d="M394 426l273 -426h-135l-216 343l-134 -143v-200h-110v700h110v-347l325 347h145zM286 -262l13 59c15 -6 29 -9 40 -9c19 0 29 7 29 21c0 11 -4 13 -24 21c-33 13 -50 34 -50 63c0 39 27 65 63 65c39 0 70 -31 70 -70v-70c0 -60 -31 -90 -90 -90c-19 0 -36 3 -51 10z" />
    <glyph glyph-name="Lcaron.ss01" horiz-adv-x="642" 
d="M72 700h110v-595h420v-105h-530v700zM474 474v60h54c15 0 23 7 23 18c0 10 -7 16 -22 19c-33 7 -58 34 -58 69c0 39 31 70 70 70s70 -31 70 -70v-70c0 -65 -34 -96 -90 -96h-47z" />
    <glyph glyph-name="Lcommaaccent.ss01" horiz-adv-x="642" 
d="M72 700h110v-595h420v-105h-530v700zM257 -262l13 59c15 -6 29 -9 40 -9c19 0 29 7 29 21c0 11 -4 13 -24 21c-33 13 -50 34 -50 63c0 39 27 65 63 65c39 0 70 -31 70 -70v-70c0 -60 -31 -90 -90 -90c-19 0 -36 3 -51 10z" />
    <glyph glyph-name="Ldot.ss01" horiz-adv-x="642" 
d="M72 700h110v-595h420v-105h-530v700zM372 350c0 39 31 70 70 70s70 -31 70 -70s-31 -70 -70 -70s-70 31 -70 70z" />
    <glyph glyph-name="Ncommaaccent.ss01" horiz-adv-x="771" 
d="M182 620v-620h-110v700h191l326 -621v621h110v-700h-191zM315 -262l13 59c15 -6 29 -9 40 -9c19 0 29 7 29 21c0 11 -4 13 -24 21c-33 13 -50 34 -50 63c0 39 27 65 63 65c39 0 70 -31 70 -70v-70c0 -60 -31 -90 -90 -90c-19 0 -36 3 -51 10z" />
    <glyph glyph-name="Odieresis.ss01" horiz-adv-x="814" 
d="M407 710c200 4 369 -164 365 -360c4 -197 -165 -364 -365 -360c-200 -4 -369 163 -365 360c-4 196 165 364 365 360zM407 95c138 0 250 104 250 255s-109 255 -250 255s-250 -106 -250 -256c0 -152 112 -254 250 -254zM247 845c0 36 29 65 65 65s65 -29 65 -65
s-29 -65 -65 -65s-65 29 -65 65zM437 845c0 36 29 65 65 65s65 -29 65 -65s-29 -65 -65 -65s-65 29 -65 65z" />
    <glyph glyph-name="Rcommaaccent.ss01" horiz-adv-x="681" 
d="M637 0h-135c-9 17 -15 37 -19 58c-4 22 -6 56 -6 102c0 97 -44 130 -125 130h-170v-290h-110v700h335c141 0 225 -83 225 -190c0 -89 -52 -154 -140 -185c68 -27 106 -77 110 -166c2 -41 5 -71 8 -91c4 -19 13 -37 27 -52v-16zM182 395h215c76 0 120 36 120 100
s-44 100 -120 100h-215v-200zM274 -262l13 59c15 -6 29 -9 40 -9c19 0 29 7 29 21c0 11 -4 13 -24 21c-33 13 -50 34 -50 63c0 39 27 65 63 65c39 0 70 -31 70 -70v-70c0 -60 -31 -90 -90 -90c-19 0 -36 3 -51 10z" />
    <glyph glyph-name="Scommaaccent.ss01" horiz-adv-x="642" 
d="M314 605c-76 0 -125 -37 -125 -85c0 -64 71 -94 179 -115c161 -31 241 -93 241 -205c0 -120 -111 -210 -273 -210c-67 0 -129 16 -188 48c-58 33 -99 88 -124 167l105 65c25 -113 100 -175 208 -175c95 0 157 41 157 100c0 56 -45 90 -165 110c-161 28 -250 91 -250 214
c0 103 99 191 245 191c117 0 216 -62 255 -170l-105 -60c-19 80 -73 125 -160 125zM263 -262l13 59c15 -6 29 -9 40 -9c19 0 29 7 29 21c0 11 -4 13 -24 21c-33 13 -50 34 -50 63c0 39 27 65 63 65c39 0 70 -31 70 -70v-70c0 -60 -31 -90 -90 -90c-19 0 -36 3 -51 10z" />
    <glyph glyph-name="uni021A.ss01" horiz-adv-x="676" 
d="M648 700v-105h-255v-595h-110v595h-255v105h620zM267 -262l13 59c15 -6 29 -9 40 -9c19 0 29 7 29 21c0 11 -4 13 -24 21c-33 13 -50 34 -50 63c0 39 27 65 63 65c39 0 70 -31 70 -70v-70c0 -60 -31 -90 -90 -90c-19 0 -36 3 -51 10z" />
    <glyph glyph-name="Udieresis.ss01" horiz-adv-x="712" 
d="M64 700h110v-414c0 -121 74 -191 182 -191s182 70 182 191v414h110v-420c0 -172 -114 -290 -292 -290s-292 118 -292 290v420zM196 845c0 36 29 65 65 65s65 -29 65 -65s-29 -65 -65 -65s-65 29 -65 65zM386 845c0 36 29 65 65 65s65 -29 65 -65s-29 -65 -65 -65
s-65 29 -65 65z" />
    <glyph glyph-name="Wdieresis.ss01" horiz-adv-x="1004" 
d="M177 0l-165 700h115l140 -623l140 623h190l140 -623l140 623h115l-165 -700h-180l-145 627l-145 -627h-180zM342 845c0 36 29 65 65 65s65 -29 65 -65s-29 -65 -65 -65s-65 29 -65 65zM532 845c0 36 29 65 65 65s65 -29 65 -65s-29 -65 -65 -65s-65 29 -65 65z" />
    <glyph glyph-name="Ydieresis.ss01" horiz-adv-x="694" 
d="M147 700l200 -318l210 318h125l-280 -415v-285h-110v285l-280 415h135zM187 845c0 36 29 65 65 65s65 -29 65 -65s-29 -65 -65 -65s-65 29 -65 65zM377 845c0 36 29 65 65 65s65 -29 65 -65s-29 -65 -65 -65s-65 29 -65 65z" />
    <glyph glyph-name="Zdotaccent.ss01" horiz-adv-x="707" 
d="M50 105l455 490h-450v105h595v-105l-455 -490h460v-105h-605v105zM349 914c37 0 68 -29 68 -68c0 -37 -29 -67 -68 -67s-67 30 -67 67c0 39 30 68 67 68z" />
    <glyph glyph-name="a" unicode="a" horiz-adv-x="524" 
d="M45 135c0 103 76 152 181 152c29 0 57 -3 84 -10l50 -12v35c0 63 -47 99 -110 99s-104 -37 -115 -94l-95 25c21 93 94 154 210 154c135 0 210 -69 210 -189v-295h-100v80c-21 -53 -75 -90 -159 -90c-78 0 -156 54 -156 145zM360 180v5l-38 10c-34 9 -60 13 -79 13
c-53 0 -88 -20 -88 -63c0 -37 28 -65 88 -65c69 0 117 37 117 100z" />
    <glyph glyph-name="aacute" unicode="&#xe1;" horiz-adv-x="524" 
d="M45 135c0 103 76 152 181 152c29 0 57 -3 84 -10l50 -12v35c0 63 -47 99 -110 99s-104 -37 -115 -94l-95 25c21 93 94 154 210 154c135 0 210 -69 210 -189v-295h-100v80c-21 -53 -75 -90 -159 -90c-78 0 -156 54 -156 145zM360 180v5l-38 10c-34 9 -60 13 -79 13
c-53 0 -88 -20 -88 -63c0 -37 28 -65 88 -65c69 0 117 37 117 100zM200 555l86 133h135v-16l-121 -117h-100z" />
    <glyph glyph-name="abreve" unicode="&#x103;" horiz-adv-x="524" 
d="M45 135c0 103 76 152 181 152c29 0 57 -3 84 -10l50 -12v35c0 63 -47 99 -110 99s-104 -37 -115 -94l-95 25c21 93 94 154 210 154c135 0 210 -69 210 -189v-295h-100v80c-21 -53 -75 -90 -159 -90c-78 0 -156 54 -156 145zM360 180v5l-38 10c-34 9 -60 13 -79 13
c-53 0 -88 -20 -88 -63c0 -37 28 -65 88 -65c69 0 117 37 117 100zM375 664c0 -72 -53 -111 -125 -111s-125 39 -125 111c0 6 0 11 1 14h76l-1 -10c0 -25 20 -45 49 -45s49 20 49 45l-1 10h76c1 -3 1 -8 1 -14z" />
    <glyph glyph-name="acircumflex" unicode="&#xe2;" horiz-adv-x="524" 
d="M45 135c0 103 76 152 181 152c29 0 57 -3 84 -10l50 -12v35c0 63 -47 99 -110 99s-104 -37 -115 -94l-95 25c21 93 94 154 210 154c135 0 210 -69 210 -189v-295h-100v80c-21 -53 -75 -90 -159 -90c-78 0 -156 54 -156 145zM360 180v5l-38 10c-34 9 -60 13 -79 13
c-53 0 -88 -20 -88 -63c0 -37 28 -65 88 -65c69 0 117 37 117 100zM91 555v16l125 108h68l125 -108v-16h-109l-50 64l-50 -64h-109z" />
    <glyph glyph-name="adieresis" unicode="&#xe4;" horiz-adv-x="524" 
d="M45 135c0 103 76 152 181 152c29 0 57 -3 84 -10l50 -12v35c0 63 -47 99 -110 99s-104 -37 -115 -94l-95 25c21 93 94 154 210 154c135 0 210 -69 210 -189v-295h-100v80c-21 -53 -75 -90 -159 -90c-78 0 -156 54 -156 145zM360 180v5l-38 10c-34 9 -60 13 -79 13
c-53 0 -88 -20 -88 -63c0 -37 28 -65 88 -65c69 0 117 37 117 100zM105 563v112h110v-112h-110zM285 563v112h110v-112h-110z" />
    <glyph glyph-name="agrave" unicode="&#xe0;" horiz-adv-x="524" 
d="M45 135c0 103 76 152 181 152c29 0 57 -3 84 -10l50 -12v35c0 63 -47 99 -110 99s-104 -37 -115 -94l-95 25c21 93 94 154 210 154c135 0 210 -69 210 -189v-295h-100v80c-21 -53 -75 -90 -159 -90c-78 0 -156 54 -156 145zM360 180v5l-38 10c-34 9 -60 13 -79 13
c-53 0 -88 -20 -88 -63c0 -37 28 -65 88 -65c69 0 117 37 117 100zM200 555l-121 117v16h135l86 -133h-100z" />
    <glyph glyph-name="amacron" unicode="&#x101;" horiz-adv-x="524" 
d="M45 135c0 103 76 152 181 152c29 0 57 -3 84 -10l50 -12v35c0 63 -47 99 -110 99s-104 -37 -115 -94l-95 25c21 93 94 154 210 154c135 0 210 -69 210 -189v-295h-100v80c-21 -53 -75 -90 -159 -90c-78 0 -156 54 -156 145zM360 180v5l-38 10c-34 9 -60 13 -79 13
c-53 0 -88 -20 -88 -63c0 -37 28 -65 88 -65c69 0 117 37 117 100zM120 654h260v-78h-260v78z" />
    <glyph glyph-name="aogonek" unicode="&#x105;" horiz-adv-x="524" 
d="M45 135c0 103 76 152 181 152c29 0 57 -3 84 -10l50 -12v35c0 63 -47 99 -110 99s-104 -37 -115 -94l-95 25c21 93 94 154 210 154c135 0 210 -69 210 -189v-295h-100v80c-21 -53 -75 -90 -159 -90c-78 0 -156 54 -156 145zM360 180v5l-38 10c-34 9 -60 13 -79 13
c-53 0 -88 -20 -88 -63c0 -37 28 -65 88 -65c69 0 117 37 117 100zM418 -190c-55 0 -91 36 -91 84c0 40 22 78 69 106h64c-37 -25 -56 -47 -56 -74c0 -20 16 -34 36 -34c11 0 21 4 32 11l32 -70c-28 -16 -53 -23 -86 -23z" />
    <glyph glyph-name="aring" unicode="&#xe5;" horiz-adv-x="524" 
d="M45 135c0 103 76 152 181 152c29 0 57 -3 84 -10l50 -12v35c0 63 -47 99 -110 99s-104 -37 -115 -94l-95 25c21 93 94 154 210 154c135 0 210 -69 210 -189v-295h-100v80c-21 -53 -75 -90 -159 -90c-78 0 -156 54 -156 145zM360 180v5l-38 10c-34 9 -60 13 -79 13
c-53 0 -88 -20 -88 -63c0 -37 28 -65 88 -65c69 0 117 37 117 100zM157 627c0 52 41 93 93 93s93 -41 93 -93s-41 -93 -93 -93s-93 41 -93 93zM286 627c0 19 -17 36 -36 36s-36 -17 -36 -36s17 -36 36 -36s36 17 36 36z" />
    <glyph glyph-name="aringacute" unicode="&#x1fb;" horiz-adv-x="524" 
d="M45 135c0 103 76 152 181 152c29 0 57 -3 84 -10l50 -12v35c0 63 -47 99 -110 99s-104 -37 -115 -94l-95 25c21 93 94 154 210 154c135 0 210 -69 210 -189v-295h-100v80c-21 -53 -75 -90 -159 -90c-78 0 -156 54 -156 145zM360 180v5l-38 10c-34 9 -60 13 -79 13
c-53 0 -88 -20 -88 -63c0 -37 28 -65 88 -65c69 0 117 37 117 100zM157 627c0 52 41 93 93 93s93 -41 93 -93s-41 -93 -93 -93s-93 41 -93 93zM286 627c0 19 -17 36 -36 36s-36 -17 -36 -36s17 -36 36 -36s36 17 36 36zM200 691l86 133h135v-16l-121 -117h-100z" />
    <glyph glyph-name="atilde" unicode="&#xe3;" horiz-adv-x="524" 
d="M45 135c0 103 76 152 181 152c29 0 57 -3 84 -10l50 -12v35c0 63 -47 99 -110 99s-104 -37 -115 -94l-95 25c21 93 94 154 210 154c135 0 210 -69 210 -189v-295h-100v80c-21 -53 -75 -90 -159 -90c-78 0 -156 54 -156 145zM360 180v5l-38 10c-34 9 -60 13 -79 13
c-53 0 -88 -20 -88 -63c0 -37 28 -65 88 -65c69 0 117 37 117 100zM233 586c-15 13 -23 19 -38 19c-17 0 -31 -12 -31 -33c0 -3 1 -8 2 -15l-73 10c-1 5 -2 10 -2 15c0 55 41 96 97 96c39 0 58 -12 79 -32c15 -13 23 -19 38 -19c17 0 31 12 31 33c0 3 -1 8 -2 15l73 -10
c1 -5 2 -10 2 -15c0 -55 -41 -96 -97 -96c-39 0 -58 12 -79 32z" />
    <glyph glyph-name="ae" unicode="&#xe6;" horiz-adv-x="853" 
d="M45 140c0 101 70 150 178 150h136v10c0 63 -47 99 -115 99c-64 0 -105 -33 -114 -86l-90 25c24 97 92 146 205 146c83 0 146 -29 178 -78c35 48 98 78 166 78c124 0 214 -80 214 -209c0 -19 -2 -37 -5 -55h-335c0 -95 70 -142 142 -142c68 0 113 37 128 102l90 -35
c-33 -99 -107 -155 -219 -155c-91 0 -165 43 -193 108c-44 -72 -111 -108 -202 -108c-97 0 -164 67 -164 150zM463 290h235l1 9c0 59 -47 95 -111 95c-65 0 -116 -40 -125 -104zM359 185v29h-112c-57 0 -95 -25 -95 -70c0 -40 29 -64 80 -64c76 0 127 41 127 105z" />
    <glyph glyph-name="aeacute" unicode="&#x1fd;" horiz-adv-x="853" 
d="M45 140c0 101 70 150 178 150h136v10c0 63 -47 99 -115 99c-64 0 -105 -33 -114 -86l-90 25c24 97 92 146 205 146c83 0 146 -29 178 -78c35 48 98 78 166 78c124 0 214 -80 214 -209c0 -19 -2 -37 -5 -55h-335c0 -95 70 -142 142 -142c68 0 113 37 128 102l90 -35
c-33 -99 -107 -155 -219 -155c-91 0 -165 43 -193 108c-44 -72 -111 -108 -202 -108c-97 0 -164 67 -164 150zM463 290h235l1 9c0 59 -47 95 -111 95c-65 0 -116 -40 -125 -104zM359 185v29h-112c-57 0 -95 -25 -95 -70c0 -40 29 -64 80 -64c76 0 127 41 127 105zM373 555
l86 133h135v-16l-121 -117h-100z" />
    <glyph glyph-name="b" unicode="b" horiz-adv-x="580" 
d="M64 700h105v-310c32 57 95 94 160 94c129 0 215 -105 215 -250s-90 -244 -225 -244c-63 0 -121 27 -154 80v-70h-101v700zM302 83c76 0 137 60 137 151s-62 155 -137 155c-70 0 -137 -63 -137 -155s65 -151 137 -151z" />
    <glyph glyph-name="c" unicode="c" horiz-adv-x="554" 
d="M286 80c88 0 134 56 145 135l95 -35c-24 -121 -116 -190 -235 -190c-154 0 -255 100 -255 250c0 143 109 244 240 244c117 0 205 -66 225 -174l-95 -30c-11 71 -61 114 -130 114s-140 -54 -140 -154c0 -97 74 -160 150 -160z" />
    <glyph glyph-name="cacute" unicode="&#x107;" horiz-adv-x="554" 
d="M286 80c88 0 134 56 145 135l95 -35c-24 -121 -116 -190 -235 -190c-154 0 -255 100 -255 250c0 143 109 244 240 244c117 0 205 -66 225 -174l-95 -30c-11 71 -61 114 -130 114s-140 -54 -140 -154c0 -97 74 -160 150 -160zM226 555l86 133h135v-16l-121 -117h-100z" />
    <glyph glyph-name="ccaron" unicode="&#x10d;" horiz-adv-x="554" 
d="M286 80c88 0 134 56 145 135l95 -35c-24 -121 -116 -190 -235 -190c-154 0 -255 100 -255 250c0 143 109 244 240 244c117 0 205 -66 225 -174l-95 -30c-11 71 -61 114 -130 114s-140 -54 -140 -154c0 -97 74 -160 150 -160zM242 555l-125 108v16h109l50 -64l50 64h109
v-16l-125 -108h-68z" />
    <glyph glyph-name="ccedilla" unicode="&#xe7;" horiz-adv-x="554" 
d="M286 80c88 0 134 56 145 135l95 -35c-24 -121 -116 -190 -235 -190c-154 0 -255 100 -255 250c0 143 109 244 240 244c117 0 205 -66 225 -174l-95 -30c-11 71 -61 114 -130 114s-140 -54 -140 -154c0 -97 74 -160 150 -160zM258 -51c12 13 32 21 48 21
c45 0 78 -29 78 -77c0 -51 -34 -81 -85 -81c-47 0 -82 22 -90 66l53 13c3 -17 16 -29 35 -29c21 0 34 12 34 31s-13 32 -34 32c-15 0 -27 -7 -34 -18l-52 10c7 24 13 57 20 99h56c-9 -26 -18 -48 -29 -67z" />
    <glyph glyph-name="ccircumflex" unicode="&#x109;" horiz-adv-x="554" 
d="M286 80c88 0 134 56 145 135l95 -35c-24 -121 -116 -190 -235 -190c-154 0 -255 100 -255 250c0 143 109 244 240 244c117 0 205 -66 225 -174l-95 -30c-11 71 -61 114 -130 114s-140 -54 -140 -154c0 -97 74 -160 150 -160zM117 555v16l125 108h68l125 -108v-16h-109
l-50 64l-50 -64h-109z" />
    <glyph glyph-name="cdotaccent" unicode="&#x10b;" horiz-adv-x="554" 
d="M286 80c88 0 134 56 145 135l95 -35c-24 -121 -116 -190 -235 -190c-154 0 -255 100 -255 250c0 143 109 244 240 244c117 0 205 -66 225 -174l-95 -30c-11 71 -61 114 -130 114s-140 -54 -140 -154c0 -97 74 -160 150 -160zM218 555v115h115v-115h-115z" />
    <glyph glyph-name="d" unicode="d" horiz-adv-x="580" 
d="M36 234c0 145 87 250 220 250c73 0 128 -37 155 -94v310h105v-700h-101v80c-29 -57 -88 -90 -159 -90c-133 0 -220 103 -220 244zM415 234c0 93 -65 155 -137 155c-75 0 -137 -64 -137 -155c0 -45 13 -82 39 -110c27 -27 59 -41 98 -41c72 0 137 58 137 151z" />
    <glyph glyph-name="eth" unicode="&#xf0;" horiz-adv-x="552" 
d="M36 235c0 140 94 249 232 249c48 0 97 -20 122 -51c-19 45 -44 84 -75 117l-29 -34l-59 50l31 36c-7 5 -22 17 -47 34l62 74c21 -16 37 -28 47 -37l33 37l59 -50l-35 -40c88 -93 139 -210 139 -370c0 -153 -93 -260 -240 -260c-143 0 -240 105 -240 245zM411 235
c0 91 -55 154 -135 154s-135 -63 -135 -154c0 -89 55 -150 135 -150s135 61 135 150z" />
    <glyph glyph-name="dcaron" unicode="&#x10f;" horiz-adv-x="696" 
d="M36 234c0 145 87 250 220 250c73 0 128 -37 155 -94v310h105v-700h-101v80c-29 -57 -88 -90 -159 -90c-133 0 -220 103 -220 244zM415 234c0 93 -65 155 -137 155c-75 0 -137 -64 -137 -155c0 -45 13 -82 39 -110c27 -27 59 -41 98 -41c72 0 137 58 137 151zM569 474v60
h23c29 0 44 10 44 30s-14 30 -34 30h-26v106h120v-131c0 -69 -46 -95 -110 -95h-17z" />
    <glyph glyph-name="dslash" unicode="&#x111;" horiz-adv-x="580" 
d="M36 234c0 145 87 250 220 250c73 0 128 -37 155 -94v310h105v-700h-101v80c-29 -57 -88 -90 -159 -90c-133 0 -220 103 -220 244zM415 234c0 93 -65 155 -137 155c-75 0 -137 -64 -137 -155c0 -45 13 -82 39 -110c27 -27 59 -41 98 -41c72 0 137 58 137 151zM266 639h314
v-85h-314v85z" />
    <glyph glyph-name="e" unicode="e" horiz-adv-x="531" 
d="M411 180l90 -35c-33 -99 -107 -155 -219 -155c-146 0 -246 97 -246 250c0 136 92 244 231 244c124 0 214 -80 214 -209c0 -19 -2 -37 -5 -55h-335c0 -46 14 -81 42 -105c29 -23 62 -35 100 -35c68 0 113 35 128 100zM141 290h235l1 9c0 59 -47 95 -111 95
c-65 0 -116 -40 -125 -104z" />
    <glyph glyph-name="eacute" unicode="&#xe9;" horiz-adv-x="531" 
d="M411 180l90 -35c-33 -99 -107 -155 -219 -155c-146 0 -246 97 -246 250c0 136 92 244 231 244c124 0 214 -80 214 -209c0 -19 -2 -37 -5 -55h-335c0 -46 14 -81 42 -105c29 -23 62 -35 100 -35c68 0 113 35 128 100zM141 290h235l1 9c0 59 -47 95 -111 95
c-65 0 -116 -40 -125 -104zM217 555l86 133h135v-16l-121 -117h-100z" />
    <glyph glyph-name="ebreve" unicode="&#x115;" horiz-adv-x="531" 
d="M411 180l90 -35c-33 -99 -107 -155 -219 -155c-146 0 -246 97 -246 250c0 136 92 244 231 244c124 0 214 -80 214 -209c0 -19 -2 -37 -5 -55h-335c0 -46 14 -81 42 -105c29 -23 62 -35 100 -35c68 0 113 35 128 100zM141 290h235l1 9c0 59 -47 95 -111 95
c-65 0 -116 -40 -125 -104zM392 664c0 -72 -53 -111 -125 -111s-125 39 -125 111c0 6 0 11 1 14h76l-1 -10c0 -25 20 -45 49 -45s49 20 49 45l-1 10h76c1 -3 1 -8 1 -14z" />
    <glyph glyph-name="ecaron" unicode="&#x11b;" horiz-adv-x="531" 
d="M411 180l90 -35c-33 -99 -107 -155 -219 -155c-146 0 -246 97 -246 250c0 136 92 244 231 244c124 0 214 -80 214 -209c0 -19 -2 -37 -5 -55h-335c0 -46 14 -81 42 -105c29 -23 62 -35 100 -35c68 0 113 35 128 100zM141 290h235l1 9c0 59 -47 95 -111 95
c-65 0 -116 -40 -125 -104zM233 555l-125 108v16h109l50 -64l50 64h109v-16l-125 -108h-68z" />
    <glyph glyph-name="ecircumflex" unicode="&#xea;" horiz-adv-x="531" 
d="M411 180l90 -35c-33 -99 -107 -155 -219 -155c-146 0 -246 97 -246 250c0 136 92 244 231 244c124 0 214 -80 214 -209c0 -19 -2 -37 -5 -55h-335c0 -46 14 -81 42 -105c29 -23 62 -35 100 -35c68 0 113 35 128 100zM141 290h235l1 9c0 59 -47 95 -111 95
c-65 0 -116 -40 -125 -104zM108 555v16l125 108h68l125 -108v-16h-109l-50 64l-50 -64h-109z" />
    <glyph glyph-name="edieresis" unicode="&#xeb;" horiz-adv-x="531" 
d="M411 180l90 -35c-33 -99 -107 -155 -219 -155c-146 0 -246 97 -246 250c0 136 92 244 231 244c124 0 214 -80 214 -209c0 -19 -2 -37 -5 -55h-335c0 -46 14 -81 42 -105c29 -23 62 -35 100 -35c68 0 113 35 128 100zM141 290h235l1 9c0 59 -47 95 -111 95
c-65 0 -116 -40 -125 -104zM122 563v112h110v-112h-110zM302 563v112h110v-112h-110z" />
    <glyph glyph-name="edotaccent" unicode="&#x117;" horiz-adv-x="531" 
d="M411 180l90 -35c-33 -99 -107 -155 -219 -155c-146 0 -246 97 -246 250c0 136 92 244 231 244c124 0 214 -80 214 -209c0 -19 -2 -37 -5 -55h-335c0 -46 14 -81 42 -105c29 -23 62 -35 100 -35c68 0 113 35 128 100zM141 290h235l1 9c0 59 -47 95 -111 95
c-65 0 -116 -40 -125 -104zM209 555v115h115v-115h-115z" />
    <glyph glyph-name="egrave" unicode="&#xe8;" horiz-adv-x="531" 
d="M411 180l90 -35c-33 -99 -107 -155 -219 -155c-146 0 -246 97 -246 250c0 136 92 244 231 244c124 0 214 -80 214 -209c0 -19 -2 -37 -5 -55h-335c0 -46 14 -81 42 -105c29 -23 62 -35 100 -35c68 0 113 35 128 100zM141 290h235l1 9c0 59 -47 95 -111 95
c-65 0 -116 -40 -125 -104zM217 555l-121 117v16h135l86 -133h-100z" />
    <glyph glyph-name="emacron" unicode="&#x113;" horiz-adv-x="531" 
d="M411 180l90 -35c-33 -99 -107 -155 -219 -155c-146 0 -246 97 -246 250c0 136 92 244 231 244c124 0 214 -80 214 -209c0 -19 -2 -37 -5 -55h-335c0 -46 14 -81 42 -105c29 -23 62 -35 100 -35c68 0 113 35 128 100zM141 290h235l1 9c0 59 -47 95 -111 95
c-65 0 -116 -40 -125 -104zM137 654h260v-78h-260v78z" />
    <glyph glyph-name="eogonek" unicode="&#x119;" horiz-adv-x="531" 
d="M411 180l90 -35c-33 -99 -107 -155 -219 -155c-146 0 -246 97 -246 250c0 136 92 244 231 244c124 0 214 -80 214 -209c0 -19 -2 -37 -5 -55h-335c0 -46 14 -81 42 -105c29 -23 62 -35 100 -35c68 0 113 35 128 100zM141 290h235l1 9c0 59 -47 95 -111 95
c-65 0 -116 -40 -125 -104zM302 -190c-55 0 -91 36 -91 84c0 40 22 78 69 106h64c-37 -25 -56 -47 -56 -74c0 -20 16 -34 36 -34c11 0 21 4 32 11l32 -70c-28 -16 -53 -23 -86 -23z" />
    <glyph glyph-name="f" unicode="f" horiz-adv-x="396" 
d="M113 0v384h-104v90h104v76c0 95 66 160 170 160c113 0 166 -65 166 -148c0 -10 0 -18 -1 -23h-100c1 7 2 13 2 20c0 36 -24 61 -67 61c-40 0 -65 -26 -65 -73v-73h130v-90h-130v-384h-105z" />
    <glyph glyph-name="g" unicode="g" horiz-adv-x="580" 
d="M61 -60l95 40c15 -64 63 -98 130 -98c87 0 125 58 125 153v50c-25 -52 -83 -85 -160 -85c-120 0 -215 93 -215 235c0 148 100 249 225 249c72 0 118 -26 150 -74v64h105v-434c0 -75 -20 -135 -60 -180s-97 -68 -170 -68c-117 0 -192 49 -225 148zM415 241
c0 89 -59 153 -137 153c-79 0 -137 -62 -137 -159c0 -89 58 -145 137 -145c39 0 72 14 98 42c26 29 39 65 39 109z" />
    <glyph glyph-name="gbreve" unicode="&#x11f;" horiz-adv-x="580" 
d="M61 -60l95 40c15 -64 63 -98 130 -98c87 0 125 58 125 153v50c-25 -52 -83 -85 -160 -85c-120 0 -215 93 -215 235c0 148 100 249 225 249c72 0 118 -26 150 -74v64h105v-434c0 -75 -20 -135 -60 -180s-97 -68 -170 -68c-117 0 -192 49 -225 148zM415 241
c0 89 -59 153 -137 153c-79 0 -137 -62 -137 -159c0 -89 58 -145 137 -145c39 0 72 14 98 42c26 29 39 65 39 109zM413 664c0 -72 -53 -111 -125 -111s-125 39 -125 111c0 6 0 11 1 14h76l-1 -10c0 -25 20 -45 49 -45s49 20 49 45l-1 10h76c1 -3 1 -8 1 -14z" />
    <glyph glyph-name="gcircumflex" unicode="&#x11d;" horiz-adv-x="580" 
d="M61 -60l95 40c15 -64 63 -98 130 -98c87 0 125 58 125 153v50c-25 -52 -83 -85 -160 -85c-120 0 -215 93 -215 235c0 148 100 249 225 249c72 0 118 -26 150 -74v64h105v-434c0 -75 -20 -135 -60 -180s-97 -68 -170 -68c-117 0 -192 49 -225 148zM415 241
c0 89 -59 153 -137 153c-79 0 -137 -62 -137 -159c0 -89 58 -145 137 -145c39 0 72 14 98 42c26 29 39 65 39 109zM129 555v16l125 108h68l125 -108v-16h-109l-50 64l-50 -64h-109z" />
    <glyph glyph-name="gcommaaccent" unicode="&#x123;" horiz-adv-x="580" 
d="M61 -60l95 40c15 -64 63 -98 130 -98c87 0 125 58 125 153v50c-25 -52 -83 -85 -160 -85c-120 0 -215 93 -215 235c0 148 100 249 225 249c72 0 118 -26 150 -74v64h105v-434c0 -75 -20 -135 -60 -180s-97 -68 -170 -68c-117 0 -192 49 -225 148zM415 241
c0 89 -59 153 -137 153c-79 0 -137 -62 -137 -159c0 -89 58 -145 137 -145c39 0 72 14 98 42c26 29 39 65 39 109zM334 542h-120v150c0 68 45 90 110 90h30v-60h-36c-29 0 -44 -10 -44 -30s13 -30 34 -30h26v-120z" />
    <glyph glyph-name="gdotaccent" unicode="&#x121;" horiz-adv-x="580" 
d="M61 -60l95 40c15 -64 63 -98 130 -98c87 0 125 58 125 153v50c-25 -52 -83 -85 -160 -85c-120 0 -215 93 -215 235c0 148 100 249 225 249c72 0 118 -26 150 -74v64h105v-434c0 -75 -20 -135 -60 -180s-97 -68 -170 -68c-117 0 -192 49 -225 148zM415 241
c0 89 -59 153 -137 153c-79 0 -137 -62 -137 -159c0 -89 58 -145 137 -145c39 0 72 14 98 42c26 29 39 65 39 109zM230 555v115h115v-115h-115z" />
    <glyph glyph-name="h" unicode="h" horiz-adv-x="566" 
d="M169 0h-105v700h105v-323c25 67 85 107 164 107c104 0 169 -71 169 -172v-312h-105v282c0 75 -38 115 -109 115c-68 0 -119 -56 -119 -145v-252z" />
    <glyph glyph-name="hbar" unicode="&#x127;" horiz-adv-x="566" 
d="M169 0h-105v700h105v-323c25 67 85 107 164 107c104 0 169 -71 169 -172v-312h-105v282c0 75 -38 115 -109 115c-68 0 -119 -56 -119 -145v-252zM0 639h314v-85h-314v85z" />
    <glyph glyph-name="hcircumflex" unicode="&#x125;" horiz-adv-x="566" 
d="M169 0h-105v700h105v-323c25 67 85 107 164 107c104 0 169 -71 169 -172v-312h-105v282c0 75 -38 115 -109 115c-68 0 -119 -56 -119 -145v-252zM-43 781v16l125 108h68l125 -108v-16h-109l-50 64l-50 -64h-109z" />
    <glyph glyph-name="i" unicode="i" horiz-adv-x="233" 
d="M64 474h105v-474h-105v474zM59 555v115h115v-115h-115z" />
    <glyph glyph-name="dotlessi" unicode="&#x131;" horiz-adv-x="233" 
d="M64 474h105v-474h-105v474z" />
    <glyph glyph-name="iacute" unicode="&#xed;" horiz-adv-x="233" 
d="M64 474h105v-474h-105v474zM67 555l86 133h135v-16l-121 -117h-100z" />
    <glyph glyph-name="ibreve" unicode="&#x12d;" horiz-adv-x="233" 
d="M64 474h105v-474h-105v474zM242 664c0 -72 -53 -111 -125 -111s-125 39 -125 111c0 6 0 11 1 14h76l-1 -10c0 -25 20 -45 49 -45s49 20 49 45l-1 10h76c1 -3 1 -8 1 -14z" />
    <glyph glyph-name="icircumflex" unicode="&#xee;" horiz-adv-x="233" 
d="M64 474h105v-474h-105v474zM-42 555v16l125 108h68l125 -108v-16h-109l-50 64l-50 -64h-109z" />
    <glyph glyph-name="idieresis" unicode="&#xef;" horiz-adv-x="233" 
d="M64 474h105v-474h-105v474zM-28 563v112h110v-112h-110zM152 563v112h110v-112h-110z" />
    <glyph glyph-name="i.loclTRK" horiz-adv-x="233" 
d="M64 474h105v-474h-105v474zM59 555v115h115v-115h-115z" />
    <glyph glyph-name="igrave" unicode="&#xec;" horiz-adv-x="233" 
d="M64 474h105v-474h-105v474zM67 555l-121 117v16h135l86 -133h-100z" />
    <glyph glyph-name="ij" unicode="&#x133;" horiz-adv-x="466" 
d="M64 474h105v-474h-105v474zM59 555v115h115v-115h-115zM297 -198v672h105v-672h-105zM292 555v115h115v-115h-115z" />
    <glyph glyph-name="imacron" unicode="&#x12b;" horiz-adv-x="233" 
d="M64 474h105v-474h-105v474zM-13 654h260v-78h-260v78z" />
    <glyph glyph-name="iogonek" unicode="&#x12f;" horiz-adv-x="233" 
d="M64 474h105v-474h-105v474zM59 555v115h115v-115h-115zM127 -190c-55 0 -91 36 -91 84c0 40 22 78 69 106h64c-37 -25 -56 -47 -56 -74c0 -20 16 -34 36 -34c11 0 21 4 32 11l32 -70c-28 -16 -53 -23 -86 -23z" />
    <glyph glyph-name="itilde" unicode="&#x129;" horiz-adv-x="233" 
d="M64 474h105v-474h-105v474zM100 586c-15 13 -23 19 -38 19c-17 0 -31 -12 -31 -33c0 -3 1 -8 2 -15l-73 10c-1 5 -2 10 -2 15c0 55 41 96 97 96c39 0 58 -12 79 -32c15 -13 23 -19 38 -19c17 0 31 12 31 33c0 3 -1 8 -2 15l73 -10c1 -5 2 -10 2 -15
c0 -55 -41 -96 -97 -96c-39 0 -58 12 -79 32z" />
    <glyph glyph-name="j" unicode="j" horiz-adv-x="233" 
d="M64 -198v672h105v-672h-105zM59 555v115h115v-115h-115z" />
    <glyph glyph-name="uni0237" unicode="&#x237;" horiz-adv-x="233" 
d="M64 -198v672h105v-672h-105z" />
    <glyph glyph-name="jcircumflex" unicode="&#x135;" horiz-adv-x="233" 
d="M64 -198v672h105v-672h-105zM-42 555v16l125 108h68l125 -108v-16h-109l-50 64l-50 -64h-109z" />
    <glyph glyph-name="k" unicode="k" horiz-adv-x="516" 
d="M300 280l194 -280h-125l-141 204l-59 -62v-142h-105v700h105v-425l180 199h135z" />
    <glyph glyph-name="kcommaaccent" unicode="&#x137;" horiz-adv-x="516" 
d="M300 280l194 -280h-125l-141 204l-59 -62v-142h-105v700h105v-425l180 199h135zM173 -265l13 60c15 -6 29 -9 43 -9c20 0 34 11 34 30c0 20 -14 30 -34 30h-26v102h118v-130c0 -65 -40 -92 -91 -92c-20 0 -39 3 -57 9z" />
    <glyph glyph-name="kgreenlandic" unicode="&#x138;" horiz-adv-x="486" 
d="M64 0v474h105v-174l150 174h135l-205 -224l215 -250h-135l-160 195v-195h-105z" />
    <glyph glyph-name="l" unicode="l" horiz-adv-x="233" 
d="M64 0v700h105v-700h-105z" />
    <glyph glyph-name="lacute" unicode="&#x13a;" horiz-adv-x="233" 
d="M64 0v700h105v-700h-105zM67 781l86 133h135v-16l-121 -117h-100z" />
    <glyph glyph-name="lcaron" unicode="&#x13e;" horiz-adv-x="349" 
d="M64 0v700h105v-700h-105zM222 474v60h23c29 0 44 10 44 30s-14 30 -34 30h-26v106h120v-131c0 -69 -46 -95 -110 -95h-17z" />
    <glyph glyph-name="lcommaaccent" unicode="&#x13c;" horiz-adv-x="233" 
d="M64 0v700h105v-700h-105zM26 -265l13 60c15 -6 29 -9 43 -9c20 0 34 11 34 30c0 20 -14 30 -34 30h-26v102h118v-130c0 -65 -40 -92 -91 -92c-20 0 -39 3 -57 9z" />
    <glyph glyph-name="ldot" unicode="&#x140;" horiz-adv-x="415" 
d="M64 0v700h105v-700h-105zM264 410h120v-120h-120v120z" />
    <glyph glyph-name="lslash" unicode="&#x142;" horiz-adv-x="233" 
d="M64 0v700h105v-700h-105zM11 252l-41 81l253 131l41 -81z" />
    <glyph glyph-name="m" unicode="m" horiz-adv-x="763" 
d="M64 474h105v-67c21 48 62 77 125 77c59 0 106 -32 125 -99c24 67 76 99 135 99c88 0 145 -57 145 -164v-320h-105v297c0 59 -33 93 -80 93s-80 -34 -80 -93v-297h-105v297c0 59 -33 93 -80 93c-48 0 -80 -36 -80 -103v-287h-105v474z" />
    <glyph glyph-name="n" unicode="n" horiz-adv-x="548" 
d="M169 0h-105v474h105v-69c33 55 86 79 149 79c99 0 166 -66 166 -174v-310h-105v274c0 76 -38 120 -98 120c-64 0 -112 -49 -112 -130v-264z" />
    <glyph glyph-name="nacute" unicode="&#x144;" horiz-adv-x="548" 
d="M169 0h-105v474h105v-69c33 55 86 79 149 79c99 0 166 -66 166 -174v-310h-105v274c0 76 -38 120 -98 120c-64 0 -112 -49 -112 -130v-264zM236 555l86 133h135v-16l-121 -117h-100z" />
    <glyph glyph-name="ncaron" unicode="&#x148;" horiz-adv-x="548" 
d="M169 0h-105v474h105v-69c33 55 86 79 149 79c99 0 166 -66 166 -174v-310h-105v274c0 76 -38 120 -98 120c-64 0 -112 -49 -112 -130v-264zM252 555l-125 108v16h109l50 -64l50 64h109v-16l-125 -108h-68z" />
    <glyph glyph-name="ncommaaccent" unicode="&#x146;" horiz-adv-x="548" 
d="M169 0h-105v474h105v-69c33 55 86 79 149 79c99 0 166 -66 166 -174v-310h-105v274c0 76 -38 120 -98 120c-64 0 -112 -49 -112 -130v-264zM183 -265l13 60c15 -6 29 -9 43 -9c20 0 34 11 34 30c0 20 -14 30 -34 30h-26v102h118v-130c0 -65 -40 -92 -91 -92
c-20 0 -39 3 -57 9z" />
    <glyph glyph-name="eng" unicode="&#x14b;" horiz-adv-x="548" 
d="M208 -100l92 30c3 -27 19 -43 42 -43c24 0 37 16 37 45v342c0 76 -39 120 -99 120c-64 0 -111 -49 -111 -129v-265h-105v474h105v-69c33 55 86 79 149 79c99 0 166 -66 166 -174v-368c0 -92 -43 -150 -143 -150c-67 0 -125 41 -133 108z" />
    <glyph glyph-name="ntilde" unicode="&#xf1;" horiz-adv-x="548" 
d="M169 0h-105v474h105v-69c33 55 86 79 149 79c99 0 166 -66 166 -174v-310h-105v274c0 76 -38 120 -98 120c-64 0 -112 -49 -112 -130v-264zM269 586c-15 13 -23 19 -38 19c-17 0 -31 -12 -31 -33c0 -3 1 -8 2 -15l-73 10c-1 5 -2 10 -2 15c0 55 41 96 97 96
c39 0 58 -12 79 -32c15 -13 23 -19 38 -19c17 0 31 12 31 33c0 3 -1 8 -2 15l73 -10c1 -5 2 -10 2 -15c0 -55 -41 -96 -97 -96c-39 0 -58 12 -79 32z" />
    <glyph glyph-name="o" unicode="o" horiz-adv-x="560" 
d="M36 237c0 140 101 247 244 247s244 -107 244 -247s-101 -247 -244 -247s-244 107 -244 247zM419 237c0 89 -59 152 -139 152s-139 -63 -139 -152s59 -152 139 -152s139 63 139 152z" />
    <glyph glyph-name="oacute" unicode="&#xf3;" horiz-adv-x="560" 
d="M36 237c0 140 101 247 244 247s244 -107 244 -247s-101 -247 -244 -247s-244 107 -244 247zM419 237c0 89 -59 152 -139 152s-139 -63 -139 -152s59 -152 139 -152s139 63 139 152zM230 555l86 133h135v-16l-121 -117h-100z" />
    <glyph glyph-name="obreve" unicode="&#x14f;" horiz-adv-x="560" 
d="M36 237c0 140 101 247 244 247s244 -107 244 -247s-101 -247 -244 -247s-244 107 -244 247zM419 237c0 89 -59 152 -139 152s-139 -63 -139 -152s59 -152 139 -152s139 63 139 152zM405 664c0 -72 -53 -111 -125 -111s-125 39 -125 111c0 6 0 11 1 14h76l-1 -10
c0 -25 20 -45 49 -45s49 20 49 45l-1 10h76c1 -3 1 -8 1 -14z" />
    <glyph glyph-name="ocircumflex" unicode="&#xf4;" horiz-adv-x="560" 
d="M36 237c0 140 101 247 244 247s244 -107 244 -247s-101 -247 -244 -247s-244 107 -244 247zM419 237c0 89 -59 152 -139 152s-139 -63 -139 -152s59 -152 139 -152s139 63 139 152zM121 555v16l125 108h68l125 -108v-16h-109l-50 64l-50 -64h-109z" />
    <glyph glyph-name="odieresis" unicode="&#xf6;" horiz-adv-x="560" 
d="M36 237c0 140 101 247 244 247s244 -107 244 -247s-101 -247 -244 -247s-244 107 -244 247zM419 237c0 89 -59 152 -139 152s-139 -63 -139 -152s59 -152 139 -152s139 63 139 152zM135 563v112h110v-112h-110zM315 563v112h110v-112h-110z" />
    <glyph glyph-name="ograve" unicode="&#xf2;" horiz-adv-x="560" 
d="M36 237c0 140 101 247 244 247s244 -107 244 -247s-101 -247 -244 -247s-244 107 -244 247zM419 237c0 89 -59 152 -139 152s-139 -63 -139 -152s59 -152 139 -152s139 63 139 152zM230 555l-121 117v16h135l86 -133h-100z" />
    <glyph glyph-name="ohungarumlaut" unicode="&#x151;" horiz-adv-x="560" 
d="M36 237c0 140 101 247 244 247s244 -107 244 -247s-101 -247 -244 -247s-244 107 -244 247zM419 237c0 89 -59 152 -139 152s-139 -63 -139 -152s59 -152 139 -152s139 63 139 152zM134 555l86 133h135v-16l-121 -117h-100zM327 555l86 133h135v-16l-121 -117h-100z" />
    <glyph glyph-name="omacron" unicode="&#x14d;" horiz-adv-x="560" 
d="M36 237c0 140 101 247 244 247s244 -107 244 -247s-101 -247 -244 -247s-244 107 -244 247zM419 237c0 89 -59 152 -139 152s-139 -63 -139 -152s59 -152 139 -152s139 63 139 152zM150 654h260v-78h-260v78z" />
    <glyph glyph-name="oslash" unicode="&#xf8;" horiz-adv-x="560" 
d="M524 237c0 -140 -101 -247 -244 -247c-15 0 -29 1 -42 3l-20 -53l-85 31l19 52c-72 43 -116 122 -116 214c0 140 101 247 244 247c14 0 28 -1 41 -3l20 53l85 -31l-19 -52c73 -41 117 -121 117 -214zM188 120l99 269h-7c-80 0 -139 -63 -139 -152c0 -48 18 -89 47 -117z
M419 237c0 49 -17 90 -48 118l-99 -270h8c80 0 139 63 139 152z" />
    <glyph glyph-name="otilde" unicode="&#xf5;" horiz-adv-x="560" 
d="M36 237c0 140 101 247 244 247s244 -107 244 -247s-101 -247 -244 -247s-244 107 -244 247zM419 237c0 89 -59 152 -139 152s-139 -63 -139 -152s59 -152 139 -152s139 63 139 152zM263 586c-15 13 -23 19 -38 19c-17 0 -31 -12 -31 -33c0 -3 1 -8 2 -15l-73 10
c-1 5 -2 10 -2 15c0 55 41 96 97 96c39 0 58 -12 79 -32c15 -13 23 -19 38 -19c17 0 31 12 31 33c0 3 -1 8 -2 15l73 -10c1 -5 2 -10 2 -15c0 -55 -41 -96 -97 -96c-39 0 -58 12 -79 32z" />
    <glyph glyph-name="oe" unicode="&#x153;" horiz-adv-x="914" 
d="M36 237c0 140 101 247 244 247c83 0 147 -36 190 -99c41 63 104 99 181 99c124 0 213 -80 213 -209c0 -19 -2 -37 -5 -55h-335c0 -95 72 -142 143 -142c68 0 112 37 127 102l90 -35c-33 -99 -106 -155 -218 -155c-87 0 -152 32 -194 95c-43 -61 -108 -95 -192 -95
c-143 0 -244 107 -244 247zM524 290h235l1 9c0 59 -47 95 -111 95c-65 0 -116 -40 -125 -104zM419 237c0 89 -59 152 -139 152s-139 -63 -139 -152s59 -152 139 -152s139 63 139 152z" />
    <glyph glyph-name="p" unicode="p" horiz-adv-x="580" 
d="M64 474h101v-84c32 56 99 94 164 94c129 0 215 -105 215 -250s-90 -244 -225 -244c-63 0 -121 25 -150 76v-264h-105v672zM302 83c76 0 137 60 137 151s-62 155 -137 155c-70 0 -137 -63 -137 -155s65 -151 137 -151z" />
    <glyph glyph-name="thorn" unicode="&#xfe;" horiz-adv-x="580" 
d="M64 700h105v-310c32 57 95 94 160 94c129 0 215 -105 215 -250s-90 -244 -225 -244c-63 0 -121 27 -150 76v-264h-105v898zM302 83c76 0 137 60 137 151s-62 155 -137 155c-70 0 -137 -63 -137 -155s65 -151 137 -151z" />
    <glyph glyph-name="q" unicode="q" horiz-adv-x="580" 
d="M411 -198v278c-31 -57 -86 -90 -155 -90c-133 0 -220 103 -220 244c0 145 87 250 220 250c73 0 132 -37 159 -94v84h101v-672h-105zM415 234c0 93 -65 155 -137 155c-75 0 -137 -64 -137 -155c0 -45 13 -82 39 -110c27 -27 59 -41 98 -41c72 0 137 58 137 151z" />
    <glyph glyph-name="r" unicode="r" horiz-adv-x="455" 
d="M64 474h105v-69c19 51 59 79 115 79c39 0 72 -13 98 -39c26 -25 39 -57 39 -95c0 -21 -2 -41 -7 -60h-104c3 13 4 27 4 40c0 37 -30 64 -70 64c-45 0 -75 -30 -75 -79v-315h-105v474z" />
    <glyph glyph-name="racute" unicode="&#x155;" horiz-adv-x="455" 
d="M64 474h105v-69c19 51 59 79 115 79c39 0 72 -13 98 -39c26 -25 39 -57 39 -95c0 -21 -2 -41 -7 -60h-104c3 13 4 27 4 40c0 37 -30 64 -70 64c-45 0 -75 -30 -75 -79v-315h-105v474zM208 555l86 133h135v-16l-121 -117h-100z" />
    <glyph glyph-name="rcaron" unicode="&#x159;" horiz-adv-x="455" 
d="M64 474h105v-69c19 51 59 79 115 79c39 0 72 -13 98 -39c26 -25 39 -57 39 -95c0 -21 -2 -41 -7 -60h-104c3 13 4 27 4 40c0 37 -30 64 -70 64c-45 0 -75 -30 -75 -79v-315h-105v474zM224 555l-125 108v16h109l50 -64l50 64h109v-16l-125 -108h-68z" />
    <glyph glyph-name="rcommaaccent" unicode="&#x157;" horiz-adv-x="455" 
d="M64 474h105v-69c19 51 59 79 115 79c39 0 72 -13 98 -39c26 -25 39 -57 39 -95c0 -21 -2 -41 -7 -60h-104c3 13 4 27 4 40c0 37 -30 64 -70 64c-45 0 -75 -30 -75 -79v-315h-105v474zM26 -265l13 60c15 -6 29 -9 43 -9c20 0 34 11 34 30c0 20 -14 30 -34 30h-26v102h118
v-130c0 -65 -40 -92 -91 -92c-20 0 -39 3 -57 9z" />
    <glyph glyph-name="s" unicode="s" horiz-adv-x="473" 
d="M29 120l85 45c25 -59 67 -85 132 -85c56 0 89 23 89 55c0 43 -25 61 -117 76c-105 17 -163 60 -163 139s81 134 177 134c92 0 143 -38 174 -103l-80 -44c-14 42 -45 63 -93 63c-47 0 -83 -23 -83 -52c0 -36 29 -49 120 -62c117 -17 165 -65 165 -146
c0 -88 -85 -150 -193 -150c-109 0 -181 50 -213 130z" />
    <glyph glyph-name="sacute" unicode="&#x15b;" horiz-adv-x="473" 
d="M29 120l85 45c25 -59 67 -85 132 -85c56 0 89 23 89 55c0 43 -25 61 -117 76c-105 17 -163 60 -163 139s81 134 177 134c92 0 143 -38 174 -103l-80 -44c-14 42 -45 63 -93 63c-47 0 -83 -23 -83 -52c0 -36 29 -49 120 -62c117 -17 165 -65 165 -146
c0 -88 -85 -150 -193 -150c-109 0 -181 50 -213 130zM183 555l86 133h135v-16l-121 -117h-100z" />
    <glyph glyph-name="scaron" unicode="&#x161;" horiz-adv-x="473" 
d="M29 120l85 45c25 -59 67 -85 132 -85c56 0 89 23 89 55c0 43 -25 61 -117 76c-105 17 -163 60 -163 139s81 134 177 134c92 0 143 -38 174 -103l-80 -44c-14 42 -45 63 -93 63c-47 0 -83 -23 -83 -52c0 -36 29 -49 120 -62c117 -17 165 -65 165 -146
c0 -88 -85 -150 -193 -150c-109 0 -181 50 -213 130zM199 555l-125 108v16h109l50 -64l50 64h109v-16l-125 -108h-68z" />
    <glyph glyph-name="scedilla" unicode="&#x15f;" horiz-adv-x="473" 
d="M29 120l85 45c25 -59 67 -85 132 -85c56 0 89 23 89 55c0 43 -25 61 -117 76c-105 17 -163 60 -163 139s81 134 177 134c92 0 143 -38 174 -103l-80 -44c-14 42 -45 63 -93 63c-47 0 -83 -23 -83 -52c0 -36 29 -49 120 -62c117 -17 165 -65 165 -146
c0 -88 -85 -150 -193 -150c-109 0 -181 50 -213 130zM216 -51c12 13 32 21 48 21c45 0 78 -29 78 -77c0 -51 -34 -81 -85 -81c-47 0 -82 22 -90 66l53 13c3 -17 16 -29 35 -29c21 0 34 12 34 31s-13 32 -34 32c-15 0 -27 -7 -34 -18l-52 10c7 24 13 57 20 99h56
c-9 -26 -18 -48 -29 -67z" />
    <glyph glyph-name="scircumflex" unicode="&#x15d;" horiz-adv-x="473" 
d="M29 120l85 45c25 -59 67 -85 132 -85c56 0 89 23 89 55c0 43 -25 61 -117 76c-105 17 -163 60 -163 139s81 134 177 134c92 0 143 -38 174 -103l-80 -44c-14 42 -45 63 -93 63c-47 0 -83 -23 -83 -52c0 -36 29 -49 120 -62c117 -17 165 -65 165 -146
c0 -88 -85 -150 -193 -150c-109 0 -181 50 -213 130zM74 555v16l125 108h68l125 -108v-16h-109l-50 64l-50 -64h-109z" />
    <glyph glyph-name="scommaaccent" unicode="&#x219;" horiz-adv-x="473" 
d="M29 120l85 45c25 -59 67 -85 132 -85c56 0 89 23 89 55c0 43 -25 61 -117 76c-105 17 -163 60 -163 139s81 134 177 134c92 0 143 -38 174 -103l-80 -44c-14 42 -45 63 -93 63c-47 0 -83 -23 -83 -52c0 -36 29 -49 120 -62c117 -17 165 -65 165 -146
c0 -88 -85 -150 -193 -150c-109 0 -181 50 -213 130zM151 -265l13 60c15 -6 29 -9 43 -9c20 0 34 11 34 30c0 20 -14 30 -34 30h-26v102h118v-130c0 -65 -40 -92 -91 -92c-20 0 -39 3 -57 9z" />
    <glyph glyph-name="germandbls" unicode="&#xdf;" horiz-adv-x="595" 
d="M344 86c59 0 99 46 99 130c0 92 -82 140 -171 140v90c56 8 105 42 105 99c0 49 -30 75 -79 75c-53 0 -82 -34 -82 -97v-523h-105v356h-85v90h85v88c0 111 74 176 187 176c109 0 179 -62 179 -149c0 -65 -31 -112 -92 -143c45 -8 84 -29 115 -64c32 -34 48 -79 48 -135
c0 -132 -86 -229 -201 -229c-35 0 -68 7 -99 22l18 97c23 -15 49 -23 78 -23z" />
    <glyph glyph-name="t" unicode="t" horiz-adv-x="471" 
d="M115 150v234h-95v90h95v151h105v-151h180v-90h-180v-239c0 -43 27 -65 60 -65c40 0 61 25 65 80l100 -20c-9 -95 -69 -150 -160 -150c-112 0 -170 61 -170 160z" />
    <glyph glyph-name="tbar" unicode="&#x167;" horiz-adv-x="471" 
d="M115 150v234h-95v90h95v151h105v-151h180v-90h-180v-239c0 -43 27 -65 60 -65c40 0 61 25 65 80l100 -20c-9 -95 -69 -150 -160 -150c-112 0 -170 61 -170 160zM36 306h314v-85h-314v85z" />
    <glyph glyph-name="tcaron" unicode="&#x165;" horiz-adv-x="471" 
d="M115 150v234h-95v90h95v151h105v-151h180v-90h-180v-239c0 -43 27 -65 60 -65c40 0 61 25 65 80l100 -20c-9 -95 -69 -150 -160 -150c-112 0 -170 61 -170 160zM268 522v60h23c29 0 44 10 44 30s-14 30 -34 30h-26v106h120v-131c0 -69 -46 -95 -110 -95h-17z" />
    <glyph glyph-name="uni0163" unicode="&#x163;" horiz-adv-x="471" 
d="M115 150v234h-95v90h95v151h105v-151h180v-90h-180v-239c0 -43 27 -65 60 -65c40 0 61 25 65 80l100 -20c-9 -95 -69 -150 -160 -150c-112 0 -170 61 -170 160zM252 -51c12 13 32 21 48 21c45 0 78 -29 78 -77c0 -51 -34 -81 -85 -81c-47 0 -82 22 -90 66l53 13
c3 -17 16 -29 35 -29c21 0 34 12 34 31s-13 32 -34 32c-15 0 -27 -7 -34 -18l-52 10c7 24 13 57 20 99h56c-9 -26 -18 -48 -29 -67z" />
    <glyph glyph-name="uni021B" unicode="&#x21b;" horiz-adv-x="471" 
d="M115 150v234h-95v90h95v151h105v-151h180v-90h-180v-239c0 -43 27 -65 60 -65c40 0 61 25 65 80l100 -20c-9 -95 -69 -150 -160 -150c-112 0 -170 61 -170 160zM190 -265l13 60c15 -6 29 -9 43 -9c20 0 34 11 34 30c0 20 -14 30 -34 30h-26v102h118v-130
c0 -65 -40 -92 -91 -92c-20 0 -39 3 -57 9z" />
    <glyph glyph-name="u" unicode="u" horiz-adv-x="553" 
d="M384 474h105v-474h-105v75c-34 -57 -83 -85 -147 -85c-104 0 -173 60 -173 180v304h105v-279c0 -75 35 -115 95 -115c71 0 120 56 120 145v249z" />
    <glyph glyph-name="uacute" unicode="&#xfa;" horiz-adv-x="553" 
d="M384 474h105v-474h-105v75c-34 -57 -83 -85 -147 -85c-104 0 -173 60 -173 180v304h105v-279c0 -75 35 -115 95 -115c71 0 120 56 120 145v249zM227 555l86 133h135v-16l-121 -117h-100z" />
    <glyph glyph-name="ubreve" unicode="&#x16d;" horiz-adv-x="553" 
d="M384 474h105v-474h-105v75c-34 -57 -83 -85 -147 -85c-104 0 -173 60 -173 180v304h105v-279c0 -75 35 -115 95 -115c71 0 120 56 120 145v249zM402 664c0 -72 -53 -111 -125 -111s-125 39 -125 111c0 6 0 11 1 14h76l-1 -10c0 -25 20 -45 49 -45s49 20 49 45l-1 10h76
c1 -3 1 -8 1 -14z" />
    <glyph glyph-name="ucircumflex" unicode="&#xfb;" horiz-adv-x="553" 
d="M384 474h105v-474h-105v75c-34 -57 -83 -85 -147 -85c-104 0 -173 60 -173 180v304h105v-279c0 -75 35 -115 95 -115c71 0 120 56 120 145v249zM118 555v16l125 108h68l125 -108v-16h-109l-50 64l-50 -64h-109z" />
    <glyph glyph-name="udieresis" unicode="&#xfc;" horiz-adv-x="553" 
d="M384 474h105v-474h-105v75c-34 -57 -83 -85 -147 -85c-104 0 -173 60 -173 180v304h105v-279c0 -75 35 -115 95 -115c71 0 120 56 120 145v249zM132 563v112h110v-112h-110zM312 563v112h110v-112h-110z" />
    <glyph glyph-name="ugrave" unicode="&#xf9;" horiz-adv-x="553" 
d="M384 474h105v-474h-105v75c-34 -57 -83 -85 -147 -85c-104 0 -173 60 -173 180v304h105v-279c0 -75 35 -115 95 -115c71 0 120 56 120 145v249zM227 555l-121 117v16h135l86 -133h-100z" />
    <glyph glyph-name="uhungarumlaut" unicode="&#x171;" horiz-adv-x="553" 
d="M384 474h105v-474h-105v75c-34 -57 -83 -85 -147 -85c-104 0 -173 60 -173 180v304h105v-279c0 -75 35 -115 95 -115c71 0 120 56 120 145v249zM131 555l86 133h135v-16l-121 -117h-100zM324 555l86 133h135v-16l-121 -117h-100z" />
    <glyph glyph-name="umacron" unicode="&#x16b;" horiz-adv-x="553" 
d="M384 474h105v-474h-105v75c-34 -57 -83 -85 -147 -85c-104 0 -173 60 -173 180v304h105v-279c0 -75 35 -115 95 -115c71 0 120 56 120 145v249zM147 654h260v-78h-260v78z" />
    <glyph glyph-name="uogonek" unicode="&#x173;" horiz-adv-x="553" 
d="M384 474h105v-474h-105v75c-34 -57 -83 -85 -147 -85c-104 0 -173 60 -173 180v304h105v-279c0 -75 35 -115 95 -115c71 0 120 56 120 145v249zM447 -190c-55 0 -91 36 -91 84c0 40 22 78 69 106h64c-37 -25 -56 -47 -56 -74c0 -20 16 -34 36 -34c11 0 21 4 32 11l32 -70
c-28 -16 -53 -23 -86 -23z" />
    <glyph glyph-name="uring" unicode="&#x16f;" horiz-adv-x="553" 
d="M384 474h105v-474h-105v75c-34 -57 -83 -85 -147 -85c-104 0 -173 60 -173 180v304h105v-279c0 -75 35 -115 95 -115c71 0 120 56 120 145v249zM184 627c0 52 41 93 93 93s93 -41 93 -93s-41 -93 -93 -93s-93 41 -93 93zM313 627c0 19 -17 36 -36 36s-36 -17 -36 -36
s17 -36 36 -36s36 17 36 36z" />
    <glyph glyph-name="utilde" unicode="&#x169;" horiz-adv-x="553" 
d="M384 474h105v-474h-105v75c-34 -57 -83 -85 -147 -85c-104 0 -173 60 -173 180v304h105v-279c0 -75 35 -115 95 -115c71 0 120 56 120 145v249zM260 586c-15 13 -23 19 -38 19c-17 0 -31 -12 -31 -33c0 -3 1 -8 2 -15l-73 10c-1 5 -2 10 -2 15c0 55 41 96 97 96
c39 0 58 -12 79 -32c15 -13 23 -19 38 -19c17 0 31 12 31 33c0 3 -1 8 -2 15l73 -10c1 -5 2 -10 2 -15c0 -55 -41 -96 -97 -96c-39 0 -58 12 -79 32z" />
    <glyph glyph-name="v" unicode="v" horiz-adv-x="534" 
d="M128 474l139 -369l139 369h110l-189 -474h-120l-189 474h110z" />
    <glyph glyph-name="w" unicode="w" horiz-adv-x="752" 
d="M121 474l100 -369l95 369h120l95 -369l100 369h105l-140 -474h-125l-95 333l-95 -333h-125l-140 474h105z" />
    <glyph glyph-name="wacute" unicode="&#x1e83;" horiz-adv-x="752" 
d="M121 474l100 -369l95 369h120l95 -369l100 369h105l-140 -474h-125l-95 333l-95 -333h-125l-140 474h105zM326 555l86 133h135v-16l-121 -117h-100z" />
    <glyph glyph-name="wcircumflex" unicode="&#x175;" horiz-adv-x="752" 
d="M121 474l100 -369l95 369h120l95 -369l100 369h105l-140 -474h-125l-95 333l-95 -333h-125l-140 474h105zM217 555v16l125 108h68l125 -108v-16h-109l-50 64l-50 -64h-109z" />
    <glyph glyph-name="wdieresis" unicode="&#x1e85;" horiz-adv-x="752" 
d="M121 474l100 -369l95 369h120l95 -369l100 369h105l-140 -474h-125l-95 333l-95 -333h-125l-140 474h105zM231 563v112h110v-112h-110zM411 563v112h110v-112h-110z" />
    <glyph glyph-name="wgrave" unicode="&#x1e81;" horiz-adv-x="752" 
d="M121 474l100 -369l95 369h120l95 -369l100 369h105l-140 -474h-125l-95 333l-95 -333h-125l-140 474h105zM326 555l-121 117v16h135l86 -133h-100z" />
    <glyph glyph-name="x" unicode="x" horiz-adv-x="484" 
d="M452 474l-152 -222l172 -252h-120l-110 170l-110 -170h-120l173 252l-153 222h120l90 -139l90 139h120z" />
    <glyph glyph-name="y" unicode="y" horiz-adv-x="509" 
d="M387 474h110l-320 -672h-110l127 268l-187 404h113l129 -290z" />
    <glyph glyph-name="yacute" unicode="&#xfd;" horiz-adv-x="509" 
d="M387 474h110l-320 -672h-110l127 268l-187 404h113l129 -290zM202 555l86 133h135v-16l-121 -117h-100z" />
    <glyph glyph-name="ycircumflex" unicode="&#x177;" horiz-adv-x="509" 
d="M387 474h110l-320 -672h-110l127 268l-187 404h113l129 -290zM93 555v16l125 108h68l125 -108v-16h-109l-50 64l-50 -64h-109z" />
    <glyph glyph-name="ydieresis" unicode="&#xff;" horiz-adv-x="509" 
d="M387 474h110l-320 -672h-110l127 268l-187 404h113l129 -290zM107 563v112h110v-112h-110zM287 563v112h110v-112h-110z" />
    <glyph glyph-name="ygrave" unicode="&#x1ef3;" horiz-adv-x="509" 
d="M387 474h110l-320 -672h-110l127 268l-187 404h113l129 -290zM202 555l-121 117v16h135l86 -133h-100z" />
    <glyph glyph-name="z" unicode="z" horiz-adv-x="499" 
d="M455 0h-415v90l280 289h-275v95h405v-90l-280 -289h285v-95z" />
    <glyph glyph-name="zacute" unicode="&#x17a;" horiz-adv-x="499" 
d="M455 0h-415v90l280 289h-275v95h405v-90l-280 -289h285v-95zM197 555l86 133h135v-16l-121 -117h-100z" />
    <glyph glyph-name="zcaron" unicode="&#x17e;" horiz-adv-x="499" 
d="M455 0h-415v90l280 289h-275v95h405v-90l-280 -289h285v-95zM213 555l-125 108v16h109l50 -64l50 64h109v-16l-125 -108h-68z" />
    <glyph glyph-name="zdotaccent" unicode="&#x17c;" horiz-adv-x="499" 
d="M455 0h-415v90l280 289h-275v95h405v-90l-280 -289h285v-95zM189 555v115h115v-115h-115z" />
    <glyph glyph-name="uni01B6" unicode="&#x1b6;" horiz-adv-x="499" 
d="M40 0v90l104 107h-57v85h139l94 97h-275v95h405v-90l-99 -102h50v-85h-132l-99 -102h285v-95h-415z" />
    <glyph glyph-name="adieresis.ss01" horiz-adv-x="524" 
d="M45 135c0 103 76 152 181 152c29 0 57 -3 84 -10l50 -12v35c0 63 -47 99 -110 99s-104 -37 -115 -94l-95 25c21 93 94 154 210 154c135 0 210 -69 210 -189v-295h-100v80c-21 -53 -75 -90 -159 -90c-78 0 -156 54 -156 145zM360 180v5l-38 10c-34 9 -60 13 -79 13
c-53 0 -88 -20 -88 -63c0 -37 28 -65 88 -65c69 0 117 37 117 100zM90 619c0 36 29 65 65 65s65 -29 65 -65s-29 -65 -65 -65s-65 29 -65 65zM280 619c0 36 29 65 65 65s65 -29 65 -65s-29 -65 -65 -65s-65 29 -65 65z" />
    <glyph glyph-name="cdotaccent.ss01" horiz-adv-x="554" 
d="M286 80c88 0 134 56 145 135l95 -35c-24 -121 -116 -190 -235 -190c-154 0 -255 100 -255 250c0 143 109 244 240 244c117 0 205 -66 225 -174l-95 -30c-11 71 -61 114 -130 114s-140 -54 -140 -154c0 -97 74 -160 150 -160zM276 680c39 0 68 -29 68 -68
c0 -37 -29 -67 -68 -67c-37 0 -67 30 -67 67c0 39 30 68 67 68z" />
    <glyph glyph-name="dcaron.ss01" horiz-adv-x="706" 
d="M36 234c0 145 87 250 220 250c73 0 128 -37 155 -94v310h105v-700h-101v80c-29 -57 -88 -90 -159 -90c-133 0 -220 103 -220 244zM415 234c0 93 -65 155 -137 155c-75 0 -137 -64 -137 -155c0 -45 13 -82 39 -110c27 -27 59 -41 98 -41c72 0 137 58 137 151zM569 474v60
h54c15 0 23 7 23 18c0 10 -7 16 -22 19c-33 7 -58 34 -58 69c0 39 31 70 70 70s70 -31 70 -70v-70c0 -65 -34 -96 -90 -96h-47z" />
    <glyph glyph-name="edieresis.ss01" horiz-adv-x="522" 
d="M411 180l90 -35c-33 -99 -107 -155 -219 -155c-146 0 -246 97 -246 250c0 136 92 244 231 244c124 0 214 -80 214 -209c0 -19 -2 -37 -5 -55h-335c0 -46 14 -81 42 -105c29 -23 62 -35 100 -35c68 0 113 35 128 100zM141 290h235l1 9c0 59 -47 95 -111 95
c-65 0 -116 -40 -125 -104zM98 619c0 36 29 65 65 65s65 -29 65 -65s-29 -65 -65 -65s-65 29 -65 65zM288 619c0 36 29 65 65 65s65 -29 65 -65s-29 -65 -65 -65s-65 29 -65 65z" />
    <glyph glyph-name="edotaccent.ss01" horiz-adv-x="531" 
d="M411 180l90 -35c-33 -99 -107 -155 -219 -155c-146 0 -246 97 -246 250c0 136 92 244 231 244c124 0 214 -80 214 -209c0 -19 -2 -37 -5 -55h-335c0 -46 14 -81 42 -105c29 -23 62 -35 100 -35c68 0 113 35 128 100zM141 290h235l1 9c0 59 -47 95 -111 95
c-65 0 -116 -40 -125 -104zM267 680c39 0 68 -29 68 -68c0 -37 -29 -67 -68 -67c-37 0 -67 30 -67 67c0 39 30 68 67 68z" />
    <glyph glyph-name="gcommaaccent.ss01" horiz-adv-x="580" 
d="M61 -60l95 40c15 -64 63 -98 130 -98c87 0 125 58 125 153v50c-25 -52 -83 -85 -160 -85c-120 0 -215 93 -215 235c0 148 100 249 225 249c72 0 118 -26 150 -74v64h105v-434c0 -75 -20 -135 -60 -180s-97 -68 -170 -68c-117 0 -192 49 -225 148zM415 241
c0 89 -59 153 -137 153c-79 0 -137 -62 -137 -159c0 -89 58 -145 137 -145c39 0 72 14 98 42c26 29 39 65 39 109zM218 616v70c0 61 25 92 76 92h64v-56h-57c-15 0 -23 -7 -23 -18c0 -10 7 -16 22 -19c33 -7 58 -34 58 -69c0 -39 -31 -70 -70 -70s-70 31 -70 70z" />
    <glyph glyph-name="gdotaccent.ss01" horiz-adv-x="580" 
d="M61 -60l95 40c15 -64 63 -98 130 -98c87 0 125 58 125 153v50c-25 -52 -83 -85 -160 -85c-120 0 -215 93 -215 235c0 148 100 249 225 249c72 0 118 -26 150 -74v64h105v-434c0 -75 -20 -135 -60 -180s-97 -68 -170 -68c-117 0 -192 49 -225 148zM415 241
c0 89 -59 153 -137 153c-79 0 -137 -62 -137 -159c0 -89 58 -145 137 -145c39 0 72 14 98 42c26 29 39 65 39 109zM288 680c39 0 68 -29 68 -68c0 -37 -29 -67 -68 -67c-37 0 -67 30 -67 67c0 39 30 68 67 68z" />
    <glyph glyph-name="i.ss01" horiz-adv-x="233" 
d="M64 474h105v-474h-105v474zM117 680c39 0 68 -29 68 -68c0 -37 -29 -67 -68 -67c-37 0 -67 30 -67 67c0 39 30 68 67 68z" />
    <glyph glyph-name="idieresis.ss01" horiz-adv-x="233" 
d="M64 474h105v-474h-105v474zM-43 619c0 36 29 65 65 65s65 -29 65 -65s-29 -65 -65 -65s-65 29 -65 65zM147 619c0 36 29 65 65 65s65 -29 65 -65s-29 -65 -65 -65s-65 29 -65 65z" />
    <glyph glyph-name="i.loclTRK.ss01" horiz-adv-x="233" 
d="M64 474h105v-474h-105v474zM117 680c39 0 68 -29 68 -68c0 -37 -29 -67 -68 -67c-37 0 -67 30 -67 67c0 39 30 68 67 68z" />
    <glyph glyph-name="ij.ss01" horiz-adv-x="466" 
d="M64 474h105v-474h-105v474zM117 680c39 0 68 -29 68 -68c0 -37 -29 -67 -68 -67c-37 0 -67 30 -67 67c0 39 30 68 67 68zM297 -198v672h105v-672h-105zM350 680c39 0 68 -29 68 -68c0 -37 -29 -67 -68 -67c-37 0 -67 30 -67 67c0 39 30 68 67 68z" />
    <glyph glyph-name="iogonek.ss01" horiz-adv-x="233" 
d="M64 474h105v-474h-105v474zM117 680c39 0 68 -29 68 -68c0 -37 -29 -67 -68 -67c-37 0 -67 30 -67 67c0 39 30 68 67 68zM127 -190c-55 0 -91 36 -91 84c0 40 22 78 69 106h64c-37 -25 -56 -47 -56 -74c0 -20 16 -34 36 -34c11 0 21 4 32 11l32 -70
c-28 -16 -53 -23 -86 -23z" />
    <glyph glyph-name="j.ss01" horiz-adv-x="233" 
d="M64 -198v672h105v-672h-105zM117 680c39 0 68 -29 68 -68c0 -37 -29 -67 -68 -67c-37 0 -67 30 -67 67c0 39 30 68 67 68z" />
    <glyph glyph-name="kcommaaccent.ss01" horiz-adv-x="516" 
d="M300 280l194 -280h-125l-141 204l-59 -62v-142h-105v700h105v-425l180 199h135zM192 -262l13 59c15 -6 29 -9 40 -9c19 0 29 7 29 21c0 11 -4 13 -24 21c-33 13 -50 34 -50 63c0 39 27 65 63 65c39 0 70 -31 70 -70v-70c0 -60 -31 -90 -90 -90c-19 0 -36 3 -51 10z" />
    <glyph glyph-name="lcaron.ss01" horiz-adv-x="359" 
d="M64 0v700h105v-700h-105zM222 474v60h54c15 0 23 7 23 18c0 10 -7 16 -22 19c-33 7 -58 34 -58 69c0 39 31 70 70 70s70 -31 70 -70v-70c0 -65 -34 -96 -90 -96h-47z" />
    <glyph glyph-name="lcommaaccent.ss01" horiz-adv-x="233" 
d="M64 0v700h105v-700h-105zM45 -262l13 59c15 -6 29 -9 40 -9c19 0 29 7 29 21c0 11 -4 13 -24 21c-33 13 -50 34 -50 63c0 39 27 65 63 65c39 0 70 -31 70 -70v-70c0 -60 -31 -90 -90 -90c-19 0 -36 3 -51 10z" />
    <glyph glyph-name="ldot.ss01" horiz-adv-x="415" 
d="M64 0v700h105v-700h-105zM254 350c0 39 31 70 70 70s70 -31 70 -70s-31 -70 -70 -70s-70 31 -70 70z" />
    <glyph glyph-name="ncommaaccent.ss01" horiz-adv-x="548" 
d="M169 0h-105v474h105v-69c33 55 86 79 149 79c99 0 166 -66 166 -174v-310h-105v274c0 76 -38 120 -98 120c-64 0 -112 -49 -112 -130v-264zM202 -262l13 59c15 -6 29 -9 40 -9c19 0 29 7 29 21c0 11 -4 13 -24 21c-33 13 -50 34 -50 63c0 39 27 65 63 65
c39 0 70 -31 70 -70v-70c0 -60 -31 -90 -90 -90c-19 0 -36 3 -51 10z" />
    <glyph glyph-name="odieresis.ss01" horiz-adv-x="544" 
d="M36 237c0 140 101 247 244 247s244 -107 244 -247s-101 -247 -244 -247s-244 107 -244 247zM419 237c0 89 -59 152 -139 152s-139 -63 -139 -152s59 -152 139 -152s139 63 139 152zM112 619c0 36 29 65 65 65s65 -29 65 -65s-29 -65 -65 -65s-65 29 -65 65zM302 619
c0 36 29 65 65 65s65 -29 65 -65s-29 -65 -65 -65s-65 29 -65 65z" />
    <glyph glyph-name="rcommaaccent.ss01" horiz-adv-x="455" 
d="M64 474h105v-69c19 51 59 79 115 79c39 0 72 -13 98 -39c26 -25 39 -57 39 -95c0 -21 -2 -41 -7 -60h-104c3 13 4 27 4 40c0 37 -30 64 -70 64c-45 0 -75 -30 -75 -79v-315h-105v474zM45 -262l13 59c15 -6 29 -9 40 -9c19 0 29 7 29 21c0 11 -4 13 -24 21
c-33 13 -50 34 -50 63c0 39 27 65 63 65c39 0 70 -31 70 -70v-70c0 -60 -31 -90 -90 -90c-19 0 -36 3 -51 10z" />
    <glyph glyph-name="scommaaccent.ss01" horiz-adv-x="473" 
d="M29 120l85 45c25 -59 67 -85 132 -85c56 0 89 23 89 55c0 43 -25 61 -117 76c-105 17 -163 60 -163 139s81 134 177 134c92 0 143 -38 174 -103l-80 -44c-14 42 -45 63 -93 63c-47 0 -83 -23 -83 -52c0 -36 29 -49 120 -62c117 -17 165 -65 165 -146
c0 -88 -85 -150 -193 -150c-109 0 -181 50 -213 130zM170 -262l13 59c15 -6 29 -9 40 -9c19 0 29 7 29 21c0 11 -4 13 -24 21c-33 13 -50 34 -50 63c0 39 27 65 63 65c39 0 70 -31 70 -70v-70c0 -60 -31 -90 -90 -90c-19 0 -36 3 -51 10z" />
    <glyph glyph-name="tcaron.ss01" horiz-adv-x="471" 
d="M115 150v234h-95v90h95v151h105v-151h180v-90h-180v-239c0 -43 27 -65 60 -65c40 0 61 25 65 80l100 -20c-9 -95 -69 -150 -160 -150c-112 0 -170 61 -170 160zM268 522v60h54c15 0 23 7 23 18c0 10 -7 16 -22 19c-33 7 -58 34 -58 69c0 39 31 70 70 70s70 -31 70 -70
v-70c0 -65 -34 -96 -90 -96h-47z" />
    <glyph glyph-name="uni021B.ss01" horiz-adv-x="471" 
d="M115 150v234h-95v90h95v151h105v-151h180v-90h-180v-239c0 -43 27 -65 60 -65c40 0 61 25 65 80l100 -20c-9 -95 -69 -150 -160 -150c-112 0 -170 61 -170 160zM209 -262l13 59c15 -6 29 -9 40 -9c19 0 29 7 29 21c0 11 -4 13 -24 21c-33 13 -50 34 -50 63
c0 39 27 65 63 65c39 0 70 -31 70 -70v-70c0 -60 -31 -90 -90 -90c-19 0 -36 3 -51 10z" />
    <glyph glyph-name="udieresis.ss01" horiz-adv-x="535" 
d="M384 474h105v-474h-105v75c-34 -57 -83 -85 -147 -85c-104 0 -173 60 -173 180v304h105v-279c0 -75 35 -115 95 -115c71 0 120 56 120 145v249zM107 619c0 36 29 65 65 65s65 -29 65 -65s-29 -65 -65 -65s-65 29 -65 65zM297 619c0 36 29 65 65 65s65 -29 65 -65
s-29 -65 -65 -65s-65 29 -65 65z" />
    <glyph glyph-name="wdieresis.ss01" horiz-adv-x="752" 
d="M121 474l100 -369l95 369h120l95 -369l100 369h105l-140 -474h-125l-95 333l-95 -333h-125l-140 474h105zM216 619c0 36 29 65 65 65s65 -29 65 -65s-29 -65 -65 -65s-65 29 -65 65zM406 619c0 36 29 65 65 65s65 -29 65 -65s-29 -65 -65 -65s-65 29 -65 65z" />
    <glyph glyph-name="ydieresis.ss01" horiz-adv-x="502" 
d="M387 474h110l-320 -672h-110l127 268l-187 404h113l129 -290zM92 619c0 36 29 65 65 65s65 -29 65 -65s-29 -65 -65 -65s-65 29 -65 65zM282 619c0 36 29 65 65 65s65 -29 65 -65s-29 -65 -65 -65s-65 29 -65 65z" />
    <glyph glyph-name="zdotaccent.ss01" horiz-adv-x="499" 
d="M455 0h-415v90l280 289h-275v95h405v-90l-280 -289h285v-95zM247 680c39 0 68 -29 68 -68c0 -37 -29 -67 -68 -67c-37 0 -67 30 -67 67c0 39 30 68 67 68z" />
    <glyph glyph-name="a.ss02" horiz-adv-x="589" 
d="M36 234c0 145 93 250 224 250c75 0 132 -32 160 -87v77h105v-474h-100v80c-38 -60 -93 -90 -165 -90c-129 0 -224 104 -224 244zM424 234c0 93 -70 155 -142 155c-76 0 -141 -64 -141 -155s65 -151 141 -151c72 0 142 58 142 151z" />
    <glyph glyph-name="aacute.ss02" horiz-adv-x="589" 
d="M36 234c0 145 93 250 224 250c75 0 132 -32 160 -87v77h105v-474h-100v80c-38 -60 -93 -90 -165 -90c-129 0 -224 104 -224 244zM424 234c0 93 -70 155 -142 155c-76 0 -141 -64 -141 -155s65 -151 141 -151c72 0 142 58 142 151zM233 555l86 133h135v-16l-121 -117h-100
z" />
    <glyph glyph-name="abreve.ss02" horiz-adv-x="589" 
d="M36 234c0 145 93 250 224 250c75 0 132 -32 160 -87v77h105v-474h-100v80c-38 -60 -93 -90 -165 -90c-129 0 -224 104 -224 244zM424 234c0 93 -70 155 -142 155c-76 0 -141 -64 -141 -155s65 -151 141 -151c72 0 142 58 142 151zM408 664c0 -72 -53 -111 -125 -111
s-125 39 -125 111c0 6 0 11 1 14h76l-1 -10c0 -25 20 -45 49 -45s49 20 49 45l-1 10h76c1 -3 1 -8 1 -14z" />
    <glyph glyph-name="acircumflex.ss02" horiz-adv-x="589" 
d="M36 234c0 145 93 250 224 250c75 0 132 -32 160 -87v77h105v-474h-100v80c-38 -60 -93 -90 -165 -90c-129 0 -224 104 -224 244zM424 234c0 93 -70 155 -142 155c-76 0 -141 -64 -141 -155s65 -151 141 -151c72 0 142 58 142 151zM124 555v16l125 108h68l125 -108v-16
h-109l-50 64l-50 -64h-109z" />
    <glyph glyph-name="adieresis.ss02" horiz-adv-x="589" 
d="M36 234c0 145 93 250 224 250c75 0 132 -32 160 -87v77h105v-474h-100v80c-38 -60 -93 -90 -165 -90c-129 0 -224 104 -224 244zM424 234c0 93 -70 155 -142 155c-76 0 -141 -64 -141 -155s65 -151 141 -151c72 0 142 58 142 151zM138 563v112h110v-112h-110zM318 563
v112h110v-112h-110z" />
    <glyph glyph-name="agrave.ss02" horiz-adv-x="589" 
d="M36 234c0 145 93 250 224 250c75 0 132 -32 160 -87v77h105v-474h-100v80c-38 -60 -93 -90 -165 -90c-129 0 -224 104 -224 244zM424 234c0 93 -70 155 -142 155c-76 0 -141 -64 -141 -155s65 -151 141 -151c72 0 142 58 142 151zM233 555l-121 117v16h135l86 -133h-100z
" />
    <glyph glyph-name="amacron.ss02" horiz-adv-x="589" 
d="M36 234c0 145 93 250 224 250c75 0 132 -32 160 -87v77h105v-474h-100v80c-38 -60 -93 -90 -165 -90c-129 0 -224 104 -224 244zM424 234c0 93 -70 155 -142 155c-76 0 -141 -64 -141 -155s65 -151 141 -151c72 0 142 58 142 151zM153 654h260v-78h-260v78z" />
    <glyph glyph-name="aogonek.ss02" horiz-adv-x="589" 
d="M36 234c0 145 93 250 224 250c75 0 132 -32 160 -87v77h105v-474h-100v80c-38 -60 -93 -90 -165 -90c-129 0 -224 104 -224 244zM424 234c0 93 -70 155 -142 155c-76 0 -141 -64 -141 -155s65 -151 141 -151c72 0 142 58 142 151zM483 -190c-55 0 -91 36 -91 84
c0 40 22 78 69 106h64c-37 -25 -56 -47 -56 -74c0 -20 16 -34 36 -34c11 0 21 4 32 11l32 -70c-28 -16 -53 -23 -86 -23z" />
    <glyph glyph-name="aring.ss02" horiz-adv-x="589" 
d="M36 234c0 145 93 250 224 250c75 0 132 -32 160 -87v77h105v-474h-100v80c-38 -60 -93 -90 -165 -90c-129 0 -224 104 -224 244zM424 234c0 93 -70 155 -142 155c-76 0 -141 -64 -141 -155s65 -151 141 -151c72 0 142 58 142 151zM190 627c0 52 41 93 93 93
s93 -41 93 -93s-41 -93 -93 -93s-93 41 -93 93zM319 627c0 19 -17 36 -36 36s-36 -17 -36 -36s17 -36 36 -36s36 17 36 36z" />
    <glyph glyph-name="aringacute.ss02" horiz-adv-x="589" 
d="M36 234c0 145 93 250 224 250c75 0 132 -32 160 -87v77h105v-474h-100v80c-38 -60 -93 -90 -165 -90c-129 0 -224 104 -224 244zM424 234c0 93 -70 155 -142 155c-76 0 -141 -64 -141 -155s65 -151 141 -151c72 0 142 58 142 151zM190 627c0 52 41 93 93 93
s93 -41 93 -93s-41 -93 -93 -93s-93 41 -93 93zM319 627c0 19 -17 36 -36 36s-36 -17 -36 -36s17 -36 36 -36s36 17 36 36zM233 691l86 133h135v-16l-121 -117h-100z" />
    <glyph glyph-name="atilde.ss02" horiz-adv-x="589" 
d="M36 234c0 145 93 250 224 250c75 0 132 -32 160 -87v77h105v-474h-100v80c-38 -60 -93 -90 -165 -90c-129 0 -224 104 -224 244zM424 234c0 93 -70 155 -142 155c-76 0 -141 -64 -141 -155s65 -151 141 -151c72 0 142 58 142 151zM266 586c-15 13 -23 19 -38 19
c-17 0 -31 -12 -31 -33c0 -3 1 -8 2 -15l-73 10c-1 5 -2 10 -2 15c0 55 41 96 97 96c39 0 58 -12 79 -32c15 -13 23 -19 38 -19c17 0 31 12 31 33c0 3 -1 8 -2 15l73 -10c1 -5 2 -10 2 -15c0 -55 -41 -96 -97 -96c-39 0 -58 12 -79 32z" />
    <glyph glyph-name="ae.ss02" horiz-adv-x="919" 
d="M36 234c0 145 93 250 224 250c75 0 132 -32 160 -87v77h105v-52c27 39 82 62 130 62c124 0 214 -80 214 -209c0 -19 -2 -37 -5 -55h-335c0 -95 70 -142 142 -142c68 0 113 37 128 102l90 -35c-33 -99 -107 -155 -219 -155c-61 0 -110 23 -145 70v-60h-100v80
c-38 -60 -93 -90 -165 -90c-129 0 -224 104 -224 244zM529 290h235l1 9c0 59 -47 95 -111 95c-65 0 -116 -40 -125 -104zM424 234c0 93 -70 155 -142 155c-76 0 -141 -64 -141 -155s65 -151 141 -151c72 0 142 58 142 151z" />
    <glyph glyph-name="aeacute.ss02" horiz-adv-x="919" 
d="M36 234c0 145 93 250 224 250c75 0 132 -32 160 -87v77h105v-52c27 39 82 62 130 62c124 0 214 -80 214 -209c0 -19 -2 -37 -5 -55h-335c0 -95 70 -142 142 -142c68 0 113 37 128 102l90 -35c-33 -99 -107 -155 -219 -155c-61 0 -110 23 -145 70v-60h-100v80
c-38 -60 -93 -90 -165 -90c-129 0 -224 104 -224 244zM529 290h235l1 9c0 59 -47 95 -111 95c-65 0 -116 -40 -125 -104zM424 234c0 93 -70 155 -142 155c-76 0 -141 -64 -141 -155s65 -151 141 -151c72 0 142 58 142 151zM422 555l86 133h135v-16l-121 -117h-100z" />
    <glyph glyph-name="adieresis.ss01.ss02" horiz-adv-x="589" 
d="M36 234c0 145 93 250 224 250c75 0 132 -32 160 -87v77h105v-474h-100v80c-38 -60 -93 -90 -165 -90c-129 0 -224 104 -224 244zM424 234c0 93 -70 155 -142 155c-76 0 -141 -64 -141 -155s65 -151 141 -151c72 0 142 58 142 151zM123 619c0 36 29 65 65 65
s65 -29 65 -65s-29 -65 -65 -65s-65 29 -65 65zM313 619c0 36 29 65 65 65s65 -29 65 -65s-29 -65 -65 -65s-65 29 -65 65z" />
    <glyph glyph-name="g.ss03" horiz-adv-x="546" 
d="M22 -50c0 37 14 68 43 93c-22 20 -33 46 -33 77c0 37 20 68 51 88c-22 28 -33 62 -33 103c0 108 87 173 193 173c49 0 90 -12 125 -37c5 41 39 69 86 69c61 0 96 -36 100 -104l-90 -20c0 28 -11 45 -32 45c-15 0 -25 -10 -25 -23c0 -5 1 -10 4 -15c17 -30 25 -59 25 -88
c0 -109 -85 -173 -193 -173c-36 0 -69 7 -100 22c-10 -8 -15 -18 -15 -29c0 -24 23 -37 56 -37h140c101 0 165 -51 165 -139c0 -101 -86 -163 -245 -163c-65 0 -119 13 -160 39c-41 25 -62 65 -62 119zM334 311c0 52 -39 87 -91 87s-91 -35 -91 -87c0 -53 36 -87 91 -87
s91 34 91 87zM389 -50c0 39 -27 58 -80 58h-125c-17 0 -29 1 -37 2c-19 -14 -28 -34 -28 -60c0 -49 43 -74 130 -74c96 0 140 23 140 74z" />
    <glyph glyph-name="gbreve.ss03" horiz-adv-x="546" 
d="M22 -50c0 37 14 68 43 93c-22 20 -33 46 -33 77c0 37 20 68 51 88c-22 28 -33 62 -33 103c0 108 87 173 193 173c49 0 90 -12 125 -37c5 41 39 69 86 69c61 0 96 -36 100 -104l-90 -20c0 28 -11 45 -32 45c-15 0 -25 -10 -25 -23c0 -5 1 -10 4 -15c17 -30 25 -59 25 -88
c0 -109 -85 -173 -193 -173c-36 0 -69 7 -100 22c-10 -8 -15 -18 -15 -29c0 -24 23 -37 56 -37h140c101 0 165 -51 165 -139c0 -101 -86 -163 -245 -163c-65 0 -119 13 -160 39c-41 25 -62 65 -62 119zM334 311c0 52 -39 87 -91 87s-91 -35 -91 -87c0 -53 36 -87 91 -87
s91 34 91 87zM389 -50c0 39 -27 58 -80 58h-125c-17 0 -29 1 -37 2c-19 -14 -28 -34 -28 -60c0 -49 43 -74 130 -74c96 0 140 23 140 74zM369 664c0 -72 -53 -111 -125 -111s-125 39 -125 111c0 6 0 11 1 14h76l-1 -10c0 -25 20 -45 49 -45s49 20 49 45l-1 10h76
c1 -3 1 -8 1 -14z" />
    <glyph glyph-name="gcircumflex.ss03" horiz-adv-x="546" 
d="M22 -50c0 37 14 68 43 93c-22 20 -33 46 -33 77c0 37 20 68 51 88c-22 28 -33 62 -33 103c0 108 87 173 193 173c49 0 90 -12 125 -37c5 41 39 69 86 69c61 0 96 -36 100 -104l-90 -20c0 28 -11 45 -32 45c-15 0 -25 -10 -25 -23c0 -5 1 -10 4 -15c17 -30 25 -59 25 -88
c0 -109 -85 -173 -193 -173c-36 0 -69 7 -100 22c-10 -8 -15 -18 -15 -29c0 -24 23 -37 56 -37h140c101 0 165 -51 165 -139c0 -101 -86 -163 -245 -163c-65 0 -119 13 -160 39c-41 25 -62 65 -62 119zM334 311c0 52 -39 87 -91 87s-91 -35 -91 -87c0 -53 36 -87 91 -87
s91 34 91 87zM389 -50c0 39 -27 58 -80 58h-125c-17 0 -29 1 -37 2c-19 -14 -28 -34 -28 -60c0 -49 43 -74 130 -74c96 0 140 23 140 74zM85 555v16l125 108h68l125 -108v-16h-109l-50 64l-50 -64h-109z" />
    <glyph glyph-name="gcommaaccent.ss03" horiz-adv-x="546" 
d="M22 -50c0 37 14 68 43 93c-22 20 -33 46 -33 77c0 37 20 68 51 88c-22 28 -33 62 -33 103c0 108 87 173 193 173c49 0 90 -12 125 -37c5 41 39 69 86 69c61 0 96 -36 100 -104l-90 -20c0 28 -11 45 -32 45c-15 0 -25 -10 -25 -23c0 -5 1 -10 4 -15c17 -30 25 -59 25 -88
c0 -109 -85 -173 -193 -173c-36 0 -69 7 -100 22c-10 -8 -15 -18 -15 -29c0 -24 23 -37 56 -37h140c101 0 165 -51 165 -139c0 -101 -86 -163 -245 -163c-65 0 -119 13 -160 39c-41 25 -62 65 -62 119zM334 311c0 52 -39 87 -91 87s-91 -35 -91 -87c0 -53 36 -87 91 -87
s91 34 91 87zM389 -50c0 39 -27 58 -80 58h-125c-17 0 -29 1 -37 2c-19 -14 -28 -34 -28 -60c0 -49 43 -74 130 -74c96 0 140 23 140 74zM290 542h-120v150c0 68 45 90 110 90h30v-60h-36c-29 0 -44 -10 -44 -30s13 -30 34 -30h26v-120z" />
    <glyph glyph-name="gdotaccent.ss03" horiz-adv-x="546" 
d="M22 -50c0 37 14 68 43 93c-22 20 -33 46 -33 77c0 37 20 68 51 88c-22 28 -33 62 -33 103c0 108 87 173 193 173c49 0 90 -12 125 -37c5 41 39 69 86 69c61 0 96 -36 100 -104l-90 -20c0 28 -11 45 -32 45c-15 0 -25 -10 -25 -23c0 -5 1 -10 4 -15c17 -30 25 -59 25 -88
c0 -109 -85 -173 -193 -173c-36 0 -69 7 -100 22c-10 -8 -15 -18 -15 -29c0 -24 23 -37 56 -37h140c101 0 165 -51 165 -139c0 -101 -86 -163 -245 -163c-65 0 -119 13 -160 39c-41 25 -62 65 -62 119zM334 311c0 52 -39 87 -91 87s-91 -35 -91 -87c0 -53 36 -87 91 -87
s91 34 91 87zM389 -50c0 39 -27 58 -80 58h-125c-17 0 -29 1 -37 2c-19 -14 -28 -34 -28 -60c0 -49 43 -74 130 -74c96 0 140 23 140 74zM186 555v115h115v-115h-115z" />
    <glyph glyph-name="gcommaaccent.ss01.ss03" horiz-adv-x="546" 
d="M22 -50c0 37 14 68 43 93c-22 20 -33 46 -33 77c0 37 20 68 51 88c-22 28 -33 62 -33 103c0 108 87 173 193 173c49 0 90 -12 125 -37c5 41 39 69 86 69c61 0 96 -36 100 -104l-90 -20c0 28 -11 45 -32 45c-15 0 -25 -10 -25 -23c0 -5 1 -10 4 -15c17 -30 25 -59 25 -88
c0 -109 -85 -173 -193 -173c-36 0 -69 7 -100 22c-10 -8 -15 -18 -15 -29c0 -24 23 -37 56 -37h140c101 0 165 -51 165 -139c0 -101 -86 -163 -245 -163c-65 0 -119 13 -160 39c-41 25 -62 65 -62 119zM334 311c0 52 -39 87 -91 87s-91 -35 -91 -87c0 -53 36 -87 91 -87
s91 34 91 87zM389 -50c0 39 -27 58 -80 58h-125c-17 0 -29 1 -37 2c-19 -14 -28 -34 -28 -60c0 -49 43 -74 130 -74c96 0 140 23 140 74zM174 616v70c0 61 25 92 76 92h64v-56h-57c-15 0 -23 -7 -23 -18c0 -10 7 -16 22 -19c33 -7 58 -34 58 -69c0 -39 -31 -70 -70 -70
s-70 31 -70 70z" />
    <glyph glyph-name="gdotaccent.ss01.ss03" horiz-adv-x="546" 
d="M22 -50c0 37 14 68 43 93c-22 20 -33 46 -33 77c0 37 20 68 51 88c-22 28 -33 62 -33 103c0 108 87 173 193 173c49 0 90 -12 125 -37c5 41 39 69 86 69c61 0 96 -36 100 -104l-90 -20c0 28 -11 45 -32 45c-15 0 -25 -10 -25 -23c0 -5 1 -10 4 -15c17 -30 25 -59 25 -88
c0 -109 -85 -173 -193 -173c-36 0 -69 7 -100 22c-10 -8 -15 -18 -15 -29c0 -24 23 -37 56 -37h140c101 0 165 -51 165 -139c0 -101 -86 -163 -245 -163c-65 0 -119 13 -160 39c-41 25 -62 65 -62 119zM334 311c0 52 -39 87 -91 87s-91 -35 -91 -87c0 -53 36 -87 91 -87
s91 34 91 87zM389 -50c0 39 -27 58 -80 58h-125c-17 0 -29 1 -37 2c-19 -14 -28 -34 -28 -60c0 -49 43 -74 130 -74c96 0 140 23 140 74zM244 680c39 0 68 -29 68 -68c0 -37 -29 -67 -68 -67c-37 0 -67 30 -67 67c0 39 30 68 67 68z" />
    <glyph glyph-name="tcaron.ss01.ss04" horiz-adv-x="380" 
d="M115 0v384h-95v90h95v151h105v-151h140v-90h-140v-384h-105zM268 522v60h54c15 0 23 7 23 18c0 10 -7 16 -22 19c-33 7 -58 34 -58 69c0 39 31 70 70 70s70 -31 70 -70v-70c0 -65 -34 -96 -90 -96h-47z" />
    <glyph glyph-name="uni021B.ss01.ss04" horiz-adv-x="380" 
d="M115 0v384h-95v90h95v151h105v-151h140v-90h-140v-384h-105zM96 -262l13 59c15 -6 29 -9 40 -9c19 0 29 7 29 21c0 11 -4 13 -24 21c-33 13 -50 34 -50 63c0 39 27 65 63 65c39 0 70 -31 70 -70v-70c0 -60 -31 -90 -90 -90c-19 0 -36 3 -51 10z" />
    <glyph glyph-name="t.ss04" horiz-adv-x="380" 
d="M115 0v384h-95v90h95v151h105v-151h140v-90h-140v-384h-105z" />
    <glyph glyph-name="tbar.ss04" horiz-adv-x="380" 
d="M115 0v384h-95v90h95v151h105v-151h140v-90h-140v-384h-105zM30 309h314v-85h-314v85z" />
    <glyph glyph-name="tcaron.ss04" horiz-adv-x="380" 
d="M115 0v384h-95v90h95v151h105v-151h140v-90h-140v-384h-105zM268 522v60h23c29 0 44 10 44 30s-14 30 -34 30h-26v106h120v-131c0 -69 -46 -95 -110 -95h-17z" />
    <glyph glyph-name="uni0163.ss04" horiz-adv-x="380" 
d="M115 0v384h-95v90h95v151h105v-151h140v-90h-140v-384h-105zM170 -51c12 13 32 21 48 21c45 0 78 -29 78 -77c0 -51 -34 -81 -85 -81c-47 0 -82 22 -90 66l53 13c3 -17 16 -29 35 -29c21 0 34 12 34 31s-13 32 -34 32c-15 0 -27 -7 -34 -18l-52 10c7 24 13 57 20 99h56
c-9 -26 -18 -48 -29 -67z" />
    <glyph glyph-name="uni021B.ss04" horiz-adv-x="380" 
d="M115 0v384h-95v90h95v151h105v-151h140v-90h-140v-384h-105zM77 -265l13 60c15 -6 29 -9 43 -9c20 0 34 11 34 30c0 20 -14 30 -34 30h-26v102h118v-130c0 -65 -40 -92 -91 -92c-20 0 -39 3 -57 9z" />
    <glyph glyph-name="c_slash_o" horiz-adv-x="974" 
d="M36 527c0 106 82 183 180 183c87 0 153 -50 168 -131l-78 -24c-8 51 -40 80 -92 80c-51 0 -98 -40 -98 -108c0 -69 45 -112 102 -112c64 0 99 40 108 93l77 -26c-19 -91 -92 -142 -181 -142c-115 0 -186 74 -186 187zM260 60l-59 60l499 478l59 -60zM580 175
c0 105 75 185 179 185s179 -80 179 -185s-75 -185 -179 -185s-179 80 -179 185zM858 175c0 65 -39 110 -99 110s-99 -45 -99 -110s39 -110 99 -110s99 45 99 110z" />
    <glyph glyph-name="f_b" horiz-adv-x="873" 
d="M837 234c0 -145 -90 -244 -225 -244c-63 0 -122 27 -155 80v-70h-100v545c0 44 -22 75 -69 75s-69 -31 -69 -75v-71h90v-90h-90v-384h-105v384h-105v90h105v76c0 92 58 160 174 160s174 -68 174 -160v-160c32 57 95 94 160 94c129 0 215 -105 215 -250zM732 234
c0 91 -62 155 -137 155c-70 0 -137 -63 -137 -155s65 -151 137 -151c76 0 137 60 137 151z" />
    <glyph glyph-name="f_f_b" horiz-adv-x="1116" 
d="M700 70v-70h-100v545c0 44 -22 75 -69 75s-69 -31 -69 -75v-71h90v-90h-90v-384h-105v384h-138v-384h-105v384h-105v90h105v76c0 95 69 160 173 160c55 0 101 -18 124 -54c23 32 69 54 120 54c116 0 174 -68 174 -160v-160c32 57 95 94 160 94c129 0 215 -105 215 -250
s-90 -244 -225 -244c-63 0 -122 27 -155 80zM219 474h138v71c0 50 -23 75 -68 75c-44 0 -70 -30 -70 -75v-71zM975 234c0 91 -62 155 -137 155c-70 0 -137 -63 -137 -155s65 -151 137 -151c76 0 137 60 137 151z" />
    <glyph glyph-name="f_f_h" horiz-adv-x="1102" 
d="M114 0v384h-105v90h105v76c0 95 69 160 173 160c55 0 101 -18 124 -54c23 32 69 54 120 54c116 0 174 -68 174 -160v-173c25 67 85 107 164 107c104 0 169 -71 169 -172v-312h-105v282c0 75 -38 115 -109 115c-68 0 -119 -56 -119 -145v-252h-105v545c0 44 -22 75 -69 75
s-69 -31 -69 -75v-71h90v-90h-90v-384h-105v384h-138v-384h-105zM219 474h138v71c0 50 -23 75 -68 75c-44 0 -70 -30 -70 -75v-71z" />
    <glyph glyph-name="f_f_j" horiz-adv-x="764" 
d="M600 -198v582h-138v-384h-105v384h-138v-384h-105v384h-105v90h105v76c0 95 69 160 173 160c55 0 102 -18 125 -54c23 33 64 54 115 54c113 0 166 -65 166 -148c0 -10 0 -18 -1 -23h-100c1 7 2 13 2 20c0 36 -24 61 -67 61c-40 0 -65 -26 -65 -73v-73h243v-672h-105z
M219 474h138v71c0 50 -23 75 -68 75c-44 0 -70 -30 -70 -75v-71z" />
    <glyph glyph-name="f_f_k" horiz-adv-x="1052" 
d="M114 0v384h-105v90h105v76c0 95 69 160 173 160c55 0 101 -18 124 -54c23 32 69 54 120 54c116 0 174 -68 174 -160v-275l180 199h135l-184 -194l194 -280h-125l-141 204l-59 -62v-142h-105v545c0 44 -22 75 -69 75s-69 -31 -69 -75v-71h90v-90h-90v-384h-105v384h-138
v-384h-105zM219 474h138v71c0 50 -23 75 -68 75c-44 0 -70 -30 -70 -75v-71z" />
    <glyph glyph-name="f_f_t" horiz-adv-x="956" 
d="M600 150v234h-138v-384h-105v384h-138v-384h-105v384h-105v90h105v76c0 95 69 160 173 160c55 0 101 -18 124 -54c23 32 69 54 120 54c116 0 174 -68 174 -160v-76h180v-90h-180v-239c0 -43 27 -65 60 -65c40 0 61 25 65 80l100 -20c-9 -95 -69 -150 -160 -150
c-112 0 -170 61 -170 160zM219 474h138v71c0 50 -23 75 -68 75c-44 0 -70 -30 -70 -75v-71zM462 474h138v71c0 44 -22 75 -69 75s-69 -31 -69 -75v-71z" />
    <glyph glyph-name="f_h" horiz-adv-x="859" 
d="M114 0v384h-105v90h105v76c0 92 58 160 174 160s174 -68 174 -160v-173c25 67 85 107 164 107c104 0 169 -71 169 -172v-312h-105v282c0 75 -38 115 -109 115c-68 0 -119 -56 -119 -145v-252h-105v545c0 44 -22 75 -69 75s-69 -31 -69 -75v-71h100v-90h-100v-384h-105z
" />
    <glyph glyph-name="f_i" horiz-adv-x="520" 
d="M461 474v-474h-105v384h-138v-384h-105v384h-104v90h104v76c0 95 66 160 170 160c113 0 166 -65 166 -148c0 -10 0 -18 -1 -23h-100c1 7 2 13 2 20c0 36 -24 61 -67 61c-40 0 -65 -26 -65 -73v-73h243z" />
    <glyph glyph-name="f_j" horiz-adv-x="520" 
d="M461 474v-672h-105v582h-138v-384h-105v384h-104v90h104v76c0 95 66 160 170 160c113 0 166 -65 166 -148c0 -10 0 -18 -1 -23h-100c1 7 2 13 2 20c0 36 -24 61 -67 61c-40 0 -65 -26 -65 -73v-73h243z" />
    <glyph glyph-name="f_k" horiz-adv-x="809" 
d="M114 0v384h-105v90h105v76c0 92 58 160 174 160s174 -68 174 -160v-275l180 199h135l-184 -194l194 -280h-125l-141 204l-59 -62v-142h-105v545c0 44 -22 75 -69 75s-69 -31 -69 -75v-71h90v-90h-90v-384h-105z" />
    <glyph glyph-name="f_l" horiz-adv-x="526" 
d="M114 0v384h-105v90h105v76c0 92 58 160 174 160s174 -68 174 -160v-550h-105v545c0 44 -22 75 -69 75s-69 -31 -69 -75v-71h90v-90h-90v-384h-105z" />
    <glyph glyph-name="f_t" horiz-adv-x="713" 
d="M357 150v234h-138v-384h-105v384h-105v90h105v76c0 92 58 160 174 160s174 -68 174 -160v-76h180v-90h-180v-239c0 -43 27 -65 60 -65c40 0 61 25 65 80l100 -20c-9 -95 -69 -150 -160 -150c-112 0 -170 61 -170 160zM219 474h138v71c0 44 -22 75 -69 75s-69 -31 -69 -75
v-71z" />
    <glyph glyph-name="i_m" horiz-adv-x="763" 
d="M64 474h105v-474h-105v474zM59 555v115h115v-115h-115zM64 474h105v-67c21 48 62 77 125 77c59 0 106 -32 125 -99c24 67 76 99 135 99c88 0 145 -57 145 -164v-320h-105v297c0 59 -33 93 -80 93s-80 -34 -80 -93v-297h-105v297c0 59 -33 93 -80 93
c-48 0 -80 -36 -80 -103v-287h-105v474z" />
    <glyph glyph-name="t_t" horiz-adv-x="701" 
d="M115 150v234h-95v90h95v151h105v-151h125v151h105v-151h180v-90h-180v-239c0 -43 27 -65 60 -65c40 0 61 25 65 80l100 -20c-9 -95 -69 -150 -160 -150c-55 0 -95 17 -122 50c-29 -33 -65 -50 -108 -50c-112 0 -170 61 -170 160zM345 160v224h-125v-239
c0 -43 27 -65 60 -65c40 0 65 31 65 80z" />
    <glyph glyph-name="w_w_w" horiz-adv-x="1660" 
d="M145 0l-140 474h105l100 -369l95 369h120l95 -369l95 369h120l95 -369l95 369h120l95 -369l95 369h120l95 -369l100 369h105l-140 -474h-125l-95 333l-95 -333h-120l-95 333l-95 -333h-120l-95 333l-95 -333h-120l-95 333l-95 -333h-125z" />
    <glyph glyph-name="i_m.ss01" horiz-adv-x="763" 
d="M64 474h105v-474h-105v474zM117 680c39 0 68 -29 68 -68c0 -37 -29 -67 -68 -67c-37 0 -67 30 -67 67c0 39 30 68 67 68zM64 474h105v-67c21 48 62 77 125 77c59 0 106 -32 125 -99c24 67 76 99 135 99c88 0 145 -57 145 -164v-320h-105v297c0 59 -33 93 -80 93
s-80 -34 -80 -93v-297h-105v297c0 59 -33 93 -80 93c-48 0 -80 -36 -80 -103v-287h-105v474z" />
    <glyph glyph-name="f_f_t.ss04" horiz-adv-x="911" 
d="M114 0v384h-105v90h105v76c0 95 69 160 173 160c55 0 101 -18 124 -54c23 32 69 54 120 54c116 0 174 -68 174 -160v-76h180v-90h-180v-384h-105v384h-138v-384h-105v384h-138v-384h-105zM219 474h138v71c0 50 -23 75 -68 75c-44 0 -70 -30 -70 -75v-71zM462 474h138v71
c0 44 -22 75 -69 75s-69 -31 -69 -75v-71z" />
    <glyph glyph-name="f_t.ss04" horiz-adv-x="668" 
d="M114 0v384h-105v90h105v76c0 92 58 160 174 160s174 -68 174 -160v-76h180v-90h-180v-384h-105v384h-138v-384h-105zM219 474h138v71c0 44 -22 75 -69 75s-69 -31 -69 -75v-71z" />
    <glyph glyph-name="t_t.ss04" horiz-adv-x="616" 
d="M115 0v384h-95v90h95v151h105v-151h125v151h105v-151h140v-90h-140v-384h-105v384h-125v-384h-105z" />
    <glyph glyph-name="ordfeminine" unicode="&#xaa;" horiz-adv-x="471" 
d="M39 394c0 91 67 136 162 136c27 0 54 -4 81 -11l40 -10v35c0 56 -41 89 -98 89c-56 0 -93 -32 -104 -83l-84 23c20 83 87 137 188 137c121 0 189 -63 189 -172v-267h-89v69c-23 -48 -72 -78 -144 -78c-75 0 -141 49 -141 132zM322 432v6l-33 10c-27 8 -52 12 -73 12
c-48 0 -79 -20 -79 -59c0 -36 27 -60 79 -60c63 0 106 34 106 91z" />
    <glyph glyph-name="ordmasculine" unicode="&#xba;" horiz-adv-x="500" 
d="M250 710c133 0 218 -92 218 -224s-85 -224 -218 -224s-218 92 -218 224s85 224 218 224zM250 348c72 0 122 57 122 138s-50 138 -122 138s-122 -57 -122 -138s50 -138 122 -138z" />
    <glyph glyph-name="uni0410" unicode="&#x410;" horiz-adv-x="752" 
d="M12 0l288 700h152l288 -700h-124l-67 170h-346l-67 -170h-124zM242 270h268l-134 339z" />
    <glyph glyph-name="uni0411" unicode="&#x411;" horiz-adv-x="703" 
d="M72 0v700h495v-105h-385v-183h245c132 0 230 -77 230 -206s-98 -206 -230 -206h-355zM182 105h240c71 0 120 42 120 101s-49 101 -120 101h-240v-202z" />
    <glyph glyph-name="uni0412" unicode="&#x412;" horiz-adv-x="698" 
d="M72 0v700h330c129 0 225 -81 225 -185c0 -69 -39 -124 -110 -155c83 -20 135 -82 135 -170c0 -109 -101 -190 -230 -190h-350zM182 410h215c79 0 120 34 120 95c0 57 -51 90 -120 90h-215v-185zM182 105h235c71 0 120 40 120 100c0 57 -48 105 -120 105h-235v-205z" />
    <glyph glyph-name="uni0413" unicode="&#x413;" horiz-adv-x="620" 
d="M592 595h-410v-595h-110v700h520v-105z" />
    <glyph glyph-name="uni0403" unicode="&#x403;" horiz-adv-x="620" 
d="M592 595h-410v-595h-110v700h520v-105zM282 781l86 133h135v-16l-121 -117h-100z" />
    <glyph glyph-name="uni0490" unicode="&#x490;" horiz-adv-x="620" 
d="M492 870h100v-275h-410v-595h-110v700h420v170z" />
    <glyph glyph-name="uni0414" unicode="&#x414;" horiz-adv-x="723" 
d="M24 -110v210h70c29 39 50 76 63 111c14 36 23 73 26 111c4 38 6 89 6 153v225h425v-600h85v-210h-100v110h-475v-110h-100zM219 100h285v500h-210v-125c0 -89 -5 -161 -15 -217c-9 -56 -29 -109 -60 -158z" />
    <glyph glyph-name="uni0415" unicode="&#x415;" horiz-adv-x="642" 
d="M72 700h510v-105h-400v-180h370v-105h-370v-205h410v-105h-520v700z" />
    <glyph glyph-name="uni0400" unicode="&#x400;" horiz-adv-x="642" 
d="M72 700h510v-105h-400v-180h370v-105h-370v-205h410v-105h-520v700zM262 781l-121 117v16h135l86 -133h-100z" />
    <glyph glyph-name="uni0401" unicode="&#x401;" horiz-adv-x="642" 
d="M72 700h510v-105h-400v-180h370v-105h-370v-205h410v-105h-520v700zM167 789v112h110v-112h-110zM347 789v112h110v-112h-110z" />
    <glyph glyph-name="uni0416" unicode="&#x416;" horiz-adv-x="1058" 
d="M689 365l355 -365h-155l-305 317v-317h-110v317l-305 -317h-155l355 365l-335 335h145l295 -296v296h110v-296l295 296h145z" />
    <glyph glyph-name="uni0417" unicode="&#x417;" horiz-adv-x="591" 
d="M40 210l105 40c5 -91 59 -155 155 -155c83 0 135 33 135 100c0 68 -43 105 -115 105h-45v105h40c73 0 110 32 110 97c0 64 -50 103 -130 103c-71 0 -120 -41 -135 -120l-100 45c27 109 109 180 240 180c71 0 127 -18 170 -54c43 -35 65 -84 65 -146
c0 -80 -39 -135 -110 -155c71 -16 120 -71 120 -160c0 -65 -23 -116 -69 -152c-46 -35 -106 -53 -181 -53c-155 0 -239 100 -255 220z" />
    <glyph glyph-name="uni0418" unicode="&#x418;" horiz-adv-x="771" 
d="M589 620l-326 -620h-191v700h110v-621l326 621h191v-700h-110v620z" />
    <glyph glyph-name="uni0419" unicode="&#x419;" horiz-adv-x="771" 
d="M589 620l-326 -620h-191v700h110v-621l326 621h191v-700h-110v620zM499 890c0 -72 -53 -111 -125 -111s-125 39 -125 111c0 6 0 11 1 14h76l-1 -10c0 -25 20 -45 49 -45s49 20 49 45l-1 10h76c1 -3 1 -8 1 -14z" />
    <glyph glyph-name="uni040D" unicode="&#x40d;" horiz-adv-x="771" 
d="M589 620l-326 -620h-191v700h110v-621l326 621h191v-700h-110v620zM324 781l-121 117v16h135l86 -133h-100z" />
    <glyph glyph-name="uni041A" unicode="&#x41a;" horiz-adv-x="656" 
d="M72 0v700h110v-296l295 296h145l-335 -335l355 -365h-155l-305 317v-317h-110z" />
    <glyph glyph-name="uni040C" unicode="&#x40c;" horiz-adv-x="656" 
d="M72 0v700h110v-296l295 296h145l-335 -335l355 -365h-155l-305 317v-317h-110zM277 781l86 133h135v-16l-121 -117h-100z" />
    <glyph glyph-name="uni041B" unicode="&#x41b;" horiz-adv-x="708" 
d="M26 0v16c39 69 60 170 60 334v350h550v-700h-110v600h-330v-240c0 -167 -18 -287 -55 -360h-115z" />
    <glyph glyph-name="uni041C" unicode="&#x41c;" horiz-adv-x="944" 
d="M872 0h-110v639l-205 -639h-170l-205 639v-639h-110v700h205l195 -615l195 615h205v-700z" />
    <glyph glyph-name="uni041D" unicode="&#x41d;" horiz-adv-x="744" 
d="M562 295h-380v-295h-110v700h110v-305h380v305h110v-700h-110v295z" />
    <glyph glyph-name="uni041E" unicode="&#x41e;" horiz-adv-x="814" 
d="M407 710c200 4 369 -164 365 -360c4 -197 -165 -364 -365 -360c-200 -4 -369 163 -365 360c-4 196 165 364 365 360zM407 95c138 0 250 104 250 255s-109 255 -250 255s-250 -106 -250 -256c0 -152 112 -254 250 -254z" />
    <glyph glyph-name="uni041F" unicode="&#x41f;" horiz-adv-x="744" 
d="M562 600h-380v-600h-110v700h600v-700h-110v600z" />
    <glyph glyph-name="uni0420" unicode="&#x420;" horiz-adv-x="666" 
d="M182 280v-280h-110v700h325c146 0 225 -97 225 -210c0 -109 -80 -210 -225 -210h-215zM182 385h205c71 0 120 41 120 105s-49 105 -120 105h-205v-210z" />
    <glyph glyph-name="uni0421" unicode="&#x421;" horiz-adv-x="784" 
d="M157 350c0 -163 98 -260 240 -260c73 0 131 21 174 63s70 94 81 157l100 -40c-36 -162 -163 -280 -355 -280c-211 -3 -357 157 -355 360c-4 201 156 364 355 360c178 0 283 -109 315 -235l-100 -45c-21 105 -96 180 -215 180c-136 0 -240 -103 -240 -260z" />
    <glyph glyph-name="uni0422" unicode="&#x422;" horiz-adv-x="676" 
d="M648 700v-105h-255v-595h-110v595h-255v105h620z" />
    <glyph glyph-name="uni0423" unicode="&#x423;" horiz-adv-x="703" 
d="M115 0l175 265l-276 435h132l206 -335l208 335h129l-440 -700h-134z" />
    <glyph glyph-name="uni040E" unicode="&#x40e;" horiz-adv-x="703" 
d="M115 0l175 265l-276 435h132l206 -335l208 335h129l-440 -700h-134zM478 890c0 -72 -53 -111 -125 -111s-125 39 -125 111c0 6 0 11 1 14h76l-1 -10c0 -25 20 -45 49 -45s49 20 49 45l-1 10h76c1 -3 1 -8 1 -14z" />
    <glyph glyph-name="uni0424" unicode="&#x424;" horiz-adv-x="828" 
d="M469 0h-110v80h-57c-148 0 -260 121 -260 270c-3 142 115 273 260 270h57v80h110v-80h57c145 3 263 -128 260 -270c0 -149 -112 -270 -260 -270h-57v-80zM316 185h43v330h-43c-97 0 -164 -74 -164 -165s67 -165 164 -165zM512 515h-43v-330h43c97 0 164 74 164 165
s-67 165 -164 165z" />
    <glyph glyph-name="uni0425" unicode="&#x425;" horiz-adv-x="692" 
d="M16 0l265 380l-225 320h135l155 -235l155 235h135l-225 -320l265 -380h-135l-195 290l-195 -290h-135z" />
    <glyph glyph-name="uni0427" unicode="&#x427;" horiz-adv-x="692" 
d="M510 0v235c-45 -47 -117 -77 -201 -77c-157 0 -245 109 -245 252v290h110v-272c0 -105 61 -165 160 -165c67 0 119 28 176 93v344h110v-700h-110z" />
    <glyph glyph-name="uni0426" unicode="&#x426;" horiz-adv-x="701" 
d="M577 -110v110h-505v700h110v-600h300v600h110v-600h85v-210h-100z" />
    <glyph glyph-name="uni0428" unicode="&#x428;" horiz-adv-x="942" 
d="M760 700h110v-700h-798v700h110v-600h234v600h110v-600h234v600z" />
    <glyph glyph-name="uni0429" unicode="&#x429;" horiz-adv-x="979" 
d="M855 -110v110h-783v700h110v-600h234v600h110v-600h234v600h110v-600h85v-210h-100z" />
    <glyph glyph-name="uni040F" unicode="&#x40f;" horiz-adv-x="676" 
d="M288 -110v110h-216v700h110v-600h312v600h110v-700h-216v-110h-100z" />
    <glyph glyph-name="uni042C" unicode="&#x42c;" horiz-adv-x="699" 
d="M72 0v700h110v-288h241c132 0 230 -77 230 -206s-98 -206 -230 -206h-351zM182 105h236c71 0 120 42 120 101s-49 101 -120 101h-236v-202z" />
    <glyph glyph-name="uni042A" unicode="&#x42a;" horiz-adv-x="799" 
d="M753 206c0 -129 -98 -206 -230 -206h-351v595h-144v105h254v-288h241c132 0 230 -77 230 -206zM638 206c0 59 -49 101 -120 101h-236v-202h236c71 0 120 42 120 101z" />
    <glyph glyph-name="uni042B" unicode="&#x42b;" horiz-adv-x="953" 
d="M72 0v700h110v-288h241c132 0 230 -77 230 -206s-98 -206 -230 -206h-351zM182 105h236c71 0 120 42 120 101s-49 101 -120 101h-236v-202zM771 0v700h110v-700h-110z" />
    <glyph glyph-name="uni0409" unicode="&#x409;" horiz-adv-x="1023" 
d="M26 0v16c39 69 60 170 60 334v350h475v-280h191c145 0 225 -101 225 -210c0 -113 -79 -210 -225 -210h-301v600h-255v-240c0 -167 -18 -287 -55 -360h-115zM561 105h181c71 0 120 41 120 105s-49 105 -120 105h-181v-210z" />
    <glyph glyph-name="uni040A" unicode="&#x40a;" horiz-adv-x="994" 
d="M72 0v700h110v-280h255v280h110v-280h176c145 0 225 -101 225 -210c0 -113 -79 -210 -225 -210h-286v315h-255v-315h-110zM547 105h166c71 0 120 41 120 105s-49 105 -120 105h-166v-210z" />
    <glyph glyph-name="uni0405" unicode="&#x405;" horiz-adv-x="642" 
d="M314 605c-76 0 -125 -37 -125 -85c0 -64 71 -94 179 -115c161 -31 241 -93 241 -205c0 -120 -111 -210 -273 -210c-67 0 -129 16 -188 48c-58 33 -99 88 -124 167l105 65c25 -113 100 -175 208 -175c95 0 157 41 157 100c0 56 -45 90 -165 110c-161 28 -250 91 -250 214
c0 103 99 191 245 191c117 0 216 -62 255 -170l-105 -60c-19 80 -73 125 -160 125z" />
    <glyph glyph-name="uni0404" unicode="&#x404;" horiz-adv-x="784" 
d="M652 310l100 -40c-36 -162 -163 -280 -355 -280c-211 -3 -357 157 -355 360c-4 201 156 364 355 360c178 0 283 -109 315 -235l-100 -45c-21 105 -96 180 -215 180c-60 0 -112 -18 -155 -55s-70 -87 -81 -150h302v-105h-303c17 -132 109 -210 237 -210
c73 0 131 21 174 63s70 94 81 157z" />
    <glyph glyph-name="uni042D" unicode="&#x42d;" horiz-adv-x="784" 
d="M32 270l100 40c11 -63 38 -115 81 -157s101 -63 174 -63c128 0 223 78 242 210h-312v105h312c-22 125 -123 205 -242 205s-194 -75 -215 -180l-100 45c18 67 54 122 108 167s125 68 214 68c197 4 351 -155 348 -360c2 -205 -139 -363 -355 -360c-194 0 -319 117 -355 280
z" />
    <glyph glyph-name="uni0406" unicode="&#x406;" horiz-adv-x="254" 
d="M72 0v700h110v-700h-110z" />
    <glyph glyph-name="uni0407" unicode="&#x407;" horiz-adv-x="254" 
d="M72 0v700h110v-700h-110zM-18 789v112h110v-112h-110zM162 789v112h110v-112h-110z" />
    <glyph glyph-name="uni0408" unicode="&#x408;" horiz-adv-x="602" 
d="M428 700h110v-465c0 -68 -19 -126 -58 -174c-38 -47 -100 -71 -187 -71c-157 0 -245 104 -245 240c0 45 10 85 30 120l105 -40c-17 -25 -25 -55 -25 -90c0 -73 59 -125 135 -125c91 0 135 60 135 153v452z" />
    <glyph glyph-name="uni040B" unicode="&#x40b;" horiz-adv-x="809" 
d="M283 0v595h-255v105h620v-105h-255v-201c29 57 94 90 170 90c108 0 176 -68 176 -172v-312h-110v277c0 75 -40 115 -111 115c-66 0 -125 -52 -125 -137v-255h-110z" />
    <glyph glyph-name="uni042E" unicode="&#x42e;" horiz-adv-x="1108" 
d="M1066 350c4 -197 -165 -364 -365 -360c-181 -3 -338 134 -361 305h-158v-295h-110v700h110v-305h157c19 175 178 318 362 315c200 4 369 -164 365 -360zM951 350c0 151 -109 255 -250 255s-250 -106 -250 -256c0 -152 112 -254 250 -254s250 104 250 255z" />
    <glyph glyph-name="uni042F" unicode="&#x42f;" horiz-adv-x="681" 
d="M44 0v16l230 274c-141 0 -225 94 -225 215c0 106 84 195 225 195h335v-700h-110v290h-80l-240 -290h-135zM284 395h215v200h-215c-76 0 -120 -36 -120 -100s44 -100 120 -100z" />
    <glyph glyph-name="uni0402" unicode="&#x402;" horiz-adv-x="842" 
d="M611 -110v16c49 91 75 175 75 278c0 132 -48 198 -144 198c-91 0 -149 -72 -149 -177v-205h-110v600h-255v100h620v-100h-255v-215c36 60 88 99 179 99c75 0 131 -27 168 -81c37 -53 56 -124 56 -213c0 -62 -6 -115 -19 -160c-13 -44 -31 -91 -55 -140h-111z" />
    <glyph glyph-name="uni0462" unicode="&#x462;" horiz-adv-x="767" 
d="M721 206c0 -129 -98 -206 -230 -206h-351v521h-138v90h138v89h110v-89h146v-90h-146v-109h241c132 0 230 -77 230 -206zM606 206c0 59 -49 101 -120 101h-236v-202h236c71 0 120 42 120 101z" />
    <glyph glyph-name="uni0472" unicode="&#x472;" horiz-adv-x="814" 
d="M772 350c4 -197 -165 -364 -365 -360c-200 -4 -369 163 -365 360c-4 196 165 364 365 360c200 4 369 -164 365 -360zM162 405c35 24 74 36 119 36c64 0 99 -17 146 -46c41 -25 64 -37 104 -37c54 0 94 17 120 50c-12 59 -41 107 -86 143s-97 54 -158 54
s-115 -18 -160 -55c-45 -36 -73 -84 -85 -145zM652 294c-33 -23 -73 -35 -118 -35c-67 0 -99 16 -150 47c-37 24 -60 36 -100 36c-51 0 -91 -17 -121 -52c13 -59 41 -107 86 -142s98 -53 158 -53c61 0 114 18 159 54c45 37 74 85 86 145z" />
    <glyph glyph-name="uni0474" unicode="&#x474;" horiz-adv-x="846" 
d="M298 0l-288 700h124l240 -611l206 526c33 85 81 105 140 105c51 0 95 -29 118 -85l-84 -47c-3 16 -14 27 -30 27c-17 0 -30 -11 -39 -32l-235 -583h-152z" />
    <glyph glyph-name="uni0492" unicode="&#x492;" horiz-adv-x="664" 
d="M616 595h-410v-185h254v-100h-254v-310h-110v310h-80v100h80v290h520v-105z" />
    <glyph glyph-name="uni0496" unicode="&#x496;" horiz-adv-x="1058" 
d="M689 365l355 -365h-155l-305 317v-317h-110v317l-305 -317h-155l355 365l-335 335h145l295 -296v296h110v-296l295 296h145zM946 -110v210h100v-210h-100z" />
    <glyph glyph-name="uni0498" unicode="&#x498;" horiz-adv-x="591" 
d="M40 210l105 40c5 -91 59 -155 155 -155c83 0 135 33 135 100c0 68 -43 105 -115 105h-45v105h40c73 0 110 32 110 97c0 64 -50 103 -130 103c-71 0 -120 -41 -135 -120l-100 45c27 109 109 180 240 180c71 0 127 -18 170 -54c43 -35 65 -84 65 -146
c0 -80 -39 -135 -110 -155c71 -16 120 -71 120 -160c0 -65 -23 -116 -69 -152c-46 -35 -106 -53 -181 -53c-155 0 -239 100 -255 220zM272 -51c12 13 32 21 48 21c45 0 78 -29 78 -77c0 -51 -34 -81 -85 -81c-47 0 -82 22 -90 66l53 13c3 -17 16 -29 35 -29
c21 0 34 12 34 31s-13 32 -34 32c-15 0 -27 -7 -34 -18l-52 10c7 24 13 57 20 99h56c-9 -26 -18 -48 -29 -67z" />
    <glyph glyph-name="uni049A" unicode="&#x49a;" horiz-adv-x="656" 
d="M72 0v700h110v-296l295 296h145l-335 -335l355 -365h-155l-305 317v-317h-110zM544 -110v210h100v-210h-100z" />
    <glyph glyph-name="uni04A0" unicode="&#x4a0;" horiz-adv-x="823" 
d="M454 365l355 -365h-155l-305 317v-317h-110v605h-211v95h321v-296l295 296h145z" />
    <glyph glyph-name="uni04A2" unicode="&#x4a2;" horiz-adv-x="744" 
d="M562 295h-380v-295h-110v700h110v-305h380v305h110v-700h-110v295zM660 -110v210h100v-210h-100z" />
    <glyph glyph-name="uni04AA" unicode="&#x4aa;" horiz-adv-x="784" 
d="M157 350c0 -163 98 -260 240 -260c73 0 131 21 174 63s70 94 81 157l100 -40c-36 -162 -163 -280 -355 -280c-211 -3 -357 157 -355 360c-4 201 156 364 355 360c178 0 283 -109 315 -235l-100 -45c-21 105 -96 180 -215 180c-136 0 -240 -103 -240 -260zM371 -51
c12 13 32 21 48 21c45 0 78 -29 78 -77c0 -51 -34 -81 -85 -81c-47 0 -82 22 -90 66l53 13c3 -17 16 -29 35 -29c21 0 34 12 34 31s-13 32 -34 32c-15 0 -27 -7 -34 -18l-52 10c7 24 13 57 20 99h56c-9 -26 -18 -48 -29 -67z" />
    <glyph glyph-name="uni04AE" unicode="&#x4ae;" horiz-adv-x="694" 
d="M147 700l200 -318l210 318h125l-280 -415v-285h-110v285l-280 415h135z" />
    <glyph glyph-name="uni04B0" unicode="&#x4b0;" horiz-adv-x="694" 
d="M682 700l-223 -330h110v-85h-167v-285h-110v285h-167v85h110l-223 330h135l200 -318l210 318h125z" />
    <glyph glyph-name="uni04B2" unicode="&#x4b2;" horiz-adv-x="692" 
d="M16 0l265 380l-225 320h135l155 -235l155 235h135l-225 -320l265 -380h-135l-195 290l-195 -290h-135zM600 -110v210h100v-210h-100z" />
    <glyph glyph-name="uni04B6" unicode="&#x4b6;" horiz-adv-x="692" 
d="M510 0v235c-45 -47 -117 -77 -201 -77c-157 0 -245 109 -245 252v290h110v-272c0 -105 61 -165 160 -165c67 0 119 28 176 93v344h110v-700h-110zM620 -110v210h100v-210h-100z" />
    <glyph glyph-name="uni04BA" unicode="&#x4ba;" horiz-adv-x="692" 
d="M72 0v700h110v-235c45 47 117 77 201 77c157 0 245 -109 245 -252v-290h-110v272c0 105 -61 165 -160 165c-67 0 -119 -28 -176 -93v-344h-110z" />
    <glyph glyph-name="uni04C0" unicode="&#x4c0;" horiz-adv-x="254" 
d="M72 0v700h110v-700h-110z" />
    <glyph glyph-name="uni04C1" unicode="&#x4c1;" horiz-adv-x="1058" 
d="M689 365l355 -365h-155l-305 317v-317h-110v317l-305 -317h-155l355 365l-335 335h145l295 -296v296h110v-296l295 296h145zM654 890c0 -72 -53 -111 -125 -111s-125 39 -125 111c0 6 0 11 1 14h76l-1 -10c0 -25 20 -45 49 -45s49 20 49 45l-1 10h76c1 -3 1 -8 1 -14z
" />
    <glyph glyph-name="uni04D0" unicode="&#x4d0;" horiz-adv-x="752" 
d="M12 0l288 700h152l288 -700h-124l-67 170h-346l-67 -170h-124zM242 270h268l-134 339zM501 890c0 -72 -53 -111 -125 -111s-125 39 -125 111c0 6 0 11 1 14h76l-1 -10c0 -25 20 -45 49 -45s49 20 49 45l-1 10h76c1 -3 1 -8 1 -14z" />
    <glyph glyph-name="uni04D2" unicode="&#x4d2;" horiz-adv-x="752" 
d="M12 0l288 700h152l288 -700h-124l-67 170h-346l-67 -170h-124zM242 270h268l-134 339zM231 789v112h110v-112h-110zM411 789v112h110v-112h-110z" />
    <glyph glyph-name="uni04D4" unicode="&#x4d4;" horiz-adv-x="971" 
d="M560 105h361v-105h-471v170h-224l-90 -170h-124l372 700h527v-105h-351v-180h321v-105h-321v-205zM450 270v325l-172 -325h172z" />
    <glyph glyph-name="uni04D6" unicode="&#x4d6;" horiz-adv-x="642" 
d="M72 700h510v-105h-400v-180h370v-105h-370v-205h410v-105h-520v700zM437 890c0 -72 -53 -111 -125 -111s-125 39 -125 111c0 6 0 11 1 14h76l-1 -10c0 -25 20 -45 49 -45s49 20 49 45l-1 10h76c1 -3 1 -8 1 -14z" />
    <glyph glyph-name="uni04D8" unicode="&#x4d8;" horiz-adv-x="724" 
d="M682 350c2 -200 -135 -363 -337 -360c-179 0 -312 121 -312 304c0 29 3 55 8 80h530c-9 148 -103 231 -240 231c-95 0 -163 -59 -195 -143l-104 41c21 61 57 110 109 149s116 58 192 58c211 0 349 -141 349 -360zM564 274h-407c0 -1 -2 -7 -2 -14c0 -91 81 -165 192 -165
c112 0 193 67 217 179z" />
    <glyph glyph-name="uni04DA" unicode="&#x4da;" horiz-adv-x="724" 
d="M682 350c2 -200 -135 -363 -337 -360c-179 0 -312 121 -312 304c0 29 3 55 8 80h530c-9 148 -103 231 -240 231c-95 0 -163 -59 -195 -143l-104 41c21 61 57 110 109 149s116 58 192 58c211 0 349 -141 349 -360zM564 274h-407c0 -1 -2 -7 -2 -14c0 -91 81 -165 192 -165
c112 0 193 67 217 179zM188 789v112h110v-112h-110zM368 789v112h110v-112h-110z" />
    <glyph glyph-name="uni04DC" unicode="&#x4dc;" horiz-adv-x="1058" 
d="M689 365l355 -365h-155l-305 317v-317h-110v317l-305 -317h-155l355 365l-335 335h145l295 -296v296h110v-296l295 296h145zM384 789v112h110v-112h-110zM564 789v112h110v-112h-110z" />
    <glyph glyph-name="uni04DE" unicode="&#x4de;" horiz-adv-x="591" 
d="M40 210l105 40c5 -91 59 -155 155 -155c83 0 135 33 135 100c0 68 -43 105 -115 105h-45v105h40c73 0 110 32 110 97c0 64 -50 103 -130 103c-71 0 -120 -41 -135 -120l-100 45c27 109 109 180 240 180c71 0 127 -18 170 -54c43 -35 65 -84 65 -146
c0 -80 -39 -135 -110 -155c71 -16 120 -71 120 -160c0 -65 -23 -116 -69 -152c-46 -35 -106 -53 -181 -53c-155 0 -239 100 -255 220zM155 789v112h110v-112h-110zM335 789v112h110v-112h-110z" />
    <glyph glyph-name="uni04E2" unicode="&#x4e2;" horiz-adv-x="771" 
d="M589 620l-326 -620h-191v700h110v-621l326 621h191v-700h-110v620zM244 880h260v-78h-260v78z" />
    <glyph glyph-name="uni04E4" unicode="&#x4e4;" horiz-adv-x="771" 
d="M589 620l-326 -620h-191v700h110v-621l326 621h191v-700h-110v620zM229 789v112h110v-112h-110zM409 789v112h110v-112h-110z" />
    <glyph glyph-name="uni04E6" unicode="&#x4e6;" horiz-adv-x="814" 
d="M407 710c200 4 369 -164 365 -360c4 -197 -165 -364 -365 -360c-200 -4 -369 163 -365 360c-4 196 165 364 365 360zM407 95c138 0 250 104 250 255s-109 255 -250 255s-250 -106 -250 -256c0 -152 112 -254 250 -254zM258 789v112h110v-112h-110zM438 789v112h110v-112
h-110z" />
    <glyph glyph-name="uni04E8" unicode="&#x4e8;" horiz-adv-x="814" 
d="M42 350c-4 196 165 364 365 360c200 4 369 -164 365 -360c4 -197 -165 -364 -365 -360c-200 -4 -369 163 -365 360zM161 397h492c-20 126 -121 208 -246 208s-226 -84 -246 -208zM653 302h-492c20 -125 123 -207 246 -207s226 82 246 207z" />
    <glyph glyph-name="uni04EA" unicode="&#x4ea;" horiz-adv-x="814" 
d="M42 350c-4 196 165 364 365 360c200 4 369 -164 365 -360c4 -197 -165 -364 -365 -360c-200 -4 -369 163 -365 360zM161 397h492c-20 126 -121 208 -246 208s-226 -84 -246 -208zM653 302h-492c20 -125 123 -207 246 -207s226 82 246 207zM262 789v112h110v-112h-110z
M442 789v112h110v-112h-110z" />
    <glyph glyph-name="uni04EC" unicode="&#x4ec;" horiz-adv-x="784" 
d="M32 270l100 40c11 -63 38 -115 81 -157s101 -63 174 -63c128 0 223 78 242 210h-312v105h312c-22 125 -123 205 -242 205s-194 -75 -215 -180l-100 45c18 67 54 122 108 167s125 68 214 68c197 4 351 -155 348 -360c2 -205 -139 -363 -355 -360c-194 0 -319 117 -355 280
zM249 789v112h110v-112h-110zM429 789v112h110v-112h-110z" />
    <glyph glyph-name="uni04EE" unicode="&#x4ee;" horiz-adv-x="703" 
d="M115 0l175 265l-276 435h132l206 -335l208 335h129l-440 -700h-134zM223 880h260v-78h-260v78z" />
    <glyph glyph-name="uni04F0" unicode="&#x4f0;" horiz-adv-x="703" 
d="M115 0l175 265l-276 435h132l206 -335l208 335h129l-440 -700h-134zM208 789v112h110v-112h-110zM388 789v112h110v-112h-110z" />
    <glyph glyph-name="uni04F2" unicode="&#x4f2;" horiz-adv-x="703" 
d="M115 0l175 265l-276 435h132l206 -335l208 335h129l-440 -700h-134zM207 781l86 133h135v-16l-121 -117h-100zM400 781l86 133h135v-16l-121 -117h-100z" />
    <glyph glyph-name="uni04F4" unicode="&#x4f4;" horiz-adv-x="692" 
d="M510 0v235c-45 -47 -117 -77 -201 -77c-157 0 -245 109 -245 252v290h110v-272c0 -105 61 -165 160 -165c67 0 119 28 176 93v344h110v-700h-110zM197 789v112h110v-112h-110zM377 789v112h110v-112h-110z" />
    <glyph glyph-name="uni04F8" unicode="&#x4f8;" horiz-adv-x="953" 
d="M72 0v700h110v-288h241c132 0 230 -77 230 -206s-98 -206 -230 -206h-351zM182 105h236c71 0 120 42 120 101s-49 101 -120 101h-236v-202zM771 0v700h110v-700h-110zM312 789v112h110v-112h-110zM492 789v112h110v-112h-110z" />
    <glyph glyph-name="uni0401.ss01" horiz-adv-x="642" 
d="M72 700h510v-105h-400v-180h370v-105h-370v-205h410v-105h-520v700zM152 845c0 36 29 65 65 65s65 -29 65 -65s-29 -65 -65 -65s-65 29 -65 65zM342 845c0 36 29 65 65 65s65 -29 65 -65s-29 -65 -65 -65s-65 29 -65 65z" />
    <glyph glyph-name="uni0407.ss01" horiz-adv-x="254" 
d="M72 0v700h110v-700h-110zM-33 845c0 36 29 65 65 65s65 -29 65 -65s-29 -65 -65 -65s-65 29 -65 65zM157 845c0 36 29 65 65 65s65 -29 65 -65s-29 -65 -65 -65s-65 29 -65 65z" />
    <glyph glyph-name="uni04D2.ss01" horiz-adv-x="752" 
d="M12 0l288 700h152l288 -700h-124l-67 170h-346l-67 -170h-124zM242 270h268l-134 339zM216 845c0 36 29 65 65 65s65 -29 65 -65s-29 -65 -65 -65s-65 29 -65 65zM406 845c0 36 29 65 65 65s65 -29 65 -65s-29 -65 -65 -65s-65 29 -65 65z" />
    <glyph glyph-name="uni04DA.ss01" horiz-adv-x="724" 
d="M682 350c2 -200 -135 -363 -337 -360c-179 0 -312 121 -312 304c0 29 3 55 8 80h530c-9 148 -103 231 -240 231c-95 0 -163 -59 -195 -143l-104 41c21 61 57 110 109 149s116 58 192 58c211 0 349 -141 349 -360zM564 274h-407c0 -1 -2 -7 -2 -14c0 -91 81 -165 192 -165
c112 0 193 67 217 179zM173 845c0 36 29 65 65 65s65 -29 65 -65s-29 -65 -65 -65s-65 29 -65 65zM363 845c0 36 29 65 65 65s65 -29 65 -65s-29 -65 -65 -65s-65 29 -65 65z" />
    <glyph glyph-name="uni04DC.ss01" horiz-adv-x="1058" 
d="M689 365l355 -365h-155l-305 317v-317h-110v317l-305 -317h-155l355 365l-335 335h145l295 -296v296h110v-296l295 296h145zM369 845c0 36 29 65 65 65s65 -29 65 -65s-29 -65 -65 -65s-65 29 -65 65zM559 845c0 36 29 65 65 65s65 -29 65 -65s-29 -65 -65 -65
s-65 29 -65 65z" />
    <glyph glyph-name="uni04DE.ss01" horiz-adv-x="591" 
d="M40 210l105 40c5 -91 59 -155 155 -155c83 0 135 33 135 100c0 68 -43 105 -115 105h-45v105h40c73 0 110 32 110 97c0 64 -50 103 -130 103c-71 0 -120 -41 -135 -120l-100 45c27 109 109 180 240 180c71 0 127 -18 170 -54c43 -35 65 -84 65 -146
c0 -80 -39 -135 -110 -155c71 -16 120 -71 120 -160c0 -65 -23 -116 -69 -152c-46 -35 -106 -53 -181 -53c-155 0 -239 100 -255 220zM140 845c0 36 29 65 65 65s65 -29 65 -65s-29 -65 -65 -65s-65 29 -65 65zM330 845c0 36 29 65 65 65s65 -29 65 -65s-29 -65 -65 -65
s-65 29 -65 65z" />
    <glyph glyph-name="uni04E4.ss01" horiz-adv-x="771" 
d="M589 620l-326 -620h-191v700h110v-621l326 621h191v-700h-110v620zM214 845c0 36 29 65 65 65s65 -29 65 -65s-29 -65 -65 -65s-65 29 -65 65zM404 845c0 36 29 65 65 65s65 -29 65 -65s-29 -65 -65 -65s-65 29 -65 65z" />
    <glyph glyph-name="uni04E6.ss01" horiz-adv-x="814" 
d="M407 710c200 4 369 -164 365 -360c4 -197 -165 -364 -365 -360c-200 -4 -369 163 -365 360c-4 196 165 364 365 360zM407 95c138 0 250 104 250 255s-109 255 -250 255s-250 -106 -250 -256c0 -152 112 -254 250 -254zM243 845c0 36 29 65 65 65s65 -29 65 -65
s-29 -65 -65 -65s-65 29 -65 65zM433 845c0 36 29 65 65 65s65 -29 65 -65s-29 -65 -65 -65s-65 29 -65 65z" />
    <glyph glyph-name="uni04EA.ss01" horiz-adv-x="814" 
d="M42 350c-4 196 165 364 365 360c200 4 369 -164 365 -360c4 -197 -165 -364 -365 -360c-200 -4 -369 163 -365 360zM161 397h492c-20 126 -121 208 -246 208s-226 -84 -246 -208zM653 302h-492c20 -125 123 -207 246 -207s226 82 246 207zM247 845c0 36 29 65 65 65
s65 -29 65 -65s-29 -65 -65 -65s-65 29 -65 65zM437 845c0 36 29 65 65 65s65 -29 65 -65s-29 -65 -65 -65s-65 29 -65 65z" />
    <glyph glyph-name="uni04EC.ss01" horiz-adv-x="784" 
d="M32 270l100 40c11 -63 38 -115 81 -157s101 -63 174 -63c128 0 223 78 242 210h-312v105h312c-22 125 -123 205 -242 205s-194 -75 -215 -180l-100 45c18 67 54 122 108 167s125 68 214 68c197 4 351 -155 348 -360c2 -205 -139 -363 -355 -360c-194 0 -319 117 -355 280
zM234 845c0 36 29 65 65 65s65 -29 65 -65s-29 -65 -65 -65s-65 29 -65 65zM424 845c0 36 29 65 65 65s65 -29 65 -65s-29 -65 -65 -65s-65 29 -65 65z" />
    <glyph glyph-name="uni04F0.ss01" horiz-adv-x="703" 
d="M115 0l175 265l-276 435h132l206 -335l208 335h129l-440 -700h-134zM193 845c0 36 29 65 65 65s65 -29 65 -65s-29 -65 -65 -65s-65 29 -65 65zM383 845c0 36 29 65 65 65s65 -29 65 -65s-29 -65 -65 -65s-65 29 -65 65z" />
    <glyph glyph-name="uni04F4.ss01" horiz-adv-x="692" 
d="M510 0v235c-45 -47 -117 -77 -201 -77c-157 0 -245 109 -245 252v290h110v-272c0 -105 61 -165 160 -165c67 0 119 28 176 93v344h110v-700h-110zM182 845c0 36 29 65 65 65s65 -29 65 -65s-29 -65 -65 -65s-65 29 -65 65zM372 845c0 36 29 65 65 65s65 -29 65 -65
s-29 -65 -65 -65s-65 29 -65 65z" />
    <glyph glyph-name="uni04F8.ss01" horiz-adv-x="953" 
d="M72 0v700h110v-288h241c132 0 230 -77 230 -206s-98 -206 -230 -206h-351zM182 105h236c71 0 120 42 120 101s-49 101 -120 101h-236v-202zM771 0v700h110v-700h-110zM297 845c0 36 29 65 65 65s65 -29 65 -65s-29 -65 -65 -65s-65 29 -65 65zM487 845c0 36 29 65 65 65
s65 -29 65 -65s-29 -65 -65 -65s-65 29 -65 65z" />
    <glyph glyph-name="uni0430" unicode="&#x430;" horiz-adv-x="524" 
d="M45 135c0 103 76 152 181 152c29 0 57 -3 84 -10l50 -12v35c0 63 -47 99 -110 99s-104 -37 -115 -94l-95 25c21 93 94 154 210 154c135 0 210 -69 210 -189v-295h-100v80c-21 -53 -75 -90 -159 -90c-78 0 -156 54 -156 145zM360 180v5l-38 10c-34 9 -60 13 -79 13
c-53 0 -88 -20 -88 -63c0 -37 28 -65 88 -65c69 0 117 37 117 100z" />
    <glyph glyph-name="uni0431" unicode="&#x431;" horiz-adv-x="562" 
d="M36 290c0 96 23 172 70 227c47 56 108 95 185 116c110 31 139 47 135 102h95c1 -4 1 -9 1 -16c0 -91 -70 -137 -181 -164c-124 -29 -183 -84 -203 -180c31 67 94 109 173 109c142 0 215 -115 215 -249c0 -137 -97 -245 -240 -245c-86 0 -149 28 -190 85
c-40 57 -60 129 -60 215zM421 235c0 93 -59 154 -140 154s-140 -61 -140 -154c0 -88 64 -150 140 -150c83 0 140 57 140 150z" />
    <glyph glyph-name="uni0432" unicode="&#x432;" horiz-adv-x="538" 
d="M64 0v474h260c95 0 155 -49 155 -124c0 -48 -32 -95 -80 -110c57 -11 95 -47 95 -110c0 -77 -60 -130 -155 -130h-275zM169 285h150c35 0 55 18 55 47s-20 47 -55 47h-150v-94zM169 95h160c39 0 60 21 60 50c0 31 -21 50 -60 50h-160v-100z" />
    <glyph glyph-name="uni0433" unicode="&#x433;" horiz-adv-x="414" 
d="M64 0v474h332v-100h-227v-374h-105z" />
    <glyph glyph-name="uni0453" unicode="&#x453;" horiz-adv-x="414" 
d="M64 0v474h332v-100h-227v-374h-105zM180 555l86 133h135v-16l-121 -117h-100z" />
    <glyph glyph-name="uni0491" unicode="&#x491;" horiz-adv-x="414" 
d="M291 585h105v-211h-227v-374h-105v474h227v111z" />
    <glyph glyph-name="uni0434" unicode="&#x434;" horiz-adv-x="573" 
d="M29 -110v205h45c22 44 37 84 44 120c7 37 11 83 11 140v119h355v-379h60v-205h-95v110h-325v-110h-95zM184 95h200v284h-155v-24c0 -107 -14 -183 -45 -260z" />
    <glyph glyph-name="uni0435" unicode="&#x435;" horiz-adv-x="531" 
d="M411 180l90 -35c-33 -99 -107 -155 -219 -155c-146 0 -246 97 -246 250c0 136 92 244 231 244c124 0 214 -80 214 -209c0 -19 -2 -37 -5 -55h-335c0 -46 14 -81 42 -105c29 -23 62 -35 100 -35c68 0 113 35 128 100zM141 290h235l1 9c0 59 -47 95 -111 95
c-65 0 -116 -40 -125 -104z" />
    <glyph glyph-name="uni0450" unicode="&#x450;" horiz-adv-x="531" 
d="M411 180l90 -35c-33 -99 -107 -155 -219 -155c-146 0 -246 97 -246 250c0 136 92 244 231 244c124 0 214 -80 214 -209c0 -19 -2 -37 -5 -55h-335c0 -46 14 -81 42 -105c29 -23 62 -35 100 -35c68 0 113 35 128 100zM141 290h235l1 9c0 59 -47 95 -111 95
c-65 0 -116 -40 -125 -104zM217 555l-121 117v16h135l86 -133h-100z" />
    <glyph glyph-name="uni0451" unicode="&#x451;" horiz-adv-x="531" 
d="M411 180l90 -35c-33 -99 -107 -155 -219 -155c-146 0 -246 97 -246 250c0 136 92 244 231 244c124 0 214 -80 214 -209c0 -19 -2 -37 -5 -55h-335c0 -46 14 -81 42 -105c29 -23 62 -35 100 -35c68 0 113 35 128 100zM141 290h235l1 9c0 59 -47 95 -111 95
c-65 0 -116 -40 -125 -104zM122 563v112h110v-112h-110zM302 563v112h110v-112h-110z" />
    <glyph glyph-name="uni0436" unicode="&#x436;" horiz-adv-x="739" 
d="M22 0l215 250l-205 224h135l150 -174v174h105v-174l150 174h135l-205 -224l215 -250h-135l-160 195v-195h-105v195l-160 -195h-135z" />
    <glyph glyph-name="uni0437" unicode="&#x437;" horiz-adv-x="458" 
d="M30 145l90 40c12 -67 50 -100 115 -100c51 0 85 19 85 60c0 31 -25 50 -65 50h-45v90h35c40 0 65 20 65 55s-29 55 -70 55c-48 0 -80 -28 -95 -85l-90 45c31 83 93 129 185 129c99 0 170 -51 170 -134c0 -55 -31 -97 -80 -110c52 -12 90 -46 90 -110
c0 -87 -92 -140 -195 -140c-105 0 -179 66 -195 155z" />
    <glyph glyph-name="uni0438" unicode="&#x438;" horiz-adv-x="596" 
d="M64 0v474h105v-374l198 374h165v-474h-105v374l-198 -374h-165z" />
    <glyph glyph-name="uni0439" unicode="&#x439;" horiz-adv-x="596" 
d="M64 0v474h105v-374l198 374h165v-474h-105v374l-198 -374h-165zM423 664c0 -72 -53 -111 -125 -111s-125 39 -125 111c0 6 0 11 1 14h76l-1 -10c0 -25 20 -45 49 -45s49 20 49 45l-1 10h76c1 -3 1 -8 1 -14z" />
    <glyph glyph-name="uni045D" unicode="&#x45d;" horiz-adv-x="596" 
d="M64 0v474h105v-374l198 374h165v-474h-105v374l-198 -374h-165zM248 555l-121 117v16h135l86 -133h-100z" />
    <glyph glyph-name="uni043A" unicode="&#x43a;" horiz-adv-x="486" 
d="M64 0v474h105v-174l150 174h135l-205 -224l215 -250h-135l-160 195v-195h-105z" />
    <glyph glyph-name="uni045C" unicode="&#x45c;" horiz-adv-x="486" 
d="M64 0v474h105v-174l150 174h135l-205 -224l215 -250h-135l-160 195v-195h-105zM192 555l86 133h135v-16l-121 -117h-100z" />
    <glyph glyph-name="uni043B" unicode="&#x43b;" horiz-adv-x="531" 
d="M22 0v16c19 36 34 77 44 124c11 47 16 111 16 190v144h385v-474h-105v379h-175v-24c0 -157 -20 -275 -60 -355h-105z" />
    <glyph glyph-name="uni043C" unicode="&#x43c;" horiz-adv-x="726" 
d="M662 474v-474h-105v385l-119 -385h-150l-119 385v-385h-105v474h180l119 -384l119 384h180z" />
    <glyph glyph-name="uni043D" unicode="&#x43d;" horiz-adv-x="557" 
d="M169 474v-184h219v184h105v-474h-105v195h-219v-195h-105v474h105z" />
    <glyph glyph-name="uni043E" unicode="&#x43e;" horiz-adv-x="560" 
d="M36 237c0 140 101 247 244 247s244 -107 244 -247s-101 -247 -244 -247s-244 107 -244 247zM419 237c0 89 -59 152 -139 152s-139 -63 -139 -152s59 -152 139 -152s139 63 139 152z" />
    <glyph glyph-name="uni043F" unicode="&#x43f;" horiz-adv-x="548" 
d="M64 0v474h420v-474h-105v379h-210v-379h-105z" />
    <glyph glyph-name="uni0440" unicode="&#x440;" horiz-adv-x="580" 
d="M64 474h101v-84c32 56 99 94 164 94c129 0 215 -105 215 -250s-90 -244 -225 -244c-63 0 -121 25 -150 76v-264h-105v672zM302 83c76 0 137 60 137 151s-62 155 -137 155c-70 0 -137 -63 -137 -155s65 -151 137 -151z" />
    <glyph glyph-name="uni0441" unicode="&#x441;" horiz-adv-x="554" 
d="M286 80c88 0 134 56 145 135l95 -35c-24 -121 -116 -190 -235 -190c-154 0 -255 100 -255 250c0 143 109 244 240 244c117 0 205 -66 225 -174l-95 -30c-11 71 -61 114 -130 114s-140 -54 -140 -154c0 -97 74 -160 150 -160z" />
    <glyph glyph-name="uni0442" unicode="&#x442;" horiz-adv-x="433" 
d="M164 0v379h-150v95h405v-95h-150v-379h-105z" />
    <glyph glyph-name="uni0443" unicode="&#x443;" horiz-adv-x="509" 
d="M387 474h110l-320 -672h-110l127 268l-187 404h113l129 -290z" />
    <glyph glyph-name="uni045E" unicode="&#x45e;" horiz-adv-x="509" 
d="M387 474h110l-320 -672h-110l127 268l-187 404h113l129 -290zM377 664c0 -72 -53 -111 -125 -111s-125 39 -125 111c0 6 0 11 1 14h76l-1 -10c0 -25 20 -45 49 -45s49 20 49 45l-1 10h76c1 -3 1 -8 1 -14z" />
    <glyph glyph-name="uni0444" unicode="&#x444;" horiz-adv-x="903" 
d="M399 -198v258c-35 -45 -89 -70 -149 -70c-124 0 -214 99 -214 246c0 154 89 248 209 248c69 0 122 -30 154 -78v294h105v-294c32 48 85 78 154 78c120 0 209 -94 209 -248c0 -147 -90 -246 -214 -246c-60 0 -114 25 -149 70v-258h-105zM404 236c0 98 -63 153 -131 153
c-81 0 -132 -58 -132 -153c0 -97 51 -153 132 -153c68 0 131 52 131 153zM762 236c0 95 -51 153 -132 153c-68 0 -131 -55 -131 -153c0 -101 63 -153 131 -153c81 0 132 56 132 153z" />
    <glyph glyph-name="uni0445" unicode="&#x445;" horiz-adv-x="484" 
d="M452 474l-152 -222l172 -252h-120l-110 170l-110 -170h-120l173 252l-153 222h120l90 -139l90 139h120z" />
    <glyph glyph-name="uni0447" unicode="&#x447;" horiz-adv-x="558" 
d="M389 257v217h105v-474h-105v176c-31 -39 -84 -65 -160 -65c-103 0 -165 69 -165 172v191h105v-161c0 -76 36 -115 105 -115c47 0 82 18 115 59z" />
    <glyph glyph-name="uni0446" unicode="&#x446;" horiz-adv-x="588" 
d="M464 -110v110h-400v474h105v-379h205v379h105v-379h80v-205h-95z" />
    <glyph glyph-name="uni0448" unicode="&#x448;" horiz-adv-x="793" 
d="M64 0v474h105v-379h175v379h105v-379h175v379h105v-474h-665z" />
    <glyph glyph-name="uni0449" unicode="&#x449;" horiz-adv-x="838" 
d="M714 -110v110h-650v474h105v-379h175v379h105v-379h175v379h105v-379h80v-205h-95z" />
    <glyph glyph-name="uni045F" unicode="&#x45f;" horiz-adv-x="547" 
d="M226 -110v110h-162v474h105v-379h209v379h105v-474h-162v-110h-95z" />
    <glyph glyph-name="uni044C" unicode="&#x44c;" horiz-adv-x="508" 
d="M64 0v474h105v-164h135c104 0 160 -65 160 -150c0 -83 -58 -160 -160 -160h-240zM169 95h130c40 0 65 24 65 60s-25 60 -65 60h-130v-120z" />
    <glyph glyph-name="uni044A" unicode="&#x44a;" horiz-adv-x="588" 
d="M144 0v379h-130v95h235v-164h135c104 0 160 -65 160 -150c0 -83 -58 -160 -160 -160h-240zM249 95h130c40 0 65 24 65 60s-25 60 -65 60h-130v-120z" />
    <glyph glyph-name="uni044B" unicode="&#x44b;" horiz-adv-x="741" 
d="M64 0v474h105v-164h135c104 0 160 -65 160 -150c0 -83 -58 -160 -160 -160h-240zM169 95h130c40 0 65 24 65 60s-25 60 -65 60h-130v-120zM572 474h105v-474h-105v474z" />
    <glyph glyph-name="uni0459" unicode="&#x459;" horiz-adv-x="794" 
d="M22 0v16c19 36 34 77 44 124c11 47 16 111 16 190v144h373v-164h135c104 0 160 -65 160 -150c0 -83 -58 -160 -160 -160h-240v379h-163v-24c0 -157 -20 -275 -60 -355h-105zM455 95h130c40 0 65 24 65 60s-25 60 -65 60h-130v-120z" />
    <glyph glyph-name="uni045A" unicode="&#x45a;" horiz-adv-x="822" 
d="M64 0v474h105v-184h209v184h105v-184h135c99 0 160 -58 160 -145s-61 -145 -160 -145h-240v195h-209v-195h-105zM483 95h135c37 0 60 18 60 50s-23 50 -60 50h-135v-100z" />
    <glyph glyph-name="uni0455" unicode="&#x455;" horiz-adv-x="473" 
d="M29 120l85 45c25 -59 67 -85 132 -85c56 0 89 23 89 55c0 43 -25 61 -117 76c-105 17 -163 60 -163 139s81 134 177 134c92 0 143 -38 174 -103l-80 -44c-14 42 -45 63 -93 63c-47 0 -83 -23 -83 -52c0 -36 29 -49 120 -62c117 -17 165 -65 165 -146
c0 -88 -85 -150 -193 -150c-109 0 -181 50 -213 130z" />
    <glyph glyph-name="uni0454" unicode="&#x454;" horiz-adv-x="554" 
d="M36 240c0 147 104 244 235 244c120 0 205 -65 230 -174l-95 -30c-11 71 -61 114 -130 114c-61 0 -119 -37 -135 -109h158v-90h-158c16 -73 74 -115 145 -115c88 0 134 56 145 135l95 -35c-24 -121 -116 -190 -235 -190c-154 0 -255 100 -255 250z" />
    <glyph glyph-name="uni044D" unicode="&#x44d;" horiz-adv-x="554" 
d="M518 240c0 -150 -101 -250 -255 -250c-119 0 -211 69 -235 190l95 35c11 -79 57 -135 145 -135c71 0 129 42 145 115h-158v90h158c-16 72 -74 109 -135 109c-69 0 -119 -43 -130 -114l-95 30c25 109 110 174 230 174c131 0 235 -97 235 -244z" />
    <glyph glyph-name="uni0456" unicode="&#x456;" horiz-adv-x="233" 
d="M64 474h105v-474h-105v474zM59 555v115h115v-115h-115z" />
    <glyph glyph-name="uni0457" unicode="&#x457;" horiz-adv-x="233" 
d="M64 474h105v-474h-105v474zM-28 563v112h110v-112h-110zM152 563v112h110v-112h-110z" />
    <glyph glyph-name="uni0458" unicode="&#x458;" horiz-adv-x="233" 
d="M64 -198v672h105v-672h-105zM59 555v115h115v-115h-115z" />
    <glyph glyph-name="uni045B" unicode="&#x45b;" horiz-adv-x="566" 
d="M169 0h-105v700h105v-323c25 67 85 107 164 107c104 0 169 -71 169 -172v-312h-105v282c0 75 -38 115 -109 115c-68 0 -119 -56 -119 -145v-252zM0 639h314v-85h-314v85z" />
    <glyph glyph-name="uni044E" unicode="&#x44e;" horiz-adv-x="768" 
d="M732 237c0 -140 -101 -247 -244 -247c-129 0 -223 86 -241 205h-78v-195h-105v474h105v-184h80c11 57 38 104 81 140s96 54 158 54c143 0 244 -107 244 -247zM627 237c0 89 -59 152 -139 152s-139 -63 -139 -152s59 -152 139 -152s139 63 139 152z" />
    <glyph glyph-name="uni044F" unicode="&#x44f;" horiz-adv-x="502" 
d="M28 10l145 175c-78 0 -140 65 -140 145c0 83 58 144 155 144h250v-474h-105v185h-40l-150 -185h-115v10zM333 275v104h-135c-39 0 -60 -21 -60 -52s21 -52 60 -52h135z" />
    <glyph glyph-name="uni0452" unicode="&#x452;" horiz-adv-x="566" 
d="M502 312v-370c0 -91 -49 -150 -145 -150c-76 0 -136 44 -145 113l100 25c1 -27 16 -43 45 -43c25 0 40 17 40 48v347c0 75 -38 115 -109 115c-68 0 -119 -56 -119 -145v-252h-105v554h-64v85h64v61h105v-61h145v-85h-145v-177c25 67 85 107 164 107
c104 0 169 -71 169 -172z" />
    <glyph glyph-name="uni0463" unicode="&#x463;" horiz-adv-x="491" 
d="M447 192c0 -61 -20 -108 -61 -142c-41 -33 -93 -50 -157 -50h-163v518h-126v95h126v87h105v-87h163v-95h-163v-134h58c64 0 116 -17 157 -51c41 -33 61 -80 61 -141zM332 192c0 59 -37 97 -105 97h-56v-194h56c68 0 105 38 105 97z" />
    <glyph glyph-name="uni0473" unicode="&#x473;" horiz-adv-x="560" 
d="M524 235c0 -140 -101 -245 -244 -245s-244 105 -244 245s101 249 244 249s244 -109 244 -249zM148 287c16 8 36 12 61 12c31 0 52 -9 87 -25c25 -13 44 -21 65 -21s39 8 54 23c-15 68 -68 113 -135 113c-64 0 -113 -39 -132 -102zM414 189c-17 -9 -38 -13 -63 -13
c-31 0 -52 9 -87 25c-25 13 -44 21 -65 21c-22 0 -40 -8 -55 -24c13 -69 67 -113 136 -113c65 0 117 40 134 104z" />
    <glyph glyph-name="uni0475" unicode="&#x475;" horiz-adv-x="572" 
d="M203 0l-185 474h110l135 -369l108 295c24 65 63 95 122 95c47 0 83 -26 103 -65l-70 -60c-5 15 -14 22 -28 22c-15 0 -27 -10 -34 -30l-141 -362h-120z" />
    <glyph glyph-name="uni0493" unicode="&#x493;" horiz-adv-x="427" 
d="M411 374h-225v-99h119v-84h-119v-191h-105v191h-67v84h67v199h330v-100z" />
    <glyph glyph-name="uni0497" unicode="&#x497;" horiz-adv-x="739" 
d="M22 0l215 250l-205 224h135l150 -174v174h105v-174l150 174h135l-205 -224l215 -250h-135l-160 195v-195h-105v195l-160 -195h-135zM648 -110v190h90v-190h-90z" />
    <glyph glyph-name="uni0499" unicode="&#x499;" horiz-adv-x="458" 
d="M30 145l90 40c12 -67 50 -100 115 -100c51 0 85 19 85 60c0 31 -25 50 -65 50h-45v90h35c40 0 65 20 65 55s-29 55 -70 55c-48 0 -80 -28 -95 -85l-90 45c31 83 93 129 185 129c99 0 170 -51 170 -134c0 -55 -31 -97 -80 -110c52 -12 90 -46 90 -110
c0 -87 -92 -140 -195 -140c-105 0 -179 66 -195 155zM211 -51c12 13 32 21 48 21c45 0 78 -29 78 -77c0 -51 -34 -81 -85 -81c-47 0 -82 22 -90 66l53 13c3 -17 16 -29 35 -29c21 0 34 12 34 31s-13 32 -34 32c-15 0 -27 -7 -34 -18l-52 10c7 24 13 57 20 99h56
c-9 -26 -18 -48 -29 -67z" />
    <glyph glyph-name="uni049B" unicode="&#x49b;" horiz-adv-x="486" 
d="M64 0v474h105v-174l150 174h135l-205 -224l215 -250h-135l-160 195v-195h-105zM395 -110v190h90v-190h-90z" />
    <glyph glyph-name="uni04A1" unicode="&#x4a1;" horiz-adv-x="560" 
d="M323 250l215 -250h-135l-160 195v-195h-105v389h-128v85h233v-174l150 174h135z" />
    <glyph glyph-name="uni04A3" unicode="&#x4a3;" horiz-adv-x="593" 
d="M169 474v-184h219v184h105v-474h-105v195h-219v-195h-105v474h105zM489 -110v190h90v-190h-90z" />
    <glyph glyph-name="uni04AB" unicode="&#x4ab;" horiz-adv-x="554" 
d="M286 80c88 0 134 56 145 135l95 -35c-24 -121 -116 -190 -235 -190c-154 0 -255 100 -255 250c0 143 109 244 240 244c117 0 205 -66 225 -174l-95 -30c-11 71 -61 114 -130 114s-140 -54 -140 -154c0 -97 74 -160 150 -160zM258 -51c12 13 32 21 48 21
c45 0 78 -29 78 -77c0 -51 -34 -81 -85 -81c-47 0 -82 22 -90 66l53 13c3 -17 16 -29 35 -29c21 0 34 12 34 31s-13 32 -34 32c-15 0 -27 -7 -34 -18l-52 10c7 24 13 57 20 99h56c-9 -26 -18 -48 -29 -67z" />
    <glyph glyph-name="uni04AF" unicode="&#x4af;" horiz-adv-x="526" 
d="M211 -198v198l-193 474h110l135 -355l135 355h110l-192 -474v-198h-105z" />
    <glyph glyph-name="uni04B1" unicode="&#x4b1;" horiz-adv-x="526" 
d="M508 474l-176 -434h88v-80h-104v-158h-105v158h-104v80h88l-177 434h110l135 -355l135 355h110z" />
    <glyph glyph-name="uni04B3" unicode="&#x4b3;" horiz-adv-x="484" 
d="M452 474l-152 -222l172 -252h-120l-110 170l-110 -170h-120l173 252l-153 222h120l90 -139l90 139h120zM396 -110v190h90v-190h-90z" />
    <glyph glyph-name="uni04B7" unicode="&#x4b7;" horiz-adv-x="598" 
d="M389 257v217h105v-474h-105v176c-31 -39 -84 -65 -160 -65c-103 0 -165 69 -165 172v191h105v-161c0 -76 36 -115 105 -115c47 0 82 18 115 59zM494 -110v190h90v-190h-90z" />
    <glyph glyph-name="uni04BB" unicode="&#x4bb;" horiz-adv-x="566" 
d="M169 0h-105v700h105v-323c25 67 85 107 164 107c104 0 169 -71 169 -172v-312h-105v282c0 75 -38 115 -109 115c-68 0 -119 -56 -119 -145v-252z" />
    <glyph glyph-name="uni0527" unicode="&#x527;" horiz-adv-x="606" 
d="M169 0h-105v700h105v-323c25 67 85 107 164 107c104 0 169 -71 169 -172v-312h-105v282c0 75 -38 115 -109 115c-68 0 -119 -56 -119 -145v-252zM502 -110v190h90v-190h-90z" />
    <glyph glyph-name="uni04CF" unicode="&#x4cf;" horiz-adv-x="233" 
d="M64 0v700h105v-700h-105z" />
    <glyph glyph-name="uni04C2" unicode="&#x4c2;" horiz-adv-x="739" 
d="M22 0l215 250l-205 224h135l150 -174v174h105v-174l150 174h135l-205 -224l215 -250h-135l-160 195v-195h-105v195l-160 -195h-135zM495 664c0 -72 -53 -111 -125 -111s-125 39 -125 111c0 6 0 11 1 14h76l-1 -10c0 -25 20 -45 49 -45s49 20 49 45l-1 10h76
c1 -3 1 -8 1 -14z" />
    <glyph glyph-name="uni04D1" unicode="&#x4d1;" horiz-adv-x="524" 
d="M45 135c0 103 76 152 181 152c29 0 57 -3 84 -10l50 -12v35c0 63 -47 99 -110 99s-104 -37 -115 -94l-95 25c21 93 94 154 210 154c135 0 210 -69 210 -189v-295h-100v80c-21 -53 -75 -90 -159 -90c-78 0 -156 54 -156 145zM360 180v5l-38 10c-34 9 -60 13 -79 13
c-53 0 -88 -20 -88 -63c0 -37 28 -65 88 -65c69 0 117 37 117 100zM375 664c0 -72 -53 -111 -125 -111s-125 39 -125 111c0 6 0 11 1 14h76l-1 -10c0 -25 20 -45 49 -45s49 20 49 45l-1 10h76c1 -3 1 -8 1 -14z" />
    <glyph glyph-name="uni04D3" unicode="&#x4d3;" horiz-adv-x="524" 
d="M45 135c0 103 76 152 181 152c29 0 57 -3 84 -10l50 -12v35c0 63 -47 99 -110 99s-104 -37 -115 -94l-95 25c21 93 94 154 210 154c135 0 210 -69 210 -189v-295h-100v80c-21 -53 -75 -90 -159 -90c-78 0 -156 54 -156 145zM360 180v5l-38 10c-34 9 -60 13 -79 13
c-53 0 -88 -20 -88 -63c0 -37 28 -65 88 -65c69 0 117 37 117 100zM105 563v112h110v-112h-110zM285 563v112h110v-112h-110z" />
    <glyph glyph-name="uni04D5" unicode="&#x4d5;" horiz-adv-x="853" 
d="M45 140c0 101 70 150 178 150h136v10c0 63 -47 99 -115 99c-64 0 -105 -33 -114 -86l-90 25c24 97 92 146 205 146c83 0 146 -29 178 -78c35 48 98 78 166 78c124 0 214 -80 214 -209c0 -19 -2 -37 -5 -55h-335c0 -95 70 -142 142 -142c68 0 113 37 128 102l90 -35
c-33 -99 -107 -155 -219 -155c-91 0 -165 43 -193 108c-44 -72 -111 -108 -202 -108c-97 0 -164 67 -164 150zM463 290h235l1 9c0 59 -47 95 -111 95c-65 0 -116 -40 -125 -104zM359 185v29h-112c-57 0 -95 -25 -95 -70c0 -40 29 -64 80 -64c76 0 127 41 127 105z" />
    <glyph glyph-name="uni04D7" unicode="&#x4d7;" horiz-adv-x="531" 
d="M411 180l90 -35c-33 -99 -107 -155 -219 -155c-146 0 -246 97 -246 250c0 136 92 244 231 244c124 0 214 -80 214 -209c0 -19 -2 -37 -5 -55h-335c0 -46 14 -81 42 -105c29 -23 62 -35 100 -35c68 0 113 35 128 100zM141 290h235l1 9c0 59 -47 95 -111 95
c-65 0 -116 -40 -125 -104zM392 664c0 -72 -53 -111 -125 -111s-125 39 -125 111c0 6 0 11 1 14h76l-1 -10c0 -25 20 -45 49 -45s49 20 49 45l-1 10h76c1 -3 1 -8 1 -14z" />
    <glyph glyph-name="uni04D9" unicode="&#x4d9;" horiz-adv-x="531" 
d="M120 294l-90 35c33 99 107 155 219 155c146 0 246 -97 246 -250c0 -136 -92 -244 -231 -244c-124 0 -214 80 -214 209c0 19 2 37 5 55h335c0 46 -14 81 -43 104c-28 24 -61 36 -99 36c-68 0 -113 -35 -128 -100zM390 184h-235l-1 -9c0 -59 47 -95 111 -95
c65 0 116 40 125 104z" />
    <glyph glyph-name="uni04DB" unicode="&#x4db;" horiz-adv-x="531" 
d="M120 294l-90 35c33 99 107 155 219 155c146 0 246 -97 246 -250c0 -136 -92 -244 -231 -244c-124 0 -214 80 -214 209c0 19 2 37 5 55h335c0 46 -14 81 -43 104c-28 24 -61 36 -99 36c-68 0 -113 -35 -128 -100zM390 184h-235l-1 -9c0 -59 47 -95 111 -95
c65 0 116 40 125 104zM116 563v112h110v-112h-110zM296 563v112h110v-112h-110z" />
    <glyph glyph-name="uni04DD" unicode="&#x4dd;" horiz-adv-x="739" 
d="M22 0l215 250l-205 224h135l150 -174v174h105v-174l150 174h135l-205 -224l215 -250h-135l-160 195v-195h-105v195l-160 -195h-135zM225 563v112h110v-112h-110zM405 563v112h110v-112h-110z" />
    <glyph glyph-name="uni04DF" unicode="&#x4df;" horiz-adv-x="458" 
d="M30 145l90 40c12 -67 50 -100 115 -100c51 0 85 19 85 60c0 31 -25 50 -65 50h-45v90h35c40 0 65 20 65 55s-29 55 -70 55c-48 0 -80 -28 -95 -85l-90 45c31 83 93 129 185 129c99 0 170 -51 170 -134c0 -55 -31 -97 -80 -110c52 -12 90 -46 90 -110
c0 -87 -92 -140 -195 -140c-105 0 -179 66 -195 155zM94 563v112h110v-112h-110zM274 563v112h110v-112h-110z" />
    <glyph glyph-name="uni04E3" unicode="&#x4e3;" horiz-adv-x="596" 
d="M64 0v474h105v-374l198 374h165v-474h-105v374l-198 -374h-165zM168 654h260v-78h-260v78z" />
    <glyph glyph-name="uni04E5" unicode="&#x4e5;" horiz-adv-x="596" 
d="M64 0v474h105v-374l198 374h165v-474h-105v374l-198 -374h-165zM153 563v112h110v-112h-110zM333 563v112h110v-112h-110z" />
    <glyph glyph-name="uni04E7" unicode="&#x4e7;" horiz-adv-x="560" 
d="M36 237c0 140 101 247 244 247s244 -107 244 -247s-101 -247 -244 -247s-244 107 -244 247zM419 237c0 89 -59 152 -139 152s-139 -63 -139 -152s59 -152 139 -152s139 63 139 152zM135 563v112h110v-112h-110zM315 563v112h110v-112h-110z" />
    <glyph glyph-name="uni04E9" unicode="&#x4e9;" horiz-adv-x="560" 
d="M36 237c0 140 101 247 244 247s244 -107 244 -247s-101 -247 -244 -247s-244 107 -244 247zM145 274h270c-13 69 -67 115 -135 115s-122 -46 -135 -115zM415 200h-270c13 -69 67 -115 135 -115s122 46 135 115z" />
    <glyph glyph-name="uni04EB" unicode="&#x4eb;" horiz-adv-x="560" 
d="M36 237c0 140 101 247 244 247s244 -107 244 -247s-101 -247 -244 -247s-244 107 -244 247zM145 274h270c-13 69 -67 115 -135 115s-122 -46 -135 -115zM415 200h-270c13 -69 67 -115 135 -115s122 46 135 115zM135 563v112h110v-112h-110zM315 563v112h110v-112h-110z
" />
    <glyph glyph-name="uni04ED" unicode="&#x4ed;" horiz-adv-x="554" 
d="M518 240c0 -150 -101 -250 -255 -250c-119 0 -211 69 -235 190l95 35c11 -79 57 -135 145 -135c71 0 129 42 145 115h-158v90h158c-16 72 -74 109 -135 109c-69 0 -119 -43 -130 -114l-95 30c25 109 110 174 230 174c131 0 235 -97 235 -244zM129 563v112h110v-112h-110z
M309 563v112h110v-112h-110z" />
    <glyph glyph-name="uni04EF" unicode="&#x4ef;" horiz-adv-x="509" 
d="M387 474h110l-320 -672h-110l127 268l-187 404h113l129 -290zM122 654h260v-78h-260v78z" />
    <glyph glyph-name="uni04F1" unicode="&#x4f1;" horiz-adv-x="509" 
d="M387 474h110l-320 -672h-110l127 268l-187 404h113l129 -290zM107 563v112h110v-112h-110zM287 563v112h110v-112h-110z" />
    <glyph glyph-name="uni04F3" unicode="&#x4f3;" horiz-adv-x="509" 
d="M387 474h110l-320 -672h-110l127 268l-187 404h113l129 -290zM106 555l86 133h135v-16l-121 -117h-100zM299 555l86 133h135v-16l-121 -117h-100z" />
    <glyph glyph-name="uni04F5" unicode="&#x4f5;" horiz-adv-x="558" 
d="M389 257v217h105v-474h-105v176c-31 -39 -84 -65 -160 -65c-103 0 -165 69 -165 172v191h105v-161c0 -76 36 -115 105 -115c47 0 82 18 115 59zM134 563v112h110v-112h-110zM314 563v112h110v-112h-110z" />
    <glyph glyph-name="uni04F9" unicode="&#x4f9;" horiz-adv-x="741" 
d="M64 0v474h105v-164h135c104 0 160 -65 160 -150c0 -83 -58 -160 -160 -160h-240zM169 95h130c40 0 65 24 65 60s-25 60 -65 60h-130v-120zM572 474h105v-474h-105v474zM226 563v112h110v-112h-110zM406 563v112h110v-112h-110z" />
    <glyph glyph-name="uni0451.ss01" horiz-adv-x="531" 
d="M411 180l90 -35c-33 -99 -107 -155 -219 -155c-146 0 -246 97 -246 250c0 136 92 244 231 244c124 0 214 -80 214 -209c0 -19 -2 -37 -5 -55h-335c0 -46 14 -81 42 -105c29 -23 62 -35 100 -35c68 0 113 35 128 100zM141 290h235l1 9c0 59 -47 95 -111 95
c-65 0 -116 -40 -125 -104zM107 619c0 36 29 65 65 65s65 -29 65 -65s-29 -65 -65 -65s-65 29 -65 65zM297 619c0 36 29 65 65 65s65 -29 65 -65s-29 -65 -65 -65s-65 29 -65 65z" />
    <glyph glyph-name="uni0456.ss01" horiz-adv-x="233" 
d="M64 474h105v-474h-105v474zM117 680c39 0 68 -29 68 -68c0 -37 -29 -67 -68 -67c-37 0 -67 30 -67 67c0 39 30 68 67 68z" />
    <glyph glyph-name="uni0457.ss01" horiz-adv-x="233" 
d="M64 474h105v-474h-105v474zM-43 619c0 36 29 65 65 65s65 -29 65 -65s-29 -65 -65 -65s-65 29 -65 65zM147 619c0 36 29 65 65 65s65 -29 65 -65s-29 -65 -65 -65s-65 29 -65 65z" />
    <glyph glyph-name="uni0458.ss01" horiz-adv-x="233" 
d="M64 -198v672h105v-672h-105zM117 680c39 0 68 -29 68 -68c0 -37 -29 -67 -68 -67c-37 0 -67 30 -67 67c0 39 30 68 67 68z" />
    <glyph glyph-name="uni04D3.ss01" horiz-adv-x="524" 
d="M45 135c0 103 76 152 181 152c29 0 57 -3 84 -10l50 -12v35c0 63 -47 99 -110 99s-104 -37 -115 -94l-95 25c21 93 94 154 210 154c135 0 210 -69 210 -189v-295h-100v80c-21 -53 -75 -90 -159 -90c-78 0 -156 54 -156 145zM360 180v5l-38 10c-34 9 -60 13 -79 13
c-53 0 -88 -20 -88 -63c0 -37 28 -65 88 -65c69 0 117 37 117 100zM90 619c0 36 29 65 65 65s65 -29 65 -65s-29 -65 -65 -65s-65 29 -65 65zM280 619c0 36 29 65 65 65s65 -29 65 -65s-29 -65 -65 -65s-65 29 -65 65z" />
    <glyph glyph-name="uni04DB.ss01" horiz-adv-x="531" 
d="M120 294l-90 35c33 99 107 155 219 155c146 0 246 -97 246 -250c0 -136 -92 -244 -231 -244c-124 0 -214 80 -214 209c0 19 2 37 5 55h335c0 46 -14 81 -43 104c-28 24 -61 36 -99 36c-68 0 -113 -35 -128 -100zM390 184h-235l-1 -9c0 -59 47 -95 111 -95
c65 0 116 40 125 104zM101 619c0 36 29 65 65 65s65 -29 65 -65s-29 -65 -65 -65s-65 29 -65 65zM291 619c0 36 29 65 65 65s65 -29 65 -65s-29 -65 -65 -65s-65 29 -65 65z" />
    <glyph glyph-name="uni04DD.ss01" horiz-adv-x="739" 
d="M22 0l215 250l-205 224h135l150 -174v174h105v-174l150 174h135l-205 -224l215 -250h-135l-160 195v-195h-105v195l-160 -195h-135zM210 619c0 36 29 65 65 65s65 -29 65 -65s-29 -65 -65 -65s-65 29 -65 65zM400 619c0 36 29 65 65 65s65 -29 65 -65s-29 -65 -65 -65
s-65 29 -65 65z" />
    <glyph glyph-name="uni04DF.ss01" horiz-adv-x="458" 
d="M30 145l90 40c12 -67 50 -100 115 -100c51 0 85 19 85 60c0 31 -25 50 -65 50h-45v90h35c40 0 65 20 65 55s-29 55 -70 55c-48 0 -80 -28 -95 -85l-90 45c31 83 93 129 185 129c99 0 170 -51 170 -134c0 -55 -31 -97 -80 -110c52 -12 90 -46 90 -110
c0 -87 -92 -140 -195 -140c-105 0 -179 66 -195 155zM79 619c0 36 29 65 65 65s65 -29 65 -65s-29 -65 -65 -65s-65 29 -65 65zM269 619c0 36 29 65 65 65s65 -29 65 -65s-29 -65 -65 -65s-65 29 -65 65z" />
    <glyph glyph-name="uni04E5.ss01" horiz-adv-x="596" 
d="M64 0v474h105v-374l198 374h165v-474h-105v374l-198 -374h-165zM138 619c0 36 29 65 65 65s65 -29 65 -65s-29 -65 -65 -65s-65 29 -65 65zM328 619c0 36 29 65 65 65s65 -29 65 -65s-29 -65 -65 -65s-65 29 -65 65z" />
    <glyph glyph-name="uni04E7.ss01" horiz-adv-x="560" 
d="M36 237c0 140 101 247 244 247s244 -107 244 -247s-101 -247 -244 -247s-244 107 -244 247zM419 237c0 89 -59 152 -139 152s-139 -63 -139 -152s59 -152 139 -152s139 63 139 152zM120 619c0 36 29 65 65 65s65 -29 65 -65s-29 -65 -65 -65s-65 29 -65 65zM310 619
c0 36 29 65 65 65s65 -29 65 -65s-29 -65 -65 -65s-65 29 -65 65z" />
    <glyph glyph-name="uni04EB.ss01" horiz-adv-x="560" 
d="M36 237c0 140 101 247 244 247s244 -107 244 -247s-101 -247 -244 -247s-244 107 -244 247zM145 274h270c-13 69 -67 115 -135 115s-122 -46 -135 -115zM415 200h-270c13 -69 67 -115 135 -115s122 46 135 115zM120 619c0 36 29 65 65 65s65 -29 65 -65s-29 -65 -65 -65
s-65 29 -65 65zM310 619c0 36 29 65 65 65s65 -29 65 -65s-29 -65 -65 -65s-65 29 -65 65z" />
    <glyph glyph-name="uni04ED.ss01" horiz-adv-x="554" 
d="M518 240c0 -150 -101 -250 -255 -250c-119 0 -211 69 -235 190l95 35c11 -79 57 -135 145 -135c71 0 129 42 145 115h-158v90h158c-16 72 -74 109 -135 109c-69 0 -119 -43 -130 -114l-95 30c25 109 110 174 230 174c131 0 235 -97 235 -244zM114 619c0 36 29 65 65 65
s65 -29 65 -65s-29 -65 -65 -65s-65 29 -65 65zM304 619c0 36 29 65 65 65s65 -29 65 -65s-29 -65 -65 -65s-65 29 -65 65z" />
    <glyph glyph-name="uni04F1.ss01" horiz-adv-x="509" 
d="M387 474h110l-320 -672h-110l127 268l-187 404h113l129 -290zM92 619c0 36 29 65 65 65s65 -29 65 -65s-29 -65 -65 -65s-65 29 -65 65zM282 619c0 36 29 65 65 65s65 -29 65 -65s-29 -65 -65 -65s-65 29 -65 65z" />
    <glyph glyph-name="uni04F5.ss01" horiz-adv-x="558" 
d="M389 257v217h105v-474h-105v176c-31 -39 -84 -65 -160 -65c-103 0 -165 69 -165 172v191h105v-161c0 -76 36 -115 105 -115c47 0 82 18 115 59zM119 619c0 36 29 65 65 65s65 -29 65 -65s-29 -65 -65 -65s-65 29 -65 65zM309 619c0 36 29 65 65 65s65 -29 65 -65
s-29 -65 -65 -65s-65 29 -65 65z" />
    <glyph glyph-name="uni04F9.ss01" horiz-adv-x="741" 
d="M64 0v474h105v-164h135c104 0 160 -65 160 -150c0 -83 -58 -160 -160 -160h-240zM169 95h130c40 0 65 24 65 60s-25 60 -65 60h-130v-120zM572 474h105v-474h-105v474zM211 619c0 36 29 65 65 65s65 -29 65 -65s-29 -65 -65 -65s-65 29 -65 65zM401 619c0 36 29 65 65 65
s65 -29 65 -65s-29 -65 -65 -65s-65 29 -65 65z" />
    <glyph glyph-name="uni0430.ss02" horiz-adv-x="589" 
d="M36 234c0 145 93 250 224 250c75 0 132 -32 160 -87v77h105v-474h-100v80c-38 -60 -93 -90 -165 -90c-129 0 -224 104 -224 244zM424 234c0 93 -70 155 -142 155c-76 0 -141 -64 -141 -155s65 -151 141 -151c72 0 142 58 142 151z" />
    <glyph glyph-name="uni04D1.ss02" horiz-adv-x="589" 
d="M36 234c0 145 93 250 224 250c75 0 132 -32 160 -87v77h105v-474h-100v80c-38 -60 -93 -90 -165 -90c-129 0 -224 104 -224 244zM424 234c0 93 -70 155 -142 155c-76 0 -141 -64 -141 -155s65 -151 141 -151c72 0 142 58 142 151zM408 664c0 -72 -53 -111 -125 -111
s-125 39 -125 111c0 6 0 11 1 14h76l-1 -10c0 -25 20 -45 49 -45s49 20 49 45l-1 10h76c1 -3 1 -8 1 -14z" />
    <glyph glyph-name="uni04D3.ss02" horiz-adv-x="589" 
d="M36 234c0 145 93 250 224 250c75 0 132 -32 160 -87v77h105v-474h-100v80c-38 -60 -93 -90 -165 -90c-129 0 -224 104 -224 244zM424 234c0 93 -70 155 -142 155c-76 0 -141 -64 -141 -155s65 -151 141 -151c72 0 142 58 142 151zM138 563v112h110v-112h-110zM318 563
v112h110v-112h-110z" />
    <glyph glyph-name="uni04D5.ss02" horiz-adv-x="919" 
d="M36 234c0 145 93 250 224 250c75 0 132 -32 160 -87v77h105v-52c27 39 82 62 130 62c124 0 214 -80 214 -209c0 -19 -2 -37 -5 -55h-335c0 -95 70 -142 142 -142c68 0 113 37 128 102l90 -35c-33 -99 -107 -155 -219 -155c-61 0 -110 23 -145 70v-60h-100v80
c-38 -60 -93 -90 -165 -90c-129 0 -224 104 -224 244zM529 290h235l1 9c0 59 -47 95 -111 95c-65 0 -116 -40 -125 -104zM424 234c0 93 -70 155 -142 155c-76 0 -141 -64 -141 -155s65 -151 141 -151c72 0 142 58 142 151z" />
    <glyph glyph-name="uni04D3.ss01.ss02" horiz-adv-x="589" 
d="M36 234c0 145 93 250 224 250c75 0 132 -32 160 -87v77h105v-474h-100v80c-38 -60 -93 -90 -165 -90c-129 0 -224 104 -224 244zM424 234c0 93 -70 155 -142 155c-76 0 -141 -64 -141 -155s65 -151 141 -151c72 0 142 58 142 151zM123 619c0 36 29 65 65 65
s65 -29 65 -65s-29 -65 -65 -65s-65 29 -65 65zM313 619c0 36 29 65 65 65s65 -29 65 -65s-29 -65 -65 -65s-65 29 -65 65z" />
    <glyph glyph-name="Alpha" unicode="&#x391;" horiz-adv-x="752" 
d="M12 0l288 700h152l288 -700h-124l-67 170h-346l-67 -170h-124zM242 270h268l-134 339z" />
    <glyph glyph-name="Beta" unicode="&#x392;" horiz-adv-x="698" 
d="M72 0v700h330c129 0 225 -81 225 -185c0 -69 -39 -124 -110 -155c83 -20 135 -82 135 -170c0 -109 -101 -190 -230 -190h-350zM182 410h215c79 0 120 34 120 95c0 57 -51 90 -120 90h-215v-185zM182 105h235c71 0 120 40 120 100c0 57 -48 105 -120 105h-235v-205z" />
    <glyph glyph-name="Gamma" unicode="&#x393;" horiz-adv-x="620" 
d="M592 595h-410v-595h-110v700h520v-105z" />
    <glyph glyph-name="uni0394" unicode="&#x394;" horiz-adv-x="752" 
d="M12 0l288 700h152l288 -700h-728zM176 100h400l-200 510z" />
    <glyph glyph-name="Epsilon" unicode="&#x395;" horiz-adv-x="642" 
d="M72 700h510v-105h-400v-180h370v-105h-370v-205h410v-105h-520v700z" />
    <glyph glyph-name="Zeta" unicode="&#x396;" horiz-adv-x="707" 
d="M50 105l455 490h-450v105h595v-105l-455 -490h460v-105h-605v105z" />
    <glyph glyph-name="Eta" unicode="&#x397;" horiz-adv-x="744" 
d="M562 295h-380v-295h-110v700h110v-305h380v305h110v-700h-110v295z" />
    <glyph glyph-name="Theta" unicode="&#x398;" horiz-adv-x="814" 
d="M407 710c200 4 369 -164 365 -360c4 -197 -165 -364 -365 -360c-200 -4 -369 163 -365 360c-4 196 165 364 365 360zM407 95c138 0 250 104 250 255s-109 255 -250 255s-250 -106 -250 -256c0 -152 112 -254 250 -254zM277 305v90h260v-90h-260z" />
    <glyph glyph-name="Iota" unicode="&#x399;" horiz-adv-x="254" 
d="M72 0v700h110v-700h-110z" />
    <glyph glyph-name="Kappa" unicode="&#x39a;" horiz-adv-x="687" 
d="M394 426l273 -426h-135l-216 343l-134 -143v-200h-110v700h110v-347l325 347h145z" />
    <glyph glyph-name="Lambda" unicode="&#x39b;" horiz-adv-x="752" 
d="M12 0l288 700h152l288 -700h-124l-240 610l-240 -610h-124z" />
    <glyph glyph-name="Mu" unicode="&#x39c;" horiz-adv-x="944" 
d="M872 0h-110v639l-205 -639h-170l-205 639v-639h-110v700h205l195 -615l195 615h205v-700z" />
    <glyph glyph-name="Nu" unicode="&#x39d;" horiz-adv-x="771" 
d="M182 620v-620h-110v700h191l326 -621v621h110v-700h-191z" />
    <glyph glyph-name="Xi" unicode="&#x39e;" horiz-adv-x="685" 
d="M630 595h-575v105h575v-105zM510 305h-335v100h335v-100zM50 105h585v-105h-585v105z" />
    <glyph glyph-name="Omicron" unicode="&#x39f;" horiz-adv-x="814" 
d="M407 710c200 4 369 -164 365 -360c4 -197 -165 -364 -365 -360c-200 -4 -369 163 -365 360c-4 196 165 364 365 360zM407 95c138 0 250 104 250 255s-109 255 -250 255s-250 -106 -250 -256c0 -152 112 -254 250 -254z" />
    <glyph glyph-name="Pi" unicode="&#x3a0;" horiz-adv-x="744" 
d="M562 600h-380v-600h-110v700h600v-700h-110v600z" />
    <glyph glyph-name="Rho" unicode="&#x3a1;" horiz-adv-x="666" 
d="M182 280v-280h-110v700h325c146 0 225 -97 225 -210c0 -109 -80 -210 -225 -210h-215zM182 385h205c71 0 120 41 120 105s-49 105 -120 105h-205v-210z" />
    <glyph glyph-name="Sigma" unicode="&#x3a3;" horiz-adv-x="660" 
d="M425 400v-100l-235 -195h420v-105h-560v125l275 225l-275 225v125h540v-105h-400z" />
    <glyph glyph-name="Tau" unicode="&#x3a4;" horiz-adv-x="676" 
d="M648 700v-105h-255v-595h-110v595h-255v105h620z" />
    <glyph glyph-name="Upsilon" unicode="&#x3a5;" horiz-adv-x="694" 
d="M147 700l200 -318l210 318h125l-280 -415v-285h-110v285l-280 415h135z" />
    <glyph glyph-name="Phi" unicode="&#x3a6;" horiz-adv-x="824" 
d="M357 0v80h-55c-148 0 -260 121 -260 270c-3 142 115 273 260 270h55v80h110v-80h55c145 3 263 -128 260 -270c0 -149 -112 -270 -260 -270h-55v-80h-110zM312 185h45v330h-45c-93 0 -160 -74 -160 -165s67 -165 160 -165zM467 185h45c93 0 160 74 160 165
s-67 165 -160 165h-45v-330z" />
    <glyph glyph-name="Chi" unicode="&#x3a7;" horiz-adv-x="692" 
d="M16 0l265 380l-225 320h135l155 -235l155 235h135l-225 -320l265 -380h-135l-195 290l-195 -290h-135z" />
    <glyph glyph-name="Psi" unicode="&#x3a8;" horiz-adv-x="810" 
d="M636 700h110v-170c0 -95 -25 -173 -76 -234s-121 -97 -210 -108v-188h-110v188c-89 11 -159 47 -210 108s-76 139 -76 234v170h110v-175c0 -129 64 -215 176 -235v410h110v-410c112 20 176 106 176 235v175z" />
    <glyph glyph-name="uni03A9" unicode="&#x3a9;" horiz-adv-x="784" 
d="M742 380c0 -123 -63 -215 -150 -280h125v-100h-285v95c55 29 101 66 138 113c38 47 57 101 57 162c0 137 -98 235 -235 235s-235 -98 -235 -235c0 -61 19 -115 56 -162c38 -47 84 -84 139 -113v-95h-285v100h125c-87 65 -150 157 -150 280c-3 185 149 333 350 330
c207 0 350 -142 350 -330z" />
    <glyph glyph-name="Alphatonos" unicode="&#x386;" horiz-adv-x="752" 
d="M12 0l288 700h152l288 -700h-124l-67 170h-346l-67 -170h-124zM242 270h268l-134 339zM30 567l36 133h131v-16l-71 -117h-96z" />
    <glyph glyph-name="Epsilontonos" unicode="&#x388;" horiz-adv-x="642" 
d="M72 700h510v-105h-400v-180h370v-105h-370v-205h410v-105h-520v700zM-157 567l36 133h131v-16l-71 -117h-96z" />
    <glyph glyph-name="Etatonos" unicode="&#x389;" horiz-adv-x="744" 
d="M562 295h-380v-295h-110v700h110v-305h380v305h110v-700h-110v295zM-157 567l36 133h131v-16l-71 -117h-96z" />
    <glyph glyph-name="Iotatonos" unicode="&#x38a;" horiz-adv-x="254" 
d="M72 0v700h110v-700h-110zM-157 567l36 133h131v-16l-71 -117h-96z" />
    <glyph glyph-name="Omicrontonos" unicode="&#x38c;" horiz-adv-x="814" 
d="M407 710c200 4 369 -164 365 -360c4 -197 -165 -364 -365 -360c-200 -4 -369 163 -365 360c-4 196 165 364 365 360zM407 95c138 0 250 104 250 255s-109 255 -250 255s-250 -106 -250 -256c0 -152 112 -254 250 -254zM-62 567l36 133h131v-16l-71 -117h-96z" />
    <glyph glyph-name="Upsilontonos" unicode="&#x38e;" horiz-adv-x="694" 
d="M147 700l200 -318l210 318h125l-280 -415v-285h-110v285l-280 415h135zM-185 567l36 133h131v-16l-71 -117h-96z" />
    <glyph glyph-name="Omegatonos" unicode="&#x38f;" horiz-adv-x="784" 
d="M742 380c0 -123 -63 -215 -150 -280h125v-100h-285v95c55 29 101 66 138 113c38 47 57 101 57 162c0 137 -98 235 -235 235s-235 -98 -235 -235c0 -61 19 -115 56 -162c38 -47 84 -84 139 -113v-95h-285v100h125c-87 65 -150 157 -150 280c-3 185 149 333 350 330
c207 0 350 -142 350 -330zM-76 567l36 133h131v-16l-71 -117h-96z" />
    <glyph glyph-name="Iotadieresis" unicode="&#x3aa;" horiz-adv-x="254" 
d="M72 0v700h110v-700h-110zM-18 789v112h110v-112h-110zM162 789v112h110v-112h-110z" />
    <glyph glyph-name="Upsilondieresis" unicode="&#x3ab;" horiz-adv-x="694" 
d="M147 700l200 -318l210 318h125l-280 -415v-285h-110v285l-280 415h135zM199 789v112h110v-112h-110zM379 789v112h110v-112h-110z" />
    <glyph glyph-name="Iotadieresis.ss01" horiz-adv-x="254" 
d="M72 0v700h110v-700h-110zM-33 845c0 36 29 65 65 65s65 -29 65 -65s-29 -65 -65 -65s-65 29 -65 65zM157 845c0 36 29 65 65 65s65 -29 65 -65s-29 -65 -65 -65s-65 29 -65 65z" />
    <glyph glyph-name="Upsilondieresis.ss01" horiz-adv-x="694" 
d="M147 700l200 -318l210 318h125l-280 -415v-285h-110v285l-280 415h135zM184 845c0 36 29 65 65 65s65 -29 65 -65s-29 -65 -65 -65s-65 29 -65 65zM374 845c0 36 29 65 65 65s65 -29 65 -65s-29 -65 -65 -65s-65 29 -65 65z" />
    <glyph glyph-name="alpha" unicode="&#x3b1;" horiz-adv-x="642" 
d="M36 237c0 158 96 247 204 247c69 0 117 -34 138 -79v69h105v-344c0 -28 14 -42 35 -42c19 0 31 11 35 32l85 -46c-15 -49 -66 -84 -122 -84c-68 0 -112 38 -123 94c-16 -53 -69 -94 -153 -94c-108 0 -204 91 -204 247zM378 241c0 99 -50 148 -119 148s-118 -53 -118 -152
s49 -152 118 -152s119 51 119 156z" />
    <glyph glyph-name="beta" unicode="&#x3b2;" horiz-adv-x="552" 
d="M64 -198v723c0 113 75 185 187 185c108 0 177 -65 177 -156c0 -72 -41 -124 -94 -144c85 -8 171 -74 171 -200c0 -129 -84 -220 -201 -220c-51 0 -104 17 -135 54v-242h-105zM400 212c0 93 -80 144 -166 144h-10v90h10c51 0 94 39 94 94c0 51 -31 80 -76 80
c-53 0 -83 -35 -83 -98v-314c0 -76 55 -122 119 -122c69 0 112 43 112 126z" />
    <glyph glyph-name="gamma" unicode="&#x3b3;" horiz-adv-x="542" 
d="M219 -198v273l-201 399h112l141 -299l141 299h112l-201 -399v-273h-104z" />
    <glyph glyph-name="delta" unicode="&#x3b4;" horiz-adv-x="552" 
d="M36 230c0 114 68 188 128 210c-67 11 -110 56 -110 120c0 97 101 150 215 150c79 0 148 -23 205 -70l-55 -80c-40 37 -88 55 -145 55c-71 0 -115 -26 -115 -70c0 -41 41 -65 117 -65c157 0 240 -115 240 -240c0 -145 -97 -250 -240 -250s-240 107 -240 240zM411 237
c0 89 -56 152 -135 152s-135 -63 -135 -152s56 -152 135 -152s135 63 135 152z" />
    <glyph glyph-name="epsilon" unicode="&#x3b5;" horiz-adv-x="458" 
d="M38 130c0 64 38 98 90 110c-49 13 -80 55 -80 110c0 83 71 134 170 134c92 0 154 -46 185 -129l-90 -45c-15 57 -47 85 -95 85c-41 0 -70 -20 -70 -55s25 -55 65 -55h35v-90h-45c-40 0 -65 -19 -65 -50c0 -41 36 -60 85 -60c65 0 103 33 115 100l90 -40
c-16 -89 -90 -155 -195 -155c-103 0 -195 53 -195 140z" />
    <glyph glyph-name="zeta" unicode="&#x3b6;" horiz-adv-x="507" 
d="M442 -208l-80 53c26 21 39 46 39 74c0 36 -25 71 -85 71c-157 0 -280 103 -280 275c0 182 132 298 285 340h-270v95h440v-95c-247 -68 -355 -179 -355 -330c0 -129 74 -195 190 -195c103 0 175 -56 175 -155c0 -52 -24 -101 -59 -133z" />
    <glyph glyph-name="eta" unicode="&#x3b7;" horiz-adv-x="548" 
d="M379 -198v472c0 76 -43 120 -100 120c-67 0 -110 -46 -110 -125v-269h-105v474h105v-65c39 53 88 75 149 75c99 0 166 -66 166 -174v-508h-105z" />
    <glyph glyph-name="theta" unicode="&#x3b8;" horiz-adv-x="564" 
d="M36 350c0 235 93 360 246 360s246 -125 246 -360c0 -236 -90 -360 -246 -360s-246 124 -246 360zM141 395h282c-5 139 -54 220 -141 220s-136 -81 -141 -220zM423 305h-282c5 -143 46 -220 141 -220s136 77 141 220z" />
    <glyph glyph-name="iota" unicode="&#x3b9;" horiz-adv-x="337" 
d="M64 140v334h105v-344c0 -30 13 -45 40 -45c22 0 35 12 40 35l84 -50c-15 -48 -67 -80 -124 -80c-100 0 -145 59 -145 150z" />
    <glyph glyph-name="kappa" unicode="&#x3ba;" horiz-adv-x="486" 
d="M64 0v474h105v-174l150 174h135l-205 -224l215 -250h-135l-160 195v-195h-105z" />
    <glyph glyph-name="lambda" unicode="&#x3bb;" horiz-adv-x="516" 
d="M504 0h-110l-136 363l-134 -363h-110l194 496l-25 66c-11 31 -31 46 -59 46c-27 0 -46 -13 -57 -39l-71 55c25 48 76 76 136 76c69 0 121 -36 146 -104z" />
    <glyph glyph-name="uni03BC" unicode="&#x3bc;" horiz-adv-x="553" 
d="M64 -198v672h105v-279c0 -73 34 -115 106 -115c63 0 109 53 109 145v249h105v-474h-105v75c-25 -57 -66 -85 -124 -85c-40 0 -74 14 -91 35v-223h-105z" />
    <glyph glyph-name="nu" unicode="&#x3bd;" horiz-adv-x="534" 
d="M128 474l139 -369l139 369h110l-189 -474h-120l-189 474h110z" />
    <glyph glyph-name="xi" unicode="&#x3be;" horiz-adv-x="494" 
d="M428 -208l-80 53c27 22 40 47 40 74c0 37 -24 71 -95 71c-162 0 -255 84 -255 198c0 91 48 156 132 187c-60 27 -102 80 -102 151c0 111 94 184 205 184c121 0 199 -62 215 -175l-99 -25c-5 75 -48 110 -112 110c-67 0 -109 -43 -109 -98c0 -68 48 -111 135 -111h70v-90
h-85c-100 0 -150 -51 -150 -123c0 -77 47 -118 175 -118c104 0 175 -59 175 -160c0 -48 -25 -96 -60 -128z" />
    <glyph glyph-name="omicron" unicode="&#x3bf;" horiz-adv-x="560" 
d="M36 237c0 140 101 247 244 247s244 -107 244 -247s-101 -247 -244 -247s-244 107 -244 247zM419 237c0 89 -59 152 -139 152s-139 -63 -139 -152s59 -152 139 -152s139 63 139 152z" />
    <glyph glyph-name="pi" unicode="&#x3c0;" horiz-adv-x="649" 
d="M354 140v244h-116v-384h-105v384h-120v90h556v-90h-110v-254c0 -27 15 -42 40 -42c21 0 35 11 40 32l84 -50c-15 -48 -67 -80 -124 -80c-100 0 -145 59 -145 150z" />
    <glyph glyph-name="rho" unicode="&#x3c1;" horiz-adv-x="576" 
d="M64 -198v410c0 179 106 272 238 272c150 0 238 -107 238 -248s-89 -246 -220 -246c-65 0 -124 25 -156 74v-262h-100zM435 236c0 92 -55 153 -135 153s-135 -61 -135 -153s55 -153 135 -153s135 61 135 153z" />
    <glyph glyph-name="uni03C2" unicode="&#x3c2;" horiz-adv-x="507" 
d="M432 -208l-80 53c26 21 39 46 39 74c0 36 -25 71 -97 71c-146 0 -258 97 -258 250c0 145 109 244 240 244c117 0 205 -66 225 -174l-95 -30c-11 71 -61 114 -130 114s-140 -54 -140 -154c0 -99 71 -160 178 -160c104 0 177 -60 177 -160c0 -48 -24 -96 -59 -128z" />
    <glyph glyph-name="sigma" unicode="&#x3c3;" horiz-adv-x="560" 
d="M36 232c0 134 96 242 260 242h230v-90h-97c53 -29 87 -89 87 -164c0 -126 -95 -230 -240 -230c-143 0 -240 109 -240 242zM411 232c0 85 -56 147 -133 147c-39 0 -72 -14 -98 -42c-26 -27 -39 -62 -39 -105c0 -85 55 -147 135 -147s135 62 135 147z" />
    <glyph glyph-name="tau" unicode="&#x3c4;" horiz-adv-x="435" 
d="M140 140v239h-120v95h365v-95h-140v-249c0 -30 13 -45 40 -45c22 0 35 12 40 35l84 -50c-15 -48 -67 -80 -124 -80c-100 0 -145 59 -145 150z" />
    <glyph glyph-name="upsilon" unicode="&#x3c5;" horiz-adv-x="546" 
d="M64 200v274h105v-277c0 -75 37 -112 104 -112s104 37 104 112v277h105v-274c0 -127 -78 -210 -209 -210s-209 83 -209 210z" />
    <glyph glyph-name="phi" unicode="&#x3c6;" horiz-adv-x="707" 
d="M671 237c0 -140 -99 -237 -230 -237h-35v-198h-105v198h-35c-131 0 -230 97 -230 237s99 237 230 237h35v226h105v-226h35c131 0 230 -97 230 -237zM276 95h25v284h-25c-84 0 -140 -58 -140 -142s56 -142 140 -142zM571 237c0 84 -56 142 -140 142h-25v-284h25
c84 0 140 58 140 142z" />
    <glyph glyph-name="chi" unicode="&#x3c7;" horiz-adv-x="484" 
d="M12 -198l170 351l-155 321h120l95 -214l95 214h120l-155 -321l170 -351h-120l-110 243l-110 -243h-120z" />
    <glyph glyph-name="psi" unicode="&#x3c8;" horiz-adv-x="663" 
d="M279 95v605h105v-605c68 3 110 46 110 135v244h105v-239c0 -148 -78 -230 -215 -235v-198h-105v198c-137 5 -215 87 -215 235v239h105v-244c0 -89 42 -132 110 -135z" />
    <glyph glyph-name="omega" unicode="&#x3c9;" horiz-adv-x="777" 
d="M336 205v164h105v-164c0 -80 31 -120 93 -120c65 0 102 65 102 165c0 82 -25 157 -76 224h113c37 -52 68 -134 68 -219c0 -78 -17 -142 -51 -191c-33 -49 -84 -74 -151 -74c-71 0 -127 37 -151 102c-24 -67 -79 -102 -150 -102c-67 0 -118 25 -152 74
c-33 49 -50 113 -50 191c0 85 31 167 68 219h113c-51 -67 -76 -142 -76 -224c0 -100 37 -165 102 -165c62 0 93 40 93 120z" />
    <glyph glyph-name="iotatonos" unicode="&#x3af;" horiz-adv-x="337" 
d="M64 140v334h105v-344c0 -30 13 -45 40 -45c22 0 35 12 40 35l84 -50c-15 -48 -67 -80 -124 -80c-100 0 -145 59 -145 150zM69 555l36 133h131v-16l-71 -117h-96z" />
    <glyph glyph-name="iotadieresis" unicode="&#x3ca;" horiz-adv-x="337" 
d="M64 140v334h105v-344c0 -30 13 -45 40 -45c22 0 35 12 40 35l84 -50c-15 -48 -67 -80 -124 -80c-100 0 -145 59 -145 150zM-28 563v112h110v-112h-110zM152 563v112h110v-112h-110z" />
    <glyph glyph-name="iotadieresistonos" unicode="&#x390;" horiz-adv-x="337" 
d="M64 140v334h105v-344c0 -30 13 -45 40 -45c22 0 35 12 40 35l84 -50c-15 -48 -67 -80 -124 -80c-100 0 -145 59 -145 150zM49 552l17 133h117v-16l-52 -117h-82zM-76 563v112h110v-112h-110zM200 563v112h110v-112h-110z" />
    <glyph glyph-name="upsilontonos" unicode="&#x3cd;" horiz-adv-x="546" 
d="M64 200v274h105v-277c0 -75 37 -112 104 -112s104 37 104 112v277h105v-274c0 -127 -78 -210 -209 -210s-209 83 -209 210zM225 555l36 133h131v-16l-71 -117h-96z" />
    <glyph glyph-name="upsilondieresis" unicode="&#x3cb;" horiz-adv-x="546" 
d="M64 200v274h105v-277c0 -75 37 -112 104 -112s104 37 104 112v277h105v-274c0 -127 -78 -210 -209 -210s-209 83 -209 210zM128 563v112h110v-112h-110zM308 563v112h110v-112h-110z" />
    <glyph glyph-name="upsilondieresistonos" unicode="&#x3b0;" horiz-adv-x="546" 
d="M64 200v274h105v-277c0 -75 37 -112 104 -112s104 37 104 112v277h105v-274c0 -127 -78 -210 -209 -210s-209 83 -209 210zM205 552l17 133h117v-16l-52 -117h-82zM80 563v112h110v-112h-110zM356 563v112h110v-112h-110z" />
    <glyph glyph-name="omicrontonos" unicode="&#x3cc;" horiz-adv-x="560" 
d="M36 237c0 140 101 247 244 247s244 -107 244 -247s-101 -247 -244 -247s-244 107 -244 247zM419 237c0 89 -59 152 -139 152s-139 -63 -139 -152s59 -152 139 -152s139 63 139 152zM232 555l36 133h131v-16l-71 -117h-96z" />
    <glyph glyph-name="omegatonos" unicode="&#x3ce;" horiz-adv-x="777" 
d="M336 205v164h105v-164c0 -80 31 -120 93 -120c65 0 102 65 102 165c0 82 -25 157 -76 224h113c37 -52 68 -134 68 -219c0 -78 -17 -142 -51 -191c-33 -49 -84 -74 -151 -74c-71 0 -127 37 -151 102c-24 -67 -79 -102 -150 -102c-67 0 -118 25 -152 74
c-33 49 -50 113 -50 191c0 85 31 167 68 219h113c-51 -67 -76 -142 -76 -224c0 -100 37 -165 102 -165c62 0 93 40 93 120zM341 555l36 133h131v-16l-71 -117h-96z" />
    <glyph glyph-name="alphatonos" unicode="&#x3ac;" horiz-adv-x="642" 
d="M36 237c0 158 96 247 204 247c69 0 117 -34 138 -79v69h105v-344c0 -28 14 -42 35 -42c19 0 31 11 35 32l85 -46c-15 -49 -66 -84 -122 -84c-68 0 -112 38 -123 94c-16 -53 -69 -94 -153 -94c-108 0 -204 91 -204 247zM378 241c0 99 -50 148 -119 148s-118 -53 -118 -152
s49 -152 118 -152s119 51 119 156zM271 555l36 133h131v-16l-71 -117h-96z" />
    <glyph glyph-name="epsilontonos" unicode="&#x3ad;" horiz-adv-x="458" 
d="M38 130c0 64 38 98 90 110c-49 13 -80 55 -80 110c0 83 71 134 170 134c92 0 154 -46 185 -129l-90 -45c-15 57 -47 85 -95 85c-41 0 -70 -20 -70 -55s25 -55 65 -55h35v-90h-45c-40 0 -65 -19 -65 -50c0 -41 36 -60 85 -60c65 0 103 33 115 100l90 -40
c-16 -89 -90 -155 -195 -155c-103 0 -195 53 -195 140zM175 555l36 133h131v-16l-71 -117h-96z" />
    <glyph glyph-name="etatonos" unicode="&#x3ae;" horiz-adv-x="548" 
d="M379 -198v472c0 76 -43 120 -100 120c-67 0 -110 -46 -110 -125v-269h-105v474h105v-65c39 53 88 75 149 75c99 0 166 -66 166 -174v-508h-105zM238 555l36 133h131v-16l-71 -117h-96z" />
    <glyph glyph-name="iotadieresis.ss01" horiz-adv-x="337" 
d="M64 140v334h105v-344c0 -30 13 -45 40 -45c22 0 35 12 40 35l84 -50c-15 -48 -67 -80 -124 -80c-100 0 -145 59 -145 150zM-43 619c0 36 29 65 65 65s65 -29 65 -65s-29 -65 -65 -65s-65 29 -65 65zM147 619c0 36 29 65 65 65s65 -29 65 -65s-29 -65 -65 -65
s-65 29 -65 65z" />
    <glyph glyph-name="iotadieresistonos.ss01" horiz-adv-x="337" 
d="M64 140v334h105v-344c0 -30 13 -45 40 -45c22 0 35 12 40 35l84 -50c-15 -48 -67 -80 -124 -80c-100 0 -145 59 -145 150zM56 552l17 133h117v-16l-52 -117h-82zM-93 619c0 36 29 65 65 65s65 -29 65 -65s-29 -65 -65 -65s-65 29 -65 65zM197 619c0 36 29 65 65 65
s65 -29 65 -65s-29 -65 -65 -65s-65 29 -65 65z" />
    <glyph glyph-name="upsilondieresis.ss01" horiz-adv-x="546" 
d="M64 200v274h105v-277c0 -75 37 -112 104 -112s104 37 104 112v277h105v-274c0 -127 -78 -210 -209 -210s-209 83 -209 210zM113 619c0 36 29 65 65 65s65 -29 65 -65s-29 -65 -65 -65s-65 29 -65 65zM303 619c0 36 29 65 65 65s65 -29 65 -65s-29 -65 -65 -65
s-65 29 -65 65z" />
    <glyph glyph-name="upsilondieresistonos.ss01" horiz-adv-x="546" 
d="M64 200v274h105v-277c0 -75 37 -112 104 -112s104 37 104 112v277h105v-274c0 -127 -78 -210 -209 -210s-209 83 -209 210zM212 552l17 133h117v-16l-52 -117h-82zM63 619c0 36 29 65 65 65s65 -29 65 -65s-29 -65 -65 -65s-65 29 -65 65zM353 619c0 36 29 65 65 65
s65 -29 65 -65s-29 -65 -65 -65s-65 29 -65 65z" />
    <glyph glyph-name="zero" unicode="0" horiz-adv-x="646" 
d="M38 350c0 219 110 360 285 360s285 -141 285 -360s-110 -360 -285 -360s-285 141 -285 360zM503 350c0 78 -16 142 -47 191s-75 74 -133 74s-103 -25 -134 -74s-46 -112 -46 -191s15 -143 46 -192s76 -73 134 -73s102 25 133 74s47 113 47 191z" />
    <glyph glyph-name="one" unicode="1" horiz-adv-x="392" 
d="M215 0v545c-20 -62 -104 -121 -175 -125l-20 115c107 11 186 65 205 165h95v-700h-105z" />
    <glyph glyph-name="two" unicode="2" horiz-adv-x="589" 
d="M233 280c12 7 30 16 54 28c36 18 64 33 83 46c40 27 68 64 68 123c0 80 -58 138 -150 138c-85 0 -145 -61 -145 -133c0 -33 15 -69 40 -97l-90 -60c-37 46 -55 98 -55 155c0 126 104 230 255 230c159 0 250 -95 250 -227c0 -109 -58 -174 -150 -227l-54 -29
c-47 -25 -82 -46 -106 -63c-23 -17 -38 -39 -44 -64h354v-100h-490c0 71 16 127 48 170c33 43 77 79 132 110z" />
    <glyph glyph-name="three" unicode="3" horiz-adv-x="576" 
d="M20 200l100 45c5 -93 70 -155 162 -155c85 0 149 58 149 143s-61 142 -146 142c-39 0 -74 -14 -95 -35l-60 75l220 185h-300v100h455v-85l-205 -170c10 2 21 3 33 3c97 0 203 -79 203 -213c0 -144 -107 -245 -254 -245c-145 0 -241 86 -262 210z" />
    <glyph glyph-name="four" unicode="4" horiz-adv-x="585" 
d="M349 0v170h-315v110c131 136 147 196 150 375v45h105v-45c0 -84 -10 -156 -30 -216c-20 -59 -58 -117 -115 -174h205v219h105v-219h115v-95h-115v-170h-105z" />
    <glyph glyph-name="five" unicode="5" horiz-adv-x="604" 
d="M529 700v-100h-345c0 -53 -7 -119 -22 -199c36 43 100 73 168 73c132 0 234 -85 234 -229c0 -147 -98 -255 -260 -255c-132 0 -246 74 -260 210l105 30c11 -85 63 -140 155 -140c97 0 155 62 155 145c0 84 -57 145 -150 145c-63 0 -121 -38 -140 -85l-115 26
c20 127 30 254 30 379h445z" />
    <glyph glyph-name="six" unicode="6" horiz-adv-x="596" 
d="M38 345c0 202 93 365 279 365c137 0 219 -70 239 -186l-100 -32c-17 85 -61 123 -144 123c-87 0 -169 -76 -169 -250v-15c15 29 40 53 74 72s70 28 108 28c140 0 222 -111 222 -220c0 -143 -102 -240 -237 -240c-178 0 -272 150 -272 355zM442 220c0 80 -57 135 -142 135
c-71 0 -132 -56 -132 -130c0 -39 13 -72 40 -97s61 -38 102 -38c37 0 69 12 94 37s38 56 38 93z" />
    <glyph glyph-name="seven" unicode="7" horiz-adv-x="529" 
d="M32 700h465v-90c-148 -96 -224 -234 -224 -449c0 -49 4 -103 12 -161h-118c-6 46 -9 90 -9 132c0 205 70 364 198 468h-324v100z" />
    <glyph glyph-name="eight" unicode="8" horiz-adv-x="590" 
d="M40 200c0 88 47 161 135 190c-64 29 -95 79 -95 140c0 100 82 180 215 180s215 -80 215 -180c0 -61 -31 -111 -95 -140c88 -29 135 -102 135 -190c0 -113 -90 -210 -255 -210s-255 97 -255 210zM410 525c0 51 -47 90 -115 90s-115 -39 -115 -90c0 -56 46 -95 115 -95
s115 39 115 95zM445 215c0 35 -14 65 -42 89s-64 36 -108 36s-80 -12 -108 -36s-42 -54 -42 -89c0 -72 58 -125 150 -125s150 53 150 125z" />
    <glyph glyph-name="nine" unicode="9" horiz-adv-x="599" 
d="M40 200l105 30c9 -93 63 -140 150 -140c108 0 166 94 166 251c0 17 0 30 -1 39c-27 -79 -89 -130 -180 -130c-149 0 -225 110 -225 220c0 143 100 240 235 240c95 0 163 -34 206 -103c43 -68 65 -154 65 -258c0 -98 -21 -182 -62 -253s-111 -106 -209 -106
c-146 0 -234 93 -250 210zM430 480c0 38 -13 70 -38 96s-58 39 -97 39c-79 0 -135 -59 -135 -140c0 -79 54 -130 135 -130c80 0 135 55 135 135z" />
    <glyph glyph-name="uni2780" unicode="&#x2780;" horiz-adv-x="780" 
d="M40 350c-4 189 161 354 350 350c189 4 354 -161 350 -350c4 -189 -161 -354 -350 -350c-189 -4 -354 161 -350 350zM660 350c3 147 -123 273 -270 270c-147 3 -273 -123 -270 -270c-3 -147 123 -273 270 -270c147 -3 273 123 270 270zM368 180v245
c-13 -33 -50 -53 -83 -56l-10 77c56 4 90 30 98 74h65v-340h-70z" />
    <glyph glyph-name="uni2781" unicode="&#x2781;" horiz-adv-x="780" 
d="M40 350c-4 189 161 354 350 350c189 4 354 -161 350 -350c4 -189 -161 -354 -350 -350c-189 -4 -354 161 -350 350zM660 350c3 147 -123 273 -270 270c-147 3 -273 -123 -270 -270c-3 -147 123 -273 270 -270c147 -3 273 123 270 270zM269 417c0 63 49 107 121 107
c80 0 123 -41 123 -106s-32 -94 -88 -125c-31 -19 -47 -29 -56 -48h144v-65h-242c0 76 32 113 92 148c60 36 79 52 79 87c0 28 -19 45 -54 45c-31 0 -51 -19 -51 -43c0 -13 5 -25 14 -36l-54 -36c-19 19 -28 43 -28 72z" />
    <glyph glyph-name="uni2782" unicode="&#x2782;" horiz-adv-x="780" 
d="M40 350c-4 189 161 354 350 350c189 4 354 -161 350 -350c4 -189 -161 -354 -350 -350c-189 -4 -354 161 -350 350zM660 350c3 147 -123 273 -270 270c-147 3 -273 -123 -270 -270c-3 -147 123 -273 270 -270c147 -3 273 123 270 270zM267 277l65 30c5 -39 28 -63 64 -63
c31 0 54 21 54 50c0 31 -21 52 -49 52c-15 0 -28 -4 -38 -13l-40 49l87 73h-125v65h220v-55l-74 -62c45 -1 91 -39 91 -108c0 -71 -53 -119 -125 -119c-73 0 -118 40 -130 101z" />
    <glyph glyph-name="uni2783" unicode="&#x2783;" horiz-adv-x="780" 
d="M40 350c-4 189 161 354 350 350c189 4 354 -161 350 -350c4 -189 -161 -354 -350 -350c-189 -4 -354 161 -350 350zM660 350c3 147 -123 273 -270 270c-147 3 -273 -123 -270 -270c-3 -147 123 -273 270 -270c147 -3 273 123 270 270zM415 180v72h-161v72
c48 48 67 95 67 174v22h70v-22c0 -77 -17 -134 -60 -181h84v98h70v-98h41v-65h-41v-72h-70z" />
    <glyph glyph-name="uni2784" unicode="&#x2784;" horiz-adv-x="780" 
d="M40 350c-4 189 161 354 350 350c189 4 354 -161 350 -350c4 -189 -161 -354 -350 -350c-189 -4 -354 161 -350 350zM660 350c3 147 -123 273 -270 270c-147 3 -273 -123 -270 -270c-3 -147 123 -273 270 -270c147 -3 273 123 270 270zM495 520v-65h-159
c0 -28 -4 -55 -11 -80c13 21 43 35 74 35c65 0 114 -42 114 -111c0 -75 -45 -123 -124 -123c-67 0 -121 37 -128 102l70 16c4 -31 27 -53 58 -53c35 0 54 23 54 54s-20 52 -55 52c-21 0 -42 -14 -50 -30l-72 20c10 64 15 125 15 183h214z" />
    <glyph glyph-name="uni2785" unicode="&#x2785;" horiz-adv-x="780" 
d="M40 350c-4 189 161 354 350 350c189 4 354 -161 350 -350c4 -189 -161 -354 -350 -350c-189 -4 -354 161 -350 350zM660 350c3 147 -123 273 -270 270c-147 3 -273 -123 -270 -270c-3 -147 123 -273 270 -270c147 -3 273 123 270 270zM254 352c0 101 48 172 137 172
c65 0 108 -33 119 -88l-59 -16c-5 28 -30 44 -62 44c-40 0 -69 -34 -69 -101v-6c13 28 42 45 81 45c65 0 111 -44 111 -107c0 -71 -51 -119 -119 -119c-89 0 -139 67 -139 176zM448 291c0 33 -22 55 -57 55c-32 0 -57 -23 -57 -55c0 -33 24 -55 57 -55s57 23 57 55z" />
    <glyph glyph-name="uni2786" unicode="&#x2786;" horiz-adv-x="780" 
d="M40 350c-4 189 161 354 350 350c189 4 354 -161 350 -350c4 -189 -161 -354 -350 -350c-189 -4 -354 161 -350 350zM660 350c3 147 -123 273 -270 270c-147 3 -273 -123 -270 -270c-3 -147 123 -273 270 -270c147 -3 273 123 270 270zM272 520h234v-60
c-69 -48 -106 -107 -106 -202c0 -24 2 -50 6 -78h-70c-3 24 -4 45 -4 64c0 91 29 161 87 211h-147v65z" />
    <glyph glyph-name="uni2787" unicode="&#x2787;" horiz-adv-x="780" 
d="M40 350c-4 189 161 354 350 350c189 4 354 -161 350 -350c4 -189 -161 -354 -350 -350c-189 -4 -354 161 -350 350zM660 350c3 147 -123 273 -270 270c-147 3 -273 -123 -270 -270c-3 -147 123 -273 270 -270c147 -3 273 123 270 270zM259 282c0 43 20 72 61 89
c-27 16 -41 38 -41 66c0 52 43 87 111 87s111 -35 111 -87c0 -28 -14 -50 -41 -66c41 -17 61 -46 61 -89c0 -59 -50 -106 -131 -106s-131 47 -131 106zM439 435c0 25 -20 39 -49 39s-49 -14 -49 -39s20 -39 49 -39s49 14 49 39zM451 289c0 33 -28 51 -61 51s-61 -18 -61 -51
s28 -51 61 -51s61 18 61 51z" />
    <glyph glyph-name="uni2788" unicode="&#x2788;" horiz-adv-x="780" 
d="M40 350c-4 189 161 354 350 350c189 4 354 -161 350 -350c4 -189 -161 -354 -350 -350c-189 -4 -354 161 -350 350zM660 350c3 147 -123 273 -270 270c-147 3 -273 -123 -270 -270c-3 -147 123 -273 270 -270c147 -3 273 123 270 270zM262 273l57 18c9 -37 32 -55 69 -55
c49 0 73 35 73 107v6c-15 -31 -42 -47 -81 -47c-68 0 -109 50 -109 106c0 71 52 116 119 116c87 0 137 -63 137 -170c0 -103 -47 -178 -139 -178c-69 0 -114 37 -126 97zM449 411c0 32 -24 53 -57 53s-57 -21 -57 -53s24 -53 57 -53s57 21 57 53z" />
    <glyph glyph-name="uni278A" unicode="&#x278a;" horiz-adv-x="780" 
d="M40 350c-4 189 161 354 350 350c189 4 354 -161 350 -350c4 -189 -161 -354 -350 -350c-189 -4 -354 161 -350 350zM368 180h70v340h-65c-8 -44 -42 -70 -98 -74l10 -77c33 3 70 23 83 56v-245z" />
    <glyph glyph-name="uni278B" unicode="&#x278b;" horiz-adv-x="780" 
d="M40 350c-4 189 161 354 350 350c189 4 354 -161 350 -350c4 -189 -161 -354 -350 -350c-189 -4 -354 161 -350 350zM271 180h242v65h-144c9 19 25 29 56 48c56 31 88 60 88 125s-43 106 -123 106c-72 0 -121 -44 -121 -107c0 -29 9 -53 28 -72l54 36c-9 11 -14 23 -14 36
c0 24 20 43 51 43c35 0 54 -17 54 -45c0 -35 -19 -51 -79 -87c-60 -35 -92 -72 -92 -148z" />
    <glyph glyph-name="uni278C" unicode="&#x278c;" horiz-adv-x="780" 
d="M40 350c-4 189 161 354 350 350c189 4 354 -161 350 -350c4 -189 -161 -354 -350 -350c-189 -4 -354 161 -350 350zM522 295c0 69 -46 107 -91 108l74 62v55h-220v-65h125l-87 -73l40 -49c10 9 23 13 38 13c28 0 49 -21 49 -52c0 -29 -23 -50 -54 -50
c-36 0 -59 24 -64 63l-65 -30c12 -61 57 -101 130 -101c72 0 125 48 125 119z" />
    <glyph glyph-name="uni278D" unicode="&#x278d;" horiz-adv-x="780" 
d="M40 350c-4 189 161 354 350 350c189 4 354 -161 350 -350c4 -189 -161 -354 -350 -350c-189 -4 -354 161 -350 350zM415 180h70v72h41v65h-41v98h-70v-98h-84c43 47 60 104 60 181v22h-70v-22c0 -79 -19 -126 -67 -174v-72h161v-72z" />
    <glyph glyph-name="uni278E" unicode="&#x278e;" horiz-adv-x="780" 
d="M40 350c-4 189 161 354 350 350c189 4 354 -161 350 -350c4 -189 -161 -354 -350 -350c-189 -4 -354 161 -350 350zM513 299c0 69 -49 111 -114 111c-31 0 -61 -14 -74 -35c7 25 11 52 11 80h159v65h-214c0 -58 -5 -119 -15 -183l72 -20c8 16 29 30 50 30
c35 0 55 -21 55 -52s-19 -54 -54 -54c-31 0 -54 22 -58 53l-70 -16c7 -65 61 -102 128 -102c79 0 124 48 124 123z" />
    <glyph glyph-name="uni278F" unicode="&#x278f;" horiz-adv-x="780" 
d="M40 350c-4 189 161 354 350 350c189 4 354 -161 350 -350c4 -189 -161 -354 -350 -350c-189 -4 -354 161 -350 350zM512 295c0 63 -46 107 -111 107c-39 0 -68 -17 -81 -45v6c0 67 29 101 69 101c32 0 57 -16 62 -44l59 16c-11 55 -54 88 -119 88
c-89 0 -137 -71 -137 -172c0 -109 50 -176 139 -176c68 0 119 48 119 119zM334 291c0 32 25 55 57 55c35 0 57 -22 57 -55c0 -32 -24 -55 -57 -55s-57 22 -57 55z" />
    <glyph glyph-name="uni2790" unicode="&#x2790;" horiz-adv-x="780" 
d="M40 350c-4 189 161 354 350 350c189 4 354 -161 350 -350c4 -189 -161 -354 -350 -350c-189 -4 -354 161 -350 350zM336 180h70c-4 28 -6 54 -6 78c0 95 37 154 106 202v60h-234v-65h147c-58 -50 -87 -120 -87 -211c0 -19 1 -40 4 -64z" />
    <glyph glyph-name="uni2791" unicode="&#x2791;" horiz-adv-x="780" 
d="M40 350c-4 189 161 354 350 350c189 4 354 -161 350 -350c4 -189 -161 -354 -350 -350c-189 -4 -354 161 -350 350zM521 282c0 43 -20 72 -61 89c27 16 41 38 41 66c0 52 -43 87 -111 87s-111 -35 -111 -87c0 -28 14 -50 41 -66c-41 -17 -61 -46 -61 -89
c0 -59 50 -106 131 -106s131 47 131 106zM341 435c0 25 20 39 49 39s49 -14 49 -39s-20 -39 -49 -39s-49 14 -49 39zM329 289c0 33 28 51 61 51s61 -18 61 -51s-28 -51 -61 -51s-61 18 -61 51z" />
    <glyph glyph-name="uni2792" unicode="&#x2792;" horiz-adv-x="780" 
d="M40 350c-4 189 161 354 350 350c189 4 354 -161 350 -350c4 -189 -161 -354 -350 -350c-189 -4 -354 161 -350 350zM527 354c0 107 -50 170 -137 170c-67 0 -119 -45 -119 -116c0 -56 41 -106 109 -106c39 0 66 16 81 47v-6c0 -72 -24 -107 -73 -107c-37 0 -60 18 -69 55
l-57 -18c12 -60 57 -97 126 -97c92 0 139 75 139 178zM335 411c0 32 24 53 57 53s57 -21 57 -53s-24 -53 -57 -53s-57 21 -57 53z" />
    <glyph glyph-name="zero.osf" horiz-adv-x="582" 
d="M291 -10c-151 0 -255 113 -255 260s104 260 255 260s255 -113 255 -260s-104 -260 -255 -260zM291 415c-87 0 -150 -65 -150 -165s63 -165 150 -165s150 65 150 165s-63 165 -150 165z" />
    <glyph glyph-name="one.osf" horiz-adv-x="513" 
d="M52 0v95h170v255c-14 -29 -38 -52 -72 -71c-34 -18 -68 -28 -103 -29l-15 105c109 5 179 64 200 145h95v-405h160v-95h-435z" />
    <glyph glyph-name="two.osf" horiz-adv-x="533" 
d="M240 221c120 37 156 58 156 111c0 49 -51 83 -126 83c-79 0 -131 -35 -131 -87c0 -23 9 -43 27 -61l-85 -60c-33 39 -47 76 -47 123c0 112 104 180 231 180c68 0 124 -15 169 -46s67 -74 67 -129c0 -76 -33 -123 -116 -156c-15 -6 -39 -14 -71 -23
c-60 -16 -95 -29 -119 -56h310v-100h-460c0 61 18 109 53 142c35 34 83 60 142 79z" />
    <glyph glyph-name="three.osf" horiz-adv-x="574" 
d="M20 2l100 45c5 -93 70 -155 162 -155c85 0 147 58 147 143s-59 142 -144 142c-39 0 -74 -14 -95 -35l-60 75l218 183h-298v100h457v-85l-208 -168c10 2 21 3 33 3c98 0 202 -79 202 -213c0 -144 -105 -245 -252 -245c-145 0 -241 86 -262 210z" />
    <glyph glyph-name="four.osf" horiz-adv-x="593" 
d="M350 -198v198h-316v110c57 39 96 82 117 128c22 46 33 106 33 180v82h105v-75c0 -149 -43 -255 -151 -330h212v211h105v-211h122v-95h-122v-198h-105z" />
    <glyph glyph-name="five.osf" horiz-adv-x="604" 
d="M529 500v-100h-345c0 -51 -7 -117 -22 -197c36 43 100 73 168 73c132 0 234 -85 234 -229c0 -147 -98 -255 -260 -255c-132 0 -246 74 -260 210l105 30c11 -85 63 -140 155 -140c97 0 155 61 155 145s-57 145 -150 145c-63 0 -121 -38 -140 -85l-115 26
c20 127 30 253 30 377h445z" />
    <glyph glyph-name="six.osf" horiz-adv-x="596" 
d="M38 345c0 202 93 365 279 365c137 0 219 -70 239 -186l-100 -32c-17 85 -61 123 -144 123c-87 0 -169 -76 -169 -250v-15c15 29 40 53 74 72s70 28 108 28c140 0 222 -111 222 -220c0 -143 -102 -240 -237 -240c-178 0 -272 150 -272 355zM442 220c0 80 -57 135 -142 135
c-71 0 -132 -56 -132 -130c0 -39 13 -72 40 -97s61 -38 102 -38c37 0 69 12 94 37s38 56 38 93z" />
    <glyph glyph-name="seven.osf" horiz-adv-x="531" 
d="M32 500h467v-90c-151 -96 -226 -232 -226 -447c0 -49 4 -103 12 -161h-118c-6 46 -9 90 -9 132c0 207 71 362 200 466h-326v100z" />
    <glyph glyph-name="eight.osf" horiz-adv-x="590" 
d="M40 200c0 88 47 161 135 190c-64 29 -95 79 -95 140c0 100 82 180 215 180s215 -80 215 -180c0 -61 -31 -111 -95 -140c88 -29 135 -102 135 -190c0 -113 -90 -210 -255 -210s-255 97 -255 210zM410 525c0 51 -47 90 -115 90s-115 -39 -115 -90c0 -56 46 -95 115 -95
s115 39 115 95zM445 215c0 35 -14 65 -42 89s-64 36 -108 36s-80 -12 -108 -36s-42 -54 -42 -89c0 -72 58 -125 150 -125s150 53 150 125z" />
    <glyph glyph-name="nine.osf" horiz-adv-x="599" 
d="M40 0l105 30c9 -93 63 -138 150 -138c109 0 166 93 166 249c0 17 0 30 -1 39c-27 -79 -89 -130 -180 -130c-149 0 -225 110 -225 220c0 143 100 240 235 240c95 0 163 -34 206 -103c43 -68 65 -154 65 -258c0 -97 -21 -181 -62 -251c-41 -71 -111 -106 -209 -106
c-72 0 -130 20 -173 59s-69 88 -77 149zM430 280c0 38 -13 70 -38 96s-58 39 -97 39c-79 0 -135 -59 -135 -140c0 -79 54 -130 135 -130c80 0 135 55 135 135z" />
    <glyph glyph-name="zero.osf.zero" horiz-adv-x="582" 
d="M546 250c0 -147 -104 -260 -255 -260s-255 113 -255 260s104 260 255 260s255 -113 255 -260zM141 250c0 -42 10 -77 31 -105l166 263c-13 5 -29 7 -47 7c-87 0 -150 -65 -150 -165zM441 250c0 42 -10 77 -31 105l-166 -263c13 -5 29 -7 47 -7c87 0 150 65 150 165z" />
    <glyph glyph-name="zero.tf" horiz-adv-x="620" 
d="M23 350c0 219 110 360 285 360s285 -141 285 -360s-110 -360 -285 -360s-285 141 -285 360zM488 350c0 78 -16 142 -47 191s-75 74 -133 74s-103 -25 -134 -74s-46 -112 -46 -191s15 -143 46 -192s76 -73 134 -73s102 25 133 74s47 113 47 191z" />
    <glyph glyph-name="one.tf" horiz-adv-x="620" 
d="M377 100h165v-100h-445v100h175v445c-20 -62 -104 -121 -175 -125l-20 115c107 11 186 65 205 165h95v-600z" />
    </font>
</defs>
</svg>
